<svg height="100mm" viewBox="0 0 100 100" width="100mm" xmlns="http://www.w3.org/2000/svg">
<path d="M-2.5,0 L-2.5,25 L-2.4519632,25.487726 L-2.3096988,25.956709 L-2.078674,26.388926 L-1.767767,26.767767 L-1.3889256,27.078674 L-0.9567086,27.309698 L-0.4877258,27.451963 L0,27.5 L25,27.5 L25.487726,27.451963 L25.956709,27.309698 L26.388926,27.078674 L26.767767,26.767767 L27.078674,26.388926 L27.309698,25.956709 L27.451963,25.487726 L27.5,25 L27.5,0 L27.451963,-0.4877258 L27.309698,-0.9567086 L27.078674,-1.3889256 L26.767767,-1.767767 L26.388926,-2.078674 L25.956709,-2.3096988 L25.487726,-2.4519632 L25,-2.5 L0,-2.5 L-0.4877258,-2.4519632 L-0.9567086,-2.3096988 L-1.3889256,-2.078674 L-1.767767,-1.767767 L-2.078674,-1.3889256 L-2.3096988,-0.9567086 L-2.4519632,-0.4877258 L-2.5,0 M2.5,2.5 L22.5,2.5 L22.5,22.5 L2.5,22.5 L2.5,2.5 M26.081585,-1.9587836 L26.958784,-1.0815842 M27.23946,-0.09380174 L25.093884,-2.2393773 M24.376154,-2.25 L27.25,0.62384564 M27.25,1.3309524 L23.669048,-2.25 M22.96194,-2.25 L27.25,2.0380592 M27.25,2.745166 L22.254833,-2.25 M21.547728,-2.25 L27.25,3.452273 M27.25,4.1593795 L20.84062,-2.25 M20.133514,-2.25 L27.25,4.8664865 M27.25,5.573593 L19.426407,-2.25 M18.7193,-2.25 L27.25,6.2806997 M27.25,6.987807 L22.74413,2.4819357 M22.518045,2.2558527 L18.012194,-2.25 M17.305086,-2.25 L21.805086,2.25 M22.75,3.1949134 L27.25,7.6949134 M27.25,8.40202 L22.75,3.9020202 M21.09798,2.25 L16.59798,-2.25 M15.890873,-2.25 L20.390873,2.25 M22.75,4.609127 L27.25,9.109127 M27.25,9.816234 L22.75,5.3162336 M19.683765,2.25 L15.183766,-2.25 M14.47666,-2.25 L18.97666,2.25 M22.75,6.0233407 L27.25,10.52334 M27.25,11.230448 L22.75,6.7304473 M18.269552,2.25 L13.769552,-2.25 M13.062446,-2.25 L17.562447,2.25 M22.75,7.4375544 L27.25,11.937554 M27.25,12.644661 L22.75,8.144661 M16.85534,2.25 L12.355339,-2.25 M11.648232,-2.25 L16.148232,2.25 M22.75,8.851768 L27.25,13.351768 M27.25,14.058874 L22.75,9.558874 M15.441126,2.25 L10.941126,-2.25 M10.234018,-2.25 L14.734018,2.25 M22.75,10.265982 L27.25,14.765982 M27.25,15.473088 L22.75,10.973088 M14.026912,2.25 L9.526912,-2.25 M8.819805,-2.25 L13.319805,2.25 M22.75,11.680195 L27.25,16.180195 M27.25,16.887302 L22.75,12.387301 M12.612699,2.25 L8.112699,-2.25 M7.4055915,-2.25 L11.905592,2.25 M22.75,13.094408 L27.25,17.594408 M27.25,18.301516 L22.75,13.801516 M11.198484,2.25 L6.698485,-2.25 M5.991378,-2.25 L10.491378,2.25 M22.75,14.508622 L27.25,19.008621 M27.25,19.715729 L22.75,15.215729 M9.784271,2.25 L5.2842712,-2.25 M4.5771646,-2.25 L9.077165,2.25 M22.75,15.922835 L27.25,20.422836 M27.25,21.129942 L22.75,16.629942 M8.370058,2.25 L3.8700576,-2.25 M3.162951,-2.25 L7.662951,2.25 M22.75,17.33705 L27.25,21.83705 M27.25,22.544155 L22.75,18.044155 M6.955844,2.25 L2.4558442,-2.25 M1.7487373,-2.25 L6.2487373,2.25 M22.75,18.751263 L27.25,23.251263 M27.25,23.95837 L22.75,19.45837 M5.5416307,2.25 L1.0416305,-2.25 M0.33452377,-2.25 L4.8345237,2.25 M22.75,20.165476 L27.25,24.665476 M27.215548,25.33813 L22.75,20.872583 M4.127417,2.25 L-0.3381505,-2.2155676 M-0.8904464,-2.0607567 L3.4203103,2.25 M22.75,21.579689 L27.060757,25.890446 M26.798515,26.335312 L22.75,22.286797 M2.7132034,2.25 L-1.3353126,-1.798516 M-1.6997957,-1.4558923 L2.2514632,2.4953666 M22.5046,22.748505 L26.455893,26.699795 M26.033453,26.984463 L21.79899,22.75 M2.25,3.2010102 L-1.9844624,-1.0334523 M-2.1799006,-0.52178377 L2.25,3.9081168 M21.091883,22.75 L25.521784,27.179901 M24.884777,27.25 L20.384777,22.75 M2.25,4.615224 L-2.25,0.11522369 M-2.25,0.8223305 L2.25,5.3223305 M19.67767,22.75 L24.17767,27.25 M23.470562,27.25 L18.970562,22.75 M2.25,6.029437 L-2.25,1.5294373 M-2.25,2.2365441 L2.25,6.736544 M18.263456,22.75 L22.763456,27.25 M22.056349,27.25 L17.556349,22.75 M2.25,7.4436507 L-2.25,2.9436507 M-2.25,3.6507576 L2.25,8.150758 M16.849243,22.75 L21.349243,27.25 M20.642136,27.25 L16.142136,22.75 M2.25,8.857864 L-2.25,4.3578644 M-2.25,5.064971 L2.25,9.564971 M15.435029,22.75 L19.935028,27.25 M19.227922,27.25 L14.727922,22.75 M2.25,10.272078 L-2.25,5.772078 M-2.25,6.4791846 L2.25,10.979185 M14.020815,22.75 L18.520815,27.25 M17.81371,27.25 L13.313708,22.75 M2.25,11.686292 L-2.25,7.1862917 M-2.25,7.8933983 L2.25,12.393398 M12.606602,22.75 L17.106602,27.25 M16.399494,27.25 L11.899495,22.75 M2.25,13.100505 L-2.25,8.600505 M-2.25,9.307611 L2.25,13.807611 M11.192389,22.75 L15.692389,27.25 M14.985281,27.25 L10.485281,22.75 M2.25,14.514719 L-2.25,10.014719 M-2.25,10.721826 L2.25,15.221826 M9.778174,22.75 L14.278174,27.25 M13.571068,27.25 L9.071068,22.75 M2.25,15.928932 L-2.25,11.428932 M-2.25,12.136039 L2.25,16.63604 M8.363961,22.75 L12.863961,27.25 M12.156855,27.25 L7.656854,22.75 M2.25,17.343145 L-2.25,12.843145 M-2.25,13.550253 L2.25,18.050253 M6.9497476,22.75 L11.449747,27.25 M10.7426405,27.25 L6.2426405,22.75 M2.25,18.757359 L-2.25,14.2573595 M-2.25,14.964466 L2.25,19.464466 M5.535534,22.75 L10.035534,27.25 M9.328427,27.25 L4.8284273,22.75 M2.25,20.171574 L-2.25,15.671573 M-2.25,16.37868 L2.25,20.87868 M4.1213202,22.75 L8.621321,27.25 M7.9142137,27.25 L3.4142137,22.75 M2.25,21.585787 L-2.25,17.085787 M-2.25,17.792892 L2.25,22.292892 M2.7071068,22.75 L7.2071066,27.25 M6.5,27.25 L-2.25,18.5 M-2.25,19.207108 L5.7928934,27.25 M5.0857863,27.25 L-2.25,19.914213 M-2.25,20.62132 L4.3786798,27.25 M3.671573,27.25 L-2.25,21.328426 M-2.25,22.035534 L2.964466,27.25 M2.2573593,27.25 L-2.25,22.742641 M-2.25,23.449747 L1.5502526,27.25 M0.8431457,27.25 L-2.25,24.156855 M-2.25,24.86396 L0.13603897,27.25 M-0.6933721,27.127695 L-2.1276958,25.693373" fill="none" id="outline-0" stroke="black" stroke-linecap="round" stroke-linejoin="round" stroke-width="0.5"/>
<path d="" fill="none" id="fill-0" stroke="red" stroke-linecap="round" stroke-linejoin="round" stroke-width="0.5"/>
<path d="M12.5,7.5 L13.475451,7.5960736 M13.475451,7.5960736 L14.413417,7.8806024 L15.277851,8.342652 L16.035534,8.964466 L16.657349,9.722149 L17.119398,10.586583 L17.403927,11.524549 L17.5,12.5 L17.403927,13.475451 L17.119398,14.413417 L16.657349,15.277851 L16.035534,16.035534 L15.277851,16.657349 L14.413417,17.119398 L13.475451,17.403927 L12.5,17.5 L11.524549,17.403927 L10.586583,17.119398 L9.722149,16.657349 L8.964466,16.035534 L8.342652,15.277851 L8.143245,14.904787 M8.143245,10.095213 L8.342652,9.722149 L8.964466,8.964466 L9.722149,8.342652 L10.586583,7.8806024 L11.524549,7.5960736 L12.5,7.5 L13.475451,7.5960736" fill="none" id="outline-1" stroke="blue" stroke-linecap="round" stroke-linejoin="round" stroke-width="0.5"/>
<path d="M14.502286,16.617407 L16.616581,14.503112 M16.945604,13.608402 L13.608402,16.945604 M12.933731,17.05459 L17.054535,12.933787 M17.081558,12.341078 L12.341151,17.081486 M11.8258,17.03115 L17.031174,11.825777 M16.935123,11.356142 L11.356142,16.935123 M10.9223995,16.80318 L16.80318,10.9223995 M16.633352,10.526542 L10.526761,16.633133 M10.158515,16.435696 L16.43629,10.157919 M16.214691,9.813833 L9.813501,16.215023 M9.502779,15.960059 L15.95991,9.502929 M15.6950445,9.202108 L9.202108,15.6950445 M8.947215,15.384253 L15.384253,8.947215 M15.073462,8.692321 L8.692321,15.073462 M9.8385725,13.361525 L14.7082,8.491897 M14.339697,8.294715 L9.985315,12.6490965 M9.961331,12.107394 L13.920299,8.148427 M13.486403,8.016637 L9.844623,11.658419 M9.664922,11.272433 L12.987231,7.9501243 M12.466387,7.905283 L9.435299,10.936371 M9.161204,10.644779 L11.839471,7.966513 M11.097852,8.142447 L8.843339,10.396959 M8.616294,10.058319 L10.058319,8.616294" fill="none" id="fill-1" stroke="yellow" stroke-linecap="round" stroke-linejoin="round" stroke-width="0.5"/>
<path d="M17.5,10 L17.987726,10.048037 M17.987726,10.048037 L18.456709,10.190301 L18.888926,10.421326 L19.267767,10.732233 L19.578674,11.111074 L19.809698,11.543291 L19.951963,12.012274 L20,12.5 L19.951963,12.987726 L19.809698,13.456709 L19.578674,13.888926 L19.267767,14.267767 L18.888926,14.578674 L18.456709,14.809699 L17.987726,14.951963 L17.5,15 L17.012274,14.951963 L16.543291,14.809699 L16.111074,14.578674 L15.732233,14.267767 L15.421326,13.888926 L15.190301,13.456709 L15.048037,12.987726 L15,12.5 L15.048037,12.012274 L15.190301,11.543291 L15.421326,11.111074 L15.732233,10.732233 L16.111074,10.421326 L16.543291,10.190301 L17.012274,10.048037 L17.5,10" fill="none" id="outline-2" stroke="red" stroke-linecap="round" stroke-linejoin="round" stroke-width="0.5"/>
<path d="M18.36867,14.402 L16.630667,14.402 M16.038256,14.002 L18.959908,14.002 M19.276821,13.602 L15.721357,13.602 M15.531003,13.202 L19.467997,13.202 M19.567654,12.802 L15.431346,12.802 M15.411417,12.402 L19.587582,12.402 M19.530912,12.002 L15.468087,12.002 M15.612357,11.602 L19.386902,11.602 M19.136038,11.202 L15.863139,11.202 M16.276922,10.802 L18.721903,10.802" fill="none" id="fill-2" stroke="green" stroke-linecap="round" stroke-linejoin="round" stroke-width="0.5"/>
<path d="M7.5,10 L7.9877257,10.048037 L8.456709,10.190301 L8.888926,10.421326 L9.267767,10.732233 L9.578674,11.111074 L9.809699,11.543291 L9.951963,12.012274 L10,12.5 L9.951963,12.987726 L9.809699,13.456709 L9.578674,13.888926 L9.267767,14.267767 L8.888926,14.578674 L8.456709,14.809699 L7.9877257,14.951963 L7.5,15 L7.0122743,14.951963 L6.5432916,14.809699 L6.1110744,14.578674 L5.732233,14.267767 L5.421326,13.888926 L5.190301,13.456709 L5.0480366,12.987726 L5,12.5 L5.0480366,12.012274 L5.190301,11.543291 L5.421326,11.111074 L5.732233,10.732233 L6.1110744,10.421326 L6.5432916,10.190301 L7.0122743,10.048037 L7.5,10 L7.9877257,10.048037 L7.5,10" fill="none" id="outline-3" stroke="blue" stroke-linecap="round" stroke-linejoin="round" stroke-width="0.5"/>
<path d="M0,0 L3,3" fill="none" id="outline-3" stroke="brown" stroke-linecap="round" stroke-linejoin="round" stroke-width="1"/>
<path d="M-0.35355338,2.6464467 L-0.4157348,2.722215 L-0.46193975,2.8086584 L-0.49039263,2.9024549 L-0.5,3 L-0.49039263,3.0975451 L-0.46193975,3.1913416 L-0.4157348,3.277785 L-0.35355338,3.3535533 L-0.27778512,3.4157348 L-0.19134171,3.4619398 L-0.09754516,3.4903927 L0,3.5 L0.09754516,3.4903927 L0.19134171,3.4619398 L0.27778512,3.4157348 L0.35355338,3.3535533 L3.3535533,0.35355338 L3.4157348,0.27778512 L3.4619398,0.19134171 L3.4903927,0.09754516 L3.5,0 L3.4903927,-0.09754516 L3.4619398,-0.19134171 L3.4157348,-0.27778512 L3.3535533,-0.35355338 L3.277785,-0.4157348 L3.1913416,-0.46193975 L3.0975451,-0.49039263 L3,-0.5 L2.9024549,-0.49039263 L2.8086584,-0.46193975 L2.722215,-0.4157348 L2.6464467,-0.35355338 L-0.35355338,2.6464467 M2.999,-0.45 L2.999,-0.45 M3.278,-0.35 L2.7208276,-0.35 M2.613,-0.25 L3.3730476,-0.25 M3.4214,-0.15 L2.513,-0.15 M2.413,-0.05 L3.4443183,-0.05 M3.4443183,0.05 L2.313,0.05 M2.213,0.15 L3.4219494,0.15 M3.3730588,0.25 L2.113,0.25 M2.013,0.35 L3.286,0.35 M3.186,0.45 L1.913,0.45 M1.813,0.55 L3.086,0.55 M2.986,0.65 L1.713,0.65 M1.613,0.75 L2.886,0.75 M2.786,0.85 L1.513,0.85 M1.413,0.95 L2.686,0.95 M2.586,1.05 L1.313,1.05 M1.213,1.15 L2.486,1.15 M2.386,1.25 L1.113,1.25 M1.013,1.35 L2.286,1.35 M2.186,1.45 L0.913,1.45 M0.813,1.55 L2.086,1.55 M1.986,1.65 L0.713,1.65 M0.613,1.75 L1.886,1.75 M1.786,1.85 L0.513,1.85 M0.413,1.95 L1.686,1.95 M1.586,2.05 L0.313,2.05 M0.213,2.15 L1.486,2.15 M1.386,2.25 L0.113,2.25 M0.013,2.35 L1.286,2.35 M1.186,2.45 L-0.087,2.45 M-0.187,2.55 L1.086,2.55 M0.986,2.65 L-0.287,2.65 M-0.37357143,2.75 L0.886,2.75 M0.786,2.85 L-0.4217,2.85 M-0.444382,2.95 L0.686,2.95 M0.586,3.05 L-0.44431818,3.05 M-0.42194936,3.15 L0.486,3.15 M0.386,3.25 L-0.37305883,3.25 M-0.278,3.35 L0.2781724,3.35" fill="none" id="outline-3" stroke="pink" stroke-linecap="round" stroke-linejoin="round" stroke-width="0.1"/>
<path d="M-1.231164,25.401655 L-1.2146659,25.498274 L-1.1796355,25.589817 L-1.1274189,25.672768 L-1.0600227,25.743938 L-0.9800371,25.800592 L-0.8905358,25.840553 L-0.7949582,25.862286 L-0.6969774,25.864954 L-0.60035866,25.848455 L-0.50881505,25.813425 L0.2236068,25.447214 L0.25362924,25.430897 L1.0251136,24.976795 L1.0474584,24.962837 L2.072849,24.284126 L2.0746088,24.282957 L3.290746,23.470577 L4.633991,22.615345 L6.043617,21.80505 L7.4552155,21.127672 L8.797423,20.66947 L9.999097,20.504797 L11.162814,20.668514 L12.416449,21.123129 L13.72381,21.798048 L15.043391,22.608992 L16.339943,23.468502 L16.340767,23.469048 L17.576118,24.284477 L17.5954,24.296583 L18.733095,24.975294 L18.78435,25.001984 L19.795092,25.456085 L19.871332,25.483162 L20.76977,25.72242 L20.830618,25.734636 L21.65093,25.846941 L21.708883,25.851465 L22.45107,25.866114 L22.501247,25.864584 L23.16531,25.810873 L23.203192,25.806349 L23.78913,25.713575 L23.809902,25.709835 L24.315653,25.607712 L24.720205,25.52956 L25.048384,25.497654 L25.14454,25.478653 L25.235144,25.441257 L25.316711,25.386904 L25.386106,25.317682 L25.440664,25.236252 L25.478287,25.145744 L25.49753,25.049635 L25.497654,24.951616 L25.478653,24.85546 L25.441257,24.764856 L25.386904,24.683289 L25.317682,24.613894 L25.236252,24.559336 L25.145744,24.521713 L25.049635,24.50247 L24.951616,24.502346 L24.600054,24.536526 L24.5536,24.543257 L24.123913,24.626265 L24.119785,24.627079 L23.62232,24.72753 L23.065662,24.815666 L22.445677,24.865812 L21.757725,24.852234 L20.99706,24.748096 L20.167887,24.527283 L19.220566,24.101675 L18.117504,23.443624 L16.892067,22.63474 L15.588769,21.770756 L15.574289,21.76151 L14.231516,20.936316 L14.199089,20.918015 L12.84655,20.219772 L12.787644,20.194016 L11.454637,19.710617 L11.353836,19.68554 L10.069656,19.504875 L9.932116,19.50463 L8.613756,19.685293 L8.520104,19.707478 L7.104089,20.190876 L7.049309,20.213278 L5.5942307,20.91152 L5.5613666,20.92882 L4.1258197,21.754015 L4.106464,21.765732 L2.7490423,22.62999 L2.7398443,22.635988 L1.5200199,23.450832 L0.5064988,24.121685 L-0.23889695,24.56043 L-0.9560287,24.918997 L-1.0389792,24.971214 L-1.1101489,25.03861 L-1.1668026,25.118595 L-1.2067635,25.208097 L-1.2284957,25.303675 L-1.231164,25.401655 M9.938,19.554 L10.062,19.554 M10.7702875,19.654 L9.206889,19.654 M8.539272,19.754 L11.421583,19.754 M11.703743,19.854 L8.243335,19.854 M7.950819,19.954 L11.979261,19.954 M12.25478,20.054 L7.6583037,20.054 M7.365788,20.154 L12.530299,20.154 M12.801545,20.254 L7.079727,20.254 M6.8690834,20.354 L12.997448,20.354 M13.191278,20.454 L6.66075,20.454 M6.452417,20.554 L9.266402,20.554 M10.708055,20.554 L13.385109,20.554 M13.578939,20.654 L11.26995,20.654 M8.687236,20.654 L6.2440834,20.654 M6.03575,20.754 L8.394222,20.754 M11.545554,20.754 L13.772771,20.754 M13.966601,20.854 L11.821158,20.854 M8.10121,20.854 L5.827417,20.854 M5.6190834,20.954 L7.8081965,20.954 M12.096763,20.954 L14.160432,20.954 M14.328909,21.054 L12.372367,21.054 M7.5151834,21.054 L5.44327,21.054 M5.26921,21.154 L7.2828317,21.154 M12.586159,21.154 L14.491454,21.154 M14.654,21.254 L12.779788,21.254 M7.0742645,21.254 L5.095149,21.254 M4.9210887,21.354 L6.8656974,21.354 M12.973418,21.354 L14.8165455,21.354 M14.979091,21.454 L13.1670475,21.454 M6.65713,21.454 L4.747028,21.454 M4.572967,21.554 L6.4485626,21.554 M13.360677,21.554 L15.141636,21.554 M15.304182,21.654 L13.554307,21.654 M6.2399955,21.654 L4.3989067,21.654 M4.224846,21.754 L6.0314283,21.754 M13.747,21.754 L15.466727,21.754 M15.62434,21.854 L13.910134,21.854 M5.856226,21.854 L4.0588055,21.854 M3.9018612,21.954 L5.6822753,21.954 M14.072896,21.954 L15.77515,21.954 M15.925961,22.054 L14.235659,22.054 M5.5083246,22.054 L3.7449167,22.054 M3.5879722,22.154 L5.334374,22.154 M14.39842,22.154 L16.07677,22.154 M16.227581,22.254 L14.561182,22.254 M5.1604233,22.254 L3.431028,22.254 M3.2740834,22.354 L4.9864726,22.354 M14.723945,22.354 L16.378391,22.354 M16.529202,22.454 L14.886706,22.454 M4.8125224,22.454 L3.1171389,22.454 M2.9601943,22.554 L4.6385717,22.554 M15.049469,22.554 L16.680012,22.554 M16.830822,22.654 L15.20226,22.654 M4.479674,22.654 L2.80325,22.654 M2.6517363,22.754 L4.3224807,22.754 M15.353132,22.754 L16.98211,22.754 M17.13353,22.854 L15.504005,22.854 M4.1652875,22.854 L2.502043,22.854 M2.3523498,22.954 L4.008095,22.954 M15.654879,22.954 L17.284952,22.954 M17.436373,23.054 L15.805752,23.054 M3.8509018,23.054 L2.2026565,23.054 M2.0529633,23.154 L3.6937087,23.154 M15.956625,23.154 L17.587795,23.154 M17.739216,23.254 L16.107498,23.254 M3.5365157,23.254 L1.9032699,23.254 M1.7535766,23.354 L3.3793228,23.354 M16.258371,23.354 L17.890638,23.354 M18.042059,23.454 L16.407948,23.454 M3.2245462,23.454 L1.6038834,23.454 M1.4533994,23.554 L3.074731,23.554 M16.559603,23.554 L18.204988,23.554 M18.372618,23.654 L16.71126,23.654 M2.9249163,23.654 L1.3024307,23.654 M1.151462,23.754 L2.7751012,23.754 M16.862917,23.754 L18.540247,23.754 M18.707876,23.854 L17.014572,23.854 M2.625286,23.854 L1.0004933,23.854 M0.8495246,23.954 L2.475471,23.954 M17.16623,23.954 L18.875505,23.954 M19.043135,24.054 L17.317886,24.054 M2.325656,24.054 L0.6985559,24.054 M0.54758716,24.154 L2.1758409,24.154 M17.469542,24.154 L19.215597,24.154 M19.438421,24.254 L17.622673,24.254 M2.0268583,24.254 L0.37847152,24.254 M0.20899545,24.354 L1.8756784,24.354 M17.79003,24.354 L19.661245,24.354 M19.884068,24.454 L17.957386,24.454 M1.7244985,24.454 L0.039519362,24.454 M-0.12995672,24.554 L1.5733186,24.554 M18.12474,24.554 L20.106892,24.554 M24.93553,24.554 L25.054354,24.554 M25.287,24.654 L24.241795,24.654 M20.45134,24.654 L18.292097,24.654 M1.4221387,24.654 L-0.31413764,24.654 M-0.51441854,24.754 L1.2709587,24.754 M18.459454,24.754 L20.826452,24.754 M23.74134,24.754 L25.373493,24.754 M25.423697,24.854 L23.141842,24.854 M21.406538,24.854 L18.62681,24.854 M1.1197788,24.854 L-0.71469945,24.854 M-0.91498035,24.954 L0.963351,24.954 M18.801332,24.954 L25.446596,24.954 M25.445068,25.054 L19.021973,25.054 M0.7935938,25.054 L-1.0539032,25.054 M-1.1278889,25.154 L0.62383664,25.154 M19.244862,25.154 L25.420765,25.154 M25.367918,25.254 L19.46775,25.254 M0.45407948,25.254 L-1.165628,25.254 M-1.1795903,25.354 L0.2843223,25.354 M19.69064,25.354 L25.274431,25.354 M24.97125,25.454 L19.95881,25.454 M0.09714208,25.454 L-1.171184,25.454 M-1.1385385,25.554 L-0.1025847,25.554 M20.33287,25.554 L24.326717,25.554 M23.829706,25.654 L20.706928,25.654 M-0.30231148,25.654 L-1.0753824,25.654 M-0.95841306,25.754 L-0.50203824,25.754 M21.340893,25.754 L23.207718,25.754" fill="none" id="outline-3" stroke="purple" stroke-linecap="round" stroke-linejoin="round" stroke-width="0.1"/>
<path d="M28.198942,21.835836 L28.164164,21.801058 L27.006218,20.751808 L26.96702,20.71975 L25.744879,19.819515 L25.698622,19.789238 L24.459251,19.072618 L24.401842,19.044165 L23.192871,18.538696 L23.11798,18.514118 L21.985867,18.239225 L21.884558,18.225386 L20.87281,18.191633 L20.737255,18.205696 L19.884754,18.414381 L19.80182,18.442583 L19.725082,18.484823 L19.064589,18.927927 L18.989592,18.989592 L18.927927,19.064589 L18.484823,19.725082 L18.442583,19.80182 L18.414381,19.884754 L18.205696,20.737255 L18.191633,20.87281 L18.225386,21.884558 L18.239225,21.985867 L18.514118,23.11798 L18.538696,23.192871 L19.044165,24.401842 L19.072618,24.459251 L19.789238,25.698622 L19.819515,25.744879 L20.71975,26.96702 L20.751808,27.006218 L21.801058,28.164164 L21.835836,28.198942 L22.993782,29.248192 L23.03298,29.28025 L24.255121,30.180485 L24.301378,30.210762 L25.540749,30.927382 L25.598158,30.955835 L26.807129,31.461304 L26.88202,31.485882 L28.014133,31.760775 L28.115442,31.774614 L29.12719,31.808367 L29.262745,31.794304 L30.115246,31.585619 L30.19818,31.557417 L30.274918,31.515177 L30.935411,31.072073 L31.010408,31.010408 L31.072073,30.935411 L31.515177,30.274918 L31.557417,30.19818 L31.585619,30.115246 L31.794304,29.262745 L31.808367,29.12719 L31.774614,28.115442 L31.760775,28.014133 L31.485882,26.88202 L31.461304,26.807129 L30.955835,25.598158 L30.927382,25.540749 L30.210762,24.301378 L30.180485,24.255121 L29.28025,23.03298 L29.248192,22.993782 L28.198942,21.835836 L28.198942,21.835836 M28.322641,23.461618 L28.490139,23.646467 L29.358917,24.825905 L30.04561,26.013517 L30.523447,27.156397 L30.776884,28.200148 L30.80663,29.091785 L30.635368,29.791397 L30.296507,30.296507 L29.791397,30.635368 L29.091785,30.80663 L28.200148,30.776884 L27.156397,30.523447 L26.013517,30.04561 L24.825905,29.358917 L23.646467,28.490139 L22.525555,27.474445 L21.509861,26.353533 L20.641083,25.174095 L19.95439,23.986483 L19.476553,22.843603 L19.223116,21.799852 L19.19337,20.908215 L19.364632,20.208603 L19.703493,19.703493 L20.208603,19.364632 L20.908215,19.19337 L21.799852,19.223116 L22.843603,19.476553 L23.986483,19.95439 L25.174095,20.641083 L26.353533,21.509861 L27.474445,22.525555 L28.322641,23.461618 M22.195406,18.341 L20.391014,18.341 M19.981836,18.441 L22.607494,18.441 M23.019583,18.541 L19.729618,18.541 M19.580532,18.641 L23.30939,18.641 M23.548277,18.741 L19.431446,18.741 M19.282358,18.841 L23.787167,18.841 M24.026056,18.941 L19.133272,18.941 M19.011627,19.041 L24.264944,19.041 M24.47848,19.141 L18.93611,19.141 M18.868986,19.241 L20.501232,19.241 M22.087475,19.241 L24.651308,19.241 M24.824137,19.341 L22.500122,19.341 M20.153107,19.341 L18.801863,19.341 M18.73474,19.441 L20.003698,19.441 M22.888304,19.441 L24.996967,19.441 M25.169796,19.541 L23.127424,19.541 M19.85429,19.541 L18.667616,19.541 M18.600492,19.641 L19.704882,19.641 M23.366547,19.641 L25.342625,19.641 M25.515453,19.741 L23.605667,19.741 M19.616825,19.741 L18.53337,19.741 M18.481098,19.841 L19.549894,19.841 M23.84479,19.841 L25.686333,19.841 M25.826475,19.941 L24.062954,19.941 M19.482964,19.941 L18.451002,19.941 M18.42656,20.041 L19.416033,20.041 M24.236132,20.041 L25.96207,20.041 M26.097666,20.141 L24.40931,20.141 M19.349102,20.141 L18.402117,20.141 M18.377676,20.241 L19.304943,20.241 M24.582487,20.241 L26.233261,20.241 M26.368856,20.341 L24.755665,20.341 M19.28037,20.341 L18.353233,20.341 M18.328793,20.441 L19.2558,20.441 M24.928843,20.441 L26.504452,20.441 M26.640047,20.541 L25.10202,20.541 M19.231228,20.541 L18.30435,20.541 M18.27991,20.641 L19.206657,20.641 M25.258673,20.641 L26.775642,20.641 M26.911238,20.741 L25.39446,20.741 M19.182085,20.741 L18.255466,20.741 M18.244377,20.841 L19.157515,20.841 M25.53025,20.841 L27.030462,20.841 M27.140768,20.941 L25.666039,20.941 M19.144075,20.941 L18.24326,20.941 M18.246634,21.041 L19.14744,21.041 M25.801826,21.041 L27.251072,21.041 M27.361378,21.141 L25.937614,21.141 M19.150803,21.141 L18.250006,21.141 M18.25338,21.241 L19.154165,21.241 M26.073402,21.241 L27.471684,21.241 M27.58199,21.341 L26.20919,21.341 M19.15753,21.341 L18.256752,21.341 M18.260124,21.441 L19.160892,21.441 M26.34498,21.441 L27.692293,21.441 M27.802599,21.541 L26.46313,21.541 M19.164255,21.541 L18.263498,21.541 M18.26687,21.641 L19.16762,21.641 M26.573465,21.641 L27.912905,21.641 M28.02321,21.741 L26.6838,21.741 M19.170982,21.741 L18.270245,21.741 M18.273617,21.841 L19.18127,21.841 M26.794134,21.841 L28.133,21.841 M28.226273,21.941 L26.904469,21.941 M19.205503,21.941 L18.282696,21.941 M18.303274,22.041 L19.229738,22.041 M27.014805,22.041 L28.31693,22.041 M28.407589,22.141 L27.12514,22.141 M19.253971,22.141 L18.327566,22.141 M18.351856,22.241 L19.278206,22.241 M27.235474,22.241 L28.498245,22.241 M28.588903,22.341 L27.345808,22.341 M19.302439,22.341 L18.376146,22.341 M18.400438,22.441 L19.326672,22.441 M27.456142,22.441 L28.67956,22.441 M28.770218,22.541 L27.556252,22.541 M19.350906,22.541 L18.424728,22.541 M18.44902,22.641 L19.37514,22.641 M27.646753,22.641 L28.860876,22.641 M28.951532,22.741 L27.737253,22.741 M19.399374,22.741 L18.47331,22.741 M18.4976,22.841 L19.423607,22.841 M27.827755,22.841 L29.04219,22.841 M29.132847,22.941 L27.918257,22.941 M19.463037,22.941 L18.521893,22.941 M18.546183,23.041 L19.504858,23.041 M28.008759,23.041 L29.222258,23.041 M29.297262,23.141 L28.09926,23.141 M19.546677,23.141 L18.574,23.141 M18.612768,23.241 L19.588497,23.241 M28.189762,23.241 L29.37101,23.241 M29.44476,23.341 L28.280264,23.341 M19.630316,23.341 L18.654594,23.341 M18.69642,23.441 L19.672136,23.441 M28.370869,23.441 L29.518509,23.441 M29.592258,23.541 L28.462173,23.541 M19.713957,23.541 L18.738245,23.541 M18.780071,23.641 L19.755775,23.641 M28.54841,23.641 L29.666006,23.641 M29.739756,23.741 L28.622055,23.741 M19.797596,23.741 L18.821898,23.741 M18.863724,23.841 L19.839417,23.841 M28.6957,23.841 L29.813505,23.841 M29.887253,23.941 L28.769342,23.941 M19.881235,23.941 L18.905548,23.941 M18.947374,24.041 L19.928324,24.041 M28.842987,24.041 L29.961002,24.041 M30.034752,24.141 L28.916632,24.141 M19.986067,24.141 L18.9892,24.141 M19.031025,24.241 L20.043812,24.241 M28.990276,24.241 L30.1085,24.241 M30.175684,24.341 L29.06392,24.341 M20.101555,24.341 L19.072851,24.341 M19.119051,24.441 L20.1593,24.441 M29.137564,24.441 L30.23358,24.441 M30.291473,24.541 L29.211208,24.541 M20.217043,24.541 L19.176933,24.541 M19.234816,24.641 L20.274788,24.641 M29.284851,24.641 L30.34937,24.641 M30.407263,24.741 L29.358496,24.741 M20.332533,24.741 L19.292698,24.741 M19.35058,24.841 L20.390276,24.841 M29.425674,24.841 L30.465158,24.841 M30.523052,24.941 L29.48342,24.941 M20.44802,24.941 L19.408463,24.941 M19.466343,25.041 L20.505764,25.041 M29.541162,25.041 L30.580948,25.041 M30.638842,25.141 L29.598907,25.141 M20.563509,25.141 L19.524225,25.141 M19.582108,25.241 L20.627985,25.241 M29.656652,25.241 L30.696737,25.241 M30.754631,25.341 L29.714396,25.341 M20.70163,25.341 L19.63999,25.341 M19.697872,25.441 L20.775272,25.441 M29.77214,25.441 L30.812527,25.441 M30.87042,25.541 L29.829884,25.541 M20.848917,25.541 L19.755753,25.541 M19.813635,25.641 L20.922562,25.641 M29.887629,25.641 L30.919046,25.641 M30.960907,25.741 L29.945372,25.741 M20.996204,25.741 L19.877962,25.741 M19.951712,25.841 L21.069849,25.841 M30.003117,25.841 L31.002768,25.841 M31.044628,25.941 L30.06086,25.941 M21.143494,25.941 L20.02546,25.941 M20.099209,26.041 L21.217136,26.041 M30.110655,26.041 L31.086489,26.041 M31.12835,26.141 L30.152475,26.141 M21.290781,26.141 L20.172958,26.141 M20.246708,26.241 L21.364426,26.241 M30.194294,26.241 L31.17021,26.241 M31.21207,26.341 L30.236115,26.341 M21.43807,26.341 L20.320456,26.341 M20.394205,26.441 L21.520943,26.441 M30.277935,26.441 L31.253931,26.441 M31.295792,26.541 L30.319754,26.541 M21.611576,26.541 L20.467955,26.541 M20.541702,26.641 L21.70221,26.641 M30.361574,26.641 L31.33765,26.641 M31.37951,26.741 L30.403393,26.741 M21.792843,26.741 L20.615452,26.741 M20.689201,26.841 L21.883476,26.841 M30.445213,26.841 L31.419422,26.841 M31.44867,26.941 L30.487034,26.941 M21.97411,26.941 L20.763315,26.941 M20.850554,27.041 L22.064743,27.041 M30.528852,27.041 L31.472982,27.041 M31.497295,27.141 L30.56975,27.141 M22.155376,27.141 L20.941212,27.141 M21.031868,27.241 L22.24601,27.241 M30.595507,27.241 L31.521606,27.241 M31.54592,27.341 L30.61974,27.341 M22.336643,27.341 L21.122526,27.341 M21.213182,27.441 L22.427275,27.441 M30.643974,27.441 L31.570232,27.441 M31.594543,27.541 L30.668207,27.541 M22.524101,27.541 L21.30384,27.541 M21.394499,27.641 L22.634436,27.641 M30.692442,27.641 L31.618856,27.641 M31.64317,27.741 L30.716675,27.741 M22.74477,27.741 L21.485155,27.741 M21.575813,27.841 L22.855104,27.841 M30.74091,27.841 L31.66748,27.841 M31.691793,27.941 L30.765142,27.941 M22.965439,27.941 L21.666471,27.941 M21.757128,28.041 L23.075773,28.041 M30.789377,28.041 L31.713844,28.041 M31.724812,28.141 L30.81361,28.141 M23.186108,28.141 L21.849,28.141 M21.957245,28.241 L23.296442,28.241 M30.827446,28.241 L31.728195,28.241 M31.731579,28.341 L30.830809,28.341 M23.406778,28.341 L22.067549,28.341 M22.177855,28.441 L23.517113,28.441 M30.834173,28.441 L31.73496,28.441 M31.738344,28.541 L30.837536,28.541 M23.630938,28.541 L22.28816,28.541 M22.398466,28.641 L23.766726,28.641 M30.840899,28.641 L31.741728,28.641 M31.74511,28.741 L30.844263,28.741 M23.902514,28.741 L22.508772,28.741 M22.619076,28.841 L24.038301,28.841 M30.847626,28.841 L31.748493,28.841 M31.751877,28.941 L30.850988,28.941 M24.17409,28.941 L22.729382,28.941 M22.839687,29.041 L24.309877,29.041 M30.854353,29.041 L31.75526,29.041 M31.756071,29.141 L30.845663,29.141 M24.445665,29.141 L22.949993,29.141 M23.064713,29.241 L24.581455,29.241 M30.82109,29.241 L31.745914,29.241 M31.722813,29.341 L30.79652,29.341 M24.717243,29.341 L23.200308,29.341 M23.335901,29.441 L24.867538,29.441 M30.771948,29.441 L31.698431,29.441 M31.67405,29.541 L30.747377,29.541 M25.040718,29.541 L23.471497,29.541 M23.607092,29.641 L25.213896,29.641 M30.722805,29.641 L31.649668,29.641 M31.625286,29.741 L30.698235,29.741 M25.387074,29.741 L23.742687,29.741 M23.878283,29.841 L25.560251,29.841 M30.661276,29.841 L31.600904,29.841 M31.576523,29.941 L30.594345,29.941 M25.733429,29.941 L24.013878,29.941 M24.149473,30.041 L25.906607,30.041 M30.527414,30.041 L31.552141,30.041 M31.524,30.141 L30.460484,30.141 M26.11356,30.141 L24.286655,30.141 M24.453817,30.241 L26.352682,30.241 M30.393553,30.241 L31.476288,30.241 M31.409807,30.341 L30.319517,30.341 M26.591803,30.341 L24.626545,30.341 M24.799273,30.441 L26.830925,30.441 M30.170109,30.441 L31.342583,30.441 M31.275356,30.541 L30.0207,30.541 M27.070045,30.541 L24.972,30.541 M25.144728,30.641 L27.428728,30.641 M29.871292,30.641 L31.208132,30.641 M31.140905,30.741 L29.566954,30.741 M27.841375,30.741 L25.317455,30.741 M25.490181,30.841 L28.644,30.841 M29.159977,30.841 L31.073679,30.841 M31.001423,30.941 L25.693445,30.941 M25.932333,31.041 L30.890612,31.041 M30.741632,31.141 L26.171223,31.141 M26.41011,31.241 L30.592653,31.241 M30.443674,31.341 L26.649,31.341 M26.909363,31.441 L30.294693,31.441 M30.086725,31.541 L27.321451,31.541 M27.733538,31.641 L29.677546,31.641 M29.268368,31.741 L28.62,31.741" fill="none" id="outline-3" stroke="cyan" stroke-linecap="round" stroke-linejoin="round" stroke-width="0.1"/>
<path d="M80,60 L94.142136,65.857864 L100,80 L94.142136,94.142136 L80,100 L65.857864,94.142136 L60,80 L65.857864,65.857864 L80,60 L94.142136,65.857864 L80,60" fill="none" id="outline-3" stroke="green" stroke-linecap="round" stroke-linejoin="round" stroke-width="0.1"/>
<path d="M30,60 L35.877853,71.90983 L49.02113,73.81966 L39.510567,83.09017 L41.755707,96.18034 L30,90 L18.244295,96.18034 L20.489435,83.09017 L10.978869,73.81966 L24.122147,71.90983 L30,60" fill="none" id="outline-3" stroke="green" stroke-linecap="round" stroke-linejoin="round" stroke-width="0.1"/>
</svg>