<svg height="100mm" viewBox="0 0 100 100" width="100mm" xmlns="http://www.w3.org/2000/svg">
<path d="M-2.5,0 L-2.5,25 L-2.4519632,25.487726 L-2.3096988,25.956709 L-2.078674,26.388926 L-1.767767,26.767767 L-1.3889256,27.078674 L-0.9567086,27.309698 L-0.4877258,27.451963 L0,27.5 L25,27.5 L25.487726,27.451963 L25.956709,27.309698 L26.388926,27.078674 L26.767767,26.767767 L27.078674,26.388926 L27.309698,25.956709 L27.451963,25.487726 L27.5,25 L27.5,0 L27.451963,-0.4877258 L27.309698,-0.9567086 L27.078674,-1.3889256 L26.767767,-1.767767 L26.388926,-2.078674 L25.956709,-2.3096988 L25.487726,-2.4519632 L25,-2.5 L0,-2.5 L-0.4877258,-2.4519632 L-0.9567086,-2.3096988 L-1.3889256,-2.078674 L-1.767767,-1.767767 L-2.078674,-1.3889256 L-2.3096988,-0.9567086 L-2.4519632,-0.4877258 L-2.5,0 M2.5,2.5 L22.5,2.5 L22.5,22.5 L2.5,22.5 L2.5,2.5 M26.081585,-1.9587836 L26.958784,-1.0815842 M27.23946,-0.09380174 L25.093884,-2.2393773 M24.376154,-2.25 L27.25,0.62384564 M27.25,1.3309524 L23.669048,-2.25 M22.96194,-2.25 L27.25,2.0380592 M27.25,2.745166 L22.254833,-2.25 M21.547728,-2.25 L27.25,3.452273 M27.25,4.1593795 L20.84062,-2.25 M20.133514,-2.25 L27.25,4.8664865 M27.25,5.573593 L19.426407,-2.25 M18.7193,-2.25 L27.25,6.2806997 M27.25,6.987807 L22.74413,2.4819357 M22.518045,2.2558527 L18.012194,-2.25 M17.305086,-2.25 L21.805086,2.25 M22.75,3.1949134 L27.25,7.6949134 M27.25,8.40202 L22.75,3.9020202 M21.09798,2.25 L16.59798,-2.25 M15.890873,-2.25 L20.390873,2.25 M22.75,4.609127 L27.25,9.109127 M27.25,9.816234 L22.75,5.3162336 M19.683765,2.25 L15.183766,-2.25 M14.47666,-2.25 L18.97666,2.25 M22.75,6.0233407 L27.25,10.52334 M27.25,11.230448 L22.75,6.7304473 M18.269552,2.25 L13.769552,-2.25 M13.062446,-2.25 L17.562447,2.25 M22.75,7.4375544 L27.25,11.937554 M27.25,12.644661 L22.75,8.144661 M16.85534,2.25 L12.355339,-2.25 M11.648232,-2.25 L16.148232,2.25 M22.75,8.851768 L27.25,13.351768 M27.25,14.058874 L22.75,9.558874 M15.441126,2.25 L10.941126,-2.25 M10.234018,-2.25 L14.734018,2.25 M22.75,10.265982 L27.25,14.765982 M27.25,15.473088 L22.75,10.973088 M14.026912,2.25 L9.526912,-2.25 M8.819805,-2.25 L13.319805,2.25 M22.75,11.680195 L27.25,16.180195 M27.25,16.887302 L22.75,12.387301 M12.612699,2.25 L8.112699,-2.25 M7.4055915,-2.25 L11.905592,2.25 M22.75,13.094408 L27.25,17.594408 M27.25,18.301516 L22.75,13.801516 M11.198484,2.25 L6.698485,-2.25 M5.991378,-2.25 L10.491378,2.25 M22.75,14.508622 L27.25,19.008621 M27.25,19.715729 L22.75,15.215729 M9.784271,2.25 L5.2842712,-2.25 M4.5771646,-2.25 L9.077165,2.25 M22.75,15.922835 L27.25,20.422836 M27.25,21.129942 L22.75,16.629942 M8.370058,2.25 L3.8700576,-2.25 M3.162951,-2.25 L7.662951,2.25 M22.75,17.33705 L27.25,21.83705 M27.25,22.544155 L22.75,18.044155 M6.955844,2.25 L2.4558442,-2.25 M1.7487373,-2.25 L6.2487373,2.25 M22.75,18.751263 L27.25,23.251263 M27.25,23.95837 L22.75,19.45837 M5.5416307,2.25 L1.0416305,-2.25 M0.33452377,-2.25 L4.8345237,2.25 M22.75,20.165476 L27.25,24.665476 M27.215548,25.33813 L22.75,20.872583 M4.127417,2.25 L-0.3381505,-2.2155676 M-0.8904464,-2.0607567 L3.4203103,2.25 M22.75,21.579689 L27.060757,25.890446 M26.798515,26.335312 L22.75,22.286797 M2.7132034,2.25 L-1.3353126,-1.798516 M-1.6997957,-1.4558923 L2.2514632,2.4953666 M22.5046,22.748505 L26.455893,26.699795 M26.033453,26.984463 L21.79899,22.75 M2.25,3.2010102 L-1.9844624,-1.0334523 M-2.1799006,-0.52178377 L2.25,3.9081168 M21.091883,22.75 L25.521784,27.179901 M24.884777,27.25 L20.384777,22.75 M2.25,4.615224 L-2.25,0.11522369 M-2.25,0.8223305 L2.25,5.3223305 M19.67767,22.75 L24.17767,27.25 M23.470562,27.25 L18.970562,22.75 M2.25,6.029437 L-2.25,1.5294373 M-2.25,2.2365441 L2.25,6.736544 M18.263456,22.75 L22.763456,27.25 M22.056349,27.25 L17.556349,22.75 M2.25,7.4436507 L-2.25,2.9436507 M-2.25,3.6507576 L2.25,8.150758 M16.849243,22.75 L21.349243,27.25 M20.642136,27.25 L16.142136,22.75 M2.25,8.857864 L-2.25,4.3578644 M-2.25,5.064971 L2.25,9.564971 M15.435029,22.75 L19.935028,27.25 M19.227922,27.25 L14.727922,22.75 M2.25,10.272078 L-2.25,5.772078 M-2.25,6.4791846 L2.25,10.979185 M14.020815,22.75 L18.520815,27.25 M17.81371,27.25 L13.313708,22.75 M2.25,11.686292 L-2.25,7.1862917 M-2.25,7.8933983 L2.25,12.393398 M12.606602,22.75 L17.106602,27.25 M16.399494,27.25 L11.899495,22.75 M2.25,13.100505 L-2.25,8.600505 M-2.25,9.307611 L2.25,13.807611 M11.192389,22.75 L15.692389,27.25 M14.985281,27.25 L10.485281,22.75 M2.25,14.514719 L-2.25,10.014719 M-2.25,10.721826 L2.25,15.221826 M9.778174,22.75 L14.278174,27.25 M13.571068,27.25 L9.071068,22.75 M2.25,15.928932 L-2.25,11.428932 M-2.25,12.136039 L2.25,16.63604 M8.363961,22.75 L12.863961,27.25 M12.156855,27.25 L7.656854,22.75 M2.25,17.343145 L-2.25,12.843145 M-2.25,13.550253 L2.25,18.050253 M6.9497476,22.75 L11.449747,27.25 M10.7426405,27.25 L6.2426405,22.75 M2.25,18.757359 L-2.25,14.2573595 M-2.25,14.964466 L2.25,19.464466 M5.535534,22.75 L10.035534,27.25 M9.328427,27.25 L4.8284273,22.75 M2.25,20.171574 L-2.25,15.671573 M-2.25,16.37868 L2.25,20.87868 M4.1213202,22.75 L8.621321,27.25 M7.9142137,27.25 L3.4142137,22.75 M2.25,21.585787 L-2.25,17.085787 M-2.25,17.792892 L2.25,22.292892 M2.7071068,22.75 L7.2071066,27.25 M6.5,27.25 L-2.25,18.5 M-2.25,19.207108 L5.7928934,27.25 M5.0857863,27.25 L-2.25,19.914213 M-2.25,20.62132 L4.3786798,27.25 M3.671573,27.25 L-2.25,21.328426 M-2.25,22.035534 L2.964466,27.25 M2.2573593,27.25 L-2.25,22.742641 M-2.25,23.449747 L1.5502526,27.25 M0.8431457,27.25 L-2.25,24.156855 M-2.25,24.86396 L0.13603897,27.25 M-0.6933721,27.127695 L-2.1276958,25.693373" fill="none" id="outline-0" stroke="black" stroke-linecap="round" stroke-linejoin="round" stroke-width="0.5"/>
<path d="" fill="none" id="fill-0" stroke="red" stroke-linecap="round" stroke-linejoin="round" stroke-width="0.5"/>
<path d="M17.5,12.5 L17.403927,11.524549 L17.119398,10.586583 L16.657349,9.722149 L16.035534,8.964466 L15.277851,8.342652 L14.413417,7.8806024 L13.475451,7.5960736 L12.5,7.5 L11.524549,7.5960736 L10.586583,7.8806024 L9.722149,8.342652 L8.964466,8.964466 L8.342652,9.722149 L8.143245,10.095213 M8.143245,14.904787 L8.342652,15.277851 L8.964466,16.035534 L9.722149,16.657349 L10.586583,17.119398 L11.524549,17.403927 L12.5,17.5 L13.475451,17.403927 L14.413417,17.119398 L15.277851,16.657349 L16.035534,16.035534 L16.657349,15.277851 L17.119398,14.413417 L17.403927,13.475451 L17.5,12.5" fill="none" id="outline-1" stroke="blue" stroke-linecap="round" stroke-linejoin="round" stroke-width="0.5"/>
<path d="M14.503112,16.616581 L16.617407,14.502286 M16.945604,13.608402 L13.608402,16.945604 M12.933787,17.054535 L17.054535,12.933787 M17.081558,12.341078 L12.341078,17.081558 M11.825777,17.031174 L17.031174,11.825777 M16.935123,11.356142 L11.356142,16.935123 M10.9223995,16.80318 L16.80318,10.9223995 M16.633146,10.526749 L10.526542,16.633352 M10.157919,16.43629 L16.435728,10.158481 M16.215311,9.813212 L9.813833,16.214691 M9.502929,15.95991 L15.96019,9.502649 M15.6950445,9.202108 L9.202108,15.6950445 M8.947215,15.384253 L15.384253,8.947215 M15.073462,8.692321 L8.692321,15.073462 M9.8385725,13.361525 L14.7082,8.491897 M14.339697,8.294715 L9.985315,12.6490965 M9.961331,12.107394 L13.920417,8.148309 M13.486674,8.016366 L9.844623,11.658419 M9.664922,11.272433 L12.987672,7.9496837 M12.466387,7.905283 L9.435299,10.936371 M9.161204,10.644779 L11.839471,7.966513 M11.097852,8.142447 L8.843339,10.396959 M8.616294,10.058319 L10.058319,8.616294" fill="none" id="fill-1" stroke="yellow" stroke-linecap="round" stroke-linejoin="round" stroke-width="0.5"/>
<path d="M20,12.5 L19.951963,12.012274 L19.809698,11.543291 L19.578674,11.111074 L19.267767,10.732233 L18.888926,10.421326 L18.456709,10.190301 L17.987726,10.048037 L17.5,10 L17.012274,10.048037 L16.543291,10.190301 L16.111074,10.421326 L15.732233,10.732233 L15.421326,11.111074 L15.190301,11.543291 L15.048037,12.012274 L15,12.5 L15.048037,12.987726 L15.190301,13.456709 L15.421326,13.888926 L15.732233,14.267767 L16.111074,14.578674 L16.543291,14.809699 L17.012274,14.951963 L17.5,15 L17.987726,14.951963 L18.456709,14.809699 L18.888926,14.578674 L19.267767,14.267767 L19.578674,13.888926 L19.809698,13.456709 L19.951963,12.987726 L20,12.5" fill="none" id="outline-2" stroke="red" stroke-linecap="round" stroke-linejoin="round" stroke-width="0.5"/>
<path d="M18.368334,14.402 L16.630667,14.402 M16.038256,14.002 L18.959818,14.002 M19.277643,13.602 L15.722178,13.602 M15.531003,13.202 L19.467997,13.202 M19.567654,12.802 L15.431346,12.802 M15.411417,12.402 L19.587582,12.402 M19.530912,12.002 L15.468087,12.002 M15.612219,11.602 L19.386642,11.602 M19.135448,11.202 L15.862658,11.202 M16.276922,10.802 L18.722908,10.802" fill="none" id="fill-2" stroke="green" stroke-linecap="round" stroke-linejoin="round" stroke-width="0.5"/>
<path d="M10,12.5 L9.951963,12.012274 L9.809699,11.543291 L9.578674,11.111074 L9.267767,10.732233 L8.888926,10.421326 L8.456709,10.190301 L7.9877257,10.048037 L7.5,10 L7.0122743,10.048037 L6.5432916,10.190301 L6.1110744,10.421326 L5.732233,10.732233 L5.421326,11.111074 L5.190301,11.543291 L5.0480366,12.012274 L5,12.5 L5.0480366,12.987726 L5.190301,13.456709 L5.421326,13.888926 L5.732233,14.267767 L6.1110744,14.578674 L6.5432916,14.809699 L7.0122743,14.951963 L7.5,15 L7.9877257,14.951963 L8.456709,14.809699 L8.888926,14.578674 L9.267767,14.267767 L9.578674,13.888926 L9.809699,13.456709 L9.951963,12.987726 L10,12.5" fill="none" id="outline-3" stroke="blue" stroke-linecap="round" stroke-linejoin="round" stroke-width="0.5"/>
<path d="M0,0 L3,3" fill="none" id="outline-3" stroke="brown" stroke-linecap="round" stroke-linejoin="round" stroke-width="1"/>
<path d="M-0.35355338,2.6464467 L-0.4157348,2.722215 L-0.46193975,2.8086584 L-0.49039263,2.9024549 L-0.5,3 L-0.49039263,3.0975451 L-0.46193975,3.1913416 L-0.4157348,3.277785 L-0.35355338,3.3535533 L-0.27778512,3.4157348 L-0.19134171,3.4619398 L-0.09754516,3.4903927 L0,3.5 L0.09754516,3.4903927 L0.19134171,3.4619398 L0.27778512,3.4157348 L0.35355338,3.3535533 L3.3535533,0.35355338 L3.4157348,0.27778512 L3.4619398,0.19134171 L3.4903927,0.09754516 L3.5,0 L3.4903927,-0.09754516 L3.4619398,-0.19134171 L3.4157348,-0.27778512 L3.3535533,-0.35355338 L3.277785,-0.4157348 L3.1913416,-0.46193975 L3.0975451,-0.49039263 L3,-0.5 L2.9024549,-0.49039263 L2.8086584,-0.46193975 L2.722215,-0.4157348 L2.6464467,-0.35355338 L-0.35355338,2.6464467 M3.2309182,-0.38304287 L3.3830428,-0.23091817 M3.4471104,-0.025429375 L3.0255194,-0.4470203 M2.8957064,-0.43541193 L3.4352913,0.104173064 M3.3961258,0.20642892 L2.7933948,-0.39630207 M2.708575,-0.33970067 L3.339244,0.29096836 M3.2714272,0.36457288 L2.634927,-0.27192712 M2.5642164,-0.20121644 L3.2007165,0.43528354 M3.1300058,0.50599426 L2.4935057,-0.13050577 M2.422795,-0.05979509 L3.0592952,0.5767049 M2.9885845,0.6474156 L2.3520844,0.010915588 M2.2813737,0.081626266 L2.9178736,0.71812624 M2.847163,0.78883696 L2.210663,0.15233694 M2.1399524,0.22304763 L2.7764523,0.8595476 M2.7057416,0.9302583 L2.0692418,0.2937583 M1.998531,0.364469 L2.635031,1.0009689 M2.5643203,1.0716797 L1.9278203,0.43517965 M1.8571097,0.5058903 L2.4936097,1.1423904 M2.422899,1.213101 L1.786399,0.576601 M1.7156883,0.6473117 L2.3521883,1.2838117 M2.2814777,1.3545223 L1.6449777,0.71802235 M1.5742669,0.78873307 L2.210767,1.425233 M2.1400564,1.4959438 L1.5035563,0.8594437 M1.4328456,0.9301544 L2.0693457,1.5666544 M1.9986349,1.6373651 L1.3621349,1.0008651 M1.2914243,1.0715758 L1.9279243,1.7080758 M1.8572136,1.7787864 L1.2207136,1.1422864 M1.1500028,1.2129971 L1.7865028,1.8494971 M1.7157922,1.9202077 L1.0792922,1.2837077 M1.0085815,1.3544185 L1.6450815,1.9909185 M1.5743709,2.061629 L0.93787086,1.4251292 M0.8671602,1.4958398 L1.5036602,2.1323397 M1.4329495,2.2030506 L0.7964495,1.5665505 M0.7257388,1.6372612 L1.3622388,2.2737613 M1.2915281,2.344472 L0.65502816,1.7079718 M0.58431745,1.7786826 L1.2208174,2.4151826 M1.1501068,2.4858932 L0.5136068,1.8493932 M0.4428961,1.9201039 L1.0793961,2.556604 M1.0086855,2.6273146 L0.37218544,1.9908146 M0.30147475,2.0615253 L0.93797475,2.6980252 M0.8672641,2.768736 L0.23076408,2.132236 M0.16005339,2.2029467 L0.7965534,2.8394465 M0.7258427,2.9101572 L0.08934271,2.2736573 M0.018632034,2.344368 L0.65513206,2.9808679 M0.58442134,3.0515788 L-0.052078642,2.4150786 M-0.12278932,2.4857893 L0.5137107,3.1222894 M0.443,3.193 L-0.1935,2.5565 M-0.26421067,2.6272106 L0.37228933,3.2637107 M0.29935318,3.332196 L-0.33265257,2.70019 M-0.39099702,2.783267 L0.21638921,3.3906534 M0.11593429,3.4316196 L-0.4318505,2.8838348 M-0.44908887,3.008018 L-0.008017907,3.4490888 M-0.19850908,3.400019 L-0.40065584,3.1978724" fill="none" id="outline-3" stroke="pink" stroke-linecap="round" stroke-linejoin="round" stroke-width="0.1"/>
<path d="M-1.231164,25.401655 L-1.2146659,25.498274 L-1.1796355,25.589817 L-1.1274189,25.672768 L-1.0600227,25.743938 L-0.9800371,25.800592 L-0.8905358,25.840553 L-0.7949582,25.862286 L-0.6969774,25.864954 L-0.60035866,25.848455 L-0.50881505,25.813425 L0.2236068,25.447214 L0.25362924,25.430897 L1.0251136,24.976795 L1.0474584,24.962837 L2.072849,24.284126 L2.0746088,24.282957 L3.290746,23.470577 L4.633991,22.615345 L6.043617,21.80505 L7.4552155,21.127672 L8.797423,20.66947 L9.999097,20.504797 L11.162814,20.668514 L12.416449,21.123129 L13.72381,21.798048 L15.043391,22.608992 L16.339943,23.468502 L16.340767,23.469048 L17.576118,24.284477 L17.5954,24.296583 L18.733095,24.975294 L18.78435,25.001984 L19.795092,25.456085 L19.871332,25.483162 L20.76977,25.72242 L20.830618,25.734636 L21.65093,25.846941 L21.708883,25.851465 L22.45107,25.866114 L22.501247,25.864584 L23.16531,25.810873 L23.203192,25.806349 L23.78913,25.713575 L23.809902,25.709835 L24.315653,25.607712 L24.720205,25.52956 L25.048384,25.497654 L25.14454,25.478653 L25.235144,25.441257 L25.316711,25.386904 L25.386106,25.317682 L25.440664,25.236252 L25.478287,25.145744 L25.49753,25.049635 L25.497654,24.951616 L25.478653,24.85546 L25.441257,24.764856 L25.386904,24.683289 L25.317682,24.613894 L25.236252,24.559336 L25.145744,24.521713 L25.049635,24.50247 L24.951616,24.502346 L24.600054,24.536526 L24.5536,24.543257 L24.123913,24.626265 L24.119785,24.627079 L23.62232,24.72753 L23.065662,24.815666 L22.445677,24.865812 L21.757725,24.852234 L20.99706,24.748096 L20.167887,24.527283 L19.220566,24.101675 L18.117504,23.443624 L16.892067,22.63474 L15.588769,21.770756 L15.574289,21.76151 L14.231516,20.936316 L14.199089,20.918015 L12.84655,20.219772 L12.787644,20.194016 L11.454637,19.710617 L11.353836,19.68554 L10.069656,19.504875 L9.932116,19.50463 L8.613756,19.685293 L8.520104,19.707478 L7.104089,20.190876 L7.049309,20.213278 L5.5942307,20.91152 L5.5613666,20.92882 L4.1258197,21.754015 L4.106464,21.765732 L2.7490423,22.62999 L2.7398443,22.635988 L1.5200199,23.450832 L0.5064988,24.121685 L-0.23889695,24.56043 L-0.9560287,24.918997 L-1.0389792,24.971214 L-1.1101489,25.03861 L-1.1668026,25.118595 L-1.2067635,25.208097 L-1.2284957,25.303675 L-1.231164,25.401655 M25.062885,24.555649 L25.442884,24.935646 M25.440979,25.075165 L24.921213,24.555399 M24.79238,24.567986 L25.408237,25.183844 M25.35534,25.272366 L24.663546,24.580574 M24.538317,24.596766 L25.286776,25.345224 M25.201027,25.400898 L24.419775,24.619646 M24.301235,24.642527 L25.095556,25.436848 M24.971285,25.453997 L24.182695,24.665407 M24.064787,24.688921 L24.842434,25.466568 M24.713833,25.47939 L23.947054,24.712608 M23.82932,24.736298 L24.59519,25.502167 M24.476654,25.525051 L23.711588,24.759987 M23.592218,24.782038 L24.358118,25.547937 M24.239906,25.571148 L23.47028,24.801521 M23.348343,24.821005 L24.12225,25.594912 M24.004593,25.618677 L23.226404,24.840488 M23.104467,24.859972 L23.886936,25.64244 M23.768831,25.665756 L22.975605,24.872532 M22.844738,24.883085 L23.646627,25.684975 M23.524424,25.704193 L22.713871,24.893639 M22.583002,24.904194 L23.402222,25.723412 M23.280018,25.74263 L22.452135,24.914747 M22.308405,24.912437 L23.157118,25.76115 M23.026178,25.771633 L22.164259,24.909714 M22.020115,24.90699 L22.89524,25.782116 M22.764303,25.792599 L21.875969,24.904266 M21.728313,24.898033 L22.633364,25.803083 M22.502426,25.813566 L21.564472,24.875612 M21.40063,24.853191 L22.361643,25.814203 M22.217287,25.81127 L21.236788,24.83077 M21.072947,24.808352 L22.072931,25.808336 M21.928577,25.805403 L20.89561,24.772436 M20.702785,24.721031 L21.784222,25.802467 M21.634235,25.793903 L20.50996,24.669628 M20.317133,24.618223 L21.470549,25.771637 M21.30686,25.74937 L20.115232,24.557743 M19.85867,24.442602 L21.143173,25.727104 M20.979485,25.704838 L19.602106,24.32746 M19.345543,24.212318 L20.812893,25.679667 M20.6235,25.631697 L19.049751,24.05795 M18.699219,23.848835 L20.430477,25.580093 M20.237452,25.528492 L18.348684,23.639723 M17.981636,23.414095 L20.044428,25.476889 M19.847185,25.421066 L17.56519,23.139072 M17.148745,22.864048 L19.59643,25.311731 M19.339928,25.196651 L16.731253,22.587978 M16.311499,22.309645 L19.083426,25.08157 M18.826923,24.96649 L15.891746,22.031313 M15.48306,21.764048 L18.493141,24.77413 M18.141758,24.564169 L15.115528,21.537937 M14.747997,21.311829 L17.790377,24.354206 M17.408491,24.113745 L14.380466,21.085718 M14.050729,20.897404 L16.993298,23.839972 M16.578104,23.566198 L13.758588,20.746683 M13.466447,20.595963 L16.157871,23.287388 M15.7384615,23.0094 L13.174306,20.445244 M12.882165,20.294523 L15.319052,22.731411 M14.92175,22.47553 L12.640057,20.193836 M12.418061,20.113264 L14.554999,22.2502 M14.188249,22.024872 L12.196067,20.03269 M11.9740715,19.952116 L13.821497,21.799541 M13.513416,21.632883 L11.752077,19.871544 M11.530083,19.79097 L13.220951,21.481838 M12.928487,21.330795 L11.3308325,19.73314 M11.166162,19.709892 L12.636022,21.179752 M12.366845,21.051996 L11.001492,19.686644 M10.836821,19.663393 L12.14489,20.971462 M11.922935,20.890928 L10.672151,19.640144 M10.50748,19.616896 L11.700979,20.810394 M11.479023,20.72986 L10.34281,19.593647 M10.178139,19.570396 L11.257068,20.649326 M11.071584,20.605263 L10.020321,19.554 M9.88601,19.561111 L10.906945,20.582047 M10.742308,20.55883 L9.761605,19.578127 M9.637199,19.595142 L10.57767,20.535614 M10.413033,20.512398 L9.512794,19.61216 M9.388389,19.629175 L10.248395,20.489182 M10.083757,20.465965 L9.263983,19.64619 M9.139578,19.663206 L9.93865,20.462278 M9.814207,20.479258 L9.015172,19.680223 M8.890767,19.697239 L9.689765,20.496237 M9.565323,20.513216 L8.766361,19.714254 M8.641956,19.73127 L9.44088,20.530195 M9.316438,20.547173 L8.526471,19.757206 M8.421079,19.793236 L9.191995,20.564152 M9.067553,20.581131 L8.315687,19.829266 M8.210295,19.865295 L8.9431095,20.59811 M8.818667,20.61509 L8.104903,19.901325 M7.9995112,19.937353 L8.708798,20.64664 M8.603361,20.682625 L7.8941197,19.973383 M7.7887278,20.009413 L8.497924,20.718609 M8.392486,20.754593 L7.683336,20.045443 M7.577944,20.081472 L8.287048,20.790577 M8.181611,20.826561 L7.4725523,20.117502 M7.3671603,20.15353 L8.076174,20.862545 M7.970736,20.89853 L7.2617683,20.18956 M7.1563764,20.22559 L7.8652987,20.934511 M7.759861,20.970495 L7.054409,20.265043 M6.958854,20.31091 L7.6544237,21.00648 M7.5489864,21.042463 L6.863299,20.356777 M6.767744,20.402643 L7.4435487,21.078447 M7.3469415,21.123262 L6.672189,20.44851 M6.576634,20.494375 L7.251352,21.169094 M7.155762,21.214926 L6.481079,20.540241 M6.3855243,20.58611 L7.0601726,21.260757 M6.9645824,21.30659 L6.289969,20.631975 M6.194414,20.677841 L6.868993,21.352419 M6.773403,21.39825 L6.0988593,20.723707 M6.0033045,20.769573 L6.6778135,21.444082 M6.582224,21.489914 L5.907749,20.815441 M5.8121943,20.861307 L6.486634,21.535746 M6.391044,21.581577 L5.7166395,20.907173 M5.621084,20.95304 L6.2954545,21.627409 M6.199865,21.67324 L5.5305057,21.003881 M5.4406867,21.055485 L6.104275,21.719072 M6.0096064,21.765825 L5.3508673,21.107086 M5.2610483,21.15869 L5.919808,21.817448 M5.8300095,21.869072 L5.1712294,21.21029 M5.08141,21.261892 L5.740211,21.920694 M5.6504126,21.972317 L4.991591,21.313496 M4.9017715,21.365097 L5.560614,22.02394 M5.4708157,22.075563 L4.8119526,21.4167 M4.7221336,21.468302 L5.381017,22.127186 M5.2912188,22.178808 L4.632314,21.519905 M4.5424953,21.571507 L5.2014203,22.230433 M5.111622,22.282055 L4.4526763,21.623108 M4.362857,21.674711 L5.0218234,22.333677 M4.9320254,22.3853 L4.273038,21.726313 M4.1832185,21.777916 L4.842227,22.436924 M4.7524285,22.488546 L4.09489,21.831009 M4.008508,21.886047 L4.66263,22.540169 M4.574631,22.593592 L3.9221265,21.941088 M3.8357449,21.996128 L4.488196,22.648579 M4.401761,22.703566 L3.7493632,22.051167 M3.6629815,22.106207 L4.315326,22.75855 M4.2288914,22.813538 L3.5765998,22.161245 M3.4902182,22.216286 L4.1424565,22.868525 M4.0560217,22.923512 L3.4038365,22.271326 M3.3174548,22.326365 L3.9695868,22.978497 M3.883152,23.033484 L3.2310731,22.381405 M3.1446915,22.436445 L3.7967172,23.08847 M3.710282,23.143457 L3.0583098,22.491484 M2.971928,22.546524 L3.6238472,23.198442 M3.5374124,23.25343 L2.8855462,22.601563 M2.7991645,22.656603 L3.4509776,23.308416 M3.3645427,23.363403 L2.7137277,22.712587 M2.6289444,22.769226 L3.278108,23.418388 M3.1932125,23.474915 L2.544161,22.825863 M2.4593778,22.882502 L3.1084015,23.531525 M3.0235906,23.588137 L2.3745944,22.93914 M2.2898111,22.995777 L2.9387796,23.644747 M2.8539686,23.701357 L2.2050278,23.052416 M2.1202445,23.109055 L2.769158,23.757967 M2.684347,23.814577 L2.0354612,23.165691 M1.9506779,23.22233 L2.599536,23.871187 M2.514725,23.9278 L1.8658946,23.278969 M1.7811112,23.335606 L2.429914,23.98441 M2.345103,24.04102 L1.6963279,23.392244 M1.6115446,23.448881 L2.2602923,24.09763 M2.1754813,24.15424 L1.5266926,23.505451 M1.4416214,23.561802 L2.0906703,24.21085 M2.0061176,24.26772 L1.3565502,23.618153 M1.2714791,23.674501 L1.9209992,24.324022 M1.8358806,24.380325 L1.1864079,23.730852 M1.1013367,23.787203 L1.750762,24.436628 M1.6656435,24.492931 L1.0162656,23.843554 M0.9311944,23.899902 L1.5805249,24.549232 M1.4954064,24.605536 L0.8461233,23.956253 M0.76105213,24.012604 L1.4102879,24.661839 M1.3251693,24.718142 L0.675981,24.068953 M0.59090984,24.125303 L1.2400508,24.774445 M1.1549321,24.830748 L0.50407314,24.179888 M0.41513193,24.232368 L1.0698136,24.88705 M0.9834829,24.94214 L0.32619068,24.28485 M0.23724943,24.337328 L0.894487,24.994566 M0.8054911,25.046991 L0.1483082,24.389809 M0.059366956,24.44229 L0.71649516,25.099417 M0.6274992,25.151842 L-0.029574284,24.494768 M-0.11851553,24.547249 L0.5385033,25.204268 M0.44950736,25.256693 L-0.20745677,24.59973 M-0.30111134,24.647495 L0.36051142,25.309118 M0.27151552,25.361544 L-0.39543635,24.694592 M-0.48976135,24.741688 L0.18070923,25.412159 M0.0864713,25.459343 L-0.58408636,24.788786 M-0.67841136,24.835882 L-0.007766633,25.506527 M-0.102004565,25.553709 L-0.7727364,24.882978 M-0.8670614,24.930075 L-0.1962425,25.600893 M-0.29048043,25.648077 L-0.958911,24.979647 M-1.0395044,25.040474 L-0.38471836,25.69526 M-0.47895628,25.742443 L-1.1045071,25.116892 M-1.152791,25.21003 L-0.5772423,25.785578 M-0.6913736,25.812868 L-1.1785666,25.325676 M-1.1672564,25.478407 L-0.847593,25.79807" fill="none" id="outline-3" stroke="purple" stroke-linecap="round" stroke-linejoin="round" stroke-width="0.1"/>
</svg>