<svg height="100mm" viewBox="0 0 100 100" width="100mm" xmlns="http://www.w3.org/2000/svg">
<path d="M-2.5,0 L-2.5,25 L-2.4148145,25.647047 L-1.767767,26.767767 L-0.64704764,27.414814 L0,27.5 L25,27.5 L25.647047,27.414814 L26.767767,26.767767 L27.414814,25.647047 L27.5,25 L27.5,0 L27.414814,-0.64704764 L26.767767,-1.767767 L25.647047,-2.4148145 L25,-2.5 L0,-2.5 L-0.64704764,-2.4148145 L-1.767767,-1.767767 L-2.1650636,-1.25 L-2.5,0 M2.4720347,2.2588313 L-1.449216,-1.6624194 L-1.0008174,-1.9211277 L3.1703103,2.25 M3.877417,2.25 L-0.54711026,-2.1745272 L0.08452378,-2.25 L4.5845237,2.25 M5.2916307,2.25 L0.79163057,-2.25 L1.4987373,-2.25 L5.9987373,2.25 M6.705844,2.25 L2.2058442,-2.25 L2.912951,-2.25 L7.412951,2.25 M8.120058,2.25 L3.6200576,-2.25 L4.3271646,-2.25 L8.827165,2.25 M9.534271,2.25 L5.0342712,-2.25 L5.741378,-2.25 L10.241378,2.25 M10.948484,2.25 L6.448485,-2.25 L7.1555915,-2.25 L11.655592,2.25 M12.362699,2.25 L7.8626986,-2.25 L8.569805,-2.25 L13.069805,2.25 M13.776912,2.25 L9.276912,-2.25 L9.984018,-2.25 L14.484018,2.25 M15.191126,2.25 L10.691126,-2.25 L11.398232,-2.25 L15.898232,2.25 M16.60534,2.25 L12.105339,-2.25 L12.812446,-2.25 L17.312447,2.25 M18.019552,2.25 L13.519552,-2.25 L14.22666,-2.25 L18.72666,2.25 M19.433765,2.25 L14.933766,-2.25 L15.640873,-2.25 L20.140873,2.25 M20.84798,2.25 L16.34798,-2.25 L17.055086,-2.25 L21.555086,2.25 M22.75,3.4449134 L27.25,7.9449134 L27.25,7.237807 L22.75,2.7378068 L22.262194,2.25 L17.762194,-2.25 L18.4693,-2.25 L27.25,6.5306997 L27.25,5.823593 L19.176407,-2.25 L19.883514,-2.25 L27.25,5.1164865 L27.25,4.4093795 L20.59062,-2.25 L21.297728,-2.25 L27.25,3.702273 L27.25,2.995166 L22.004833,-2.25 L22.71194,-2.25 L27.25,2.2880592 L27.25,1.5809524 L23.419048,-2.25 L24.126154,-2.25 L27.25,0.87384564 L27.25,0.16673888 L24.833261,-2.25 L25.689978,-2.10039 L27.10039,-0.68997794 M22.75,4.1520205 L27.25,8.65202 L27.25,9.359127 L22.75,4.859127 M22.75,5.5662336 L27.25,10.066234 L27.25,10.77334 L22.75,6.2733407 M22.75,6.9804473 L27.25,11.480448 L27.25,12.187554 L22.75,7.6875544 M22.75,8.394661 L27.25,12.894661 L27.25,13.601768 L22.75,9.101768 M22.75,9.808874 L27.25,14.308874 L27.25,15.015982 L22.75,10.515982 M22.75,11.223088 L27.25,15.723088 L27.25,16.430195 L22.75,11.930195 M22.75,12.637301 L27.25,17.137302 L27.25,17.844408 L22.75,13.344408 M22.75,14.051516 L27.25,18.551516 L27.25,19.258621 L22.75,14.758622 M22.75,15.465729 L27.25,19.965729 L27.25,20.672836 L22.75,16.172836 M22.75,16.879942 L27.25,21.379942 L27.25,22.08705 L22.75,17.58705 M22.75,18.294155 L27.25,22.794155 L27.25,23.501263 L22.75,19.001263 M22.75,19.70837 L27.25,24.20837 L27.25,24.915476 L22.75,20.415476 M22.75,21.122583 L27.174524,25.547106 L26.92095,26.00064 L22.75,21.829689 M22.740974,22.527771 L26.66206,26.448856 L26.270927,26.764832 L22.256096,22.75 M21.54899,22.75 L25.822712,27.023722 L25.29948,27.207598 L20.841883,22.75 M20.134777,22.75 L24.634777,27.25 L23.92767,27.25 L19.42767,22.75 M18.720562,22.75 L23.220562,27.25 L22.513456,27.25 L18.013456,22.75 M17.306349,22.75 L21.806349,27.25 L21.099243,27.25 L16.599243,22.75 M15.892136,22.75 L20.392136,27.25 L19.685028,27.25 L15.185029,22.75 M14.477922,22.75 L18.977922,27.25 L18.270815,27.25 L13.770815,22.75 M13.063708,22.75 L17.56371,27.25 L16.856602,27.25 L12.356602,22.75 M11.649495,22.75 L16.149494,27.25 L15.442389,27.25 L10.942389,22.75 M10.235281,22.75 L14.735281,27.25 L14.028174,27.25 L9.528174,22.75 M8.821068,22.75 L13.321068,27.25 L12.613961,27.25 L8.113961,22.75 M7.406854,22.75 L11.906855,27.25 L11.199747,27.25 L6.6997476,22.75 M5.9926405,22.75 L10.4926405,27.25 L9.785534,27.25 L5.285534,22.75 M4.5784273,22.75 L9.078427,27.25 L8.371321,27.25 L3.8713202,22.75 M3.1642137,22.75 L7.6642137,27.25 L6.9571066,27.25 L2.4441068,22.737 L2.262,22.554893 L-2.25,18.042892 L-2.25,18.75 L6.25,27.25 L5.5428934,27.25 L-2.25,19.457108 L-2.25,20.164213 L4.8357863,27.25 L4.1286798,27.25 L-2.25,20.87132 L-2.25,21.578426 L3.421573,27.25 L2.714466,27.25 L-2.25,22.285534 L-2.25,22.992641 L2.0073593,27.25 L1.3002526,27.25 L-2.25,23.699747 L-2.25,24.406855 L0.5931457,27.25 L-0.13418868,27.229773 L-2.2296581,25.134302 M-1.7165492,26.354519 L-1.3545187,26.716549 M2.25,21.835787 L-2.25,17.335787 L-2.25,16.62868 L2.25,21.12868 M2.25,20.421574 L-2.25,15.921573 L-2.25,15.214466 L2.25,19.714466 M2.25,19.007359 L-2.25,14.5073595 L-2.25,13.800253 L2.25,18.300253 M2.25,17.593145 L-2.25,13.093145 L-2.25,12.386039 L2.25,16.88604 M2.25,16.178932 L-2.25,11.678932 L-2.25,10.971826 L2.25,15.471826 M2.25,14.764719 L-2.25,10.264719 L-2.25,9.557611 L2.25,14.057611 M2.25,13.350505 L-2.25,8.850505 L-2.25,8.143398 L2.25,12.643398 M2.25,11.936292 L-2.25,7.4362917 L-2.25,6.7291846 L2.25,11.229185 M2.25,10.522078 L-2.25,6.022078 L-2.25,5.314971 L2.25,9.814971 M2.25,9.107864 L-2.25,4.6078644 L-2.25,3.9007576 L2.25,8.400758 M2.25,7.6936507 L-2.25,3.1936507 L-2.25,2.4865441 L2.25,6.986544 M2.25,6.279437 L-2.25,1.7794373 L-2.25,1.0723305 L2.25,5.5723305 M2.25,4.865224 L-2.25,0.36522368 L-2.170467,-0.26234987 L2.25,4.158117 M2.25,3.4510102 L-2.02085,-0.8198397 L-1.80324,-1.3093365 L2.25,2.7439034 M2.5,2.5 L2.5,22.5 L22.5,22.5 L22.5,2.5 L2.5,2.5" fill="none" id="outline-0" stroke="#000000" stroke-linecap="round" stroke-linejoin="round" stroke-width="0.5"/>
<path d="M24.012194,0.5 L24.5,0.9878067 M24.5,1.6949135 L23.305086,0.5 M22.59798,0.5 L24.5,2.4020202 M24.5,3.109127 L21.890873,0.5 M21.183765,0.5 L24.5,3.8162339 M24.5,4.5233407 L20.47666,0.5 M19.769552,0.5 L24.5,5.2304473 M24.5,5.9375544 L19.062447,0.5 M18.35534,0.5 L24.5,6.644661 M24.5,7.3517675 L17.648232,0.5 M16.941126,0.5 L24.5,8.058874 M24.5,8.765982 L16.234018,0.5 M15.526912,0.5 L24.5,9.473088 M24.5,10.180195 L14.819805,0.5 M14.112699,0.5 L24.5,10.887301 M24.5,11.594408 L13.405592,0.5 M12.698484,0.5 L24.5,12.301516 M24.5,13.008622 L11.991378,0.5 M11.284271,0.5 L24.5,13.715729 M24.5,14.422835 L10.577165,0.5 M9.870058,0.5 L24.5,15.129942 M24.5,15.8370495 L9.1629505,0.5 M8.455844,0.5 L24.5,16.544155 M24.5,17.251263 L7.7487373,0.5 M7.0416307,0.5 L24.5,17.95837 M24.5,18.665476 L6.3345237,0.5 M5.627417,0.5 L24.5,19.372583 M24.5,20.079689 L4.92031,0.5 M4.2132034,0.5 L24.5,20.786797 M24.5,21.493904 L3.5060966,0.5 M2.7989898,0.5 L24.5,22.20101 M24.5,22.908117 L2.0918832,0.5 M1.3847764,0.5 L24.5,23.615223 M24.5,24.32233 L0.6776695,0.5 M0.5,1.0294373 L23.970562,24.5 M23.263456,24.5 L0.5,1.736544 M0.5,2.4436507 L8.155184,10.098835 M7.3627596,10.013517 L0.5,3.1507576 M0.5,3.8578644 L6.7651396,10.123004 M6.270917,10.335888 L0.5,4.564971 M0.5,5.272078 L5.857418,10.629497 M5.5162387,10.995423 L0.5,5.9791846 M0.5,6.6862917 L5.248367,11.434658 M5.064524,11.957923 L0.5,7.3933983 M0.5,8.100505 L5.01098,12.6114855 M5.2376156,13.545227 L0.5,8.807611 M0.5,9.514719 L15.485281,24.5 M14.778174,24.5 L0.5,10.221826 M0.5,10.928932 L14.071068,24.5 M13.363961,24.5 L0.5,11.636039 M0.5,12.343145 L12.656855,24.5 M11.949747,24.5 L0.5,13.050253 M0.5,13.7573595 L11.2426405,24.5 M10.535534,24.5 L0.5,14.464466 M0.5,15.171573 L9.828427,24.5 M9.121321,24.5 L0.5,15.878679 M0.5,16.585787 L8.414213,24.5 M7.7071066,24.5 L0.5,17.292892 M0.5,18 L7,24.5 M6.2928934,24.5 L0.5,18.707108 M0.5,19.414213 L5.5857863,24.5 M4.8786798,24.5 L0.5,20.12132 M0.5,20.828426 L4.1715727,24.5 M3.464466,24.5 L0.5,21.535534 M0.5,22.242641 L2.7573593,24.5 M2.0502524,24.5 L0.5,22.949747 M0.5,23.656855 L1.3431457,24.5 M0.63603896,24.5 L0.5,24.36396 M6.454773,14.762384 L16.192389,24.5 M16.899494,24.5 L7.3885145,14.989019 M8.042077,14.935475 L17.606602,24.5 M18.31371,24.5 L8.565342,14.751634 M9.004577,14.483762 L19.020815,24.5 M19.727922,24.5 L9.370503,14.142582 M9.664112,13.729083 L20.435028,24.5 M21.142136,24.5 L9.876996,13.23486 M9.986483,12.63724 L21.849243,24.5 M22.556349,24.5 L9.901165,11.844816" fill="none" id="fill-0" stroke="#000000" stroke-linecap="round" stroke-linejoin="round" stroke-width="0.5"/>
<path d="M12.5,7.5 L14.413417,7.8806024 L16.035534,8.964466 L17.119398,10.586583 L17.5,12.5 L17.119398,14.413417 L16.035534,16.035534 L14.413417,17.119398 L12.5,17.5 L10.586583,17.119398 L8.964466,16.035534 L8.197856,14.888221 M8.197856,10.111779 L8.964466,8.964466 L10.586583,7.8806024 L12.5,7.5" fill="none" id="outline-1" stroke="#0000ff" stroke-linecap="round" stroke-linejoin="round" stroke-width="0.5"/>
<path d="M15.507653,15.78524 L15.78524,15.507653 M16.718195,13.867592 L13.867541,16.718245 M12.985072,16.893608 L16.893429,12.9852495 M16.937378,12.234195 L12.234335,16.937239 M11.644392,16.820074 L16.820158,11.644309 M16.702936,11.054422 L11.054449,16.70291 M10.554234,16.49602 L16.49602,10.554234 M16.212652,10.130493 L10.130493,16.212652 M9.706752,15.929287 L15.929287,9.706752 M15.632011,9.296921 L9.296921,15.632011 M9.013556,15.20827 L15.20827,9.013556 M14.78453,8.730189 L9.3630295,14.151689 M9.151689,14.3630295 L8.730189,14.78453 M9.9663925,12.841219 L14.360788,8.446823 M13.827673,8.272832 L9.964181,12.136324 M9.819103,11.574295 L13.237787,8.155611 M12.647901,8.03839 L9.577116,11.109176 M9.256334,10.722851 L11.838886,8.140299 M10.956544,8.315534 L8.864049,10.40803" fill="none" id="fill-1" stroke="#0000ff" stroke-linecap="round" stroke-linejoin="round" stroke-width="0.5"/>
<path d="M17.5,10 L18.456709,10.190301 L19.267767,10.732233 L19.809698,11.543291 L20,12.5 L19.809698,13.456709 L19.267767,14.267767 L18.456709,14.809699 L17.5,15 L16.543291,14.809699 L15.732233,14.267767 L15.190301,13.456709 L15,12.5 L15.190301,11.543291 L15.732233,10.732233 L16.543291,10.190301 L17.5,10" fill="none" id="outline-2" stroke="#ff0000" stroke-linecap="round" stroke-linejoin="round" stroke-width="0.5"/>
<path d="M16.391483,14 L18.605389,14 M19.04426,13.5 L15.95444,13.5 M15.74722,13 L19.25163,13 M19.459,12.5 L15.54,12.5 M15.74686,12 L19.25142,12 M19.043837,11.5 L15.953718,11.5 M16.3902,11 L18.607,11" fill="none" id="fill-2" stroke="#ff0000" stroke-linecap="round" stroke-linejoin="round" stroke-width="0.5"/>
<path d="M7.5,10 L8.456709,10.190301 L9.267767,10.732233 L9.809699,11.543291 L10,12.5 L9.809699,13.456709 L9.267767,14.267767 L8.456709,14.809699 L7.5,15 L6.5432916,14.809699 L5.732233,14.267767 L5.190301,13.456709 L5,12.5 L5.190301,11.543291 L5.732233,10.732233 L6.5432916,10.190301 L7.5,10" fill="none" id="outline-3" stroke="#0000ff" stroke-linecap="round" stroke-linejoin="round" stroke-width="0.5"/>
<path d="M6.391,11 L8.607,11 M9.043838,11.5 L5.954325,11.5 M5.7469554,12 L9.251419,12 M9.459,12.5 L5.540415,12.5 M5.747846,13 L9.25163,13 M9.04426,13.5 L5.955278,13.5 M6.392282,14 L8.60539,14" fill="none" id="fill-3" stroke="#0000ff" stroke-linecap="round" stroke-linejoin="round" stroke-width="0.5"/>
<path d="M0,0 L3,3" fill="none" id="outline-4" stroke="#a52a2a" stroke-linecap="round" stroke-linejoin="round" stroke-width="1"/>
<path d="M-0.35355338,2.6464467 L-0.5,3 L-0.35355338,3.3535533 L0,3.5 L0.35355338,3.3535533 L3.3535533,0.35355338 L3.5,0 L3.3535533,-0.35355338 L3,-0.5 L2.6464467,-0.35355338 L-0.35355338,2.6464467 M-0.17114286,3.4 L0.17128925,3.4 L0.336,3.3 L-0.3305909,3.3 L-0.39424676,3.2 L0.436,3.2 L0.536,3.1 L-0.42108658,3.1 L-0.4479264,3 L0.636,3 L0.736,2.9 L-0.435789,2.9 L-0.384109,2.8 L0.836,2.8 L0.936,2.7 L-0.32676303,2.7 L-0.237,2.6 L1.036,2.6 L1.136,2.5 L-0.137,2.5 L-0.037,2.4 L1.236,2.4 L1.336,2.3 L0.063,2.3 L0.163,2.2 L1.436,2.2 L1.536,2.1 L0.263,2.1 L0.363,2 L1.636,2 L1.736,1.9 L0.463,1.9 L0.563,1.8 L1.836,1.8 L1.936,1.7 L0.663,1.7 L0.763,1.6 L2.036,1.6 L2.136,1.5 L0.863,1.5 L0.963,1.4 L2.236,1.4 L2.336,1.3 L1.063,1.3 L1.163,1.2 L2.436,1.2 L2.536,1.1 L1.263,1.1 L1.363,1 L2.636,1 L2.736,0.9 L1.463,0.9 L1.563,0.8 L2.836,0.8 L2.936,0.7 L1.663,0.7 L1.763,0.6 L3.036,0.6 L3.136,0.5 L1.863,0.5 L1.963,0.4 L3.236,0.4 L3.3261895,0.3 L2.063,0.3 L2.163,0.2 L3.3835356,0.2 L3.4356072,0.1 L2.263,0.1 L2.363,-0.000000000000000027755576 L3.449,-0.000000000000000027755576 L3.4356072,-0.1 L2.463,-0.1 L2.563,-0.2 L3.3834107,-0.2 L3.3259227,-0.3 L2.663,-0.3 L2.8277106,-0.4 L3.1785645,-0.4" fill="none" id="outline-4" stroke="#ffc0cb" stroke-linecap="round" stroke-linejoin="round" stroke-width="0.1"/>
<path d="M-0.9560287,24.918997 L-1.2067635,25.208097 L-1.1796355,25.589817 L-0.8905358,25.840553 L-0.50881505,25.813425 L6.043617,21.80505 L8.797423,20.66947 L9.999097,20.504797 L11.162814,20.668514 L12.416449,21.123129 L13.72381,21.798048 L18.733095,24.975294 L19.871332,25.483162 L21.65093,25.846941 L23.16531,25.810873 L25.175537,25.468174 L25.497654,24.951616 L25.082067,24.50678 L22.445677,24.865812 L20.167887,24.527283 L19.220566,24.101675 L14.231516,20.936316 L12.84655,20.219772 L11.353836,19.68554 L9.932116,19.50463 L8.520104,19.707478 L5.5942307,20.91152 L-0.9560287,24.918997 M-0.81695217,24.904629 L1.0413729,24.904629 M0.87735575,25.00463 L-0.97754467,25.00463 L-1.0905076,25.10463 L0.707532,25.10463 M0.53770816,25.20463 L-1.149175,25.20463 L-1.1740344,25.30463 L0.3678844,25.30463 M0.19387262,25.404629 L-1.165894,25.404629 L-1.1456354,25.50463 L-0.0053337323,25.50463 M-0.20454009,25.60463 L-1.0996464,25.60463 L-1.01101,25.70463 L-0.40374643,25.70463 M-0.71592927,25.80463 L-0.8115288,25.80463 M-0.6163872,24.80463 L1.1942543,24.80463 M1.3471357,24.70463 L-0.41582224,24.70463 M-0.21562968,24.60463 L1.500017,24.60463 M1.6528983,24.50463 L-0.04628584,24.50463 L0.12319024,24.404629 L1.8057797,24.404629 M1.9586611,24.30463 L0.29266632,24.30463 L0.4621424,24.20463 L2.1115425,24.20463 M2.2644238,24.10463 L0.6221672,24.10463 L0.7749285,24.00463 L2.4173052,24.00463 M2.5701864,23.904629 L0.92768973,23.904629 L1.080451,23.80463 L2.7230678,23.80463 M2.8759491,23.70463 L1.2332122,23.70463 L1.3859736,23.60463 L3.0288305,23.60463 M3.181712,23.50463 L1.5387348,23.50463 L1.691496,23.404629 L3.3345933,23.404629 M3.4874747,23.30463 L1.8442572,23.30463 L1.9970186,23.20463 L3.640356,23.20463 M3.7932374,23.10463 L2.1497798,23.10463 L2.302541,23.00463 L3.9461186,23.00463 M4.099,22.904629 L2.4553022,22.904629 L2.6080635,22.80463 L4.2518816,22.80463 M4.4047627,22.70463 L2.760825,22.70463 L2.9135861,22.60463 L4.557644,22.60463 M4.7244515,22.50463 L3.0663474,22.50463 L3.2191086,22.404629 L4.898402,22.404629 M5.072353,22.30463 L3.3718698,22.30463 L3.524631,22.20463 L5.2463036,22.20463 M5.420254,22.10463 L3.6773925,22.10463 L3.8301537,22.00463 L5.5942044,22.00463 M5.768155,21.904629 L3.982915,21.904629 L4.138606,21.80463 L5.942106,21.80463 M6.1343985,21.70463 L4.312641,21.70463 M4.486676,21.60463 L6.342966,21.60463 M6.551533,21.50463 L4.6607113,21.50463 M4.8347464,21.404629 L6.7601004,21.404629 M6.9686675,21.30463 L5.0087814,21.30463 M5.1828165,21.20463 L7.1772346,21.20463 M7.385802,21.10463 L5.3568516,21.10463 M5.5308867,21.00463 L7.659845,21.00463 M7.952858,20.904629 L5.721932,20.904629 M5.930421,20.80463 L8.245872,20.80463 M8.538884,20.70463 L6.1389103,20.70463 M6.347399,20.60463 L8.895324,20.60463 M9.628251,20.50463 L6.5558887,20.50463 M6.7643776,20.404629 L13.095028,20.404629 M13.288464,20.50463 L10.357947,20.50463 M11.067094,20.60463 L13.481899,20.60463 M13.675335,20.70463 L11.409487,20.70463 M11.685091,20.80463 L13.868772,20.80463 M14.062207,20.904629 L11.960696,20.904629 M12.2363,21.00463 L14.2480345,21.00463 M13.829779,21.80463 L15.548394,21.80463 L15.385849,21.70463 L13.652341,21.70463 M13.458711,21.60463 L15.223305,21.60463 L15.06076,21.50463 L13.265081,21.50463 M13.071452,21.404629 L14.898214,21.404629 L14.735669,21.30463 L12.877822,21.30463 M12.684193,21.20463 L14.573124,21.20463 L14.41058,21.10463 L12.490563,21.10463 M12.901592,20.30463 L6.972867,20.30463 M7.2259326,20.20463 L12.657211,20.20463 M12.377966,20.10463 L7.516409,20.10463 M7.8068852,20.00463 L12.098721,20.00463 M11.819475,19.904629 L8.097362,19.904629 M8.387837,19.80463 L11.54023,19.80463 M11.111484,19.70463 L8.884592,19.70463 M9.584592,19.60463 L10.323215,19.60463 M13.99254,21.904629 L15.701431,21.904629 L15.852508,22.00463 L14.155302,22.00463 M14.318065,22.10463 L16.003584,22.10463 L16.154661,22.20463 L14.480826,22.20463 M14.643588,22.30463 L16.305737,22.30463 L16.456814,22.404629 L14.806351,22.404629 M14.969112,22.50463 L16.607891,22.50463 L16.758966,22.60463 L15.126917,22.60463 M15.278171,22.70463 L16.910044,22.70463 L17.06112,22.80463 L15.429425,22.80463 M15.58068,22.904629 L17.212196,22.904629 L17.363274,23.00463 L15.731935,23.00463 M15.883189,23.10463 L17.514349,23.10463 L17.665426,23.20463 L16.034443,23.20463 M16.185698,23.30463 L17.816504,23.30463 L17.967579,23.404629 L16.336952,23.404629 M16.488207,23.50463 L18.122229,23.50463 L18.289858,23.60463 L16.639462,23.60463 M16.790716,23.70463 L18.457487,23.70463 L18.625116,23.80463 L16.94197,23.80463 M17.093225,23.904629 L18.792746,23.904629 L18.960375,24.00463 L17.24448,24.00463 M17.395733,24.10463 L19.128004,24.10463 M19.328413,24.20463 L17.546988,24.20463 M17.707542,24.30463 L19.551235,24.30463 M19.77406,24.404629 L17.874985,24.404629 M18.042427,24.50463 L19.996883,24.50463 M20.266146,24.60463 L18.209867,24.60463 M18.37731,24.70463 L20.641258,24.70463 M21.045755,24.80463 L18.544752,24.80463 M18.712194,24.904629 L21.89517,24.904629 M22.577593,24.904629 L25.426243,24.904629 L25.43789,25.00463 L18.92238,25.00463 M19.146341,25.10463 L25.420858,25.10463 L25.391682,25.20463 L19.370302,25.20463 M19.594261,25.30463 L25.30946,25.30463 L25.187572,25.404629 L19.818222,25.404629 M20.148417,25.50463 L24.658989,25.50463 M24.072733,25.60463 L20.522785,25.60463 M21.00625,25.70463 L23.486475,25.70463 M22.59416,25.80463 L21.99546,25.80463 M23.400537,24.80463 L25.388515,24.80463 L25.323412,24.70463 L23.950537,24.70463 M24.500536,24.60463 L25.201115,24.60463" fill="none" id="outline-4" stroke="#800080" stroke-linecap="round" stroke-linejoin="round" stroke-width="0.1"/>
<path d="M28.161196,21.804333 L26.96702,20.71975 L24.459251,19.072618 L23.192871,18.538696 L21.884558,18.225386 L20.87281,18.191633 L19.884754,18.414381 L19.064589,18.927927 L18.484823,19.725082 L18.191633,20.87281 L18.239225,21.985867 L18.514118,23.11798 L19.072618,24.459251 L20.71975,26.96702 L21.835836,28.198942 L24.255121,30.180485 L25.598158,30.955835 L28.014133,31.760775 L29.12719,31.808367 L30.274918,31.515177 L31.072073,30.935411 L31.585619,30.115246 L31.808367,29.12719 L31.774614,28.115442 L31.461304,26.807129 L30.927382,25.540749 L29.28025,23.03298 L28.161196,21.804333 M27.511574,22.491634 L28.719913,22.491634 L28.628744,22.391634 L27.401674,22.391634 M27.474445,22.525555 L29.358917,24.825905 L30.04561,26.013517 L30.776884,28.200148 L30.80663,29.091785 L30.635368,29.791397 L30.296507,30.296507 L29.791397,30.635368 L29.091785,30.80663 L27.156397,30.523447 L26.013517,30.04561 L23.646467,28.490139 L22.525555,27.474445 L21.509861,26.353533 L19.95439,23.986483 L19.476553,22.843603 L19.19337,20.908215 L19.364632,20.208603 L19.703493,19.703493 L20.208603,19.364632 L20.908215,19.19337 L21.799852,19.223116 L23.986483,19.95439 L25.174095,20.641083 L27.474445,22.525555 M27.602207,22.591635 L28.811083,22.591635 L28.902252,22.691633 L27.69284,22.691633 M27.783474,22.791634 L28.993422,22.791634 L29.08459,22.891634 L27.874107,22.891634 M27.96474,22.991634 L29.17576,22.991634 L29.260849,23.091635 L28.055374,23.091635 M28.146008,23.191633 L29.334576,23.191633 L29.408302,23.291634 L28.23664,23.291634 M28.327274,23.391634 L29.48203,23.391634 L29.555758,23.491634 L28.417908,23.491634 M28.508541,23.591635 L29.629486,23.591635 L29.703213,23.691633 L28.5857,23.691633 M28.659344,23.791634 L29.77694,23.791634 L29.850668,23.891634 L28.732988,23.891634 M28.806633,23.991634 L29.924395,23.991634 L29.998123,24.091635 L28.880276,24.091635 M28.95392,24.191633 L30.07185,24.191633 L30.143763,24.291634 L29.027565,24.291634 M29.101208,24.391634 L30.201887,24.391634 L30.260012,24.491634 L29.174852,24.491634 M29.248497,24.591635 L30.318138,24.591635 L30.376263,24.691633 L29.32214,24.691633 M29.395784,24.791634 L30.434387,24.791634 L30.492512,24.891634 L29.454914,24.891634 M29.512657,24.991634 L30.550636,24.991634 L30.608763,25.091635 L29.570402,25.091635 M29.628145,25.191633 L30.666887,25.191633 L30.725012,25.291634 L29.68589,25.291634 M29.743633,25.391634 L30.783136,25.391634 L30.841263,25.491634 L29.801378,25.491634 M29.859121,25.591635 L30.894352,25.591635 L30.936562,25.691633 L29.916866,25.691633 M29.97461,25.791634 L30.978773,25.791634 L31.020983,25.891634 L30.032354,25.891634 M30.089422,25.991634 L31.063192,25.991634 L31.105402,26.091635 L30.13183,26.091635 M30.17365,26.191633 L31.147612,26.191633 L31.189821,26.291634 L30.21547,26.291634 M30.25729,26.391634 L31.23203,26.391634 L31.27424,26.491634 L30.299109,26.491634 M30.340929,26.591635 L31.316452,26.591635 L31.358662,26.691633 L30.38275,26.691633 M30.424568,26.791634 L31.400871,26.791634 L31.42959,26.891634 L30.466389,26.891634 M30.508207,26.991634 L31.45348,26.991634 L31.477371,27.091635 L30.550028,27.091635 M30.583544,27.191633 L31.50126,27.191633 L31.52515,27.291634 L30.607777,27.291634 M30.632011,27.391634 L31.54904,27.391634 L31.57293,27.491634 L30.656244,27.491634 M30.68048,27.591635 L31.596819,27.591635 L31.620708,27.691633 L30.704712,27.691633 M30.728947,27.791634 L31.644598,27.791634 L31.668488,27.891634 L30.75318,27.891634 M30.777412,27.991634 L31.692379,27.991634 L31.716269,28.091635 L30.801647,28.091635 M30.825,28.191633 L31.726307,28.191633 L31.729717,28.291634 L30.82915,28.291634 M30.832512,28.391634 L31.733128,28.391634 L31.736538,28.491634 L30.835876,28.491634 M30.83924,28.591635 L31.739948,28.591635 L31.743357,28.691633 L30.842602,28.691633 M30.845964,28.791634 L31.746767,28.791634 L31.750177,28.891634 L30.849329,28.891634 M30.852692,28.991634 L31.753588,28.991634 L31.756998,29.091635 L30.855455,29.091635 M30.833221,29.191633 L31.742039,29.191633 L31.719442,29.291634 L30.80865,29.291634 M30.784079,29.391634 L31.696844,29.391634 L31.674248,29.491634 L30.759506,29.491634 M30.734936,29.591635 L31.65165,29.591635 L31.629053,29.691633 L30.710363,29.691633 M30.685793,29.791634 L31.606457,29.791634 L31.583858,29.891634 L30.627386,29.891634 M30.560455,29.991634 L31.561262,29.991634 L31.538664,30.091635 L30.493525,30.091635 M30.426594,30.191633 L31.496168,30.191633 L31.442745,30.291634 L30.359663,30.291634 M30.243866,30.391634 L31.37567,30.391634 L31.308594,30.491634 L30.094458,30.491634 M29.94505,30.591635 L31.24152,30.591635 L31.174444,30.691633 L29.767862,30.691633 M29.360886,30.791634 L31.10737,30.791634 L31.040295,30.891634 L25.588161,30.891634 M25.414812,30.791634 L28.050316,30.791634 M27.637667,30.691633 L25.24146,30.691633 M25.068111,30.591635 L27.22502,30.591635 M26.952002,30.491634 L24.89476,30.491634 M24.721409,30.391634 L26.71288,30.391634 M26.473759,30.291634 L24.54806,30.291634 M24.955227,29.491634 L23.407715,29.491634 L23.542875,29.591635 L25.128405,29.591635 M25.301582,29.691633 L23.678038,29.691633 L23.813198,29.791634 L25.47476,29.791634 M25.647938,29.891634 L23.94836,29.891634 L24.08352,29.991634 L25.821115,29.991634 M25.995516,30.091635 L24.218683,30.091635 L24.374708,30.191633 L26.234636,30.191633 M25.814978,30.991634 L30.944366,30.991634 L30.815094,31.091635 L26.053823,31.091635 M26.292667,31.191633 L30.666006,31.191633 L30.51692,31.291634 L26.531511,31.291634 M26.770357,31.391634 L30.367834,31.391634 L30.202244,31.491634 L27.139406,31.491634 M27.541756,31.591635 L29.858227,31.591635 M29.415693,31.691633 L27.944105,31.691633 M24.785997,29.391634 L23.272554,29.391634 L23.137392,29.291634 L24.65021,29.291634 M24.514421,29.191633 L23.005062,29.191633 L22.894833,29.091635 L24.378633,29.091635 M24.242846,28.991634 L22.784603,28.991634 L22.674374,28.891634 L24.107056,28.891634 M23.971268,28.791634 L22.564144,28.791634 L22.453915,28.691633 L23.83548,28.691633 M23.699692,28.591635 L22.343685,28.591635 L22.233456,28.491634 L23.572979,28.491634 M23.462645,28.391634 L22.123226,28.391634 L22.012997,28.291634 L23.35231,28.291634 M23.241976,28.191633 L21.902767,28.191633 L21.805208,28.091635 L23.13164,28.091635 M23.021305,27.991634 L21.714685,27.991634 L21.624163,27.891634 L22.91097,27.891634 M22.800636,27.791634 L21.53364,27.791634 L21.443117,27.691633 L22.690302,27.691633 M22.579967,27.591635 L21.352594,27.591635 L21.26207,27.491634 L22.473167,27.491634 M22.382534,27.391634 L21.171547,27.391634 L21.081024,27.291634 L22.2919,27.291634 M22.201267,27.191633 L20.990501,27.191633 L20.899979,27.091635 L22.110634,27.091635 M22.02,26.991634 L20.809456,26.991634 L20.726553,26.891634 L21.929367,26.891634 M21.838734,26.791634 L20.652824,26.791634 L20.579098,26.691633 L21.7481,26.691633 M21.657467,26.591635 L20.505371,26.591635 L20.431643,26.491634 L21.566833,26.491634 M21.4762,26.391634 L20.357916,26.391634 L20.284187,26.291634 L21.401714,26.291634 M21.32807,26.191633 L20.21046,26.191633 L20.136734,26.091635 L21.254427,26.091635 M21.180782,25.991634 L20.063005,25.991634 L19.989279,25.891634 L21.107138,25.891634 M21.033493,25.791634 L19.91555,25.791634 L19.846096,25.691633 L20.95985,25.691633 M20.886206,25.591635 L19.787985,25.591635 L19.729872,25.491634 L20.812561,25.491634 M20.738918,25.391634 L19.67176,25.391634 L19.613647,25.291634 L20.665274,25.291634 M20.592747,25.191633 L19.555536,25.191633 L19.497423,25.091635 L20.535002,25.091635 M20.477259,24.991634 L19.43931,24.991634 L19.381199,24.891634 L20.419514,24.891634 M20.36177,24.791634 L19.323086,24.791634 L19.264975,24.691633 L20.304026,24.691633 M20.246283,24.591635 L19.206861,24.591635 L19.148748,24.491634 L20.188538,24.491634 M20.130795,24.391634 L19.09813,24.391634 L19.05653,24.291634 L20.07305,24.291634 M20.015305,24.191633 L19.014933,24.191633 L18.973333,24.091635 L19.957561,24.091635 M19.90241,23.991634 L18.931736,23.991634 L18.890137,23.891634 L19.86059,23.891634 M19.818771,23.791634 L18.84854,23.791634 L18.806942,23.691633 L19.77695,23.691633 M19.73513,23.591635 L18.765343,23.591635 L18.723745,23.491634 L19.693312,23.491634 M19.651491,23.391634 L18.682146,23.391634 L18.640549,23.291634 L19.609673,23.291634 M19.567852,23.191633 L18.59895,23.191633 L18.558455,23.091635 L19.526031,23.091635 M19.484213,22.991634 L18.53417,22.991634 L18.509888,22.891634 L19.442392,22.891634 M19.411644,22.791634 L18.485605,22.791634 L18.46132,22.691633 L19.387411,22.691633 M19.363176,22.591635 L18.437038,22.591635 L18.412756,22.491634 L19.338943,22.491634 M19.314709,22.391634 L18.388472,22.391634 L18.36419,22.291634 L19.290476,22.291634 M19.266241,22.191633 L18.339905,22.191633 L18.315622,22.091635 L19.242008,22.091635 M19.217773,21.991634 L18.29134,21.991634 L18.285074,21.891634 L19.19354,21.891634 M19.172686,21.791634 L18.280731,21.791634 L18.276386,21.691633 L19.169321,21.691633 M19.165958,21.591635 L18.272043,21.591635 L18.267698,21.491634 L19.162596,21.491634 M19.159231,21.391634 L18.263355,21.391634 L18.25901,21.291634 L19.155869,21.291634 M19.152506,21.191633 L18.254667,21.191633 L18.250324,21.091635 L19.149143,21.091635 M19.145779,20.991634 L18.24598,20.991634 L18.241636,20.891634 L19.145073,20.891634 M19.169643,20.791634 L18.26031,20.791634 L18.28293,20.691633 L19.194216,20.691633 M19.218786,20.591635 L18.30555,20.591635 L18.32817,20.491634 L19.243359,20.491634 M19.26793,20.391634 L18.350792,20.391634 L18.373411,20.291634 L19.292501,20.291634 M19.318495,20.191633 L18.396032,20.191633 L18.418652,20.091635 L19.382145,20.091635 M19.449074,19.991634 L18.441273,19.991634 L18.465687,19.891634 L19.516005,19.891634 M19.582935,19.791634 L18.509768,19.791634 L18.566807,19.691633 L19.649866,19.691633 M19.778639,19.591635 L18.633883,19.591635 L18.700958,19.491634 L19.928047,19.491634 M20.077456,19.391634 L18.768032,19.391634 L18.835108,19.291634 L20.295164,19.291634 M20.70214,19.191633 L18.902184,19.191633 L18.970366,19.091635 L24.377386,19.091635 M24.13991,18.991634 L19.070366,18.991634 L19.207361,18.891634 L23.902433,18.891634 M23.664957,18.791634 L19.356447,18.791634 L19.505535,18.691633 L23.42748,18.691633 M23.190004,18.591635 L19.654621,18.591635 M19.832212,18.491634 L22.780418,18.491634 M22.36247,18.391634 L20.210712,18.391634 M20.653698,18.291634 L21.94452,18.291634 M21.883766,19.191633 L24.566584,19.191633 L24.738491,19.291634 L22.296413,19.291634 M22.709063,19.391634 L24.9104,19.391634 L25.08231,19.491634 L23.00938,19.491634 M23.2485,19.591635 L25.254217,19.591635 L25.426126,19.691633 L23.487623,19.691633 M23.726744,19.791634 L25.598034,19.791634 L25.759193,19.891634 L23.965866,19.891634 M24.15064,19.991634 L25.894829,19.991634 L26.030464,20.091635 L24.323818,20.091635 M24.496996,20.191633 L26.166098,20.191633 L26.301733,20.291634 L24.670174,20.291634 M24.843351,20.391634 L26.437368,20.391634 L26.573002,20.491634 L25.01653,20.491634 M25.189707,20.591635 L26.708637,20.591635 L26.844273,20.691633 L25.327429,20.691633 M25.463217,20.791634 L26.971832,20.791634 L27.081944,20.891634 L25.599005,20.891634 M25.734793,20.991634 L27.192055,20.991634 L27.302166,21.091635 L25.87058,21.091635 M26.006369,21.191633 L27.412277,21.191633 L27.522388,21.291634 L26.142159,21.291634 M26.277946,21.391634 L27.6325,21.391634 L27.74261,21.491634 L26.408663,21.491634 M26.518997,21.591635 L27.852722,21.591635 L27.962835,21.691633 L26.629332,21.691633 M26.739668,21.791634 L28.072947,21.791634 L28.172897,21.891634 L26.850002,21.891634 M26.960337,21.991634 L28.264067,21.991634 L28.355236,22.091635 L27.070671,22.091635 M27.181005,22.191633 L28.446405,22.191633 L28.537575,22.291634 L27.29134,22.291634" fill="none" id="outline-4" stroke="#00ffff" stroke-linecap="round" stroke-linejoin="round" stroke-width="0.1"/>
<path d="M20.875364,18.791355 L20.863556,18.791355 M20.457615,18.891356 L22.12878,18.891356 M22.541372,18.991356 L20.051674,18.991356 M19.898165,19.091356 L22.953964,19.091356 M23.199518,19.191357 L19.748877,19.191357 M19.599586,19.291355 L23.438753,19.291355 M23.677988,19.391356 L19.450298,19.391356 M19.363853,19.491356 L23.917223,19.491356 M24.15646,19.591356 L19.29687,19.591356 M19.229885,19.691357 L24.329994,19.691357 M24.503103,19.791355 L19.1629,19.791355 M19.095917,19.891356 L24.676212,19.891356 M24.849321,19.991356 L19.028933,19.991356 M18.98158,20.091356 L25.02243,20.091356 M25.195541,20.191357 L18.956947,20.191357 M18.932312,20.291355 L25.36865,20.291355 M25.50995,20.391356 L18.907679,20.391356 M18.883043,20.491356 L25.645792,20.491356 M25.781635,20.591356 L18.85841,20.591356 M18.833776,20.691357 L25.917479,20.691357 M26.05332,20.791355 L18.809141,20.791355 M18.791904,20.891356 L26.189163,20.891356 M26.325006,20.991356 L18.79534,20.991356 M18.798775,21.091356 L26.460848,21.091356 M26.596691,21.191357 L18.802208,21.191357 M18.805643,21.291355 L26.708202,21.291355 M26.818527,21.391356 L18.809076,21.391356 M18.812511,21.491356 L26.928852,21.491356 M27.039177,21.591356 L18.815945,21.591356 M18.81938,21.691357 L27.149502,21.691357 M27.259827,21.791355 L18.822815,21.791355 M18.83381,21.891356 L27.370152,21.891356 M27.480476,21.991356 L18.85805,21.991356 M18.882286,22.091356 L27.590801,22.091356 M27.701126,22.191357 L18.906523,22.191357 M18.93076,22.291355 L27.801733,22.291355 M27.892366,22.391356 L18.954996,22.391356 M18.979233,22.491356 L27.983,22.491356 M28.073631,22.591356 L19.003471,22.591356 M19.027708,22.691357 L28.164265,22.691357 M28.254898,22.791355 L19.051945,22.791355 M19.076181,22.891356 L28.345531,22.891356 M28.436165,22.991356 L19.104345,22.991356 M19.146145,23.091356 L28.526798,23.091356 M28.617432,23.191357 L19.187944,23.191357 M19.229744,23.291355 L28.708065,23.291355 M28.798697,23.391356 L19.271544,23.391356 M19.313343,23.491356 L28.872953,23.491356 M28.946589,23.591356 L19.355145,23.591356 M19.396944,23.691357 L29.020226,23.691357 M29.093863,23.791355 L19.438744,23.791355 M19.480543,23.891356 L29.167498,23.891356 M29.241135,23.991356 L19.522343,23.991356 M19.564142,24.091356 L29.314772,24.091356 M29.388407,24.191357 L19.61125,24.191357 M19.66896,24.291355 L29.462044,24.291355 M29.53568,24.391356 L19.726671,24.391356 M19.784384,24.491356 L29.609316,24.491356 M29.682953,24.591356 L19.842094,24.591356 M19.899805,24.691357 L29.742886,24.691357 M29.800652,24.791355 L19.957516,24.791355 M20.015228,24.891356 L29.85842,24.891356 M29.916185,24.991356 L20.072939,24.991356 M20.13065,25.091356 L29.973953,25.091356 M30.031721,25.191357 L20.18836,25.191357 M20.24607,25.291355 L30.089487,25.291355 M30.147255,25.391356 L20.303999,25.391356 M20.377617,25.491356 L30.20502,25.491356 M30.262789,25.591356 L20.451237,25.591356 M20.524855,25.691357 L30.320555,25.691357 M30.378323,25.791355 L20.598475,25.791355 M20.672094,25.891356 L30.42805,25.891356 M30.469849,25.991356 L20.745712,25.991356 M20.819332,26.091356 L30.511648,26.091356 M30.553448,26.191357 L20.892952,26.191357 M20.96657,26.291355 L30.595247,26.291355 M30.637049,26.391356 L21.04019,26.391356 M21.113808,26.491356 L30.678848,26.491356 M30.720648,26.591356 L21.187428,26.591356 M21.276087,26.691357 L30.762447,26.691357 M30.804247,26.791355 L21.366728,26.791355 M21.457369,26.891356 L30.846046,26.891356 M30.887846,26.991356 L21.54801,26.991356 M21.638653,27.091356 L30.91887,27.091356 M30.943108,27.191357 L21.729294,27.191357 M21.819935,27.291355 L30.967344,27.291355 M30.991581,27.391356 L21.910576,27.391356 M22.001217,27.491356 L31.01582,27.491356 M31.040056,27.591356 L22.091858,27.591356 M22.182499,27.691357 L31.064293,27.691357 M31.08853,27.791355 L22.279907,27.791355 M22.390242,27.891356 L31.112766,27.891356 M31.137003,27.991356 L22.500576,27.991356 M22.610912,28.091356 L31.161242,28.091356 M31.175627,28.191357 L22.721247,28.191357 M22.831581,28.291355 L31.17906,28.291355 M31.182495,28.391356 L22.941916,28.391356 M23.052252,28.491356 L31.18593,28.491356 M31.189363,28.591356 L23.162586,28.591356 M23.27292,28.691357 L31.192799,28.691357 M31.196232,28.791355 L23.383255,28.791355 M23.516348,28.891356 L31.199667,28.891356 M31.2031,28.991356 L23.65215,28.991356 M23.787952,29.091356 L31.206535,29.091356 M31.19387,29.191357 L23.923756,29.191357 M24.059557,29.291355 L31.169237,29.291355 M31.144602,29.391356 L24.19536,29.391356 M24.331161,29.491356 L31.119968,29.491356 M31.095335,29.591356 L24.466965,29.591356 M24.602768,29.691357 L31.0707,29.691357 M31.046066,29.791355 L24.775263,29.791355 M24.948372,29.891356 L31.021431,29.891356 M30.980978,29.991356 L25.12148,29.991356 M25.294592,30.091356 L30.913994,30.091356 M30.84701,30.191357 L25.467701,30.191357 M25.64081,30.291355 L30.780025,30.291355 M30.713041,30.391356 L25.81392,30.391356 M26.042809,30.491356 L30.646057,30.491356 M30.573019,30.591356 L26.282045,30.591356 M26.52128,30.691357 L30.423729,30.691357 M30.27444,30.791355 L26.760515,30.791355 M26.99975,30.891356 L30.12515,30.891356 M29.975863,30.991356 L27.390425,30.991356 M27.803017,31.091356 L29.607506,31.091356 M29.201565,31.191357 L28.649364,31.191357" fill="none" id="fill-4" stroke="#00ffff" stroke-linecap="round" stroke-linejoin="round" stroke-width="0.1"/>
<path d="M80,60 L94.142136,65.857864 L100,80 L94.142136,94.142136 L80,100 L65.857864,94.142136 L60,80 L65.857864,65.857864 L80,60" fill="none" id="outline-5" stroke="#008000" stroke-linecap="round" stroke-linejoin="round" stroke-width="0.1"/>
<path d="M79.77788,60.2 L80.22211,60.2 M80.463524,60.3 L79.536446,60.3 M79.29501,60.4 L80.70494,60.4 M80.94636,60.5 L79.05357,60.5 M78.81214,60.6 L81.187775,60.6 M81.42919,60.7 L78.5707,60.7 M78.32927,60.8 L81.67061,60.8 M81.912025,60.9 L78.08784,60.9 M77.8464,61 L82.15345,61 M82.39487,61.1 L77.604965,61.1 M77.36353,61.2 L82.636284,61.2 M82.8777,61.3 L77.12209,61.3 M76.88066,61.4 L83.11912,61.4 M83.360535,61.5 L76.63923,61.5 M76.39779,61.6 L83.60195,61.6 M83.84337,61.7 L76.15636,61.7 M75.91492,61.8 L84.084785,61.8 M84.32621,61.9 L75.673485,61.9 M75.43205,62 L84.56763,62 M84.809044,62.1 L75.19061,62.1 M74.94918,62.2 L85.05046,62.2 M85.29188,62.3 L74.70775,62.3 M74.46631,62.4 L85.533295,62.4 M85.77471,62.5 L74.22488,62.5 M73.983444,62.6 L86.01613,62.6 M86.257545,62.7 L73.742004,62.7 M73.50057,62.8 L86.49897,62.8 M86.74039,62.9 L73.25914,62.9 M73.0177,63 L86.981804,63 M87.22322,63.1 L72.77627,63.1 M72.53483,63.2 L87.46464,63.2 M87.706055,63.3 L72.293396,63.3 M72.05196,63.4 L87.94747,63.4 M88.18889,63.5 L71.810524,63.5 M71.56909,63.6 L88.430305,63.6 M88.67173,63.7 L71.32766,63.7 M71.08622,63.8 L88.91315,63.8 M89.154564,63.9 L70.84479,63.9 M70.603355,64 L89.39598,64 M89.6374,64.1 L70.361916,64.1 M70.12048,64.2 L89.878815,64.2 M90.12023,64.3 L69.87904,64.3 M69.63761,64.4 L90.36165,64.4 M90.603065,64.5 L69.39618,64.5 M69.15474,64.6 L90.84449,64.6 M91.08591,64.7 L68.91331,64.7 M68.671875,64.8 L91.327324,64.8 M91.56874,64.9 L68.430435,64.9 M68.189,65 L91.81016,65 M92.051575,65.1 L67.94757,65.1 M67.70613,65.2 L92.29299,65.2 M92.53441,65.3 L67.4647,65.3 M67.22326,65.4 L92.775826,65.4 M93.01725,65.5 L66.98183,65.5 M66.740395,65.6 L93.25867,65.6 M93.500084,65.7 L66.498955,65.7 M66.25752,65.8 L93.7415,65.8 M93.98292,65.9 L66.01609,65.9 M65.90666,66 L94.09234,66 M94.13376,66.1 L65.86524,66.1 M65.823814,66.2 L94.175186,66.2 M94.216606,66.3 L65.782394,66.3 M65.740974,66.4 L94.258026,66.4 M94.299446,66.5 L65.699554,66.5 M65.65813,66.6 L94.34087,66.6 M94.38229,66.7 L65.61671,66.7 M65.57529,66.8 L94.42371,66.8 M94.46513,66.9 L65.53387,66.9 M65.49244,67 L94.50656,67 M94.54798,67.1 L65.45102,67.1 M65.4096,67.2 L94.5894,67.2 M94.63082,67.3 L65.36818,67.3 M65.32675,67.4 L94.67225,67.4 M94.71367,67.5 L65.28533,67.5 M65.24391,67.6 L94.75509,67.6 M94.79651,67.7 L65.20249,67.7 M65.161064,67.8 L94.83794,67.8 M94.87936,67.9 L65.119644,67.9 M65.078224,68 L94.92078,68 M94.9622,68.1 L65.0368,68.1 M64.99538,68.2 L95.003624,68.2 M95.045044,68.3 L64.95396,68.3 M64.91254,68.4 L95.086464,68.4 M95.12789,68.5 L64.87111,68.5 M64.82969,68.6 L95.16931,68.6 M95.21073,68.7 L64.78827,68.7 M64.74685,68.8 L95.25215,68.8 M95.29358,68.9 L64.70542,68.9 M64.664,69 L95.335,69 M95.37642,69.1 L64.62258,69.1 M64.58116,69.2 L95.41784,69.2 M95.45927,69.3 L64.539734,69.3 M64.498314,69.4 L95.50069,69.4 M95.54211,69.5 L64.456894,69.5 M64.415474,69.6 L95.58353,69.6 M95.624954,69.7 L64.37405,69.7 M64.33263,69.8 L95.666374,69.8 M95.707794,69.9 L64.29121,69.9 M64.24979,70 L95.749214,70 M95.79064,70.1 L64.20836,70.1 M64.16694,70.2 L95.83206,70.2 M95.87348,70.3 L64.12552,70.3 M64.08409,70.4 L95.9149,70.4 M95.95633,70.5 L64.04267,70.5 M64.00125,70.6 L95.99775,70.6 M96.03917,70.7 L63.959827,70.7 M63.918407,70.8 L96.08059,70.8 M96.12202,70.9 L63.876984,70.9 M63.835564,71 L96.16344,71 M96.20486,71.1 L63.79414,71.1 M63.75272,71.2 L96.246284,71.2 M96.287704,71.3 L63.711296,71.3 M63.669876,71.4 L96.329124,71.4 M96.370544,71.5 L63.628452,71.5 M63.587032,71.6 L96.41197,71.6 M96.45339,71.7 L63.54561,71.7 M63.50419,71.8 L96.49481,71.8 M96.53623,71.9 L63.462765,71.9 M63.421345,72 L96.57766,72 M96.61908,72.1 L63.37992,72.1 M63.3385,72.2 L96.6605,72.2 M96.70192,72.3 L63.297077,72.3 M63.255657,72.4 L96.74335,72.4 M96.78477,72.5 L63.214233,72.5 M63.172813,72.6 L96.82619,72.6 M96.86761,72.7 L63.13139,72.7 M63.089966,72.8 L96.909035,72.8 M96.950455,72.9 L63.048546,72.9 M63.007122,73 L96.991875,73 M97.033295,73.1 L62.965702,73.1 M62.92428,73.2 L97.07472,73.2 M97.11614,73.3 L62.88286,73.3 M62.841434,73.4 L97.15756,73.4 M97.19899,73.5 L62.800014,73.5 M62.75859,73.6 L97.24041,73.6 M97.28183,73.7 L62.71717,73.7 M62.675747,73.8 L97.32325,73.8 M97.36468,73.9 L62.634327,73.9 M62.592903,74 L97.4061,74 M97.44752,74.1 L62.551483,74.1 M62.51006,74.2 L97.48894,74.2 M97.530365,74.3 L62.46864,74.3 M62.427216,74.4 L97.571785,74.4 M97.613205,74.5 L62.385796,74.5 M62.34437,74.6 L97.654625,74.6 M97.69605,74.7 L62.30295,74.7 M62.261528,74.8 L97.73747,74.8 M97.77889,74.9 L62.220108,74.9 M62.178684,75 L97.82031,75 M97.86174,75.1 L62.13726,75.1 M62.09584,75.2 L97.90316,75.2 M97.94458,75.3 L62.054417,75.3 M62.012997,75.4 L97.986,75.4 M98.02743,75.5 L61.971573,75.5 M61.930153,75.6 L98.06885,75.6 M98.11027,75.7 L61.88873,75.7 M61.84731,75.8 L98.151695,75.8 M98.193115,75.9 L61.805885,75.9 M61.764465,76 L98.234535,76 M98.275955,76.1 L61.72304,76.1 M61.68162,76.2 L98.31738,76.2 M98.3588,76.3 L61.640198,76.3 M61.598778,76.4 L98.40022,76.4 M98.44164,76.5 L61.557354,76.5 M61.515934,76.6 L98.48307,76.6 M98.52449,76.7 L61.47451,76.7 M61.43309,76.8 L98.56591,76.8 M98.60733,76.9 L61.391666,76.9 M61.350246,77 L98.64876,77 M98.69018,77.1 L61.308823,77.1 M61.267403,77.2 L98.7316,77.2 M98.77302,77.3 L61.22598,77.3 M61.18456,77.4 L98.814445,77.4 M98.855865,77.5 L61.143135,77.5 M61.10171,77.6 L98.897285,77.6 M98.938705,77.7 L61.06029,77.7 M61.018867,77.8 L98.98013,77.8 M99.02155,77.9 L60.977448,77.9 M60.936024,78 L99.06297,78 M99.10439,78.1 L60.894604,78.1 M60.85318,78.2 L99.14582,78.2 M99.18724,78.3 L60.81176,78.3 M60.770336,78.4 L99.22866,78.4 M99.27009,78.5 L60.728916,78.5 M60.687492,78.6 L99.31151,78.6 M99.35293,78.7 L60.646072,78.7 M60.60465,78.8 L99.39435,78.8 M99.435776,78.9 L60.56323,78.9 M60.521805,79 L99.477196,79 M99.518616,79.1 L60.480385,79.1 M60.43896,79.2 L99.560036,79.2 M99.60146,79.3 L60.39754,79.3 M60.356117,79.4 L99.64288,79.4 M99.6843,79.5 L60.314697,79.5 M60.273273,79.6 L99.72572,79.6 M99.76715,79.7 L60.231853,79.7 M60.19043,79.8 L99.80857,79.8 M99.84999,79.9 L60.149006,79.9 M60.108414,80 L99.89059,80 M99.84917,80.1 L60.149834,80.1 M60.191254,80.2 L99.80775,80.2 M99.76633,80.3 L60.23267,80.3 M60.27409,80.4 L99.72491,80.4 M99.68349,80.5 L60.31551,80.5 M60.35693,80.6 L99.642075,80.6 M99.600655,80.7 L60.398346,80.7 M60.439766,80.8 L99.559235,80.8 M99.517815,80.9 L60.481186,80.9 M60.522606,81 L99.476395,81 M99.434975,81.1 L60.564022,81.1 M60.605442,81.2 L99.393555,81.2 M99.352135,81.3 L60.646862,81.3 M60.688282,81.4 L99.31072,81.4 M99.2693,81.5 L60.7297,81.5 M60.77112,81.6 L99.22788,81.6 M99.18646,81.7 L60.81254,81.7 M60.85396,81.8 L99.14504,81.8 M99.10362,81.9 L60.895374,81.9 M60.936794,82 L99.0622,82 M99.02079,82.1 L60.978214,82.1 M61.019634,82.2 L98.97937,82.2 M98.93795,82.3 L61.06105,82.3 M61.10247,82.4 L98.89653,82.4 M98.85511,82.5 L61.14389,82.5 M61.18531,82.6 L98.81369,82.6 M98.77227,82.7 L61.226727,82.7 M61.268147,82.8 L98.73085,82.8 M98.68944,82.9 L61.309566,82.9 M61.350986,83 L98.64802,83 M98.6066,83.1 L61.392403,83.1 M61.433823,83.2 L98.56518,83.2 M98.52376,83.3 L61.475243,83.3 M61.516663,83.4 L98.48234,83.4 M98.44092,83.5 L61.55808,83.5 M61.5995,83.6 L98.3995,83.6 M98.358086,83.7 L61.64092,83.7 M61.68234,83.8 L98.316666,83.8 M98.275246,83.9 L61.723755,83.9 M61.765175,84 L98.233826,84 M98.192406,84.1 L61.806595,84.1 M61.848015,84.2 L98.150986,84.2 M98.109566,84.3 L61.88943,84.3 M61.93085,84.4 L98.068146,84.4 M98.02673,84.5 L61.97227,84.5 M62.01369,84.6 L97.98531,84.6 M97.94389,84.7 L62.055107,84.7 M62.096527,84.8 L97.90247,84.8 M97.86105,84.9 L62.137947,84.9 M62.179367,85 L97.81963,85 M97.77821,85.1 L62.220783,85.1 M62.262203,85.2 L97.73679,85.2 M97.69538,85.3 L62.303623,85.3 M62.345043,85.4 L97.65396,85.4 M97.61254,85.5 L62.38646,85.5 M62.42788,85.6 L97.57112,85.6 M97.5297,85.7 L62.4693,85.7 M62.51072,85.8 L97.48828,85.8 M97.44686,85.9 L62.552135,85.9 M62.593555,86 L97.40544,86 M97.36403,86.1 L62.634975,86.1 M62.676395,86.2 L97.32261,86.2 M97.28119,86.3 L62.71781,86.3 M62.75923,86.4 L97.23977,86.4 M97.19835,86.5 L62.80065,86.5 M62.84207,86.6 L97.15693,86.6 M97.11551,86.7 L62.883488,86.7 M62.924908,86.8 L97.07409,86.8 M97.03268,86.9 L62.966328,86.9 M63.007748,87 L96.99126,87 M96.94984,87.1 L63.049164,87.1 M63.090584,87.2 L96.90842,87.2 M96.867,87.3 L63.132004,87.3 M63.173424,87.4 L96.82558,87.4 M96.78416,87.5 L63.21484,87.5 M63.25626,87.6 L96.74274,87.6 M96.701324,87.7 L63.29768,87.7 M63.3391,87.8 L96.659904,87.8 M96.618484,87.9 L63.380516,87.9 M63.421936,88 L96.577065,88 M96.535645,88.1 L63.463356,88.1 M63.504776,88.2 L96.494225,88.2 M96.452805,88.3 L63.546192,88.3 M63.587612,88.4 L96.411385,88.4 M96.36997,88.5 L63.629032,88.5 M63.670452,88.6 L96.32855,88.6 M96.28713,88.7 L63.71187,88.7 M63.75329,88.8 L96.24571,88.8 M96.20429,88.9 L63.79471,88.9 M63.83613,89 L96.16287,89 M96.12145,89.1 L63.877544,89.1 M63.918964,89.2 L96.08003,89.2 M96.03862,89.3 L63.960384,89.3 M64.0018,89.4 L95.9972,89.4 M95.95578,89.5 L64.04322,89.5 M64.08464,89.6 L95.91436,89.6 M95.87294,89.7 L64.12606,89.7 M64.16748,89.8 L95.83152,89.8 M95.7901,89.9 L64.2089,89.9 M64.25032,90 L95.74868,90 M95.70727,90.1 L64.29173,90.1 M64.33315,90.2 L95.66585,90.2 M95.62443,90.3 L64.37457,90.3 M64.41599,90.4 L95.58301,90.4 M95.54159,90.5 L64.45741,90.5 M64.49883,90.6 L95.50017,90.6 M95.45875,90.7 L64.54025,90.7 M64.581665,90.8 L95.41733,90.8 M95.375916,90.9 L64.623085,90.9 M64.664505,91 L95.334496,91 M95.293076,91.1 L64.705925,91.1 M64.747345,91.2 L95.251656,91.2 M95.210236,91.3 L64.788765,91.3 M64.830185,91.4 L95.168816,91.4 M95.127396,91.5 L64.871605,91.5 M64.91302,91.6 L95.085976,91.6 M95.04456,91.7 L64.95444,91.7 M64.99586,91.8 L95.00314,91.8 M94.96172,91.9 L65.03728,91.9 M65.0787,92 L94.9203,92 M94.87888,92.1 L65.12012,92.1 M65.16154,92.2 L94.83746,92.2 M94.79604,92.3 L65.20296,92.3 M65.24437,92.4 L94.75462,92.4 M94.71321,92.5 L65.28579,92.5 M65.32721,92.6 L94.67179,92.6 M94.63037,92.7 L65.36863,92.7 M65.41005,92.8 L94.58895,92.8 M94.54753,92.9 L65.45147,92.9 M65.49289,93 L94.50611,93 M94.46469,93.1 L65.53431,93.1 M65.57572,93.2 L94.42327,93.2 M94.38186,93.3 L65.61714,93.3 M65.65856,93.4 L94.34044,93.4 M94.29902,93.5 L65.69998,93.5 M65.7414,93.6 L94.2576,93.6 M94.21618,93.7 L65.78282,93.7 M65.82424,93.8 L94.17476,93.8 M94.13334,93.9 L65.86566,93.9 M65.907074,94 L94.09192,94 M93.98051,94.1 L66.0185,94.1 M66.25993,94.2 L93.73908,94.2 M93.497665,94.3 L66.50137,94.3 M66.742805,94.4 L93.25625,94.4 M93.01483,94.5 L66.984245,94.5 M67.22568,94.6 L92.773415,94.6 M92.532,94.7 L67.46711,94.7 M67.70855,94.8 L92.29058,94.8 M92.049164,94.9 L67.94998,94.9 M68.191414,95 L91.80775,95 M91.56632,95.1 L68.43285,95.1 M68.674286,95.2 L91.324905,95.2 M91.08349,95.3 L68.91572,95.3 M69.15716,95.4 L90.84207,95.4 M90.600655,95.5 L69.39859,95.5 M69.64003,95.6 L90.35924,95.6 M90.11782,95.7 L69.88146,95.7 M70.122894,95.8 L89.8764,95.8 M89.63499,95.9 L70.364334,95.9 M70.60577,96 L89.39356,96 M89.152145,96.1 L70.8472,96.1 M71.08864,96.2 L88.91073,96.2 M88.66931,96.3 L71.33007,96.3 M71.5715,96.4 L88.427895,96.4 M88.18648,96.5 L71.81294,96.5 M72.054375,96.6 L87.94506,96.6 M87.70364,96.7 L72.295815,96.7 M72.53725,96.8 L87.46223,96.8 M87.2208,96.9 L72.77868,96.9 M73.02012,97 L86.979385,97 M86.73797,97.1 L73.26155,97.1 M73.50298,97.2 L86.49655,97.2 M86.255135,97.3 L73.74442,97.3 M73.985855,97.4 L86.01372,97.4 M85.7723,97.5 L74.22729,97.5 M74.46873,97.6 L85.53088,97.6 M85.28947,97.7 L74.71016,97.7 M74.95159,97.8 L85.04804,97.8 M84.806625,97.9 L75.19303,97.9 M75.43446,98 L84.56521,98 M84.32379,98.1 L75.6759,98.1 M75.917336,98.2 L84.082375,98.2 M83.84096,98.3 L76.15877,98.3 M76.40021,98.4 L83.59954,98.4 M83.35812,98.5 L76.64164,98.5 M76.88307,98.6 L83.11671,98.6 M82.87528,98.7 L77.12451,98.7 M77.365944,98.8 L82.633865,98.8 M82.39245,98.9 L77.607376,98.9 M77.848816,99 L82.15103,99 M81.909615,99.1 L78.09025,99.1 M78.33169,99.2 L81.6682,99.2 M81.42678,99.3 L78.57312,99.3 M78.81455,99.4 L81.18536,99.4 M80.94395,99.5 L79.05599,99.5 M79.297424,99.6 L80.70252,99.6 M80.461105,99.7 L79.53886,99.7 M79.7803,99.8 L80.21969,99.8" fill="none" id="fill-5" stroke="#008000" stroke-linecap="round" stroke-linejoin="round" stroke-width="0.1"/>
<path d="M30,60 L35.877853,71.90983 L49.02113,73.81966 L39.510567,83.09017 L41.755707,96.18034 L30,90 L18.244295,96.18034 L20.489435,83.09017 L10.978869,73.81966 L24.122147,71.90983 L30,60" fill="none" id="outline-6" stroke="#008000" stroke-linecap="round" stroke-linejoin="round" stroke-width="0.1"/>
<path d="M30.03701,60.3 L29.962982,60.3 M29.913626,60.4 L30.086359,60.4 M30.135706,60.5 L29.86427,60.5 M29.814915,60.6 L30.185055,60.6 M30.234402,60.7 L29.765558,60.7 M29.716202,60.8 L30.28375,60.8 M30.333097,60.9 L29.666845,60.9 M29.617489,61 L30.382444,61 M30.431793,61.1 L29.568132,61.1 M29.518776,61.2 L30.48114,61.2 M30.530489,61.3 L29.46942,61.3 M29.420063,61.4 L30.579836,61.4 M30.629185,61.5 L29.370707,61.5 M29.32135,61.6 L30.678532,61.6 M30.72788,61.7 L29.271996,61.7 M29.22264,61.8 L30.777227,61.8 M30.826574,61.9 L29.173283,61.9 M29.123926,62 L30.875923,62 M30.92527,62.1 L29.07457,62.1 M29.025213,62.2 L30.974619,62.2 M31.023966,62.3 L28.975857,62.3 M28.9265,62.4 L31.073315,62.4 M31.122662,62.5 L28.877144,62.5 M28.827787,62.6 L31.17201,62.6 M31.221357,62.7 L28.77843,62.7 M28.729074,62.8 L31.270704,62.8 M31.320053,62.9 L28.67972,62.9 M28.630363,63 L31.3694,63 M31.418749,63.1 L28.581007,63.1 M28.53165,63.2 L31.468096,63.2 M31.517445,63.3 L28.482294,63.3 M28.432938,63.4 L31.566792,63.4 M31.61614,63.5 L28.383581,63.5 M28.334225,63.6 L31.665487,63.6 M31.714834,63.7 L28.284868,63.7 M28.235512,63.8 L31.764183,63.8 M31.81353,63.9 L28.186155,63.9 M28.1368,64 L31.862879,64 M31.912226,64.1 L28.087444,64.1 M28.038088,64.2 L31.961575,64.2 M32.01092,64.3 L27.988731,64.3 M27.939375,64.4 L32.06027,64.4 M32.109615,64.5 L27.890018,64.5 M27.840662,64.6 L32.158966,64.6 M32.208313,64.7 L27.791306,64.7 M27.74195,64.8 L32.25766,64.8 M32.307007,64.9 L27.692593,64.9 M27.643236,65 L32.356358,65 M32.405704,65.1 L27.59388,65.1 M27.544525,65.2 L32.45505,65.2 M32.5044,65.3 L27.495169,65.3 M27.445812,65.4 L32.553745,65.4 M32.603096,65.5 L27.396456,65.5 M27.3471,65.6 L32.652443,65.6 M32.70179,65.7 L27.297743,65.7 M27.248386,65.8 L32.751137,65.8 M32.800488,65.9 L27.19903,65.9 M27.149673,66 L32.849834,66 M32.89918,66.1 L27.100317,66.1 M27.05096,66.2 L32.94853,66.2 M32.997875,66.3 L27.001604,66.3 M26.95225,66.4 L33.047226,66.4 M33.096573,66.5 L26.902893,66.5 M26.853537,66.6 L33.14592,66.6 M33.195267,66.7 L26.80418,66.7 M26.754824,66.8 L33.244617,66.8 M33.293964,66.9 L26.705467,66.9 M26.65611,67 L33.34331,67 M33.39266,67.1 L26.606754,67.1 M26.557398,67.2 L33.442005,67.2 M33.491356,67.3 L26.508041,67.3 M26.458685,67.4 L33.540703,67.4 M33.59005,67.5 L26.40933,67.5 M26.359974,67.6 L33.639397,67.6 M33.688747,67.7 L26.310617,67.7 M26.261261,67.8 L33.738094,67.8 M33.78744,67.9 L26.211905,67.9 M26.162548,68 L33.83679,68 M33.886135,68.1 L26.113192,68.1 M26.063835,68.2 L33.935486,68.2 M33.984833,68.3 L26.014479,68.3 M25.965122,68.4 L34.03418,68.4 M34.083527,68.5 L25.915766,68.5 M25.86641,68.6 L34.132877,68.6 M34.182224,68.7 L25.817055,68.7 M25.767698,68.8 L34.23157,68.8 M34.28092,68.9 L25.718342,68.9 M25.668985,69 L34.330265,69 M34.379616,69.1 L25.619629,69.1 M25.570272,69.2 L34.428963,69.2 M34.47831,69.3 L25.520916,69.3 M25.47156,69.4 L34.527657,69.4 M34.577007,69.5 L25.422203,69.5 M25.372847,69.6 L34.626354,69.6 M34.6757,69.7 L25.32349,69.7 M25.274134,69.8 L34.725048,69.8 M34.774395,69.9 L25.22478,69.9 M25.175423,70 L34.823746,70 M34.873093,70.1 L25.126066,70.1 M25.07671,70.2 L34.92244,70.2 M34.971786,70.3 L25.027353,70.3 M24.977997,70.4 L35.021137,70.4 M35.070484,70.5 L24.92864,70.5 M24.879284,70.6 L35.11983,70.6 M35.169178,70.7 L24.829927,70.7 M24.780571,70.8 L35.218525,70.8 M35.267876,70.9 L24.731215,70.9 M24.68186,71 L35.317223,71 M35.36657,71.1 L24.632504,71.1 M24.583147,71.2 L35.415916,71.2 M35.465267,71.3 L24.53379,71.3 M24.484434,71.4 L35.514614,71.4 M35.56396,71.5 L24.435078,71.5 M24.385721,71.6 L35.613308,71.6 M35.662655,71.7 L24.336365,71.7 M24.287008,71.8 L35.712006,71.8 M35.761353,71.9 L24.237652,71.9 M24.156666,72 L35.842335,72 M36.496044,72.1 L23.502956,72.1 M22.814865,72.2 L37.184135,72.2 M37.872227,72.3 L22.126774,72.3 M21.43868,72.4 L38.560318,72.4 M39.24841,72.5 L20.75059,72.5 M20.062498,72.6 L39.9365,72.6 M40.62459,72.7 L19.374407,72.7 M18.686316,72.8 L41.312683,72.8 M42.000774,72.9 L17.998224,72.9 M17.310133,73 L42.688866,73 M43.376957,73.1 L16.622042,73.1 M15.93395,73.2 L44.06505,73.2 M44.753143,73.3 L15.245858,73.3 M14.557767,73.4 L45.441235,73.4 M46.129326,73.5 L13.869676,73.5 M13.181584,73.6 L46.817417,73.6 M47.50551,73.7 L12.493493,73.7 M11.805402,73.8 L48.1936,73.8 M48.486927,74.2 L11.5120735,74.2 M11.409478,74.1 L48.589523,74.1 M48.69212,74 L11.306882,74 M11.204286,73.9 L48.794716,73.9 M48.38433,74.3 L11.61467,74.3 M11.717266,74.4 L48.281734,74.4 M48.17914,74.5 L11.819862,74.5 M11.922459,74.6 L48.07654,74.6 M47.973946,74.7 L12.025055,74.7 M12.12765,74.8 L47.87135,74.8 M47.768753,74.9 L12.230247,74.9 M12.332843,75 L47.666157,75 M47.56356,75.1 L12.435439,75.1 M12.538035,75.2 L47.460964,75.2 M47.358368,75.3 L12.640632,75.3 M12.743227,75.4 L47.25577,75.4 M47.153175,75.5 L12.845823,75.5 M12.94842,75.6 L47.05058,75.6 M46.947983,75.7 L13.051016,75.7 M13.153612,75.8 L46.845387,75.8 M46.74279,75.9 L13.256208,75.9 M13.358804,76 L46.640198,76 M46.5376,76.1 L13.4614,76.1 M13.563996,76.2 L46.435005,76.2 M46.33241,76.3 L13.666593,76.3 M13.769189,76.4 L46.229813,76.4 M46.127216,76.5 L13.871785,76.5 M13.9743805,76.6 L46.02462,76.6 M45.922024,76.7 L14.076977,76.7 M14.179573,76.8 L45.819427,76.8 M45.71683,76.9 L14.282169,76.9 M14.384766,77 L45.614235,77 M45.51164,77.1 L14.487362,77.1 M14.589957,77.2 L45.409042,77.2 M45.306446,77.3 L14.6925535,77.3 M14.79515,77.4 L45.20385,77.4 M45.101254,77.5 L14.897746,77.5 M15.000342,77.6 L44.998657,77.6 M44.89606,77.7 L15.102939,77.7 M15.205534,77.8 L44.793465,77.8 M44.69087,77.9 L15.30813,77.9 M15.410727,78 L44.588272,78 M44.485676,78.1 L15.513323,78.1 M15.615919,78.2 L44.38308,78.2 M44.280483,78.3 L15.718515,78.3 M15.821111,78.4 L44.17789,78.4 M44.075294,78.5 L15.923707,78.5 M16.026304,78.6 L43.9727,78.6 M43.870102,78.7 L16.128899,78.7 M16.231495,78.8 L43.767506,78.8 M43.66491,78.9 L16.334091,78.9 M16.436687,79 L43.562313,79 M43.459717,79.1 L16.539284,79.1 M16.64188,79.2 L43.35712,79.2 M43.254524,79.3 L16.744476,79.3 M16.847073,79.4 L43.151928,79.4 M43.04933,79.5 L16.949669,79.5 M17.052265,79.6 L42.946735,79.6 M42.84414,79.7 L17.154861,79.7 M17.257458,79.8 L42.741543,79.8 M42.638947,79.9 L17.360052,79.9 M17.462648,80 L42.53635,80 M42.433754,80.1 L17.565245,80.1 M17.667841,80.2 L42.331158,80.2 M42.22856,80.3 L17.770437,80.3 M17.873034,80.4 L42.125965,80.4 M42.02337,80.5 L17.97563,80.5 M18.078226,80.6 L41.920773,80.6 M41.818176,80.7 L18.180822,80.7 M18.283419,80.8 L41.715584,80.8 M41.612988,80.9 L18.386015,80.9 M18.48861,81 L41.51039,81 M41.407795,81.1 L18.591206,81.1 M18.693802,81.2 L41.3052,81.2 M41.202602,81.3 L18.796398,81.3 M18.898994,81.4 L41.100006,81.4 M40.99741,81.5 L19.00159,81.5 M19.104187,81.6 L40.894814,81.6 M40.792217,81.7 L19.206783,81.7 M19.30938,81.8 L40.68962,81.8 M40.587025,81.9 L19.411976,81.9 M19.514572,82 L40.48443,82 M40.381832,82.1 L19.617168,82.1 M19.719763,82.2 L40.279236,82.2 M40.17664,82.3 L19.82236,82.3 M19.924955,82.4 L40.074043,82.4 M39.971447,82.5 L20.027552,82.5 M20.130148,82.6 L39.86885,82.6 M39.766254,82.7 L20.232744,82.7 M20.33534,82.8 L39.66366,82.8 M39.56106,82.9 L20.437937,82.9 M20.540533,83 L39.458466,83 M39.412823,83.1 L20.586176,83.1 M20.571049,83.2 L39.42795,83.2 M39.445107,83.3 L20.553896,83.3 M20.536741,83.4 L39.462257,83.4 M39.479412,83.5 L20.519588,83.5 M20.502436,83.6 L39.496563,83.6 M39.513718,83.7 L20.485283,83.7 M20.46813,83.8 L39.53087,83.8 M39.548023,83.9 L20.450977,83.9 M20.433825,84 L39.565174,84 M39.58233,84.1 L20.416672,84.1 M20.399519,84.2 L39.59948,84.2 M39.616634,84.3 L20.382366,84.3 M20.365213,84.4 L39.633785,84.4 M39.65094,84.5 L20.34806,84.5 M20.330908,84.6 L39.66809,84.6 M39.685246,84.7 L20.313755,84.7 M20.296602,84.8 L39.702396,84.8 M39.71955,84.9 L20.27945,84.9 M20.262297,85 L39.736702,85 M39.753857,85.1 L20.245144,85.1 M20.227991,85.2 L39.771008,85.2 M39.788162,85.3 L20.210838,85.3 M20.193686,85.4 L39.805313,85.4 M39.822468,85.5 L20.176533,85.5 M20.15938,85.6 L39.83962,85.6 M39.856773,85.7 L20.142227,85.7 M20.125074,85.8 L39.873924,85.8 M39.89108,85.9 L20.107922,85.9 M20.090769,86 L39.90823,86 M39.925385,86.1 L20.073616,86.1 M20.056463,86.2 L39.942535,86.2 M39.95969,86.3 L20.03931,86.3 M20.022158,86.4 L39.97684,86.4 M39.993996,86.5 L20.005005,86.5 M19.987852,86.6 L40.011147,86.6 M40.0283,86.7 L19.9707,86.7 M19.953547,86.8 L40.045456,86.8 M40.062607,86.9 L19.936394,86.9 M19.91924,87 L40.07976,87 M40.096912,87.1 L19.902088,87.1 M19.884935,87.2 L40.114067,87.2 M40.131218,87.3 L19.867783,87.3 M19.85063,87.4 L40.148373,87.4 M40.165524,87.5 L19.833477,87.5 M19.816322,87.6 L40.18268,87.6 M40.19983,87.7 L19.79917,87.7 M19.782017,87.8 L40.216984,87.8 M40.234135,87.9 L19.764864,87.9 M19.747711,88 L40.25129,88 M40.26844,88.1 L19.730558,88.1 M19.713406,88.2 L40.285595,88.2 M40.302746,88.3 L19.696253,88.3 M19.6791,88.4 L40.3199,88.4 M40.33705,88.5 L19.661947,88.5 M19.644794,88.6 L40.354206,88.6 M40.371357,88.7 L19.627642,88.7 M19.610489,88.8 L40.38851,88.8 M40.405663,88.9 L19.593336,88.9 M19.576183,89 L40.422817,89 M40.43997,89.1 L19.55903,89.1 M19.541878,89.2 L40.457123,89.2 M40.474274,89.3 L19.524725,89.3 M19.507572,89.4 L40.49143,89.4 M40.50858,89.5 L19.49042,89.5 M19.473267,89.6 L40.525734,89.6 M40.542885,89.7 L19.456114,89.7 M19.438961,89.8 L40.56004,89.8 M40.57719,89.9 L19.421808,89.9 M19.404655,90 L29.7837,90 M29.593477,90.1 L19.387503,90.1 M19.37035,90.2 L29.403254,90.2 M29.21303,90.3 L19.353197,90.3 M19.336044,90.4 L29.022808,90.4 M28.832584,90.5 L19.318892,90.5 M19.301739,90.6 L28.64236,90.6 M28.452137,90.7 L19.284586,90.7 M19.267433,90.8 L28.261913,90.8 M28.07169,90.9 L19.25028,90.9 M19.233128,91 L27.881466,91 M27.691242,91.1 L19.215975,91.1 M19.198822,91.2 L27.50102,91.2 M27.310797,91.3 L19.18167,91.3 M19.164516,91.4 L27.120573,91.4 M26.93035,91.5 L19.147364,91.5 M19.13021,91.6 L26.740126,91.6 M26.549902,91.7 L19.113058,91.7 M19.095903,91.8 L26.359678,91.8 M26.169455,91.9 L19.07875,91.9 M19.061598,92 L25.979233,92 M25.78901,92.1 L19.044445,92.1 M19.027292,92.2 L25.598785,92.2 M25.408562,92.3 L19.01014,92.3 M18.992987,92.4 L25.218338,92.4 M25.028114,92.5 L18.975834,92.5 M18.958681,92.6 L24.83789,92.6 M24.647667,92.7 L18.941528,92.7 M18.924376,92.8 L24.457443,92.8 M24.267221,92.9 L18.907223,92.9 M18.89007,93 L24.076998,93 M23.886774,93.1 L18.872917,93.1 M18.855764,93.2 L23.69655,93.2 M23.506327,93.3 L18.838612,93.3 M18.821459,93.4 L23.316103,93.4 M23.12588,93.5 L18.804306,93.5 M18.787153,93.6 L22.935656,93.6 M22.745434,93.7 L18.77,93.7 M18.752848,93.8 L22.55521,93.8 M22.364986,93.9 L18.735695,93.9 M18.718542,94 L22.174763,94 M21.984539,94.1 L18.70139,94.1 M18.684237,94.2 L21.794315,94.2 M21.604092,94.3 L18.667084,94.3 M18.649931,94.4 L21.413868,94.4 M21.223646,94.5 L18.632778,94.5 M18.615625,94.6 L21.033422,94.6 M20.843199,94.7 L18.598473,94.7 M18.58132,94.8 L20.652975,94.8 M20.462751,94.9 L18.564167,94.9 M18.547014,95 L20.272528,95 M20.082304,95.1 L18.529861,95.1 M18.512709,95.2 L19.89208,95.2 M19.701857,95.3 L18.495556,95.3 M18.478403,95.4 L19.511635,95.4 M19.321411,95.5 L18.46125,95.5 M18.444098,95.6 L19.131187,95.6 M18.940964,95.7 L18.426945,95.7 M18.409792,95.8 L18.75074,95.8 M18.560516,95.9 L18.39264,95.9 M30.2153,90 L40.594345,90 M40.611496,90.1 L30.405521,90.1 M30.595745,90.2 L40.62865,90.2 M40.6458,90.3 L30.785969,90.3 M30.976192,90.4 L40.662956,90.4 M40.680107,90.5 L31.166416,90.5 M31.35664,90.6 L40.69726,90.6 M40.714413,90.7 L31.546864,90.7 M31.737087,90.8 L40.731567,90.8 M40.748722,90.9 L31.92731,90.9 M32.117535,91 L40.765873,91 M40.783028,91.1 L32.30776,91.1 M32.497982,91.2 L40.80018,91.2 M40.817333,91.3 L32.688206,91.3 M32.878426,91.4 L40.834484,91.4 M40.85164,91.5 L33.06865,91.5 M33.258873,91.6 L40.86879,91.6 M40.885944,91.7 L33.449097,91.7 M33.63932,91.8 L40.903095,91.8 M40.92025,91.9 L33.829544,91.9 M34.019768,92 L40.9374,92 M40.954556,92.1 L34.20999,92.1 M34.400215,92.2 L40.971706,92.2 M40.98886,92.3 L34.59044,92.3 M34.780663,92.4 L41.006012,92.4 M41.023167,92.5 L34.970886,92.5 M35.16111,92.6 L41.040318,92.6 M41.057472,92.7 L35.351334,92.7 M35.541557,92.8 L41.074623,92.8 M41.091778,92.9 L35.73178,92.9 M35.922005,93 L41.10893,93 M41.126083,93.1 L36.112225,93.1 M36.30245,93.2 L41.143234,93.2 M41.16039,93.3 L36.492672,93.3 M36.682896,93.4 L41.17754,93.4 M41.194695,93.5 L36.87312,93.5 M37.063343,93.6 L41.211845,93.6 M41.229,93.7 L37.253567,93.7 M37.44379,93.8 L41.24615,93.8 M41.263306,93.9 L37.634014,93.9 M37.824238,94 L41.280457,94 M41.29761,94.1 L38.01446,94.1 M38.204685,94.2 L41.314762,94.2 M41.331917,94.3 L38.39491,94.3 M38.585133,94.4 L41.349068,94.4 M41.366222,94.5 L38.775356,94.5 M38.96558,94.6 L41.383373,94.6 M41.400528,94.7 L39.1558,94.7 M39.346024,94.8 L41.41768,94.8 M41.434834,94.9 L39.536247,94.9 M39.72647,95 L41.451984,95 M41.46914,95.1 L39.916695,95.1 M40.10692,95.2 L41.486294,95.2 M41.503445,95.3 L40.297142,95.3 M40.487366,95.4 L41.5206,95.4 M41.53775,95.5 L40.67759,95.5 M40.867813,95.6 L41.554905,95.6 M41.572056,95.7 L41.058037,95.7 M41.24826,95.8 L41.58921,95.8 M41.60636,95.9 L41.438484,95.9" fill="none" id="fill-6" stroke="#008000" stroke-linecap="round" stroke-linejoin="round" stroke-width="0.1"/>
</svg>