<svg height="550mm" viewBox="0 0 500 550" width="500mm" xmlns="http://www.w3.org/2000/svg">
<path d="M10,10 L490,10 L490,490 L10,490 L10,10" fill="none" id="outline-0" stroke="black" stroke-linecap="round" stroke-linejoin="round" stroke-width="0.5"/>
<path d="M515.05176,510.28223 L513.3663,509.90375 L512.0772,508.81918 L511.33197,507.28076 L511.05832,505.1881 L511.33533,503.0708 L512.0784,501.53723 L513.3503,500.48444 L515.05176,500.12222 L516.16925,500.2764 L517.07104,500.7199 L517.8866,501.6045 L518.2583,502.34155 L518.2311,502.56332 L517.8029,502.64142 L517.0863,501.46896 L516.23706,500.8869 L515.05176,500.68668 L513.78625,500.90356 L512.8121,501.52496 L512.18665,502.38882 L511.77448,503.5946 L511.62277,505.1881 L511.77466,506.77188 L512.1875,507.977 L512.8166,508.85175 L513.80237,509.494 L515.05176,509.71777 L516.26105,509.50555 L517.3201,508.7772 L518.0048,507.62653 L518.2344,507.56326 L518.42865,507.7 L518.1403,508.59808 L517.29767,509.54404 L516.1799,510.12015 L515.05176,510.28223" fill="none" id="outline-0" stroke="black" stroke-linecap="round" stroke-linejoin="round" stroke-width="0.2"/>
<path d="M523.5608,510.28223 L522.25183,509.9852 L521.2293,509.09845 L520.6086,507.80518 L520.37164,506.11945 L520.5884,504.45416 L521.2708,502.9912 L522.25964,502.16302 L523.5749,501.8861 L524.86194,502.16302 L525.8507,502.9912 L526.53314,504.45416 L526.7499,506.11945 L526.51294,507.80518 L525.8922,509.09845 L524.8697,509.9852 L523.5608,510.28223 M523.5608,509.71777 L522.3996,509.43176 L521.6243,508.71533 L521.0999,507.5171 L520.9361,506.11945 L521.0989,504.6871 L521.6215,503.4492 L522.3835,502.73483 L523.5467,502.45056 L524.609,502.66812 L525.50006,503.4492 L526.0227,504.6871 L526.1854,506.11945 L526.02167,507.5171 L525.49725,508.71533 L524.722,509.43176 L523.5608,509.71777" fill="none" id="outline-0" stroke="black" stroke-linecap="round" stroke-linejoin="round" stroke-width="0.2"/>
<path d="M523.5608,509.71777 L522.3996,509.43176 L521.6243,508.71533 L521.0999,507.5171 L520.9361,506.11945 L521.0989,504.6871 L521.6215,503.4492 L522.5126,502.66812 L523.5749,502.45056 L524.7381,502.73483 L525.50006,503.4492 L526.0227,504.6871 L526.1854,506.11945 L526.02167,507.5171 L525.49725,508.71533 L524.722,509.43176 L523.5608,509.71777" fill="none" id="outline-0" stroke="black" stroke-linecap="round" stroke-linejoin="round" stroke-width="0.2"/>
<path d="M529.7132,510.28223 L529.431,510 L529.469,502.02734 L529.7132,501.8861 L529.97845,502.07196 L529.9954,503.41013 L530.9822,502.5197 L531.8075,502.0643 L532.7612,501.8861 L533.59753,502.0477 L534.2828,502.61057 L534.65344,503.58862 L534.65643,510.141 L534.36224,510.27774 L534.13,510 L534.0662,503.47528 L533.6322,502.70584 L532.7612,502.45056 L531.50775,502.83603 L529.9954,504.24268 L529.9954,510 L529.7132,510.28223" fill="none" id="outline-0" stroke="black" stroke-linecap="round" stroke-linejoin="round" stroke-width="0.2"/>
<path d="M539.8027,510.28223 L538.7489,509.9582 L538.2159,509.0156 L538.1517,503.21255 L536.97284,503.20807 L536.74506,502.9803 L536.97284,502.6526 L538.1517,502.6481 L538.1561,500.63672 L538.3839,500.40894 L538.7116,500.63672 L538.7161,502.6481 L540.78394,502.6526 L541.0117,502.88037 L540.78394,503.20807 L538.7161,503.21255 L538.7161,508.349 L538.8403,509.19797 L539.0971,509.54126 L539.53796,509.7018 L540.29376,509.6542 L540.9316,509.3368 L541.2093,509.56903 L541.115,509.83066 L540.72754,510.08533 L539.8027,510.28223" fill="none" id="outline-0" stroke="black" stroke-linecap="round" stroke-linejoin="round" stroke-width="0.2"/>
<path d="M545.95514,510.28223 L544.6462,509.9852 L543.62366,509.09845 L543.0029,507.80518 L542.766,506.11945 L542.9827,504.45416 L543.66516,502.9912 L544.65393,502.16302 L545.96924,501.8861 L547.2563,502.16302 L548.24506,502.9912 L548.9275,504.45416 L549.1442,506.11945 L548.9073,507.80518 L548.28656,509.09845 L547.26404,509.9852 L545.95514,510.28223 M545.95514,509.71777 L544.7939,509.43176 L544.0186,508.71533 L543.4942,507.5171 L543.33044,506.11945 L543.49316,504.6871 L544.01587,503.4492 L544.77783,502.73483 L545.941,502.45056 L547.0033,502.66812 L547.89435,503.4492 L548.41705,504.6871 L548.5798,506.11945 L548.416,507.5171 L547.8916,508.71533 L547.11633,509.43176 L545.95514,509.71777" fill="none" id="outline-0" stroke="black" stroke-linecap="round" stroke-linejoin="round" stroke-width="0.2"/>
<path d="M545.95514,509.71777 L544.7939,509.43176 L544.0186,508.71533 L543.4942,507.5171 L543.33044,506.11945 L543.49316,504.6871 L544.01587,503.4492 L544.9069,502.66812 L545.96924,502.45056 L547.1324,502.73483 L547.89435,503.4492 L548.41705,504.6871 L548.5798,506.11945 L548.416,507.5171 L547.8916,508.71533 L547.11633,509.43176 L545.95514,509.71777" fill="none" id="outline-0" stroke="black" stroke-linecap="round" stroke-linejoin="round" stroke-width="0.2"/>
<path d="M553.8291,510.28223 L553.10345,510.16806 L552.52185,509.8439 L551.8638,508.76547 L551.7718,502.07196 L552.037,501.8861 L552.31476,502.11838 L552.418,508.6923 L552.91406,509.4572 L553.8291,509.71777 L554.5642,509.58994 L555.14374,509.29712 L556.38324,507.9398 L556.38324,502.16833 L556.5245,501.92413 L556.7618,501.9031 L556.9477,502.16833 L556.93066,510.09637 L556.66547,510.28223 L556.4002,510.09637 L556.38324,508.91345 L555.12177,509.9519 L553.8291,510.28223" fill="none" id="outline-0" stroke="black" stroke-linecap="round" stroke-linejoin="round" stroke-width="0.2"/>
<path d="M560.6166,510.28223 L560.33435,510 L560.3513,502.07196 L560.6166,501.8861 L560.8818,502.07196 L560.8988,503.41013 L562.3306,502.20978 L563.5069,501.9031 L563.6883,502.11838 L563.5917,502.38437 L562.3075,502.88916 L560.8988,504.24268 L560.8988,510 L560.6166,510.28223" fill="none" id="outline-0" stroke="black" stroke-linecap="round" stroke-linejoin="round" stroke-width="0.2"/>
<path d="M570.6919,510.28223 L570.9741,510 L570.9741,505.38568 L575.2639,505.38568 L575.5461,505.10345 L575.2639,504.82123 L570.9741,504.82123 L570.9741,500.8278 L575.5537,500.8233 L575.7815,500.59552 L575.6448,500.30133 L570.6919,500.26334 L570.44354,500.3879 L570.40967,510 L570.6919,510.28223" fill="none" id="outline-0" stroke="black" stroke-linecap="round" stroke-linejoin="round" stroke-width="0.2"/>
<path d="M578.4671,510.28223 L578.1849,510 L578.1849,502.16833 L578.4671,501.8861 L578.7493,502.16833 L578.7493,510 L578.4671,510.28223" fill="none" id="outline-0" stroke="black" stroke-linecap="round" stroke-linejoin="round" stroke-width="0.2"/>
<path d="M578.4671,500.71487 L578.1894,500.48264 L578.1849,498.9228 L578.4671,498.64056 L578.7449,498.8728 L578.7493,500.43268 L578.4671,500.71487" fill="none" id="outline-0" stroke="black" stroke-linecap="round" stroke-linejoin="round" stroke-width="0.2"/>
<path d="M584.63367,510.28223 L585.52203,510.168 L586.3893,509.74936 L587.05554,509.02914 L587.2909,508.3068 L586.90265,508.20544 L586.27856,509.1254 L585.44604,509.60992 L584.4502,509.71283 L583.52515,509.50095 L582.82477,508.99213 L582.3889,508.31943 L582.10114,507.3793 L581.9949,505.97833 L587.15955,505.97833 L587.4418,505.6961 L587.2232,504.027 L586.6584,502.85464 L585.7065,502.09976 L584.5913,501.8861 L583.28986,502.17352 L582.2912,503.0098 L581.636,504.4098 L581.4304,506.11945 L581.6379,507.83472 L582.29016,509.205 L583.2881,510.0069 L584.63367,510.28223" fill="none" id="outline-0" stroke="black" stroke-linecap="round" stroke-linejoin="round" stroke-width="0.2"/>
<path d="M582.02313,505.41388 L582.2887,504.15936 L582.8649,503.1693 L583.6845,502.60846 L584.5913,502.45056 L585.46466,502.61066 L586.21704,503.18533 L586.6645,504.06866 L586.8773,505.41388" fill="none" id="outline-0" stroke="black" stroke-linecap="round" stroke-linejoin="round" stroke-width="0.2"/>
<path d="M591.47754,510.28223 L590.8647,510.17767 L590.4198,509.8822 L589.99896,508.8369 L589.98175,499.4872 L590.21405,499.20947 L590.44507,499.27118 L590.5462,499.4872 L590.57983,508.97266 L590.91534,509.58734 L591.96497,509.6658 L592.19275,509.8936 L592.06976,510.17728 L591.47754,510.28223" fill="none" id="outline-0" stroke="black" stroke-linecap="round" stroke-linejoin="round" stroke-width="0.2"/>
<path d="M596.6422,510.28223 L595.826,510.16873 L595.1376,509.8381 L594.18616,508.6646 L593.698,506.62485 L593.8874,504.29413 L594.64624,502.76578 L595.24756,502.25262 L595.96375,501.96042 L596.8004,501.89087 L597.62616,502.06012 L598.3849,502.47107 L599.08344,503.142 L599.08344,499.4872 L599.1846,499.27118 L599.41565,499.20947 L599.6479,499.4872 L599.64343,510.04996 L599.41565,510.27774 L599.12146,510.141 L599.08344,509.04044 L597.9598,509.97598 L596.6422,510.28223 M596.6422,509.71777 L595.5631,509.44363 L594.8607,508.75116 L594.39166,507.55838 L594.24335,506.063 L594.3856,504.57956 L594.84045,503.4118 L595.65326,502.6633 L596.6281,502.45056 L597.3758,502.55786 L598.01935,502.8781 L599.08344,504.1298 L599.08344,507.99622 L598.06116,509.26935 L597.4014,509.60532 L596.6422,509.71777" fill="none" id="outline-0" stroke="black" stroke-linecap="round" stroke-linejoin="round" stroke-width="0.2"/>
<path d="M596.6422,509.71777 L595.5631,509.44363 L594.8607,508.75116 L594.39166,507.55838 L594.24335,506.063 L594.3856,504.57956 L594.84045,503.4118 L595.65326,502.6633 L596.6281,502.45056 L597.3758,502.55786 L598.01935,502.8781 L599.08344,504.1298 L599.08344,507.99622 L598.06116,509.26935 L597.4014,509.60532 L596.6422,509.71777" fill="none" id="outline-0" stroke="black" stroke-linecap="round" stroke-linejoin="round" stroke-width="0.2"/>
<path d="M490.644,490.0825 L490.644,10.5615 L490.0825,10 L10.5615,10 L10,10.5615 L10,490.0825 L10.5615,490.644 L490.0825,490.644 L490.644,490.0825" fill="none" id="outline-0" stroke="black" stroke-linecap="round" stroke-linejoin="round" stroke-width="0.2"/>
<path d="M490.644,490.0825 L490.644,10.5615 L490.0825,10 L10.5615,10 L10,10.5615 L10,490.0825 L10.5615,490.644 L490.0825,490.644 L490.644,490.0825" fill="none" id="outline-0" stroke="black" stroke-linecap="round" stroke-linejoin="round" stroke-width="0.2"/>
<path d="M490.644,490.0825 L490.644,10.5615 L490.0825,10 L10.5615,10 L10,10.5615 L10,490.0825 L10.5615,490.644 L490.0825,490.644 L490.644,490.0825" fill="none" id="outline-0" stroke="black" stroke-linecap="round" stroke-linejoin="round" stroke-width="0.2"/>
<path d="M490.644,490.0825 L490.644,10.5615 L490.0825,10 L10.5615,10 L10,10.5615 L10,490.0825 L10.5615,490.644 L490.0825,490.644 L490.644,490.0825" fill="none" id="outline-0" stroke="black" stroke-linecap="round" stroke-linejoin="round" stroke-width="0.2"/>
<path d="M490.644,490.0825 L490.644,10.5615 L490.0825,10 L10.5615,10 L10,10.5615 L10,490.0825 L10.5615,490.644 L490.0825,490.644 L490.644,490.0825" fill="none" id="outline-0" stroke="black" stroke-linecap="round" stroke-linejoin="round" stroke-width="0.2"/>
<path d="M490.644,490.0825 L490.644,10.5615 L490.0825,10 L10.5615,10 L10,10.5615 L10,490.0825 L10.5615,490.644 L490.0825,490.644 L490.644,490.0825" fill="none" id="outline-0" stroke="black" stroke-linecap="round" stroke-linejoin="round" stroke-width="0.2"/>
<path d="M490.644,490.0825 L490.644,10.5615 L490.0825,10 L10.5615,10 L10,10.5615 L10,490.0825 L10.5615,490.644 L490.0825,490.644 L490.644,490.0825" fill="none" id="outline-0" stroke="black" stroke-linecap="round" stroke-linejoin="round" stroke-width="0.2"/>
<path d="M490.644,490.0825 L490.644,10.5615 L490.0825,10 L10.5615,10 L10,10.5615 L10,490.0825 L10.5615,490.644 L490.0825,490.644 L490.644,490.0825" fill="none" id="outline-0" stroke="black" stroke-linecap="round" stroke-linejoin="round" stroke-width="0.2"/>
<path d="M490.644,490.0825 L490.644,10.5615 L490.0825,10 L10.5615,10 L10,10.5615 L10,490.0825 L10.5615,490.644 L490.0825,490.644 L490.644,490.0825" fill="none" id="outline-0" stroke="black" stroke-linecap="round" stroke-linejoin="round" stroke-width="0.2"/>
<path d="M490.644,490.0825 L490.644,10.5615 L490.0825,10 L10.5615,10 L10,10.5615 L10,490.0825 L10.5615,490.644 L490.0825,490.644 L490.644,490.0825" fill="none" id="outline-0" stroke="black" stroke-linecap="round" stroke-linejoin="round" stroke-width="0.2"/>
<path d="M490.644,490.0825 L490.644,10.5615 L490.0825,10 L10.5615,10 L10,10.5615 L10,490.0825 L10.5615,490.644 L490.0825,490.644 L490.644,490.0825" fill="none" id="outline-0" stroke="black" stroke-linecap="round" stroke-linejoin="round" stroke-width="0.2"/>
<path d="M490.644,490.0825 L490.644,10.5615 L490.0825,10 L10.5615,10 L10,10.5615 L10,490.0825 L10.5615,490.644 L490.0825,490.644 L490.644,490.0825" fill="none" id="outline-0" stroke="black" stroke-linecap="round" stroke-linejoin="round" stroke-width="0.2"/>
<path d="M490.644,490.0825 L490.644,10.5615 L490.0825,10 L10.5615,10 L10,10.5615 L10,490.0825 L10.5615,490.644 L490.0825,490.644 L490.644,490.0825" fill="none" id="outline-0" stroke="black" stroke-linecap="round" stroke-linejoin="round" stroke-width="0.2"/>
<path d="M490.644,490.0825 L490.644,10.5615 L490.0825,10 L10.5615,10 L10,10.5615 L10,490.0825 L10.5615,490.644 L490.0825,490.644 L490.644,490.0825" fill="none" id="outline-0" stroke="black" stroke-linecap="round" stroke-linejoin="round" stroke-width="0.2"/>
<path d="M490.644,490.0825 L490.644,10.5615 L490.0825,10 L10.5615,10 L10,10.5615 L10,490.0825 L10.5615,490.644 L490.0825,490.644 L490.644,490.0825" fill="none" id="outline-0" stroke="black" stroke-linecap="round" stroke-linejoin="round" stroke-width="0.2"/>
<path d="M490.644,490.0825 L490.644,10.5615 L490.0825,10 L10.5615,10 L10,10.5615 L10,490.0825 L10.5615,490.644 L490.0825,490.644 L490.644,490.0825" fill="none" id="outline-0" stroke="black" stroke-linecap="round" stroke-linejoin="round" stroke-width="0.2"/>
<path d="M490.644,490.0825 L490.644,10.5615 L490.0825,10 L10.5615,10 L10,10.5615 L10,490.0825 L10.5615,490.644 L490.0825,490.644 L490.644,490.0825" fill="none" id="outline-0" stroke="black" stroke-linecap="round" stroke-linejoin="round" stroke-width="0.2"/>
<path d="M490.644,490.0825 L490.644,10.5615 L490.0825,10 L10.5615,10 L10,10.5615 L10,490.0825 L10.5615,490.644 L490.0825,490.644 L490.644,490.0825" fill="none" id="outline-0" stroke="black" stroke-linecap="round" stroke-linejoin="round" stroke-width="0.2"/>
<path d="M490.644,490.0825 L490.644,10.5615 L490.0825,10 L10.5615,10 L10,10.5615 L10,490.0825 L10.5615,490.644 L490.0825,490.644 L490.644,490.0825" fill="none" id="outline-0" stroke="black" stroke-linecap="round" stroke-linejoin="round" stroke-width="0.2"/>
<path d="M490.644,490.0825 L490.644,10.5615 L490.0825,10 L10.5615,10 L10,10.5615 L10,490.0825 L10.5615,490.644 L490.0825,490.644 L490.644,490.0825" fill="none" id="outline-0" stroke="black" stroke-linecap="round" stroke-linejoin="round" stroke-width="0.2"/>
<path d="M490.644,490.0825 L490.644,10.5615 L490.0825,10 L10.5615,10 L10,10.5615 L10,490.0825 L10.5615,490.644 L490.0825,490.644 L490.644,490.0825" fill="none" id="outline-0" stroke="black" stroke-linecap="round" stroke-linejoin="round" stroke-width="0.2"/>
<path d="M490.644,490.0825 L490.644,10.5615 L490.0825,10 L10.5615,10 L10,10.5615 L10,490.0825 L10.5615,490.644 L234.0385,490.644 L234.10889,490.0825 L236.2845,484.61893 L237.4075,484.3482 L238.5305,483.59933 L239.31036,482.2215 L240.30687,478.8525 L241.31667,476.6065 L243.2165,474.3605 L244.1455,473.51883 L245.2685,473.28357 L247.5145,473.36752 L249.1996,475.4835 L253.1295,479.0849 L254.2525,481.28137 L255.80675,483.3445 L256.98993,484.4675 L258.56073,485.5905 L262.1135,487.29175 L262.84677,487.8365 L264.3595,490.644 L490.0825,490.644 L490.644,490.0825" fill="none" id="outline-0" stroke="black" stroke-linecap="round" stroke-linejoin="round" stroke-width="0.2"/>
<path d="M243.0225,355.35684 L239.6535,354.9237 L234.0385,353.3385 L230.6695,352.79254 L227.3005,352.88574 L218.27705,354.1995 L217.44627,353.0765 L216.95195,350.8305 L216.4493,349.7075 L214.9475,347.64792 L213.8245,346.6862 L212.7015,346.05878 L211.5785,345.68073 L209.3325,345.3178 L207.0865,345.12814 L202.5945,345.1313 L201.48212,344.0925 L200.3485,341.84872 L199.52388,340.7235 L198.34756,339.6005 L196.9795,338.7834 L195.8565,338.3619 L194.7335,338.168 L192.4875,338.28528 L190.2415,338.82492 L186.8725,340.1923 L185.7495,340.28534 L183.05719,338.4775 L181.2575,335.01978 L180.1345,333.8672 L176.7655,332.0812 L175.6425,330.25818 L173.96242,328.3705 L171.1505,326.30814 L167.7815,324.74234 L166.4367,323.8785 L164.36118,321.6325 L163.89421,320.5095 L163.44257,318.2635 L165.13295,311.5255 L165.67567,308.1565 L166.14662,303.6645 L166.34036,298.0495 L166.00275,294.6805 L165.5355,292.34222 L158.0012,286.8195 L157.13832,285.6965 L156.5515,284.48438 L155.4285,282.82776 L154.3055,282.5289 L150.9365,282.3572 L146.4445,281.6461 L143.0755,280.9337 L140.8295,280.18405 L138.5835,278.59732 L135.49686,276.7125 L131.39359,273.3435 L128.4765,271.54193 L126.2305,270.71378 L121.7385,269.81943 L118.3695,267.96866 L114.70744,266.6055 L112.7545,265.45547 L110.09929,264.3595 L108.2625,260.97998 L106.74682,258.7445 L105.948364,256.4985 L106.53814,253.1295 L106.725815,249.7605 L106.60838,247.5145 L105.9357,245.2685 L106.336815,244.1455 L110.87424,236.2845 L111.66801,234.0385 L111.80788,232.9155 L111.714066,231.7925 L110.95552,228.4235 L109.94682,226.1775 L108.2625,223.86078 L107.1395,222.74443 L103.97518,220.5625 L103.7705,220.0817 L103.7705,219.27322 L106.54574,216.0705 L107.1395,215.63612 L109.3855,215.1374 L110.40142,216.0705 L110.92944,217.1935 L113.8775,221.08542 L116.1235,223.49626 L120.26693,227.3005 L124.45037,230.6695 L127.3535,232.79262 L129.5995,236.8418 L130.7225,238.44173 L131.8455,239.67378 L134.0915,241.3501 L137.4605,242.82654 L139.7065,245.27965 L141.9525,247.1841 L143.0755,247.8549 L145.3215,248.75891 L148.6905,249.3719 L152.0595,251.69301 L154.3055,252.62881 L155.4285,252.87506 L157.6745,252.97252 L159.9205,252.6346 L163.2895,251.7114 L165.5355,252.43643 L166.83255,253.1295 L167.84642,255.3755 L169.49712,257.6215 L170.68689,258.7445 L172.25826,259.8675 L174.54373,260.9905 L176.7655,262.43332 L177.8885,262.82077 L181.2575,263.1425 L182.3805,263.56378 L183.26735,264.3595 L184.7576,266.6055 L185.93126,268.8515 L188.25471,274.4665 L189.49208,276.7125 L190.275,277.8355 L194.18817,282.3275 L195.8565,283.80383 L198.76732,285.6965 L200.09862,286.8195 L205.0604,292.4345 L208.717,295.8035 L212.7015,298.48373 L220.5625,302.4759 L222.94092,307.0335 L225.0545,310.07486 L228.4235,314.1468 L231.7925,317.35287 L234.0385,318.66467 L235.1615,319.01202 L237.4075,319.3076 L239.6535,320.14545 L240.7765,320.2519 L241.8995,320.03647 L244.1455,318.83145 L245.2685,318.5981 L250.8835,318.31256 L255.3755,318.62192 L256.641,319.3865 L258.7445,320.2932 L263.23804,321.6325 L265.22974,323.8785 L266.6055,325.15045 L268.8515,326.78162 L271.0975,327.95996 L271.53195,328.3705 L271.95874,329.4935 L272.10782,332.8625 L272.43976,333.9855 L273.65335,336.2315 L275.4926,338.4775 L276.7125,339.62213 L278.9585,341.17694 L282.47064,342.9695 L282.5231,344.0925 L283.2402,346.3385 L283.4505,346.79068 L284.5735,347.87543 L284.83557,348.5845 L284.04288,349.7075 L282.3275,351.25476 L280.0815,352.48764 L277.8355,353.13416 L275.5895,353.38412 L268.8515,353.62863 L263.2365,351.349 L260.9905,350.83432 L258.7445,350.77466 L255.3755,351.47995 L246.3915,354.84305 L245.2685,355.12723 L243.0225,355.35684 M447.6086,460.8845 L448.5315,460.55664 L449.8067,459.7615 L450.6736,458.6385 L451.0377,457.5155 L451.10092,456.3925 L450.91782,455.2695 L450.40335,454.1465 L449.6545,453.12817 L448.5315,452.3446 L447.4085,451.96817 L446.2855,451.8412 L441.7935,451.83527 L439.5475,451.3632 L437.3015,450.25058 L432.8095,447.09448 L431.6865,446.72162 L430.5635,446.87552 L429.89307,447.4085 L429.4405,447.78143 L428.3175,449.42358 L425.0863,455.2695 L424.33456,457.5155 L424.59024,458.6385 L426.0715,459.30634 L428.3175,459.3841 L432.8095,458.9798 L436.1785,458.9934 L438.4245,459.41074 L442.9165,460.86752 L444.0395,461.0708 L446.2855,461.11093 L447.6086,460.8845 M490.644,490.0825 L490.644,10.5615 L490.0825,10 L27.4065,10 L26.288656,10.5615 L26.181234,13.9305 L24.676788,16.1765 L24.19638,17.2995 L23.949692,18.4225 L23.933914,19.5455 L24.149525,20.6685 L24.0375,21.507143 L23.29546,22.9145 L22.9145,23.187702 L20.6685,23.053541 L18.4225,23.495571 L17.056118,24.0375 L13.9305,25.721306 L12.8075,26.128502 L10.5615,25.34876 L10,26.2835 L10,453.0235 L11.6845,453.3962 L13.9305,453.54132 L16.1765,453.08063 L17.2995,452.6177 L18.4225,452.5833 L24.0375,454.26263 L27.4065,455.50055 L28.5295,456.20206 L33.225704,462.0075 L33.84418,463.1305 L33.335754,466.4995 L33.449608,468.7455 L34.213264,472.1145 L35.514103,475.4835 L37.5135,478.935 L45.3745,490.644 L194.7335,490.644 L195.03784,490.0825 L194.39644,488.9595 L192.50926,486.7135 L188.98688,483.3445 L188.335,482.2215 L189.1185,478.91522 L191.29823,477.7295 L192.4875,476.63702 L193.6105,474.6617 L194.15157,472.1145 L194.22267,468.7455 L194.7335,467.96112 L199.1389,463.1305 L200.3485,461.1414 L200.79724,459.7615 L200.88379,457.5155 L200.39447,455.2695 L199.56294,453.0235 L199.33023,451.9005 L199.09094,447.4085 L201.4715,444.709 L202.56866,442.9165 L203.07816,440.6705 L203.01942,439.5475 L202.72919,438.4245 L202.10439,437.3015 L201.05647,436.1785 L199.4758,435.0555 L199.2255,434.4911 L199.12035,430.5635 L198.71707,428.3175 L196.53816,422.7025 L197.09067,421.5795 L198.1025,420.61154 L200.3485,419.7491 L201.4715,419.66855 L203.7175,420.15952 L204.24033,420.4565 L208.2095,424.8059 L209.99931,426.0715 L211.5785,426.677 L213.8245,426.82574 L216.0705,426.50015 L219.4395,425.68784 L220.5625,425.71686 L220.8929,426.0715 L220.91422,429.4405 L221.15665,430.5635 L221.80333,431.6865 L222.02626,432.8095 L221.87488,433.9325 L221.99937,435.0555 L222.57132,436.1785 L224.1495,437.3015 L226.1775,437.94388 L229.5465,438.5274 L234.0385,438.83597 L238.5305,438.71866 L239.6535,438.94138 L241.8995,440.1339 L248.17609,442.9165 L249.27039,444.0395 L250.37143,447.4085 L251.49448,449.6545 L252.96529,451.9005 L254.2525,453.41055 L256.4985,455.27588 L258.7445,456.451 L262.18286,457.5155 L267.1811,460.8845 L267.7285,461.36798 L272.2205,467.52658 L275.5895,471.2367 L276.7125,472.1098 L277.8355,472.72797 L278.9585,473.1267 L280.0815,473.31693 L282.3275,473.17978 L285.6965,472.2404 L286.0245,473.2375 L286.36722,475.4835 L286.83728,481.0985 L287.649,484.4675 L289.12033,487.8365 L290.5581,490.0825 L291.3115,490.644 L402.4885,490.644 L402.5402,490.0825 L405.8575,486.91852 L407.7434,484.4675 L409.2265,481.4663 L410.5425,479.9755 L411.4725,478.4312 L415.12167,469.8685 L415.80954,468.7455 L420.97098,462.0075 L422.27777,459.7615 L422.54605,457.5155 L422.4248,456.3925 L422.01727,455.2695 L421.3013,454.1465 L419.15436,451.9005 L418.7506,450.7775 L418.91968,449.6545 L420.1115,447.4085 L420.4565,447.02115 L423.8255,445.00354 L426.0715,443.85187 L428.3175,442.87573 L429.4405,442.7765 L430.5635,443.41513 L431.6865,444.41855 L432.8095,445.1225 L436.81375,448.5315 L437.3015,449.12085 L438.9896,449.6545 L439.5475,450.1294 L440.6705,450.1281 L441.7935,449.8989 L442.9165,449.28708 L444.0395,448.32474 L445.40195,446.2855 L446.2855,445.56845 L449.6545,444.19418 L451.9005,443.0051 L453.6263,441.7935 L454.74747,440.6705 L455.47443,439.5475 L456.3925,436.6378 L459.7615,436.8849 L463.1305,436.42725 L464.2535,436.57523 L466.4995,437.52444 L472.1145,439.365 L476.6065,446.2224 L480.00476,450.7775 L480.81787,454.1465 L481.91885,457.5155 L481.1646,462.0075 L481.111,464.2535 L481.29312,465.3765 L482.20456,467.6225 L483.03506,468.7455 L485.4882,470.9915 L485.65564,475.4835 L485.48843,476.6065 L482.97134,482.2215 L482.2215,483.14746 L476.6065,487.32974 L475.4835,487.78116 L470.9915,488.5455 L462.0075,489.06128 L459.7615,489.5528 L458.27176,490.0825 L458.6385,490.644 L490.0825,490.644 L490.644,490.0825 M22.258942,490.0825 L22.0663,487.8365 L21.349186,485.5905 L20.6685,484.27652 L18.4225,481.7605 L16.1765,479.69617 L13.515212,477.7295 L12.8075,477.42743 L11.6845,477.2238 L10.5615,477.27713 L10,477.7295 L10,490.0825 L10.5615,490.644 L21.7915,490.644 L22.258942,490.0825" fill="none" id="outline-0" stroke="black" stroke-linecap="round" stroke-linejoin="round" stroke-width="0.2"/>
<path d="M213.33539,399.1195 L216.0705,397.54483 L218.3165,395.85324 L219.72218,394.6275 L221.82872,392.3815 L223.20612,390.1355 L223.57466,389.0125 L223.729,387.8895 L223.6822,386.7665 L223.33748,384.5205 L223.9315,383.6427 L225.0545,383.25488 L226.06528,382.2745 L226.01996,381.1515 L225.0545,380.36127 L223.9315,380.00833 L222.8085,379.9996 L221.6855,380.46457 L220.5625,379.93964 L217.78963,375.5365 L216.0705,373.46667 L214.9475,372.66437 L213.8245,372.23163 L212.7015,372.11255 L210.4555,372.55618 L207.0865,374.20602 L202.5945,377.13794 L198.89935,380.0285 L196.70016,382.2745 L195.1481,384.5205 L194.20677,386.7665 L193.99976,387.8895 L194.00931,389.0125 L194.27931,390.1355 L195.45895,392.3815 L196.9795,394.3784 L199.2255,396.51593 L201.51892,397.9965 L204.8405,399.45667 L207.0865,400.02795 L208.2095,400.15567 L210.4555,400.0519 L211.5785,399.7996 L213.33539,399.1195 M167.46219,490.0825 L167.92323,487.8365 L167.84938,486.7135 L167.55382,485.5905 L167.03941,484.4675 L165.4899,482.2215 L164.9432,481.0985 L164.99178,478.8525 L165.26512,476.6065 L169.06682,473.2375 L177.8885,463.1905 L179.37282,460.8845 L180.1345,458.92526 L180.38249,457.5155 L179.81529,455.2695 L178.71895,453.0235 L176.7655,450.5705 L174.5195,448.47778 L173.85094,447.4085 L173.92056,445.1625 L174.43538,444.0395 L178.83029,439.5475 L179.39299,438.4245 L179.58885,436.1785 L179.44101,435.0555 L178.67761,432.8095 L173.9121,424.9485 L172.04079,420.4565 L172.2735,419.71835 L173.3965,418.16336 L173.90237,417.0875 L174.17168,415.9645 L174.18436,414.8415 L173.98976,413.7185 L173.31984,411.4725 L174.10623,409.2265 L174.5195,408.7407 L176.7655,406.89874 L179.0115,405.46667 L181.2575,403.76147 L183.5035,402.88037 L187.9955,402.28418 L189.7786,401.3655 L190.54056,400.2425 L190.61258,399.1195 L190.2415,398.27588 L189.1185,397.5282 L187.9955,397.3895 L187.60942,396.8735 L188.09175,395.7505 L189.50468,393.5045 L190.68007,391.2585 L191.007,390.1355 L190.874,389.0125 L189.83388,387.8895 L186.8725,386.49927 L186.6529,385.6435 L187.34468,383.3975 L187.80476,381.1515 L188.2373,376.6595 L189.36049,373.2905 L191.04312,366.5525 L191.05568,365.4295 L190.49873,364.3065 L189.1185,363.73138 L187.9955,362.92682 L186.8725,362.54166 L185.7205,359.8145 L184.6265,358.029 L182.94858,356.4455 L181.2575,355.48877 L177.8885,354.34488 L173.3965,353.31665 L171.1505,352.97037 L167.7815,352.90115 L166.6585,352.1247 L165.00658,349.7075 L163.05292,347.4615 L162.07115,342.9695 L161.00003,340.7235 L158.7975,337.87646 L157.07802,336.2315 L155.4285,334.9271 L154.55046,333.9855 L153.49171,331.7395 L152.85464,329.4935 L151.9666,327.2475 L150.13521,323.8785 L148.54907,320.5095 L147.5675,318.9699 L146.4445,317.70163 L145.55888,316.0175 L143.02972,308.1565 L141.9525,305.51352 L140.8295,303.39163 L139.5536,301.4185 L132.9685,292.42288 L131.20758,290.1885 L129.12094,287.9425 L126.570015,285.6965 L122.06322,282.3275 L118.3695,279.86615 L115.0005,278.04263 L112.7545,277.3079 L110.5085,277.01678 L108.2625,277.13055 L104.8935,277.65887 L101.50048,276.7125 L98.1555,276.01147 L97.20235,275.5895 L94.7865,273.70966 L93.6635,273.1648 L91.4175,272.64398 L90.85592,272.2205 L91.80254,267.7285 L91.851776,265.4825 L91.61171,264.3595 L91.095634,263.2365 L90.282936,262.1135 L88.00015,259.8675 L87.94385,254.2525 L87.41547,250.8835 L88.64813,248.6375 L89.1715,247.33366 L89.657745,245.2685 L89.717865,243.0225 L89.1715,241.03639 L88.32977,239.6535 L87.2705,238.5305 L85.879715,237.4075 L80.1875,233.50089 L66.7115,222.99818 L64.4655,221.74446 L63.3425,221.42038 L62.2195,221.35681 L61.0965,221.6488 L59.9735,222.61374 L59.273846,223.9315 L58.690983,226.1775 L58.659245,227.3005 L59.019905,229.5465 L60.83618,234.0385 L61.0965,235.23529 L58.8505,234.6488 L57.7275,234.52048 L56.6045,234.56778 L55.4815,234.8919 L54.3585,234.21823 L53.278023,232.9155 L52.050003,231.7925 L49.8665,230.2617 L47.6205,229.05519 L46.4975,228.69789 L45.3745,228.55193 L44.2515,228.66893 L43.1285,229.11383 L42.0055,230.07295 L41.588856,230.6695 L41.0924,231.7925 L40.86878,232.9155 L40.883835,234.0385 L41.13198,235.1615 L42.0055,236.89447 L43.1285,238.1967 L45.3745,239.78664 L47.6205,240.62144 L48.7435,240.82185 L50.9895,240.87926 L53.2355,240.64642 L54.3585,240.28383 L55.4815,240.85269 L56.862823,243.0225 L57.243015,244.1455 L56.885433,246.3915 L56.757565,250.8835 L57.31997,255.3755 L56.6045,255.99689 L55.4815,255.92902 L54.3585,255.3575 L49.374836,250.8835 L46.01468,247.5145 L44.2515,246.0394 L42.0055,244.7214 L40.8825,244.29138 L38.6365,243.81996 L34.630386,240.7765 L33.846413,239.6535 L33.335403,238.5305 L30.99238,230.6695 L30.35083,229.5465 L29.264687,228.4235 L28.5295,227.98564 L27.4065,227.64662 L26.2835,227.54128 L22.9145,227.75725 L21.7915,227.69102 L20.6685,226.98645 L19.5455,226.51146 L18.4225,226.3201 L16.1765,226.4716 L10.5615,227.71964 L10,228.4235 L10,428.3175 L11.160714,429.4405 L12.8075,430.4948 L15.0535,431.4686 L17.2995,432.18515 L17.828741,432.8095 L19.686417,436.1785 L20.6685,437.49518 L22.600779,439.5475 L25.287558,441.7935 L34.1445,448.47394 L37.5135,450.4323 L39.7595,451.3233 L42.0055,451.8404 L45.3745,452.2536 L46.4975,452.77475 L50.331066,456.3925 L57.7275,461.98724 L61.0965,464.12607 L66.083534,466.4995 L66.294655,467.6225 L66.355736,469.8685 L65.30541,476.6065 L65.19976,478.8525 L65.415794,481.0985 L65.977356,483.3445 L66.85165,485.5905 L68.121506,487.8365 L68.9575,488.9729 L70.0376,490.0825 L70.0805,490.644 L166.6585,490.644 L167.46219,490.0825 M358.37228,487.8365 L355.3225,488.65808 L351.9535,488.83054 L348.5845,488.29926 L345.2155,487.34396 L341.0779,485.5905 L334.89615,482.2215 L331.47638,479.9755 L328.3705,477.38815 L325.0015,473.67722 L321.60547,468.7455 L319.8457,465.3765 L318.9249,463.1305 L317.69022,458.6385 L317.45563,456.3925 L317.51654,454.1465 L317.81937,451.9005 L318.52792,448.5315 L319.3865,446.1894 L320.07733,445.1625 L321.6325,443.73587 L322.2978,442.9165 L321.6325,442.21637 L320.5095,442.11932 L318.36502,442.9165 L318.0687,444.0395 L317.35828,445.1625 L316.0175,446.43582 L313.7715,447.73438 L312.6485,448.01273 L311.5255,447.88803 L310.4025,447.09842 L309.8879,446.2855 L309.5195,445.1625 L309.54547,444.0395 L309.93628,442.9165 L310.0644,441.7935 L309.89874,440.6705 L310.2539,438.4245 L309.2795,437.78842 L308.1565,437.76926 L302.5415,438.82904 L299.1725,439.13867 L291.3115,439.2513 L290.1885,439.06152 L289.0655,438.4917 L288.6449,437.3015 L288.92368,436.1785 L292.4345,430.89355 L293.5575,428.7658 L294.15942,427.1945 L293.5575,426.69376 L290.1885,427.52182 L287.9425,427.81882 L285.6965,427.7998 L283.4505,427.50723 L282.32422,427.1945 L279.90887,426.0715 L278.24203,424.9485 L275.5895,422.6576 L267.7285,414.7295 L266.08533,412.5955 L264.79144,410.3495 L263.48862,406.9805 L262.75897,403.6115 L262.63983,400.2425 L263.2365,397.49875 L264.3595,395.75372 L265.4825,395.04797 L266.6055,394.694 L267.7285,394.5692 L270.05435,394.6275 L270.7103,393.5045 L270.82587,391.2585 L271.04608,390.1355 L271.51883,389.0125 L272.28207,387.8895 L273.3435,387.0243 L274.4665,386.42093 L276.59558,385.6435 L277.8355,385.36356 L278.9585,385.7054 L282.3275,387.6411 L285.6965,390.4216 L286.8195,390.38876 L289.2301,386.7665 L291.08792,384.5205 L292.4345,383.1693 L293.5575,382.4393 L296.9265,381.727 L299.1725,381.4487 L302.5415,381.36765 L305.9105,381.53647 L309.2795,381.90906 L312.6485,382.49536 L316.0175,383.2858 L319.3865,384.4193 L321.6325,385.4219 L323.8785,386.05667 L326.1245,385.3335 L327.2475,385.13342 L328.3705,385.2379 L329.3721,385.6435 L330.6165,386.5696 L331.7395,386.46588 L333.9855,384.95123 L339.6005,380.09412 L341.8465,378.75558 L342.9695,378.30234 L345.2155,377.82855 L350.8305,378.06793 L353.0765,377.53513 L354.9751,376.6595 L356.60663,375.5365 L358.26978,373.2905 L360.32837,371.0445 L365.2299,366.5525 L367.96115,364.3065 L369.9215,362.95306 L372.1675,361.71655 L377.4231,359.8145 L378.9055,357.7872 L380.0285,357.35373 L381.1515,357.45203 L382.2745,357.7821 L382.9147,357.5685 L383.1482,356.4455 L383.3975,356.04977 L384.3528,355.3225 L385.6435,355.06152 L390.1355,354.62143 L391.2585,354.26068 L394.6275,352.64508 L399.1195,350.0301 L401.3655,349.23416 L402.4885,349.13507 L403.6115,349.2803 L404.7345,349.7143 L405.8575,350.52487 L407.0442,351.9535 L408.1035,354.1391 L408.4486,355.3225 L408.78564,357.5685 L408.68756,359.8145 L408.0764,362.0605 L406.8774,364.3065 L406.9805,364.4777 L409.2265,364.45972 L410.3495,364.94226 L411.4725,366.14474 L412.2574,367.6755 L412.5955,367.8931 L414.8415,368.399 L419.3335,369.95972 L420.4565,369.9317 L423.8255,366.70047 L424.58966,365.4295 L426.75906,359.8145 L427.81168,356.4455 L428.39572,353.0765 L428.51282,349.7075 L427.95804,342.9695 L427.41165,341.8465 L426.0715,339.98672 L424.9485,339.03387 L418.96243,336.2315 L412.5955,332.8482 L411.4725,333.0656 L409.2265,334.42896 L406.9805,335.42896 L404.7345,336.05948 L400.2425,336.65125 L395.7505,338.53677 L393.5045,339.12976 L392.3815,339.23004 L390.1355,339.05447 L386.7665,339.7155 L383.3975,340.05368 L376.6595,340.09152 L373.2905,339.93524 L370.74918,339.6005 L367.6755,338.98407 L364.3065,338.0429 L360.9375,338.447 L359.8145,338.31998 L358.6915,338.00235 L356.4455,336.9403 L350.8305,333.42145 L349.7075,332.96503 L340.7235,332.17392 L337.3545,331.55002 L333.05237,329.4935 L331.7395,328.62338 L324.97256,322.7555 L323.8785,322.02374 L321.6325,321.4476 L321.1318,321.6325 L319.3865,323.23578 L318.2635,323.9959 L317.1405,324.52512 L316.0175,324.83865 L312.82965,325.0015 L312.75333,326.1245 L313.1317,329.4935 L313.0029,330.6165 L312.50784,331.7395 L311.4711,332.8625 L309.54785,333.9855 L307.0335,334.63605 L304.7875,334.64996 L302.34778,333.9855 L300.54544,332.8625 L299.1725,331.4282 L298.01178,329.4935 L296.8943,326.1245 L295.8035,325.1303 L292.4345,325.5854 L290.1885,325.54257 L288.03333,325.0015 L286.8195,324.38794 L285.6965,323.59088 L284.5735,322.52753 L282.25427,319.3865 L269.9745,309.91974 L268.8515,308.78873 L266.6055,305.93903 L264.3595,305.40005 L260.9905,304.03455 L259.8675,303.76648 L256.4985,304.4783 L253.1295,304.7046 L249.7605,304.22217 L245.2685,302.7293 L240.7765,303.40298 L238.5305,303.43652 L237.4075,303.29254 L235.1615,302.5708 L233.40326,301.4185 L231.7925,299.72565 L230.69592,298.0495 L229.67407,295.8035 L229.03976,293.5575 L228.4235,292.9593 L226.1775,292.05255 L224.8083,291.3115 L221.73306,289.0655 L220.5625,287.73648 L220.01833,286.8195 L219.64906,285.6965 L219.53227,284.5735 L219.61852,283.4505 L220.2321,281.2045 L221.6855,278.18887 L224.0955,274.4665 L224.61607,273.3435 L222.97272,272.2205 L221.6855,271.80255 L220.5625,271.08304 L219.4395,271.11774 L217.1935,271.87778 L216.0705,272.0017 L214.9475,271.71918 L213.8245,270.6136 L212.8657,267.7285 L212.32698,264.3595 L209.65381,257.6215 L208.2095,254.61084 L206.6637,252.0065 L205.91911,250.8835 L204.8405,250.1184 L200.3485,247.70346 L196.9795,246.16522 L195.8565,245.9021 L194.7335,245.95383 L192.4875,246.5778 L190.2415,246.93086 L189.1185,246.87259 L187.9955,246.57129 L186.8725,245.90454 L185.7495,244.76755 L183.364,240.7765 L182.3805,239.51674 L180.1345,239.29819 L174.5195,239.37538 L171.1505,238.81609 L168.9045,237.78911 L166.6931,236.2845 L163.2895,235.22334 L160.71521,234.0385 L158.87936,232.9155 L156.5515,231.12857 L155.4285,230.80325 L148.6905,231.01315 L145.3215,230.81183 L143.0755,230.44029 L140.55177,229.5465 L138.75987,228.4235 L137.4605,227.30829 L131.8455,221.14615 L128.71475,217.1935 L125.1075,211.46423 L123.9845,210.74403 L120.6155,209.07307 L118.3695,207.42133 L116.1235,205.12848 L112.7545,201.06717 L111.6315,200.22194 L108.2625,198.33376 L106.63493,196.9795 L105.60573,195.8565 L103.7705,195.00409 L99.2785,193.92848 L91.4175,192.70844 L89.1715,191.96793 L88.0485,191.36772 L86.75454,190.2415 L85.93672,189.1185 L85.3866,187.9955 L84.6795,185.72913 L83.5565,185.08952 L80.1875,184.02676 L77.9415,182.88338 L75.79528,181.2575 L74.67687,180.1345 L72.3265,177.08797 L67.8345,174.70682 L66.7115,174.62334 L65.94671,175.6425 L64.96787,177.8885 L62.80101,184.6265 L61.61794,186.8725 L59.72453,189.1185 L57.7275,190.61424 L55.4815,191.709 L52.1125,192.60486 L45.3745,193.37881 L38.6365,193.87209 L36.3905,193.84685 L34.1445,193.58647 L31.8985,193.00642 L28.5295,191.65587 L27.4065,191.73485 L26.2835,192.34496 L24.0375,195.74355 L21.7915,198.09425 L19.5455,199.84216 L16.1765,201.74777 L10.5615,207.9114 L10,207.0865 L10,58.8505 L10.5615,58.465607 L17.2995,59.52418 L26.2835,60.137318 L29.6525,60.643993 L31.101664,61.0965 L33.0215,61.954975 L37.5135,64.87607 L38.6365,64.71463 L43.1285,62.99423 L45.3745,62.53326 L47.6205,62.42665 L54.3585,62.913124 L58.8505,62.717064 L59.9735,62.07524 L68.505455,55.4815 L69.09975,54.3585 L68.8947,50.9895 L69.31536,46.4975 L68.87713,44.2515 L68.71803,42.0055 L68.82784,40.8825 L69.37209,38.6365 L68.9575,36.61538 L67.8345,36.392433 L62.2195,37.342304 L58.8505,38.243874 L56.6045,38.406506 L55.4815,38.263077 L53.067013,37.5135 L50.958534,36.3905 L49.428925,35.2675 L46.4975,32.050262 L45.60715,30.7755 L45.036373,29.6525 L44.25591,27.4065 L43.88908,25.1605 L43.864258,24.0375 L44.32789,21.7915 L42.37301,17.2995 L41.537395,13.9305 L41.497353,11.6845 L41.687565,10.5615 L42.0055,10 L490.0825,10 L490.644,10.5615 L490.644,422.7025 L490.0825,423.8141 L488.9595,423.0161 L487.4857,421.5795 L486.61026,420.4565 L485.3483,418.2105 L483.6054,415.9645 L483.1321,414.8415 L482.9147,413.7185 L482.99368,411.4725 L483.5321,409.2265 L487.8365,398.4284 L489.25436,395.7505 L488.9595,395.31577 L486.7135,396.00613 L484.4675,396.35593 L479.07568,400.2425 L476.6065,401.28107 L474.3605,401.44995 L470.9915,400.58405 L469.8685,400.5756 L465.3765,401.87442 L461.80765,402.4885 L458.6385,403.61575 L456.3925,404.16013 L454.1465,405.19684 L453.0235,405.53723 L450.7775,405.61215 L449.6545,406.35742 L442.9165,412.0303 L440.6705,414.46872 L437.3015,418.76828 L436.1785,419.81964 L435.0555,420.49713 L433.9325,420.8192 L432.8095,420.8599 L430.5635,420.32028 L428.3175,419.2489 L422.7025,416.05884 L419.3335,414.64694 L418.2105,414.55127 L415.9645,415.3454 L412.70535,418.2105 L406.36386,424.9485 L405.86868,426.0715 L405.98853,431.6865 L405.81284,433.9325 L405.37726,436.1785 L404.70245,438.4245 L403.6115,440.8804 L402.34216,442.9165 L400.2425,445.27277 L397.9965,446.89316 L397.66855,447.4085 L397.9005,449.6545 L399.5672,454.1465 L400.0369,456.3925 L400.10278,457.5155 L399.84485,459.7615 L399.1195,461.85602 L398.4443,463.1305 L396.8712,465.3765 L390.1355,473.06915 L387.8895,475.31097 L384.5205,478.01056 L382.2745,479.38385 L381.1515,479.8963 L380.0285,480.22153 L378.9055,480.32434 L377.33386,479.9755 L375.5365,478.75244 L371.40207,474.3605 L369.9215,474.0264 L369.32538,474.3605 L368.70493,475.4835 L368.9049,477.7295 L368.5576,479.9755 L368.01242,481.0985 L367.1613,482.2215 L366.0018,483.3445 L362.88083,485.5905 L360.90466,486.7135 L358.37228,487.8365 M430.5635,403.64618 L429.4405,404.05734 L428.63553,403.6115 L429.11087,401.3655 L429.89832,400.2425 L432.2075,397.9965 L435.0132,394.6275 L436.47327,392.3815 L437.936,389.0125 L438.4245,388.20865 L440.04492,386.7665 L440.6705,386.4577 L444.0395,385.691 L447.4085,384.30286 L448.5315,384.44217 L447.12518,389.0125 L446.74786,391.2585 L446.67667,393.5045 L446.20352,395.7505 L445.1625,396.48856 L442.9165,396.73056 L441.7935,397.05035 L439.64938,397.9965 L433.9325,401.8657 L430.5635,403.64618" fill="none" id="outline-0" stroke="black" stroke-linecap="round" stroke-linejoin="round" stroke-width="0.2"/>
<path d="M71.53979,19.5455 L73.4495,18.831816 L75.6955,17.424349 L77.154724,16.1765 L78.02997,15.0535 L78.47573,13.9305 L78.51606,12.8075 L78.17744,11.6845 L77.456535,10.5615 L76.8185,10 L65.5885,10 L64.55338,10.5615 L64.543,12.8075 L64.973816,15.0535 L65.5885,16.671997 L66.7115,18.28396 L67.8345,19.136503 L68.9575,19.590294 L70.0805,19.726202 L71.53979,19.5455 M226.1775,231.17809 L227.3005,230.64018 L229.5465,228.99777 L229.97005,228.4235 L229.77899,227.3005 L228.4235,226.92865 L227.3005,226.90811 L226.61992,227.3005 L225.60439,230.6695 L226.1775,231.17809 M164.16064,378.9055 L164.37514,377.7825 L163.8731,376.6595 L162.70656,375.5365 L162.1665,375.2393 L161.0435,374.98834 L159.9205,375.2805 L159.64888,375.5365 L159.43898,376.6595 L159.814,377.7825 L161.0435,379.1892 L162.1665,379.76526 L163.2895,379.70798 L164.16064,378.9055 M105.19375,456.3925 L106.0165,456.0823 L107.14832,455.2695 L107.87302,454.1465 L108.2568,453.0235 L108.27059,451.9005 L107.847725,450.7775 L107.1395,449.95615 L106.0165,449.41998 L104.8935,449.36356 L103.72771,449.6545 L102.11484,450.7775 L101.24662,451.9005 L100.82513,453.0235 L100.79578,454.1465 L101.273994,455.2695 L102.6475,456.27884 L103.7705,456.5329 L105.19375,456.3925 M145.02614,490.0825 L145.5423,487.8365 L145.54967,486.7135 L145.12947,484.4675 L146.4445,482.16516 L147.19296,479.9755 L147.3454,477.7295 L147.02577,475.4835 L146.35707,473.2375 L145.07841,469.8685 L141.15697,460.8845 L140.8295,460.52423 L140.06436,458.6385 L137.82727,454.1465 L135.84323,450.7775 L134.60799,440.6705 L135.04555,439.5475 L137.4605,437.87234 L139.08061,436.1785 L139.82242,435.0555 L140.67697,432.8095 L140.99673,430.5635 L140.9809,428.3175 L140.12741,421.5795 L142.36473,415.9645 L144.1985,412.58548 L146.4445,409.41855 L152.86505,402.4885 L153.4721,401.3655 L153.69743,400.2425 L153.53218,399.1195 L153.06921,397.9965 L151.82668,395.7505 L151.81306,394.6275 L152.79765,391.2585 L153.21967,389.0125 L153.38321,386.7665 L154.10846,384.5205 L154.19943,383.3975 L154.07533,382.2745 L153.25055,380.0285 L152.55121,378.9055 L150.9365,376.93353 L148.52985,374.4135 L147.81111,373.2905 L146.27722,369.9215 L145.8047,367.6755 L145.11926,365.4295 L144.8335,357.5685 L144.1985,354.92313 L143.0755,353.37317 L141.9525,352.69476 L140.8295,352.45483 L139.7065,352.52417 L137.4605,353.2783 L136.3375,352.43518 L135.2145,351.15707 L134.0915,350.2733 L132.9685,349.67093 L130.7225,349.06482 L127.96969,345.2155 L127.447395,340.7235 L127.54351,339.6005 L128.30737,336.2315 L128.39502,333.9855 L128.25893,332.8625 L127.545,330.6165 L126.2305,328.4433 L125.1075,327.07874 L122.875755,325.0015 L121.96174,314.8945 L121.22322,312.6485 L120.57659,311.5255 L119.4925,310.31488 L118.3695,309.49112 L117.2465,308.94394 L116.1235,308.62183 L115.0005,308.51038 L113.8775,308.62415 L112.7545,308.97495 L111.6315,309.58218 L110.5085,310.4295 L107.1395,313.56308 L106.0165,313.41107 L104.91324,311.5255 L104.62982,309.2795 L103.7705,306.55368 L102.6475,304.3482 L101.5245,302.6315 L99.2785,299.76877 L96.66476,296.9265 L94.7865,295.19135 L92.5405,293.55374 L90.2945,291.43738 L88.0485,290.29202 L86.9255,289.98737 L83.5565,289.52078 L81.21862,286.8195 L79.0645,285.1582 L74.05735,282.3275 L70.0805,280.5302 L67.8345,279.813 L65.5885,279.3297 L58.8505,278.56595 L55.4815,278.01013 L53.2355,276.89008 L47.6205,272.88718 L42.954166,269.9745 L41.895447,267.7285 L40.540745,263.2365 L39.557026,260.9905 L34.1445,256.02518 L33.0215,255.4406 L30.7755,255.06503 L27.4065,255.12804 L25.1605,255.53583 L22.92611,256.4985 L21.7915,257.37238 L20.6685,258.62158 L19.918808,259.8675 L19.46126,260.9905 L19.089182,263.2365 L19.24694,265.4825 L19.673567,267.7285 L19.5455,267.93588 L17.613747,268.8515 L16.1765,270.0572 L15.0535,271.59872 L13.201296,275.5895 L12.8075,275.92834 L11.6845,275.6598 L10.5615,275.6058 L10,276.7125 L10,406.9805 L10.5615,407.6491 L11.788186,410.3495 L12.8075,411.9849 L13.9305,413.3884 L15.559237,414.8415 L17.2995,415.88477 L18.4225,416.34598 L20.6685,416.98178 L24.0375,417.62323 L25.1605,418.0642 L27.4065,420.09686 L27.655392,420.4565 L29.283684,428.3175 L30.011847,430.5635 L31.128723,432.8095 L31.944366,433.9325 L33.0215,434.89963 L36.3905,437.48795 L40.8825,440.0925 L42.0055,440.37616 L44.76648,440.6705 L54.3585,440.8699 L56.54717,441.7935 L56.941315,444.0395 L57.63151,446.2855 L58.627964,448.5315 L59.9735,450.70117 L61.018135,451.9005 L62.319485,453.0235 L64.202934,454.1465 L65.5885,454.69455 L67.8345,455.23578 L71.2035,455.48654 L75.6955,455.3535 L77.9415,454.91888 L80.1875,455.63104 L82.4335,456.04886 L84.6795,455.93362 L86.9255,455.27713 L88.0485,454.7437 L90.2945,453.32538 L91.87517,451.9005 L102.6475,440.23257 L103.7705,439.86087 L106.0165,439.4451 L107.1395,440.03033 L109.29833,441.7935 L110.22683,442.9165 L110.574135,444.0395 L112.06852,447.4085 L112.64366,449.6545 L112.70321,450.7775 L112.331665,454.1465 L111.6315,456.89355 L110.650955,458.6385 L110.5085,459.17325 L108.14013,462.0075 L107.68517,463.1305 L108.2625,463.7332 L108.305214,464.2535 L107.62277,465.3765 L107.18079,466.4995 L106.60341,468.7455 L106.64297,470.9915 L107.18968,475.4835 L105.468475,478.8525 L105.05825,479.9755 L104.64021,482.2215 L104.87869,485.5905 L105.37354,487.8365 L106.25644,490.0825 L107.1395,490.644 L144.1985,490.644 L145.02614,490.0825 M349.858,432.8095 L349.7075,433.24402 L348.5845,433.8739 L347.4615,433.79227 L345.2155,433.28632 L342.9695,432.59546 L340.83643,431.6865 L339.6005,430.89923 L338.4775,429.86856 L337.5305,428.3175 L337.27527,427.1945 L337.34775,426.0715 L335.1085,424.60178 L333.91348,422.7025 L333.3258,420.4565 L333.04837,418.2105 L333.15747,417.0875 L333.82654,415.9645 L333.9855,415.85507 L335.1085,416.262 L336.2315,417.44162 L337.3545,419.13638 L338.4775,421.25775 L339.30463,423.8255 L339.6005,424.02332 L340.7235,424.08136 L341.8465,424.36362 L343.26132,424.9485 L345.11557,426.0715 L347.61365,428.3175 L349.13553,430.5635 L349.63654,431.6865 L349.858,432.8095 M363.71124,453.0235 L362.0605,453.62714 L360.9375,453.78488 L359.8145,453.73688 L357.6192,453.0235 L356.4455,452.16788 L355.21753,450.7775 L354.1224,448.5315 L353.3944,445.1625 L352.8846,440.6705 L352.52277,439.5475 L351.9535,438.7475 L351.45895,439.5475 L350.8305,440.03992 L349.7075,440.53436 L348.5845,440.6228 L347.4615,440.37762 L345.7763,439.5475 L345.27063,438.4245 L345.7858,437.3015 L347.4615,436.01154 L348.5845,435.63373 L349.7075,435.53284 L350.8305,435.7995 L351.37088,436.1785 L351.9535,436.96198 L353.0765,436.89954 L354.1995,436.40436 L355.3225,436.53998 L357.5685,437.29745 L358.6915,437.87787 L360.9375,439.4014 L362.0605,440.3839 L363.39697,441.7935 L364.99277,444.0395 L365.97174,446.2855 L366.4054,448.5315 L366.34647,449.6545 L365.98538,450.7775 L365.20987,451.9005 L363.71124,453.0235 M452.43158,360.9375 L451.9005,361.264 L450.7775,361.3647 L449.6545,360.97415 L448.79556,359.8145 L448.92007,358.6915 L449.6545,358.1851 L450.7775,358.15863 L451.9005,358.61447 L452.75403,359.8145 L452.43158,360.9375 M460.47446,351.9535 L462.0075,351.18024 L463.33505,349.7075 L463.8389,348.5845 L464.30566,346.3385 L464.29984,345.2155 L464.05945,344.0925 L463.41394,342.9695 L462.6166,340.7235 L462.0075,340.38925 L460.8845,340.21237 L459.7615,340.33234 L458.6385,340.67523 L457.5155,341.59778 L455.17856,344.0925 L454.64047,345.2155 L454.4455,346.3385 L454.7517,348.5845 L455.1727,349.7075 L456.02386,350.8305 L457.5155,351.8266 L457.93674,351.9535 L459.7615,352.11752 L460.47446,351.9535 M486.68182,373.2905 L487.8365,372.75775 L490.644,371.0445 L490.644,335.1085 L490.0825,334.9993 L488.65442,333.9855 L487.56897,332.8625 L487.0217,331.7395 L486.7135,331.51044 L486.4836,330.6165 L485.54114,329.4935 L485.0812,327.2475 L484.4675,326.7451 L483.3445,323.60263 L482.2215,321.6248 L481.0985,320.3588 L479.9755,319.8075 L478.8525,319.6908 L477.7295,319.9352 L476.6065,320.47742 L475.4835,321.2588 L474.3605,322.31613 L473.1353,323.8785 L470.9915,327.71985 L469.73337,330.6165 L469.14737,332.8625 L469.06802,333.9855 L469.22763,335.1085 L469.8685,336.38885 L470.85083,337.3545 L472.1145,338.10056 L478.8525,340.5691 L481.2443,341.8465 L482.43814,342.9695 L484.8232,347.4615 L485.13132,348.5845 L484.4675,349.1956 L482.2215,350.20007 L479.9755,351.79315 L477.7295,354.05923 L476.7808,355.3225 L475.5249,357.5685 L475.12463,358.6915 L474.7952,360.9375 L475.13037,363.1835 L476.05948,365.4295 L477.7295,368.25183 L479.9755,371.3459 L481.0985,372.45917 L482.2215,373.2126 L483.3445,373.6169 L484.4675,373.73773 L485.5905,373.61304 L486.68182,373.2905 M490.644,331.7395 L490.0825,332.0969 L488.9595,332.05933 L487.8365,331.3558 L486.7135,329.88177 L486.0681,329.4935 L486.3173,327.2475 L486.7135,326.8181 L487.8365,326.6907 L488.9595,327.12082 L490.0825,328.1418 L490.644,328.3705 L490.644,331.7395 M387.5649,327.2475 L384.5205,327.64337 L374.4135,328.11133 L372.1675,328.13153 L369.9215,327.89438 L367.6755,327.30176 L365.4295,326.2589 L363.1835,324.71606 L361.06042,322.7555 L358.6915,321.9854 L357.5685,321.71567 L354.1995,321.83597 L351.9535,321.64145 L349.7075,321.21 L345.2155,319.99646 L340.7235,320.1418 L337.3545,319.59586 L336.2315,319.20718 L333.9855,318.09198 L331.7395,316.5798 L327.2475,313.12384 L322.7555,310.3437 L319.3865,308.80054 L311.5255,306.2837 L308.4193,304.7875 L305.39517,302.5415 L300.2955,297.22433 L299.1725,296.62094 L294.6805,295.57996 L292.4345,294.9014 L289.2304,293.5575 L285.6965,291.69455 L282.3275,292.63818 L280.0815,292.98355 L277.8355,293.0617 L275.5895,292.87637 L262.1135,290.3333 L258.7445,289.34213 L256.4985,288.39044 L253.93745,286.8195 L252.0065,285.0182 L250.87476,283.4505 L249.99886,281.2045 L249.82964,280.0815 L249.96976,277.8355 L250.8835,274.9399 L252.76208,271.0975 L252.99588,269.9745 L252.61444,268.8515 L252.0065,268.3187 L250.8835,268.26715 L247.5145,268.84253 L245.2685,269.0392 L243.0225,268.88245 L241.8995,268.64322 L239.6535,267.85583 L237.4075,266.6519 L235.75398,265.4825 L234.0385,263.9425 L232.47844,262.1135 L231.7934,260.9905 L230.93874,258.7445 L230.6577,256.4985 L230.7897,252.0065 L228.5307,249.7605 L227.73708,248.6375 L222.97226,238.5305 L222.62373,237.4075 L222.35603,235.1615 L221.6855,234.72868 L219.4395,235.00749 L218.3165,234.91814 L217.1935,234.4229 L212.16223,230.6695 L209.52701,228.4235 L207.36795,226.1775 L202.94363,220.5625 L201.54837,218.3165 L201.0346,217.1935 L200.4267,214.9475 L196.9795,214.48582 L195.8565,214.90005 L193.77303,216.0705 L190.2885,218.3165 L189.1185,219.34062 L187.9955,219.95937 L186.8725,220.23126 L185.7495,220.23235 L184.6265,220.03033 L182.3805,219.21515 L180.1345,218.01445 L173.3965,213.4529 L168.9045,212.40091 L167.7815,211.88998 L164.4125,209.81918 L161.0435,209.28358 L158.7975,208.5209 L157.6745,207.91742 L156.5515,207.11028 L155.4285,206.04121 L154.3055,204.67694 L150.1095,198.1025 L144.1985,194.21844 L143.0755,193.86948 L141.9525,193.9161 L140.85933,194.7335 L139.7065,195.91618 L138.5835,196.69681 L137.4605,197.12968 L136.3375,197.22636 L135.2145,197.03647 L134.0915,196.55098 L132.9685,195.82571 L131.8267,194.7335 L131.02876,193.6105 L130.4914,192.4875 L130.21115,191.3645 L130.15834,190.2415 L130.31482,189.1185 L131.13756,186.8725 L132.9685,183.72305 L135.2145,180.74863 L135.42499,180.1345 L135.06422,176.7655 L133.82227,172.2735 L133.54347,170.0275 L133.59395,168.9045 L134.07083,166.6585 L135.84987,162.1665 L135.70105,161.0435 L135.02762,159.9205 L133.86894,158.7975 L130.7225,157.04567 L128.4765,156.24422 L126.2305,155.14851 L124.96545,154.3055 L122.4502,152.0595 L121.7385,151.68202 L120.6155,151.4497 L118.3695,151.53368 L117.2465,151.36903 L115.856186,150.9365 L113.8775,149.9648 L110.70695,147.5675 L106.0165,143.27701 L103.7705,141.54147 L101.04028,139.7065 L99.96881,138.5835 L99.62287,137.4605 L100.15805,136.3375 L102.0845,135.2145 L109.3855,132.8287 L110.23011,131.8455 L110.35307,130.7225 L109.51532,128.4765 L106.99434,125.1075 L104.8935,121.39888 L103.7705,118.88144 L102.80999,116.1235 L101.5245,114.61741 L100.40664,112.7545 L100.01875,111.6315 L99.69741,109.3855 L99.2785,108.688095 L97.59659,107.1395 L94.48164,103.7705 L90.2945,102.9756 L89.11865,103.7705 L88.14588,104.8935 L86.9255,107.158485 L85.50384,111.6315 L84.01528,115.0005 L83.532814,117.2465 L82.721466,119.4925 L82.58692,120.6155 L83.69269,122.8615 L84.27171,125.1075 L84.86158,128.4765 L85.30798,132.9685 L85.31619,137.4605 L84.82081,141.9525 L83.94715,145.3215 L83.533035,146.4445 L82.4335,148.53227 L81.31752,149.8135 L80.1875,150.54968 L79.0645,150.91571 L76.77615,150.9365 L75.27756,153.1825 L74.5725,153.7941 L73.4495,154.38484 L72.3265,154.58965 L71.2035,154.55228 L70.0805,154.30411 L67.8345,153.10826 L63.3425,148.97949 L62.2195,148.32649 L59.9735,147.96234 L58.8505,147.58505 L57.7275,146.91057 L56.6045,145.80847 L55.72787,145.3215 L50.9895,144.9951 L47.6205,145.02948 L45.3745,145.22371 L44.2515,145.3596 L40.8825,146.81876 L38.6365,147.2836 L38.251442,147.5675 L37.5135,149.71194 L36.3905,152.23923 L35.2675,153.88312 L34.1445,154.92578 L33.0215,155.6094 L30.634718,156.5515 L29.6525,157.86925 L29.440464,158.7975 L28.921265,159.9205 L26.839664,162.1665 L25.576069,167.7815 L24.838444,170.0275 L21.170004,177.8885 L18.495457,184.6265 L17.2995,186.97333 L16.1765,188.53178 L14.341237,190.2415 L12.8075,191.20374 L10.5615,192.19359 L10,191.3645 L10,70.0805 L10.5615,69.43278 L12.8075,69.648445 L15.0535,70.19617 L17.741156,71.2035 L24.0375,73.98894 L25.1605,74.34193 L28.5295,74.772285 L30.7755,75.49066 L36.3905,78.43961 L42.0055,80.16293 L45.3745,81.6707 L46.4975,81.82002 L48.7435,80.93836 L52.1125,80.056076 L54.3585,79.875595 L55.4815,79.937164 L56.910675,80.1875 L58.8505,80.82862 L62.2195,82.637405 L64.4655,82.324165 L67.8345,82.214836 L70.0805,81.562256 L71.2035,81.50879 L74.5725,82.18069 L75.6955,82.01456 L81.21027,79.0645 L82.84404,77.9415 L82.06036,75.6955 L81.99475,74.5725 L82.4335,73.206 L83.5565,72.78133 L84.6795,73.11114 L85.16773,73.4495 L86.16311,74.5725 L86.9255,75.01818 L88.0485,74.86433 L90.2945,73.891396 L92.5405,73.30875 L94.7865,73.16556 L98.1555,73.72172 L98.8708,73.4495 L99.2785,72.9676 L99.48623,72.3265 L99.95456,68.9575 L100.71975,66.7115 L101.84167,64.4655 L105.052315,58.8505 L106.73935,55.4815 L107.007774,54.3585 L107.01309,50.9895 L106.77552,49.8665 L102.6475,45.80357 L99.2785,43.226826 L95.563835,40.8825 L93.6635,39.31683 L93.146095,38.6365 L92.5316,36.3905 L91.9066,35.2675 L91.62937,34.1445 L91.61322,33.0215 L92.163795,30.7755 L92.7317,29.6525 L93.69004,28.5295 L94.7865,27.952318 L95.9095,27.857353 L97.0325,28.131384 L98.1555,28.674591 L102.6475,31.587332 L103.37714,31.8985 L107.1395,32.53274 L108.2625,32.176617 L108.390434,31.8985 L107.1395,29.503656 L105.435974,27.4065 L102.36764,22.9145 L101.204,20.6685 L100.826454,19.5455 L100.62118,17.2995 L100.84463,16.1765 L101.5245,14.783638 L103.17235,12.8075 L102.59111,11.6845 L102.23307,10.5615 L102.6475,10 L490.0825,10 L490.644,10.5615 L490.644,325.0015 L490.0825,325.75482 L485.75424,320.5095 L482.2215,319.73083 L481.0985,319.0831 L479.9755,318.17087 L477.7295,315.5667 L472.5967,308.1565 L472.1145,307.83414 L470.9915,307.50623 L468.7455,307.093 L466.4995,307.87183 L465.3765,308.08023 L462.0075,308.1874 L458.6385,309.91904 L453.0235,313.36868 L449.6545,315.2513 L445.1625,317.33856 L442.9165,318.15173 L440.6705,318.5514 L439.5475,318.5662 L437.42404,318.2635 L435.0555,317.50208 L430.5635,315.70642 L428.3175,315.14954 L426.0715,314.99045 L422.7025,315.35074 L418.2105,316.48007 L406.9805,320.3827 L404.7345,320.8015 L399.1195,321.14215 L396.8735,321.63312 L395.7505,322.28864 L394.2452,323.8785 L392.3815,325.35178 L390.1355,326.499 L387.5649,327.2475 M15.0535,285.96255 L15.596215,285.6965 L15.0535,285.19022 L14.470162,285.6965 L15.0535,285.96255" fill="none" id="outline-0" stroke="black" stroke-linecap="round" stroke-linejoin="round" stroke-width="0.2"/>
<path d="M490.644,289.0655 L490.644,235.1615 L490.0825,235.07042 L488.9595,237.98175 L486.7135,242.13556 L485.82,244.1455 L484.4675,248.7686 L483.88428,252.0065 L483.69946,255.3755 L483.83017,257.6215 L484.3903,260.9905 L483.3445,262.71097 L481.254,264.3595 L480.16772,265.4825 L478.6337,267.7285 L477.52887,269.9745 L476.22238,273.3435 L475.64984,275.5895 L475.54706,276.7125 L475.82544,278.9585 L476.79453,281.2045 L478.4289,283.4505 L481.0985,286.00848 L483.3445,287.56268 L485.5905,288.589 L486.7135,288.8633 L488.9595,288.9597 L490.0825,289.977 L490.644,289.0655 M383.721,314.8945 L386.30237,313.7715 L390.1355,311.8035 L396.8735,310.65784 L399.1195,310.12283 L402.4885,308.99863 L405.8575,307.45444 L409.2265,305.40198 L413.7185,302.16702 L417.0875,299.41324 L420.4565,296.27206 L427.1945,293.31183 L430.8928,291.3115 L433.6507,289.0655 L435.5416,286.8195 L437.62766,283.4505 L443.50317,272.2205 L445.4186,267.7285 L446.383,264.3595 L447.30496,263.2365 L449.85922,260.9905 L450.86734,259.8675 L451.57007,258.7445 L452.0126,257.6215 L452.18478,256.4985 L452.1447,255.3755 L451.90616,254.2525 L451.37506,253.1295 L450.7775,252.22003 L449.6545,251.1319 L447.32635,249.7605 L446.80637,248.6375 L447.1008,246.3915 L447.0513,245.2685 L446.83646,244.1455 L445.89374,241.8995 L444.34244,239.6535 L439.72278,234.0385 L439.05637,232.9155 L439.5475,232.10318 L440.6705,231.85037 L441.7935,231.34023 L442.9165,230.50206 L444.0395,229.01389 L445.33652,226.1775 L447.4085,224.86337 L448.5315,224.529 L450.7775,224.40515 L451.9005,224.17117 L455.2695,224.19412 L460.8845,223.30714 L463.1305,223.4866 L465.3765,223.33067 L467.6225,222.69162 L469.8685,221.58714 L472.1145,221.6496 L475.4835,221.96983 L484.4675,223.75725 L486.7135,225.12456 L489.09137,226.1775 L489.72952,227.3005 L490.0825,228.87674 L490.644,228.4235 L490.644,10.5615 L490.0825,10 L123.9845,10 L123.241325,10.5615 L123.486465,12.8075 L123.9845,14.660289 L124.534546,16.1765 L125.1075,17.045853 L126.2305,18.129168 L127.3535,18.796385 L129.87349,19.5455 L130.0857,20.6685 L129.30074,24.0375 L129.03198,27.4065 L129.2263,29.6525 L129.51797,30.7755 L130.60675,33.0215 L131.44853,34.1445 L132.50067,35.2675 L135.04442,37.5135 L134.77023,38.6365 L132.81467,42.0055 L132.18379,44.2515 L131.94022,46.4975 L132.06355,48.7435 L132.56267,52.1125 L134.3608,59.9735 L134.47276,61.0965 L133.69647,63.3425 L133.3437,65.5885 L133.55827,68.9575 L134.23344,72.3265 L134.19537,73.4495 L133.22263,77.9415 L133.11713,80.1875 L133.29826,82.4335 L133.14914,83.5565 L131.73204,85.8025 L129.62328,92.5405 L128.76389,94.7865 L127.658966,97.0325 L124.39248,102.6475 L123.36713,104.8935 L122.63312,107.1395 L122.167336,109.3855 L120.6155,112.44593 L119.74589,115.0005 L119.4151,117.2465 L119.56709,119.4925 L120.29676,121.7385 L121.67478,123.9845 L123.38524,126.2305 L124.50144,129.5995 L126.4259,132.9685 L128.20271,135.2145 L129.5995,136.68425 L134.0915,140.37027 L136.2474,143.0755 L137.4605,144.32896 L140.08691,146.4445 L143.0755,147.99382 L144.1985,148.3488 L146.4445,148.71242 L149.8135,148.54404 L150.9365,148.70825 L151.4006,149.8135 L151.53807,150.9365 L151.64305,153.1825 L151.54642,157.6745 L151.90457,159.9205 L151.91357,161.0435 L151.4972,164.4125 L151.57806,166.6585 L152.70262,174.5195 L153.7439,179.0115 L153.43759,182.3805 L153.66559,183.5035 L154.3055,184.77507 L155.4285,185.97717 L157.6745,187.54918 L158.7975,188.5367 L159.9205,190.04054 L161.0435,191.22533 L163.2895,192.87172 L166.6585,194.29364 L168.9045,194.92964 L172.2735,195.59047 L175.6425,196.02472 L179.0115,196.17159 L181.2575,196.05768 L183.5035,195.59319 L185.42479,194.7335 L186.8725,193.74646 L191.70993,189.1185 L193.13428,187.9955 L193.6105,187.69373 L194.7335,187.44795 L195.8565,187.70114 L196.9795,189.58705 L198.1025,190.92801 L199.2255,191.76035 L200.3485,192.32059 L201.4715,192.59987 L202.5945,192.59906 L203.7175,192.28983 L205.9635,193.96782 L208.2095,194.79272 L210.4555,195.07811 L216.0705,195.23021 L217.1935,195.7683 L220.5625,202.54515 L223.19371,207.0865 L224.89395,209.3325 L226.93513,211.5785 L229.5465,213.76393 L231.7925,214.92868 L234.0385,215.49144 L236.2845,215.6217 L240.7765,215.18411 L241.8995,215.41176 L246.3915,217.98788 L248.2622,219.4395 L252.0065,222.7444 L254.2525,224.26895 L256.4985,225.31218 L259.8675,226.47552 L260.42963,227.3005 L260.30212,229.5465 L259.58734,232.9155 L259.68155,234.0385 L260.13254,235.1615 L258.7445,236.8808 L258.4611,237.4075 L258.26498,238.5305 L258.4475,239.6535 L258.96808,240.7765 L259.8176,241.8995 L260.9905,242.88728 L263.2365,243.88972 L264.54037,244.1455 L268.8515,244.31691 L271.0975,244.6493 L275.5895,246.33609 L276.09726,247.5145 L277.8355,252.95515 L278.42212,254.2525 L277.97427,255.3755 L276.7125,256.85013 L275.7084,258.7445 L275.43927,259.8675 L275.47946,260.9905 L276.07883,262.1135 L276.7125,262.62 L277.8355,263.0632 L278.9585,263.1675 L280.0815,262.99277 L281.2045,262.51974 L282.3275,261.51367 L283.1506,259.8675 L283.4505,258.68106 L284.5735,258.11484 L285.6965,258.2506 L287.2991,260.9905 L288.84595,264.3595 L289.73944,265.4825 L291.05096,266.6055 L295.8035,269.96634 L297.91382,272.2205 L299.60107,274.4665 L300.33633,275.5895 L299.44083,277.8355 L299.28897,278.9585 L299.48727,280.0815 L300.11526,281.2045 L301.03076,282.3275 L303.63318,284.5735 L305.2329,285.6965 L312.71658,290.1885 L314.21686,291.3115 L314.8945,292.06146 L316.72025,293.5575 L321.6325,296.84525 L326.1245,300.1869 L330.0896,302.5415 L335.1085,306.2775 L338.4775,308.05466 L340.7235,308.70947 L342.9695,308.99954 L345.2155,309.01498 L349.7075,308.6529 L355.3225,309.78397 L365.87616,310.4025 L366.5525,310.54718 L369.29553,312.6485 L372.1675,314.28122 L374.4135,315.24503 L376.6595,315.8274 L377.7825,315.9544 L380.0285,315.86685 L382.2745,315.3798 L383.721,314.8945 M79.708115,430.5635 L77.9415,430.9315 L75.6955,430.75473 L73.4495,429.97275 L71.2035,428.51624 L66.7115,428.8114 L64.4655,428.60855 L63.23817,428.3175 L61.0965,427.37958 L58.8505,425.6616 L57.7275,425.26184 L56.6045,424.54163 L54.976204,422.7025 L53.2355,419.62396 L52.75376,419.3335 L52.1125,419.15945 L49.8665,419.56958 L47.6205,419.55585 L46.4975,419.31268 L45.3745,418.81702 L44.2515,418.08463 L43.1285,417.00198 L41.663986,414.8415 L40.753838,412.5955 L40.432358,410.3495 L40.09067,409.2265 L36.676945,405.8575 L33.259483,401.3655 L31.8985,400.23584 L29.81157,397.9965 L28.361454,395.7505 L27.505085,393.5045 L27.203693,391.2585 L27.348604,389.0125 L27.817192,386.7665 L29.370068,381.1515 L29.959503,377.7825 L30.101828,373.2905 L30.06531,372.1675 L29.822212,371.0445 L26.2835,367.8988 L24.0375,367.7707 L21.7915,367.28467 L18.4225,371.0332 L17.2995,371.94858 L16.1765,372.53302 L15.0535,372.8047 L13.9305,372.78867 L12.8075,372.5074 L11.6845,371.973 L10.5615,371.18033 L10,371.0445 L10,318.2635 L11.940418,316.0175 L15.0535,313.0982 L17.2995,311.2187 L20.6685,308.8884 L21.7915,307.93478 L25.417162,302.5415 L27.305428,300.2955 L28.5295,299.1027 L30.7755,297.40207 L33.0215,296.32617 L34.1445,296.09702 L35.2675,296.16183 L36.3905,296.67145 L37.5135,297.88684 L38.6365,297.9204 L39.7595,297.7437 L40.8825,297.87677 L42.0055,298.27536 L44.2515,299.7581 L45.3745,300.7715 L47.6205,303.23468 L50.267513,307.0335 L51.338997,309.2795 L51.883453,311.5255 L51.931522,312.6485 L52.1125,312.97583 L54.3585,313.82275 L55.4815,313.83798 L59.710182,312.6485 L65.5885,311.62857 L68.9575,311.61288 L71.2035,312.10486 L72.3265,312.57062 L73.4495,313.28784 L75.10306,314.8945 L76.56686,317.1405 L77.9415,319.73804 L78.532974,320.5095 L82.4335,322.21356 L90.2945,326.93488 L92.5405,327.93652 L94.7865,328.62558 L97.0325,329.04382 L103.7705,329.81052 L106.0165,330.3451 L107.1395,330.81308 L108.51321,331.7395 L109.3855,332.63446 L110.26701,333.9855 L111.56953,337.3545 L112.7545,341.88275 L114.108795,342.9695 L115.0005,343.99097 L115.999626,346.3385 L117.028725,351.9535 L117.848434,355.3225 L118.675896,357.5685 L121.68957,364.3065 L122.30974,366.5525 L122.55605,368.7985 L122.522224,369.9215 L122.17715,372.1675 L121.3505,375.5365 L121.7385,376.77612 L123.31073,378.9055 L123.80501,380.0285 L124.02113,381.1515 L123.71268,384.5205 L125.269394,389.0125 L125.53619,391.2585 L125.16955,393.5045 L124.70807,394.6275 L123.187965,396.8735 L121.7385,398.32288 L119.4925,399.86273 L117.2465,400.72827 L116.1235,400.94736 L111.6315,404.90732 L109.3855,407.40378 L108.57474,408.1035 L107.05294,411.4725 L106.194725,412.5955 L104.98371,413.7185 L101.33554,415.9645 L95.9095,418.69092 L93.6635,421.16602 L91.4175,423.1787 L89.1715,424.4761 L86.9255,425.37387 L84.6795,427.4862 L82.4335,429.23657 L81.3105,429.90082 L79.708115,430.5635" fill="none" id="outline-0" stroke="black" stroke-linecap="round" stroke-linejoin="round" stroke-width="0.2"/>
<path d="M146.40173,119.4925 L147.06006,118.3695 L147.33243,117.2465 L146.76317,116.1235 L146.4445,115.96223 L145.3215,116.034515 L143.90833,117.2465 L143.55002,118.3695 L143.82185,119.4925 L144.1985,119.93222 L145.3215,120.13677 L146.40173,119.4925 M388.03543,296.9265 L389.9741,295.8035 L391.17703,294.6805 L392.00305,293.5575 L392.3815,293.4165 L396.8735,294.1664 L399.1195,294.28354 L401.3655,294.1224 L403.5635,293.5575 L404.7345,293.03656 L406.9805,291.55133 L408.33032,290.1885 L409.12558,289.0655 L410.3495,286.46576 L413.7185,285.45258 L415.51694,284.5735 L417.1318,283.4505 L419.26053,281.2045 L420.52664,278.9585 L421.07053,276.7125 L420.96173,274.4665 L420.38177,272.2205 L420.31415,271.0975 L420.4565,270.93048 L422.7025,270.1712 L425.05157,268.8515 L426.43808,267.7285 L427.26135,266.6055 L427.58957,265.4825 L427.57065,264.3595 L427.28836,263.2365 L426.15677,260.9905 L424.51834,258.7445 L422.42407,256.4985 L421.69037,255.3755 L421.47574,248.6375 L421.72455,247.5145 L426.0715,243.56346 L427.494,241.8995 L428.07263,240.7765 L428.37698,239.6535 L428.4493,238.5305 L428.08478,236.2845 L427.20413,234.0385 L425.82172,231.7925 L423.8255,229.46063 L420.25378,226.1775 L419.93457,225.0545 L419.45346,221.6855 L418.73035,219.4395 L418.16287,218.3165 L417.0875,216.92197 L414.57263,214.9475 L414.38843,213.8245 L414.76184,209.3325 L414.76575,207.0865 L415.9501,204.8405 L416.74567,202.5945 L417.73358,194.7335 L418.2105,194.46803 L422.7025,196.04597 L428.3175,199.11305 L435.0555,202.09355 L438.4245,204.02103 L441.7935,205.29153 L444.0395,206.36752 L446.2855,207.22305 L449.6545,207.91685 L453.0235,207.85123 L456.3925,206.99953 L458.49213,205.9635 L459.7615,205.06516 L461.23636,203.7175 L462.0075,202.77112 L463.1305,202.60985 L467.6225,203.83084 L473.74194,205.9635 L476.6065,206.53557 L478.8525,206.69333 L482.2215,206.41078 L485.5905,205.53075 L490.0825,203.5685 L490.644,202.5945 L490.644,10.5615 L490.0825,10 L155.4285,10 L154.97903,10.5615 L155.33919,19.5455 L155.20218,22.9145 L154.82913,26.2835 L153.72536,29.6525 L153.43684,31.8985 L153.7824,35.2675 L154.79884,38.6365 L153.95906,40.8825 L153.71335,42.0055 L153.63515,44.2515 L154.08473,46.4975 L154.50258,47.6205 L155.68365,49.8665 L157.91112,53.2355 L157.89413,54.3585 L155.66287,58.8505 L153.98106,64.4655 L152.44511,66.7115 L151.42503,68.9575 L151.28201,70.0805 L151.43639,71.2035 L151.8793,72.3265 L150.44391,79.0645 L150.17508,81.3105 L150.18547,83.5565 L150.71588,85.8025 L151.29375,86.9255 L152.1472,88.0485 L153.3518,89.1715 L157.6745,92.28325 L159.26433,93.6635 L161.34378,95.9095 L164.87949,100.4015 L166.53421,103.7705 L167.63301,107.1395 L169.24881,117.2465 L168.9045,117.78068 L167.31982,118.3695 L165.52054,119.4925 L164.39401,120.6155 L163.2895,122.468414 L162.1665,121.527985 L161.0435,121.39537 L159.66884,121.7385 L157.7701,122.8615 L156.51633,123.9845 L154.6735,126.2305 L154.19115,127.3535 L154.2524,128.4765 L155.4285,129.77136 L156.5515,130.21103 L157.6745,130.36644 L158.7975,130.22699 L160.23119,129.5995 L161.0435,128.92825 L162.1665,127.44437 L163.2895,128.60173 L164.4125,129.46175 L165.5355,129.74411 L166.6585,129.73915 L170.0275,129.20421 L170.43105,129.5995 L171.44373,132.9685 L172.00407,134.0915 L172.87294,135.2145 L175.18304,137.4605 L173.67418,143.0755 L173.44295,145.3215 L173.55081,148.6905 L171.1505,153.03198 L170.17473,155.4285 L169.64558,157.6745 L169.47354,159.9205 L169.82643,163.2895 L170.87411,166.6585 L172.2735,169.53622 L174.14313,172.2735 L175.6425,173.88387 L176.7655,174.81653 L178.00049,175.6425 L180.1345,176.64397 L181.2575,176.99129 L183.5035,177.35243 L184.6265,177.37018 L186.8725,177.07373 L189.1185,176.3315 L190.56508,175.6425 L196.9795,171.79356 L201.4715,169.34755 L203.96692,167.7815 L207.0865,165.33878 L207.5719,165.5355 L208.27206,166.6585 L209.3325,167.63406 L210.4555,168.14658 L211.5785,168.35876 L213.8245,168.23076 L214.9475,168.5845 L216.0705,169.48422 L217.1935,169.97104 L221.6855,171.03336 L225.08884,172.2735 L225.55406,173.3965 L225.34335,181.2575 L225.66164,183.5035 L225.9938,184.6265 L227.15022,186.8725 L228.4235,188.34549 L229.5465,189.25262 L231.7925,190.30406 L234.0385,190.60542 L235.1615,190.53496 L237.4075,190.01653 L240.7765,188.45921 L245.2685,185.35558 L248.6375,184.60356 L258.7445,181.85185 L260.9905,182.14825 L263.13132,183.5035 L267.3599,185.7495 L268.62976,186.8725 L265.85513,190.2415 L265.12592,191.3645 L264.79922,192.4875 L265.04333,193.6105 L266.1255,194.7335 L266.6055,194.99399 L272.2205,197.16254 L273.3435,198.3374 L273.74554,199.2255 L274.04605,201.4715 L274.58273,203.7175 L275.4093,205.9635 L277.1476,209.3325 L278.9585,212.031 L281.2045,214.56395 L283.4505,216.47241 L285.6965,219.30775 L286.982,220.5625 L289.0655,222.08875 L292.97424,223.9315 L293.65222,226.1775 L293.796,227.3005 L291.7478,231.7925 L291.28616,234.0385 L291.45364,236.2845 L291.78204,237.4075 L292.918,239.6535 L294.64536,241.8995 L298.0495,245.23598 L302.5415,248.78378 L304.94226,250.8835 L307.0335,252.32668 L309.2795,253.3948 L311.5255,254.01843 L313.7715,254.2737 L317.1405,254.09 L317.6895,254.2525 L318.01877,255.3755 L317.6883,257.6215 L317.68784,259.8675 L318.2113,262.1135 L318.67813,263.2365 L319.98648,265.4825 L325.05438,272.2205 L326.5879,275.5895 L327.2475,276.61288 L327.4983,276.7125 L327.31128,280.0815 L327.55417,282.3275 L327.9943,283.4505 L328.67386,284.5735 L329.63123,285.6965 L330.96613,286.8195 L332.90005,287.9425 L335.89844,289.0655 L340.7235,290.47983 L344.0925,291.82208 L346.3385,293.0551 L350.8305,295.88138 L353.0765,296.08334 L355.3225,295.94012 L357.5685,295.41776 L359.8145,294.49796 L364.3065,295.82944 L367.6755,296.08743 L371.0445,295.61243 L376.6595,294.12396 L377.7825,294.18304 L380.0285,295.8121 L382.2474,296.9265 L383.3975,297.26837 L385.6435,297.4715 L388.03543,296.9265 M70.239746,414.8415 L67.8345,414.61835 L66.7115,414.33652 L64.4655,413.33994 L61.742775,411.4725 L58.363564,408.1035 L55.513504,404.7345 L53.918465,402.4885 L52.69566,400.2425 L51.569427,396.8735 L50.9895,396.15027 L48.7435,395.05872 L46.4975,393.56326 L45.3745,392.42352 L44.584694,391.2585 L43.72087,389.0125 L43.559032,387.8895 L43.71566,385.6435 L44.49015,383.3975 L45.3745,381.87903 L46.4975,380.40402 L48.7435,378.12833 L52.1125,375.44418 L54.3585,374.08878 L56.6045,373.26474 L58.8505,373.03616 L61.0965,373.44064 L61.48756,373.2905 L61.510555,372.1675 L61.1104,369.9215 L61.013546,367.6755 L60.24817,363.1835 L60.18919,360.9375 L60.374752,359.8145 L61.20902,357.5685 L62.97701,354.1995 L65.5885,350.42868 L67.237434,348.5845 L68.9575,347.27316 L70.0805,346.7942 L71.2035,346.60904 L72.3265,346.7163 L74.5725,347.6323 L75.6955,347.81506 L80.1875,347.35263 L83.5565,347.63638 L85.8025,348.36792 L86.9255,348.9357 L89.1715,350.50766 L91.67555,353.0765 L93.6635,356.14093 L94.79733,358.6915 L96.58078,364.3065 L97.0325,365.30942 L98.48711,366.5525 L99.46748,367.6755 L100.1814,368.7985 L100.64982,369.9215 L100.89131,371.0445 L100.8158,373.2905 L101.052246,374.4135 L102.31592,377.7825 L102.905876,380.0285 L103.079056,382.2745 L102.94301,383.3975 L102.105194,385.6435 L101.364075,386.7665 L100.39155,387.8895 L97.78128,390.1355 L95.091156,396.8735 L93.55709,400.2425 L92.29242,402.4885 L90.2945,405.06198 L88.0485,406.8578 L85.51343,408.1035 L83.5565,410.381 L82.25498,411.4725 L80.1875,412.71173 L77.9415,413.63174 L75.6955,414.24756 L72.3265,414.7603 L70.239746,414.8415" fill="none" id="outline-0" stroke="black" stroke-linecap="round" stroke-linejoin="round" stroke-width="0.2"/>
<path d="M191.0148,116.1235 L192.4875,115.7719 L193.6105,115.2285 L195.27797,113.8775 L196.15334,112.7545 L196.68655,111.6315 L196.9312,110.5085 L196.91457,109.3855 L196.6793,108.2625 L195.752,106.0165 L192.83641,100.4015 L191.39,98.1555 L190.2415,96.94458 L189.1185,96.2066 L187.9955,95.861046 L186.8725,95.93182 L185.7495,96.49251 L184.6265,97.69486 L183.5035,100.0188 L183.09402,101.5245 L182.80704,103.7705 L182.82018,104.8935 L183.1488,107.1395 L184.36005,110.5085 L185.7495,112.94672 L186.8725,114.191864 L187.9955,115.093315 L189.1185,115.7339 L190.17883,116.1235 L191.0148,116.1235 M384.5205,173.51755 L383.3975,173.61362 L382.2745,173.44797 L381.1515,173.13103 L378.9055,171.63554 L377.7825,171.30391 L376.6595,171.35065 L375.5433,171.1505 L376.2187,170.0275 L376.65216,168.9045 L377.14365,166.6585 L378.9055,165.70053 L381.1515,163.6372 L382.2745,163.19084 L383.3975,163.0801 L383.74594,163.2895 L383.5732,164.4125 L382.81064,166.6585 L382.68753,168.9045 L383.29474,171.1505 L384.57483,173.3965 L384.5205,173.51755 M382.81668,244.1455 L383.3975,243.7934 L386.96924,239.6535 L392.64426,234.0385 L394.26797,231.7925 L394.36118,230.6695 L393.49973,229.5465 L392.2951,228.4235 L391.2585,227.71802 L390.1355,227.09943 L387.8895,226.4035 L386.7665,226.30981 L384.5205,226.67819 L383.07434,227.3005 L381.1515,228.50291 L380.0285,228.7967 L375.5365,227.6442 L371.7533,226.1775 L371.0445,225.43947 L370.9464,225.0545 L370.90503,221.6855 L370.20737,218.3165 L368.7985,214.99553 L366.35495,210.4555 L366.636,209.3325 L368.7985,205.70538 L369.9215,205.08876 L371.0445,205.60452 L372.1675,205.893 L374.4135,205.97356 L376.6595,205.60107 L377.7825,205.22284 L378.9055,204.66196 L380.0285,203.84895 L383.3975,200.76021 L385.6435,198.14774 L387.8895,194.74841 L388.72012,192.4875 L388.9374,191.3645 L388.9333,190.2415 L388.53854,189.1185 L387.8895,188.41338 L386.7665,188.33014 L385.6435,188.73662 L384.5205,189.37872 L381.1515,191.71849 L380.6928,191.3645 L381.04843,190.2415 L386.7936,183.5035 L388.4307,181.2575 L388.97934,180.1345 L389.23724,179.0115 L389.24374,177.8885 L391.2585,177.52907 L392.3815,176.87845 L393.5045,175.9237 L395.7505,173.19727 L396.8735,172.84975 L397.9965,172.87683 L399.1195,173.10622 L401.9574,175.6425 L403.51147,176.7655 L404.7345,177.41875 L406.9805,178.16345 L408.1035,178.31087 L410.3495,178.21469 L412.5955,177.66905 L414.8415,176.79843 L419.3219,174.5195 L422.81958,172.2735 L427.1945,168.39307 L428.3175,168.11012 L430.5635,168.67441 L431.6865,169.16927 L438.4245,174.85533 L442.96057,177.8885 L447.88135,182.3805 L450.7207,184.6265 L454.1465,186.78104 L456.3925,187.75464 L458.6385,188.3914 L463.1305,189.10423 L465.3765,190.54817 L467.6225,191.31235 L470.9915,191.51189 L473.2375,191.27925 L475.4835,190.7314 L476.6065,190.74475 L481.0985,192.13954 L483.3445,192.44943 L484.4675,192.38077 L486.7135,191.73035 L488.9595,190.35284 L490.0825,189.32436 L490.644,189.1185 L490.644,10.5615 L490.0825,10 L172.2735,10 L171.3894,10.5615 L171.78409,13.9305 L171.89958,17.2995 L172.33495,19.5455 L173.09044,21.7915 L175.21696,26.2835 L176.20619,29.6525 L177.78133,33.0215 L178.03088,34.1445 L178.09735,35.2675 L177.8885,35.76729 L175.72694,38.6365 L174.62679,40.8825 L174.18845,43.1285 L174.48454,45.3745 L175.51442,47.6205 L177.8943,50.9895 L179.73796,53.2355 L183.14645,56.6045 L182.68622,57.7275 L180.54906,59.9735 L179.07487,62.2195 L178.65633,63.3425 L178.33803,65.5885 L178.51402,67.8345 L179.55354,72.3265 L180.9102,76.8185 L182.26776,80.1875 L183.5035,82.18314 L184.6265,83.31576 L185.7495,84.04623 L186.8725,84.52628 L187.9955,84.82162 L190.2415,85.00796 L191.3645,84.91929 L193.6105,84.275345 L194.7335,84.170654 L195.8565,85.01396 L198.1025,85.79311 L200.3485,86.2019 L203.7175,86.44653 L204.7832,86.9255 L203.93279,89.1715 L203.86809,90.2945 L204.08795,91.4175 L204.60371,92.5405 L205.42004,93.6635 L206.57428,94.7865 L208.2095,95.92281 L210.4555,96.77817 L211.5785,96.90656 L212.7015,96.80951 L213.8245,96.900345 L213.9874,97.0325 L214.80417,98.1555 L215.21909,99.2785 L215.3851,102.6475 L215.87256,104.8935 L216.90761,107.1395 L218.23108,109.3855 L217.66077,111.6315 L217.05435,112.7545 L207.0865,115.1956 L204.8662,116.1235 L203.5714,117.2465 L202.91696,118.3695 L202.60583,119.4925 L202.44496,121.7385 L200.68906,123.9845 L199.32245,126.2305 L198.1025,128.71532 L196.9314,131.8455 L196.54907,134.0915 L196.59009,135.2145 L196.86737,136.3375 L197.50728,137.4605 L198.65761,138.5835 L200.61584,139.7065 L202.5945,140.39922 L205.9635,141.13388 L212.7015,141.99828 L216.0705,142.05597 L218.3165,141.75528 L222.8085,142.43385 L227.3005,142.6637 L230.6695,142.4134 L231.7925,142.12544 L232.9155,141.61093 L234.06566,140.8295 L235.15593,139.7065 L236.92221,137.4605 L237.4075,137.31656 L244.1455,136.90402 L246.3915,136.94023 L247.5145,137.12065 L248.6375,137.70647 L249.7605,138.56017 L253.1295,141.50278 L255.3755,143.13797 L257.6215,144.29965 L260.9905,145.52034 L263.2365,147.91566 L265.51447,149.8135 L267.7285,151.04631 L271.11572,152.0595 L274.4665,155.61624 L276.7125,157.37173 L278.9585,158.39409 L282.3275,159.14896 L282.71515,159.9205 L282.45074,164.4125 L282.93613,166.6585 L283.4702,167.7815 L284.5735,169.23807 L285.6965,170.31863 L288.1797,172.2735 L289.47906,175.6425 L289.30457,176.7655 L287.9425,179.27809 L286.8195,182.19685 L285.6965,187.26189 L285.28458,191.3645 L285.108,195.8565 L285.26422,199.2255 L285.7376,201.4715 L286.2827,202.5945 L287.1104,203.7175 L288.50763,204.8405 L290.1885,205.60587 L292.4345,206.12372 L296.9265,206.46315 L299.1725,206.49457 L302.5415,206.11874 L306.5689,208.2095 L310.4025,209.52756 L311.5255,210.2734 L313.54788,212.7015 L322.2304,221.6855 L323.01028,222.8085 L322.94888,223.9315 L322.7555,224.31396 L320.5095,226.58714 L316.0175,229.7776 L315.24832,230.6695 L315.308,232.9155 L315.96515,235.1615 L317.1405,237.17426 L318.2635,238.38092 L326.1245,239.32726 L329.4935,239.95776 L332.8625,241.02637 L339.6005,243.57443 L341.8465,244.13853 L344.0925,244.43556 L347.4615,244.43634 L358.6915,243.59142 L360.9375,243.09508 L363.1835,242.03622 L364.3065,241.80377 L373.14334,240.7765 L375.5365,240.32397 L376.44366,240.7765 L377.7825,242.17262 L380.0285,243.72762 L381.1515,244.16667 L382.2745,244.3888 L382.81668,244.1455 M391.7172,250.8835 L393.5045,250.16974 L394.6275,249.28618 L395.34174,248.6375 L396.1957,247.5145 L396.69482,246.3915 L396.99377,245.2685 L397.06653,244.1455 L396.8966,243.0225 L396.35324,241.8995 L395.7505,241.20396 L394.6275,240.55652 L393.5045,240.43 L392.3815,240.64842 L391.2585,241.21092 L390.1355,242.06938 L389.2757,243.0225 L388.0296,245.2685 L387.65375,247.5145 L387.71555,248.6375 L388.1823,249.7605 L389.0125,250.49294 L390.1355,250.956 L391.2585,251.00676 L391.7172,250.8835" fill="none" id="outline-0" stroke="black" stroke-linecap="round" stroke-linejoin="round" stroke-width="0.2"/>
<path d="M451.07672,164.4125 L454.1465,163.60278 L457.31534,162.1665 L459.1731,161.0435 L460.55292,159.9205 L461.4348,158.7975 L461.83075,157.6745 L461.8798,156.5515 L460.60645,150.9365 L460.8845,150.582 L462.0075,150.44156 L463.1305,150.64786 L467.6225,153.15593 L470.49326,157.6745 L472.34106,159.9205 L474.3605,161.65492 L476.6065,162.96576 L478.8525,163.6825 L479.9755,163.85199 L482.2215,163.89017 L485.5905,163.40752 L490.644,162.1665 L490.644,10.5615 L490.0825,10 L212.7015,10 L212.65729,10.5615 L211.58968,12.8075 L211.2699,13.9305 L211.5785,14.157137 L213.8245,14.54588 L214.32047,15.0535 L214.68092,17.2995 L215.82025,21.7915 L215.65158,22.9145 L213.5155,26.2835 L211.5785,30.71083 L204.84131,35.2675 L203.72107,36.3905 L203.011,37.5135 L201.12547,39.7595 L200.34785,40.8825 L199.80544,42.0055 L199.52194,43.1285 L199.59264,44.2515 L200.09659,45.3745 L201.4715,46.771168 L202.04657,47.6205 L202.57692,53.2355 L203.64308,57.7275 L203.65868,59.9735 L204.40315,62.2195 L205.98756,64.4655 L210.25705,68.9575 L212.01819,71.2035 L213.44934,73.4495 L216.5799,79.0645 L218.3165,81.638306 L220.5625,84.04542 L224.11009,86.9255 L226.43338,92.5405 L228.21286,95.9095 L230.6695,99.10082 L233.36183,101.5245 L233.95644,102.6475 L235.20206,109.3855 L236.2845,113.15174 L237.1373,115.0005 L237.922,116.1235 L239.6535,117.73929 L240.7765,118.43324 L241.8995,118.78154 L243.0225,118.95744 L245.2685,119.00059 L248.6375,118.712425 L253.1295,118.02581 L256.4985,117.28551 L257.6215,116.833755 L258.7445,117.04023 L259.8675,118.0341 L260.9905,118.705 L266.74063,120.6155 L265.81757,122.8615 L265.86734,123.9845 L266.3458,126.2305 L266.7878,127.3535 L267.7285,128.76923 L268.57794,129.5995 L269.9745,130.44182 L273.3435,131.52922 L277.8355,133.47733 L280.0815,135.42085 L282.3275,136.60217 L285.6965,137.43703 L290.1885,139.80835 L300.2955,143.41435 L302.5415,143.98552 L304.7875,144.2152 L307.0335,144.05772 L310.4025,143.2023 L312.6485,143.1969 L314.8945,146.05809 L317.1405,147.70694 L319.3865,148.59738 L320.5095,148.83978 L322.7555,149.01363 L323.8785,149.41049 L328.3705,155.96252 L329.4935,157.13074 L330.6165,157.85405 L331.7395,158.0888 L332.8625,158.10683 L333.9855,157.9125 L335.1085,157.25627 L341.55573,150.9365 L345.2155,147.94159 L349.7075,144.72054 L351.9535,142.86925 L353.9041,140.8295 L355.3225,138.93369 L355.75833,138.5835 L356.4455,137.34285 L358.03314,139.7065 L358.94635,140.8295 L359.8145,141.59158 L362.0605,142.82393 L364.3065,143.60791 L367.6755,143.95409 L373.2905,143.8854 L376.6595,143.51987 L378.9055,142.90158 L379.3235,143.0755 L381.1515,144.90532 L383.3975,147.91956 L384.5205,149.02722 L385.6435,149.85957 L386.7665,150.44716 L389.0125,151.05801 L391.2585,151.15057 L395.7505,150.67099 L396.82062,150.9365 L400.09158,154.3055 L401.3655,155.40051 L403.6115,156.54515 L405.8575,156.90479 L409.2265,156.60239 L411.4725,155.90677 L413.7185,154.79439 L414.8415,154.47125 L420.4565,154.4435 L427.1945,154.78339 L431.6865,155.92796 L435.0555,156.60414 L438.4245,157.11835 L440.6705,157.24014 L441.535,157.6745 L442.16043,159.9205 L442.9165,161.41057 L443.50992,162.1665 L444.90433,163.2895 L446.2855,163.90671 L448.31976,164.4125 L449.6545,164.51324 L451.07672,164.4125" fill="none" id="outline-0" stroke="black" stroke-linecap="round" stroke-linejoin="round" stroke-width="0.2"/>
<path d="M348.5845,25.180483 L348.45175,25.1605 L348.45273,24.0375 L350.22318,21.7915 L355.3225,16.454105 L357.5685,14.67541 L357.92795,16.1765 L357.41446,17.2995 L353.0765,21.471949 L348.5845,25.180483 M430.52554,138.5835 L429.4405,139.01004 L428.3175,139.22249 L427.1945,139.18822 L425.28598,138.5835 L423.68518,137.4605 L422.72733,136.3375 L422.2161,135.2145 L422.12082,134.0915 L422.48868,132.9685 L423.4424,131.8455 L425.13812,130.7225 L421.5795,128.56015 L420.4565,127.65883 L419.3335,127.3047 L415.3779,128.4765 L412.5955,128.97163 L410.3495,128.99223 L409.2265,128.84665 L406.9805,128.21898 L404.7345,127.160835 L401.59848,125.1075 L398.6625,122.8615 L396.39407,120.6155 L394.9682,118.3695 L394.53894,117.2465 L394.2762,116.1235 L394.24072,115.0005 L394.54575,113.8775 L395.33316,112.7545 L395.6502,111.6315 L395.08783,110.5085 L394.6407,108.2625 L393.5045,106.49714 L392.3815,106.36496 L391.8203,107.1395 L391.0369,109.3855 L390.1355,110.632225 L389.0125,111.25636 L387.8895,111.46153 L386.7665,111.409676 L385.6435,111.1411 L384.5205,110.65723 L383.3975,109.913124 L381.1515,107.82462 L380.0285,107.41662 L379.696,107.1395 L378.858,106.0165 L378.58566,104.8935 L378.59607,103.7705 L378.83884,102.6475 L379.31653,101.5245 L380.5731,99.2785 L380.72986,98.1555 L378.8591,95.9095 L376.6595,93.62758 L375.5365,93.04047 L372.1675,94.03136 L369.9215,94.85857 L364.3065,97.5686 L362.38013,98.1555 L360.9375,98.353836 L358.6915,98.16425 L356.4455,97.31347 L354.41196,95.9095 L353.3517,94.7865 L352.62155,93.6635 L352.18582,92.5405 L352.03223,91.4175 L352.15326,90.2945 L352.5395,89.1715 L353.9575,86.9255 L353.0765,85.97952 L349.46307,84.6795 L348.5845,84.129654 L347.94147,83.5565 L347.4615,82.5451 L347.4032,81.3105 L347.72122,80.1875 L348.27863,79.0645 L349.95142,76.8185 L352.2669,74.5725 L355.3225,72.25652 L356.10403,71.2035 L356.7653,66.7115 L358.53635,58.8505 L358.48288,57.7275 L355.31204,54.3585 L352.91272,52.1125 L346.3385,47.268726 L345.2155,46.8923 L340.7235,46.229664 L339.6005,46.492817 L336.2315,49.737843 L333.9855,51.40169 L331.7395,52.508366 L329.4935,53.0272 L327.1355,53.2355 L325.96503,54.3585 L325.96915,55.4815 L328.60117,57.7275 L329.18924,58.8505 L329.2313,59.9735 L328.8441,61.0965 L328.3705,61.79428 L328.0525,62.2195 L326.1245,63.7267 L325.87445,64.4655 L327.34613,66.7115 L328.4613,68.9575 L331.1607,75.6955 L332.1476,79.0645 L333.89496,82.4335 L334.2527,84.6795 L334.14865,85.8025 L333.3884,88.0485 L331.7395,90.49295 L329.73923,92.5405 L328.34473,93.6635 L326.1245,95.19865 L323.8785,96.43408 L320.5095,97.88569 L317.1405,98.63222 L314.8945,98.64212 L313.7715,98.49517 L311.5255,97.88263 L310.4025,97.73469 L308.1565,98.56406 L305.12408,99.2785 L303.6645,100.331696 L302.5415,100.56301 L301.4185,100.425125 L300.2955,99.93479 L299.1725,99.12515 L298.21454,98.1555 L296.9265,97.744446 L295.8035,97.73683 L293.5393,99.2785 L294.30795,100.4015 L295.86557,101.5245 L296.13705,102.6475 L295.8035,103.09976 L294.68924,103.7705 L293.5575,103.7234 L292.4345,103.223045 L291.64438,102.6475 L291.08997,101.5245 L290.1885,101.26462 L287.9425,101.63336 L286.8195,101.59013 L284.5735,101.03641 L282.3275,99.9912 L280.0815,98.59789 L277.97525,97.0325 L276.67703,95.9095 L274.4665,93.587456 L272.2205,93.17294 L269.9745,92.5461 L268.8515,92.66459 L264.3595,94.226456 L262.1135,94.434586 L260.9905,94.328064 L258.7445,93.76196 L255.3755,92.18715 L252.32755,90.2945 L249.27696,88.0485 L246.69353,85.8025 L244.1455,82.99268 L243.0225,82.16233 L241.8995,82.72286 L240.7765,82.90249 L239.6535,82.79048 L238.5305,82.41806 L236.2845,80.93353 L234.0385,78.80908 L228.4235,72.95672 L226.32741,70.0805 L225.23773,67.8345 L224.60414,65.5885 L224.15363,62.2195 L223.61188,61.0965 L222.97453,58.8505 L222.85564,57.7275 L222.9762,55.4815 L223.51659,53.2355 L225.31694,48.7435 L226.1246,45.3745 L229.05563,38.6365 L231.88673,29.6525 L233.30334,26.2835 L234.0385,25.12165 L235.1615,23.98027 L236.2845,23.336983 L237.4075,23.05207 L239.6535,23.14963 L246.3915,24.965034 L248.6375,25.372076 L249.18352,25.1605 L250.8835,23.896727 L253.1295,22.779333 L254.2525,22.481308 L256.4985,22.324717 L257.15298,21.7915 L260.39944,15.0535 L262.0943,10.5615 L262.1135,10 L413.7185,10 L414.20145,10.5615 L415.4953,12.8075 L416.4025,15.0535 L417.40363,18.4225 L418.2105,19.13373 L419.3335,18.851395 L421.5795,17.72618 L423.1386,17.2995 L424.9485,17.07368 L427.1945,17.276949 L429.4405,18.22052 L430.5635,19.123247 L431.80704,20.6685 L432.96127,22.9145 L435.0555,28.15477 L435.3017,28.5295 L436.1785,29.026783 L438.26437,27.4065 L441.7935,24.269512 L444.0395,22.766111 L446.2855,21.906054 L451.9005,20.810436 L454.1465,20.173191 L457.5155,19.94744 L462.0075,20.521425 L465.3765,21.50877 L468.7455,23.191607 L473.35968,26.2835 L478.38077,34.1445 L479.45108,36.3905 L479.72668,37.5135 L479.77444,38.6365 L479.58405,39.7595 L478.5794,42.0055 L476.6065,45.293224 L476.05338,46.4975 L476.6065,47.08292 L479.9755,48.752533 L483.3445,51.443226 L486.99927,55.4815 L490.0825,59.868477 L490.644,59.9735 L490.644,121.7385 L490.0825,122.79346 L488.9595,123.104836 L486.7135,123.441505 L483.3445,123.482574 L479.9755,124.74938 L478.8525,124.959274 L477.7295,124.95291 L476.6065,124.69632 L475.4835,124.16311 L474.3605,123.32546 L473.2375,122.87604 L465.3765,123.499855 L463.1305,123.46897 L462.0075,123.277824 L460.8845,122.92426 L459.7615,122.31899 L456.3925,121.717285 L450.7775,119.9829 L444.0395,118.64096 L443.341,119.4925 L442.9165,120.32373 L441.92654,122.8615 L440.80692,125.1075 L439.5475,126.84463 L437.77734,128.4765 L434.06943,130.7225 L434.50067,131.8455 L434.55338,132.9685 L433.9325,135.00853 L432.8095,136.67654 L431.6865,137.78253 L430.52554,138.5835" fill="none" id="outline-0" stroke="black" stroke-linecap="round" stroke-linejoin="round" stroke-width="0.2"/>
<path d="M382.28802,15.0535 L384.36807,13.9305 L385.5555,12.8075 L386.28796,11.6845 L386.6982,10.5615 L385.6435,10 L376.6595,10 L376.5273,11.6845 L376.6595,12.313481 L376.79535,12.8075 L377.7825,14.240629 L378.9055,14.999337 L380.0285,15.287288 L381.1515,15.289649 L382.28802,15.0535 M431.85095,81.3105 L428.3175,82.079414 L426.0715,82.19654 L423.8255,82.006966 L421.12018,81.3105 L419.1019,80.1875 L418.2105,79.43133 L415.29593,79.0645 L413.7185,78.46163 L412.97977,77.9415 L412.08054,76.8185 L411.6346,75.6955 L411.44107,74.5725 L411.5375,72.3265 L412.1041,70.0805 L412.5656,68.9575 L413.7185,67.14389 L415.2692,65.5885 L416.9042,64.4655 L418.9824,63.3425 L420.4155,62.2195 L420.59348,61.0965 L420.99194,59.9735 L421.7543,58.8505 L422.7025,58.062893 L423.8255,57.411526 L426.0715,56.74754 L426.83768,55.4815 L428.3828,50.9895 L429.38412,48.7435 L430.5635,46.97582 L431.6865,45.896236 L432.8095,45.21153 L433.9325,44.826115 L436.1785,44.632347 L437.3015,44.76183 L439.5475,45.342476 L444.0395,47.300385 L445.1625,46.86938 L445.4996,44.2515 L445.7921,43.1285 L446.2855,41.915245 L447.4085,40.376152 L448.5315,39.32874 L449.6545,38.65182 L450.7775,38.454803 L451.9005,38.754044 L453.0235,40.077824 L453.49167,42.0055 L453.53174,43.1285 L453.0235,46.987606 L452.05298,50.9895 L451.21738,53.2355 L451.87122,56.6045 L451.89703,57.7275 L451.35217,59.9735 L449.95187,62.2195 L448.59186,65.5885 L447.43927,67.8345 L444.9511,71.2035 L441.64392,74.5725 L437.92972,77.9415 L435.0555,79.89176 L431.85095,81.3105 M449.30444,92.5405 L457.5155,91.81273 L460.8845,91.225 L463.1305,90.304726 L464.2535,89.41182 L465.33377,88.0485 L465.90067,86.9255 L466.4995,86.69513 L470.9915,85.884224 L473.2375,84.9024 L474.3605,84.21379 L474.937,83.5565 L475.27148,81.3105 L474.9438,79.0645 L474.2407,76.8185 L474.76694,74.5725 L474.74945,73.4495 L474.1736,72.3265 L473.2375,71.78692 L472.1145,71.502525 L468.7455,71.19303 L465.3765,69.78533 L464.2535,69.459435 L460.8845,69.0978 L459.7615,69.67539 L454.1465,73.731544 L450.7775,76.80222 L446.08383,82.4335 L443.6596,85.8025 L442.97134,86.9255 L441.9354,89.1715 L441.6926,90.2945 L441.88376,91.4175 L442.9165,92.25051 L443.83655,92.5405 L445.1625,92.68404 L449.30444,92.5405 M289.26053,57.7275 L290.36493,56.6045 L290.99313,55.4815 L291.3115,54.517376 L291.477,53.2355 L291.28333,50.9895 L289.02347,40.8825 L287.9425,38.9143 L286.8195,38.248005 L285.6965,38.186356 L284.5735,38.438393 L282.3275,39.496906 L280.47186,40.8825 L279.39636,42.0055 L278.61914,43.1285 L277.7808,45.3745 L277.66528,46.4975 L277.8964,48.7435 L278.91098,52.1125 L280.03204,54.3585 L281.2045,56.023434 L282.95575,57.7275 L284.5735,58.61254 L285.6965,58.844097 L286.8195,58.797752 L287.9425,58.478546 L289.26053,57.7275 M264.7049,71.2035 L266.6055,70.80328 L274.89093,67.8345 L277.52185,66.7115 L279.23572,65.5885 L280.23276,64.4655 L280.4974,63.3425 L280.3663,62.2195 L279.95566,61.0965 L278.9585,59.529343 L277.8355,58.351685 L276.9725,57.7275 L275.5895,57.103107 L274.4665,56.86728 L272.2205,56.78983 L269.9745,57.138584 L267.7285,57.972675 L264.3595,59.909195 L262.81302,61.0965 L261.72455,63.3425 L260.95175,65.5885 L260.6087,67.8345 L260.64093,68.9575 L260.93082,70.0805 L262.1135,70.8282 L263.2365,71.18233 L264.7049,71.2035" fill="none" id="outline-0" stroke="black" stroke-linecap="round" stroke-linejoin="round" stroke-width="0.2"/>
</svg>