<svg height="224mm" viewBox="0 0 224 224" width="224mm" xmlns="http://www.w3.org/2000/svg">
<path d="M58,30 L82,30 L82,82 L58,82 L58,30" fill="none" id="outline-0" stroke="black" stroke-linecap="round" stroke-linejoin="round" stroke-width="0.5"/>
<path d="M57.75,29.75 L82.25,29.75 L82.25,82.25 L57.75,82.25 L57.75,29.75" fill="none" id="outline-0" stroke="black" stroke-linecap="round" stroke-linejoin="round" stroke-width="0.5"/>
<path d="M57.25,29.25 L82.75,29.25 L82.75,82.75 L57.25,82.75 L57.25,29.25" fill="none" id="outline-0" stroke="black" stroke-linecap="round" stroke-linejoin="round" stroke-width="0.5"/>
<path d="M56.75,28.75 L83.25,28.75 L83.25,83.25 L56.75,83.25 L56.75,28.75" fill="none" id="outline-0" stroke="black" stroke-linecap="round" stroke-linejoin="round" stroke-width="0.5"/>
<path d="M56.25,28.25 L83.75,28.25 L83.75,83.75 L56.25,83.75 L56.25,28.25" fill="none" id="outline-0" stroke="black" stroke-linecap="round" stroke-linejoin="round" stroke-width="0.5"/>
<path d="M2,2 L110,2 L110,26 L2,26 L2,2" fill="none" id="outline-0" stroke="black" stroke-linecap="round" stroke-linejoin="round" stroke-width="0.5"/>
<path d="M1.75,1.75 L110.25,1.75 L110.25,26.25 L1.75,26.25 L1.75,1.75" fill="none" id="outline-0" stroke="black" stroke-linecap="round" stroke-linejoin="round" stroke-width="0.5"/>
<path d="M1.25,1.25 L110.75,1.25 L110.75,26.75 L1.25,26.75 L1.25,1.25" fill="none" id="outline-0" stroke="black" stroke-linecap="round" stroke-linejoin="round" stroke-width="0.5"/>
<path d="M0.75,0.75 L111.25,0.75 L111.25,27.25 L0.75,27.25 L0.75,0.75" fill="none" id="outline-0" stroke="black" stroke-linecap="round" stroke-linejoin="round" stroke-width="0.5"/>
<path d="M0.25,0.25 L111.75,0.25 L111.75,27.75 L0.25,27.75 L0.25,0.25" fill="none" id="outline-0" stroke="black" stroke-linecap="round" stroke-linejoin="round" stroke-width="0.5"/>
<path d="M2,30 L54,30 L54,110 L2,110 L2,30" fill="none" id="outline-0" stroke="black" stroke-linecap="round" stroke-linejoin="round" stroke-width="0.5"/>
<path d="M1.75,29.75 L54.25,29.75 L54.25,110.25 L1.75,110.25 L1.75,29.75" fill="none" id="outline-0" stroke="black" stroke-linecap="round" stroke-linejoin="round" stroke-width="0.5"/>
<path d="M1.25,29.25 L54.75,29.25 L54.75,110.75 L1.25,110.75 L1.25,29.25" fill="none" id="outline-0" stroke="black" stroke-linecap="round" stroke-linejoin="round" stroke-width="0.5"/>
<path d="M0.75,28.75 L55.25,28.75 L55.25,111.25 L0.75,111.25 L0.75,28.75" fill="none" id="outline-0" stroke="black" stroke-linecap="round" stroke-linejoin="round" stroke-width="0.5"/>
<path d="M0.25,28.25 L55.75,28.25 L55.75,111.75 L0.25,111.75 L0.25,28.25" fill="none" id="outline-0" stroke="black" stroke-linecap="round" stroke-linejoin="round" stroke-width="0.5"/>
<path d="M2,114 L54,114 L54,138 L2,138 L2,114" fill="none" id="outline-0" stroke="black" stroke-linecap="round" stroke-linejoin="round" stroke-width="0.5"/>
<path d="M1.75,113.75 L54.25,113.75 L54.25,138.25 L1.75,138.25 L1.75,113.75" fill="none" id="outline-0" stroke="black" stroke-linecap="round" stroke-linejoin="round" stroke-width="0.5"/>
<path d="M1.25,113.25 L54.75,113.25 L54.75,138.75 L1.25,138.75 L1.25,113.25" fill="none" id="outline-0" stroke="black" stroke-linecap="round" stroke-linejoin="round" stroke-width="0.5"/>
<path d="M0.75,112.75 L55.25,112.75 L55.25,139.25 L0.75,139.25 L0.75,112.75" fill="none" id="outline-0" stroke="black" stroke-linecap="round" stroke-linejoin="round" stroke-width="0.5"/>
<path d="M0.25,112.25 L55.75,112.25 L55.75,139.75 L0.25,139.75 L0.25,112.25" fill="none" id="outline-0" stroke="black" stroke-linecap="round" stroke-linejoin="round" stroke-width="0.5"/>
<path d="M58,86 L82,86 L82,138 L58,138 L58,86" fill="none" id="outline-0" stroke="black" stroke-linecap="round" stroke-linejoin="round" stroke-width="0.5"/>
<path d="M57.75,85.75 L82.25,85.75 L82.25,138.25 L57.75,138.25 L57.75,85.75" fill="none" id="outline-0" stroke="black" stroke-linecap="round" stroke-linejoin="round" stroke-width="0.5"/>
<path d="M57.25,85.25 L82.75,85.25 L82.75,138.75 L57.25,138.75 L57.25,85.25" fill="none" id="outline-0" stroke="black" stroke-linecap="round" stroke-linejoin="round" stroke-width="0.5"/>
<path d="M56.75,84.75 L83.25,84.75 L83.25,139.25 L56.75,139.25 L56.75,84.75" fill="none" id="outline-0" stroke="black" stroke-linecap="round" stroke-linejoin="round" stroke-width="0.5"/>
<path d="M56.25,84.25 L83.75,84.25 L83.75,139.75 L56.25,139.75 L56.25,84.25" fill="none" id="outline-0" stroke="black" stroke-linecap="round" stroke-linejoin="round" stroke-width="0.5"/>
<path d="M58,142 L82,142 L82,222 L58,222 L58,142" fill="none" id="outline-0" stroke="black" stroke-linecap="round" stroke-linejoin="round" stroke-width="0.5"/>
<path d="M57.75,141.75 L82.25,141.75 L82.25,222.25 L57.75,222.25 L57.75,141.75" fill="none" id="outline-0" stroke="black" stroke-linecap="round" stroke-linejoin="round" stroke-width="0.5"/>
<path d="M57.25,141.25 L82.75,141.25 L82.75,222.75 L57.25,222.75 L57.25,141.25" fill="none" id="outline-0" stroke="black" stroke-linecap="round" stroke-linejoin="round" stroke-width="0.5"/>
<path d="M56.75,140.75 L83.25,140.75 L83.25,223.25 L56.75,223.25 L56.75,140.75" fill="none" id="outline-0" stroke="black" stroke-linecap="round" stroke-linejoin="round" stroke-width="0.5"/>
<path d="M56.25,140.25 L83.75,140.25 L83.75,223.75 L56.25,223.75 L56.25,140.25" fill="none" id="outline-0" stroke="black" stroke-linecap="round" stroke-linejoin="round" stroke-width="0.5"/>
<path d="M114,114 L166,114 L166,138 L114,138 L114,114" fill="none" id="outline-0" stroke="black" stroke-linecap="round" stroke-linejoin="round" stroke-width="0.5"/>
<path d="M113.75,113.75 L166.25,113.75 L166.25,138.25 L113.75,138.25 L113.75,113.75" fill="none" id="outline-0" stroke="black" stroke-linecap="round" stroke-linejoin="round" stroke-width="0.5"/>
<path d="M113.25,113.25 L166.75,113.25 L166.75,138.75 L113.25,138.75 L113.25,113.25" fill="none" id="outline-0" stroke="black" stroke-linecap="round" stroke-linejoin="round" stroke-width="0.5"/>
<path d="M112.75,112.75 L167.25,112.75 L167.25,139.25 L112.75,139.25 L112.75,112.75" fill="none" id="outline-0" stroke="black" stroke-linecap="round" stroke-linejoin="round" stroke-width="0.5"/>
<path d="M112.25,112.25 L167.75,112.25 L167.75,139.75 L112.25,139.75 L112.25,112.25" fill="none" id="outline-0" stroke="black" stroke-linecap="round" stroke-linejoin="round" stroke-width="0.5"/>
<path d="M170,114 L222,114 L222,138 L170,138 L170,114" fill="none" id="outline-0" stroke="black" stroke-linecap="round" stroke-linejoin="round" stroke-width="0.5"/>
<path d="M169.75,113.75 L222.25,113.75 L222.25,138.25 L169.75,138.25 L169.75,113.75" fill="none" id="outline-0" stroke="black" stroke-linecap="round" stroke-linejoin="round" stroke-width="0.5"/>
<path d="M169.25,113.25 L222.75,113.25 L222.75,138.75 L169.25,138.75 L169.25,113.25" fill="none" id="outline-0" stroke="black" stroke-linecap="round" stroke-linejoin="round" stroke-width="0.5"/>
<path d="M168.75,112.75 L223.25,112.75 L223.25,139.25 L168.75,139.25 L168.75,112.75" fill="none" id="outline-0" stroke="black" stroke-linecap="round" stroke-linejoin="round" stroke-width="0.5"/>
<path d="M168.25,112.25 L223.75,112.25 L223.75,139.75 L168.25,139.75 L168.25,112.25" fill="none" id="outline-0" stroke="black" stroke-linecap="round" stroke-linejoin="round" stroke-width="0.5"/>
<path d="M114,86 L166,86 L166,110 L114,110 L114,86" fill="none" id="outline-0" stroke="black" stroke-linecap="round" stroke-linejoin="round" stroke-width="0.5"/>
<path d="M113.75,85.75 L166.25,85.75 L166.25,110.25 L113.75,110.25 L113.75,85.75" fill="none" id="outline-0" stroke="black" stroke-linecap="round" stroke-linejoin="round" stroke-width="0.5"/>
<path d="M113.25,85.25 L166.75,85.25 L166.75,110.75 L113.25,110.75 L113.25,85.25" fill="none" id="outline-0" stroke="black" stroke-linecap="round" stroke-linejoin="round" stroke-width="0.5"/>
<path d="M112.75,84.75 L167.25,84.75 L167.25,111.25 L112.75,111.25 L112.75,84.75" fill="none" id="outline-0" stroke="black" stroke-linecap="round" stroke-linejoin="round" stroke-width="0.5"/>
<path d="M112.25,84.25 L167.75,84.25 L167.75,111.75 L112.25,111.75 L112.25,84.25" fill="none" id="outline-0" stroke="black" stroke-linecap="round" stroke-linejoin="round" stroke-width="0.5"/>
<path d="M170,86 L222,86 L222,110 L170,110 L170,86" fill="none" id="outline-0" stroke="black" stroke-linecap="round" stroke-linejoin="round" stroke-width="0.5"/>
<path d="M169.75,85.75 L222.25,85.75 L222.25,110.25 L169.75,110.25 L169.75,85.75" fill="none" id="outline-0" stroke="black" stroke-linecap="round" stroke-linejoin="round" stroke-width="0.5"/>
<path d="M169.25,85.25 L222.75,85.25 L222.75,110.75 L169.25,110.75 L169.25,85.25" fill="none" id="outline-0" stroke="black" stroke-linecap="round" stroke-linejoin="round" stroke-width="0.5"/>
<path d="M168.75,84.75 L223.25,84.75 L223.25,111.25 L168.75,111.25 L168.75,84.75" fill="none" id="outline-0" stroke="black" stroke-linecap="round" stroke-linejoin="round" stroke-width="0.5"/>
<path d="M168.25,84.25 L223.75,84.25 L223.75,111.75 L168.25,111.75 L168.25,84.25" fill="none" id="outline-0" stroke="black" stroke-linecap="round" stroke-linejoin="round" stroke-width="0.5"/>
<path d="M114,2 L166,2 L166,26 L114,26 L114,2" fill="none" id="outline-0" stroke="black" stroke-linecap="round" stroke-linejoin="round" stroke-width="0.5"/>
<path d="M113.75,1.75 L166.25,1.75 L166.25,26.25 L113.75,26.25 L113.75,1.75" fill="none" id="outline-0" stroke="black" stroke-linecap="round" stroke-linejoin="round" stroke-width="0.5"/>
<path d="M113.25,1.25 L166.75,1.25 L166.75,26.75 L113.25,26.75 L113.25,1.25" fill="none" id="outline-0" stroke="black" stroke-linecap="round" stroke-linejoin="round" stroke-width="0.5"/>
<path d="M112.75,0.75 L167.25,0.75 L167.25,27.25 L112.75,27.25 L112.75,0.75" fill="none" id="outline-0" stroke="black" stroke-linecap="round" stroke-linejoin="round" stroke-width="0.5"/>
<path d="M112.25,0.25 L167.75,0.25 L167.75,27.75 L112.25,27.75 L112.25,0.25" fill="none" id="outline-0" stroke="black" stroke-linecap="round" stroke-linejoin="round" stroke-width="0.5"/>
<path d="M86,30 L166,30 L166,82 L86,82 L86,30" fill="none" id="outline-0" stroke="black" stroke-linecap="round" stroke-linejoin="round" stroke-width="0.5"/>
<path d="M165.55719,30.4 L165.6,30.442814 M165.6,31.0085 L164.9915,30.4 M164.42581,30.4 L165.6,31.574184 M165.6,32.13987 L163.86012,30.4 M163.29445,30.4 L165.6,32.705555 M165.6,33.27124 L162.72876,30.4 M162.16307,30.4 L165.6,33.836926 M165.6,34.40261 L161.59738,30.4 M161.03171,30.4 L165.6,34.968296 M165.6,35.53398 L160.46602,30.4 M159.90033,30.4 L165.6,36.099667 M165.6,36.66535 L159.33464,30.4 M158.76897,30.4 L165.6,37.23104 M165.6,37.796726 L158.20328,30.4 M157.63759,30.4 L165.6,38.36241 M165.6,38.928097 L157.0719,30.4 M156.50623,30.4 L165.6,39.493782 M165.6,40.059467 L155.94054,30.4 M155.37485,30.4 L165.6,40.625153 M165.6,41.190838 L154.80916,30.4 M154.24348,30.4 L165.6,41.756523 M165.6,42.32221 L153.6778,30.4 M153.1121,30.4 L165.6,42.887894 M165.6,43.45358 L152.54642,30.4 M151.98074,30.4 L165.6,44.019264 M165.6,44.58495 L151.41505,30.4 M150.84937,30.4 L165.6,45.150635 M165.6,45.71632 L150.28368,30.4 M149.71799,30.4 L165.6,46.282005 M165.6,46.84769 L149.15231,30.4 M148.58662,30.4 L165.6,47.413376 M165.6,47.97906 L148.02094,30.4 M147.45525,30.4 L165.6,48.544746 M165.6,49.11043 L146.88957,30.4 M146.32388,30.4 L165.6,49.676117 M165.6,50.241802 L145.7582,30.4 M145.1925,30.4 L165.6,50.807487 M165.6,51.373177 L144.62683,30.4 M144.06114,30.4 L165.6,51.93886 M165.6,52.504547 L143.49545,30.4 M142.92976,30.4 L165.6,53.070232 M165.6,53.635918 L142.36409,30.4 M141.7984,30.4 L165.6,54.201603 M165.6,54.76729 L141.23271,30.4 M140.66702,30.4 L165.6,55.332973 M165.6,55.89866 L140.10135,30.4 M139.53566,30.4 L165.6,56.464344 M165.6,57.03003 L138.96997,30.4 M138.40428,30.4 L165.6,57.595715 M165.6,58.1614 L137.83861,30.4 M137.27292,30.4 L165.6,58.727085 M165.6,59.29277 L136.70723,30.4 M136.14154,30.4 L165.6,59.858456 M165.6,60.42414 L135.57585,30.4 M135.01018,30.4 L165.6,60.989826 M165.6,61.55551 L134.44449,30.4 M133.8788,30.4 L165.6,62.121197 M165.6,62.686882 L133.31311,30.4 M132.74744,30.4 L165.6,63.252567 M165.6,63.818253 L132.18175,30.4 M131.61606,30.4 L165.6,64.38394 M165.6,64.94962 L131.05037,30.4 M130.4847,30.4 L165.6,65.51531 M165.6,66.08099 L129.919,30.4 M129.35332,30.4 L165.6,66.64668 M165.6,67.212364 L128.78763,30.4 M128.22195,30.4 L165.6,67.77805 M165.6,68.343735 L127.656265,30.4 M127.090576,30.4 L165.6,68.909424 M165.6,69.475105 L126.524895,30.4 M125.959206,30.4 L165.6,70.040794 M165.6,70.606476 L125.393524,30.4 M124.827835,30.4 L165.6,71.172165 M165.6,71.73785 L124.26215,30.4 M123.696465,30.4 L165.6,72.303535 M165.6,72.869225 L123.130775,30.4 M122.565094,30.4 L165.6,73.434906 M165.6,74.000595 L121.999405,30.4 M121.43372,30.4 L165.6,74.56628 M165.6,75.131966 L120.868034,30.4 M120.30235,30.4 L165.6,75.69765 M165.6,76.263336 L119.736664,30.4 M119.17098,30.4 L165.6,76.82902 M165.6,77.39471 L118.60529,30.4 M118.03961,30.4 L165.6,77.96039 M165.6,78.52608 L117.47392,30.4 M116.90824,30.4 L165.6,79.09176 M165.6,79.65745 L116.34255,30.4 M115.77687,30.4 L165.6,80.22313 M165.6,80.78882 L115.21118,30.4 M114.6455,30.4 L165.6,81.3545 M165.27982,81.6 L114.07981,30.4 M113.51413,30.4 L164.71413,81.6 M164.14844,81.6 L112.94844,30.4 M112.38276,30.4 L163.58276,81.6 M163.01707,81.6 L111.81707,30.4 M111.25139,30.4 L162.45139,81.6 M161.8857,81.6 L110.6857,30.4 M110.12002,30.4 L161.32,81.6 M160.75433,81.6 L109.55433,30.4 M108.98864,30.4 L160.18864,81.6 M159.62296,81.6 L108.42296,30.4 M107.85727,30.4 L159.05727,81.6 M158.4916,81.6 L107.29159,30.4 M106.7259,30.4 L157.9259,81.6 M157.36021,81.6 L106.16022,30.4 M105.59453,30.4 L156.79453,81.6 M156.22885,81.6 L105.02885,30.4 M104.46316,30.4 L155.66316,81.6 M155.09747,81.6 L103.89748,30.4 M103.33179,30.4 L154.53178,81.6 M153.96611,81.6 L102.766106,30.4 M102.20042,30.4 L153.40042,81.6 M152.83473,81.6 L101.634735,30.4 M101.069046,30.4 L152.26904,81.6 M151.70337,81.6 L100.503365,30.4 M99.937675,30.4 L151.13768,81.6 M150.57199,81.6 L99.371994,30.4 M98.806305,30.4 L150.0063,81.6 M149.44063,81.6 L98.24062,30.4 M97.674934,30.4 L148.87494,81.6 M148.30925,81.6 L97.10925,30.4 M96.543564,30.4 L147.74356,81.6 M147.17787,81.6 L95.97788,30.4 M95.41219,30.4 L146.6122,81.6 M146.04651,81.6 L94.846504,30.4 M94.28082,30.4 L145.48082,81.6 M144.91513,81.6 L93.71513,30.4 M93.14945,30.4 L144.34946,81.6 M143.78377,81.6 L92.58376,30.4 M92.01808,30.4 L143.21808,81.6 M142.65239,81.6 L91.45239,30.4 M90.88671,30.4 L142.08672,81.6 M141.52103,81.6 L90.32102,30.4 M89.75534,30.4 L140.95534,81.6 M140.38965,81.6 L89.18965,30.4 M88.62397,30.4 L139.82397,81.6 M139.25829,81.6 L88.05828,30.4 M87.4926,30.4 L138.6926,81.6 M138.1269,81.6 L86.92691,30.4 M86.4,30.438774 L137.56123,81.6 M136.99554,81.6 L86.4,31.00446 M86.4,31.570145 L136.42986,81.6 M135.86417,81.6 L86.4,32.13583 M86.4,32.701515 L135.2985,81.6 M134.7328,81.6 L86.4,33.2672 M86.4,33.832886 L134.16711,81.6 M133.60143,81.6 L86.4,34.39857 M86.4,34.964256 L133.03574,81.6 M132.47006,81.6 L86.4,35.52994 M86.4,36.095627 L131.90437,81.6 M131.33868,81.6 L86.4,36.661312 M86.4,37.226997 L130.773,81.6 M130.20732,81.6 L86.4,37.792683 M86.4,38.358368 L129.64163,81.6 M129.07594,81.6 L86.4,38.924053 M86.4,39.48974 L128.51025,81.6 M127.94457,81.6 L86.4,40.055428 M86.4,40.621113 L127.37889,81.6 M126.8132,81.6 L86.4,41.1868 M86.4,41.752483 L126.24752,81.6 M125.68183,81.6 L86.4,42.31817 M86.4,42.883854 L125.11615,81.6 M124.55046,81.6 L86.4,43.44954 M86.4,44.015224 L123.98478,81.6 M123.41909,81.6 L86.4,44.58091 M86.4,45.146595 L122.85341,81.6 M122.28772,81.6 L86.4,45.71228 M86.4,46.277966 L121.72204,81.6 M121.15635,81.6 L86.4,46.84365 M86.4,47.409336 L120.59066,81.6 M120.02498,81.6 L86.4,47.97502 M86.4,48.540707 L119.45929,81.6 M118.89361,81.6 L86.4,49.10639 M86.4,49.672077 L118.32792,81.6 M117.76224,81.6 L86.4,50.237762 M86.4,50.803448 L117.19655,81.6 M116.63087,81.6 L86.4,51.369133 M86.4,51.93482 L116.06518,81.6 M115.4995,81.6 L86.4,52.500504 M86.4,53.06619 L114.93381,81.6 M114.368126,81.6 L86.4,53.631874 M86.4,54.197563 L113.80244,81.6 M113.236755,81.6 L86.4,54.76325 M86.4,55.328934 L112.67107,81.6 M112.105385,81.6 L86.4,55.89462 M86.4,56.460304 L111.539696,81.6 M110.974014,81.6 L86.4,57.02599 M86.4,57.591675 L110.408325,81.6 M109.84264,81.6 L86.4,58.15736 M86.4,58.723045 L109.276955,81.6 M108.71127,81.6 L86.4,59.28873 M86.4,59.854416 L108.145584,81.6 M107.5799,81.6 L86.4,60.4201 M86.4,60.985786 L107.01421,81.6 M106.448524,81.6 L86.4,61.55147 M86.4,62.117157 L105.88284,81.6 M105.317154,81.6 L86.4,62.682842 M86.4,63.248528 L104.75147,81.6 M104.18578,81.6 L86.4,63.814213 M86.4,64.3799 L103.6201,81.6 M103.05441,81.6 L86.4,64.94559 M86.4,65.51127 L102.48873,81.6 M101.92304,81.6 L86.4,66.07696 M86.4,66.64264 L101.35736,81.6 M100.79167,81.6 L86.4,67.20833 M86.4,67.77401 L100.22599,81.6 M99.6603,81.6 L86.4,68.3397 M86.4,68.90538 L99.09462,81.6 M98.52893,81.6 L86.4,69.47107 M86.4,70.03675 L97.96325,81.6 M97.39756,81.6 L86.4,70.60244 M86.4,71.16812 L96.83188,81.6 M96.26619,81.6 L86.4,71.73381 M86.4,72.29949 L95.70051,81.6 M95.13482,81.6 L86.4,72.86518 M86.4,73.43086 L94.56914,81.6 M94.00345,81.6 L86.4,73.99655 M86.4,74.56223 L93.43777,81.6 M92.87208,81.6 L86.4,75.12792 M86.4,75.69361 L92.30639,81.6 M91.74071,81.6 L86.4,76.25929 M86.4,76.82498 L91.17502,81.6 M90.60934,81.6 L86.4,77.39066 M86.4,77.95635 L90.04365,81.6 M89.47797,81.6 L86.4,78.52203 M86.4,79.08772 L88.91228,81.6 M88.346596,81.6 L86.4,79.653404 M86.4,80.21909 L87.78091,81.6 M87.215225,81.6 L86.4,80.784775 M86.4,81.350464 L86.649536,81.6" fill="none" id="fill-0" stroke="#D40920" stroke-linecap="round" stroke-linejoin="round" stroke-width="0.5"/>
<path d="M85.75,29.75 L166.25,29.75 L166.25,82.25 L85.75,82.25 L85.75,29.75" fill="none" id="outline-1" stroke="black" stroke-linecap="round" stroke-linejoin="round" stroke-width="0.5"/>
<path d="M85.25,29.25 L166.75,29.25 L166.75,82.75 L85.25,82.75 L85.25,29.25" fill="none" id="outline-1" stroke="black" stroke-linecap="round" stroke-linejoin="round" stroke-width="0.5"/>
<path d="M84.75,28.75 L167.25,28.75 L167.25,83.25 L84.75,83.25 L84.75,28.75" fill="none" id="outline-1" stroke="black" stroke-linecap="round" stroke-linejoin="round" stroke-width="0.5"/>
<path d="M84.25,28.25 L167.75,28.25 L167.75,83.75 L84.25,83.75 L84.25,28.25" fill="none" id="outline-1" stroke="black" stroke-linecap="round" stroke-linejoin="round" stroke-width="0.5"/>
<path d="M170,30 L222,30 L222,82 L170,82 L170,30" fill="none" id="outline-1" stroke="black" stroke-linecap="round" stroke-linejoin="round" stroke-width="0.5"/>
<path d="M169.75,29.75 L222.25,29.75 L222.25,82.25 L169.75,82.25 L169.75,29.75" fill="none" id="outline-1" stroke="black" stroke-linecap="round" stroke-linejoin="round" stroke-width="0.5"/>
<path d="M169.25,29.25 L222.75,29.25 L222.75,82.75 L169.25,82.75 L169.25,29.25" fill="none" id="outline-1" stroke="black" stroke-linecap="round" stroke-linejoin="round" stroke-width="0.5"/>
<path d="M168.75,28.75 L223.25,28.75 L223.25,83.25 L168.75,83.25 L168.75,28.75" fill="none" id="outline-1" stroke="black" stroke-linecap="round" stroke-linejoin="round" stroke-width="0.5"/>
<path d="M168.25,28.25 L223.75,28.25 L223.75,83.75 L168.25,83.75 L168.25,28.25" fill="none" id="outline-1" stroke="black" stroke-linecap="round" stroke-linejoin="round" stroke-width="0.5"/>
<path d="M170,2 L194,2 L194,26 L170,26 L170,2" fill="none" id="outline-1" stroke="black" stroke-linecap="round" stroke-linejoin="round" stroke-width="0.5"/>
<path d="M169.75,1.75 L194.25,1.75 L194.25,26.25 L169.75,26.25 L169.75,1.75" fill="none" id="outline-1" stroke="black" stroke-linecap="round" stroke-linejoin="round" stroke-width="0.5"/>
<path d="M169.25,1.25 L194.75,1.25 L194.75,26.75 L169.25,26.75 L169.25,1.25" fill="none" id="outline-1" stroke="black" stroke-linecap="round" stroke-linejoin="round" stroke-width="0.5"/>
<path d="M168.75,0.75 L195.25,0.75 L195.25,27.25 L168.75,27.25 L168.75,0.75" fill="none" id="outline-1" stroke="black" stroke-linecap="round" stroke-linejoin="round" stroke-width="0.5"/>
<path d="M168.25,0.25 L195.75,0.25 L195.75,27.75 L168.25,27.75 L168.25,0.25" fill="none" id="outline-1" stroke="black" stroke-linecap="round" stroke-linejoin="round" stroke-width="0.5"/>
<path d="M198,2 L222,2 L222,26 L198,26 L198,2" fill="none" id="outline-1" stroke="black" stroke-linecap="round" stroke-linejoin="round" stroke-width="0.5"/>
<path d="M197.75,1.75 L222.25,1.75 L222.25,26.25 L197.75,26.25 L197.75,1.75" fill="none" id="outline-1" stroke="black" stroke-linecap="round" stroke-linejoin="round" stroke-width="0.5"/>
<path d="M197.25,1.25 L222.75,1.25 L222.75,26.75 L197.25,26.75 L197.25,1.25" fill="none" id="outline-1" stroke="black" stroke-linecap="round" stroke-linejoin="round" stroke-width="0.5"/>
<path d="M196.75,0.75 L223.25,0.75 L223.25,27.25 L196.75,27.25 L196.75,0.75" fill="none" id="outline-1" stroke="black" stroke-linecap="round" stroke-linejoin="round" stroke-width="0.5"/>
<path d="M196.25,0.25 L223.75,0.25 L223.75,27.75 L196.25,27.75 L196.25,0.25" fill="none" id="outline-1" stroke="black" stroke-linecap="round" stroke-linejoin="round" stroke-width="0.5"/>
<path d="M198,142 L222,142 L222,194 L198,194 L198,142" fill="none" id="outline-1" stroke="black" stroke-linecap="round" stroke-linejoin="round" stroke-width="0.5"/>
<path d="M197.75,141.75 L222.25,141.75 L222.25,194.25 L197.75,194.25 L197.75,141.75" fill="none" id="outline-1" stroke="black" stroke-linecap="round" stroke-linejoin="round" stroke-width="0.5"/>
<path d="M197.25,141.25 L222.75,141.25 L222.75,194.75 L197.25,194.75 L197.25,141.25" fill="none" id="outline-1" stroke="black" stroke-linecap="round" stroke-linejoin="round" stroke-width="0.5"/>
<path d="M196.75,140.75 L223.25,140.75 L223.25,195.25 L196.75,195.25 L196.75,140.75" fill="none" id="outline-1" stroke="black" stroke-linecap="round" stroke-linejoin="round" stroke-width="0.5"/>
<path d="M196.25,140.25 L223.75,140.25 L223.75,195.75 L196.25,195.75 L196.25,140.25" fill="none" id="outline-1" stroke="black" stroke-linecap="round" stroke-linejoin="round" stroke-width="0.5"/>
<path d="M198,198 L222,198 L222,222 L198,222 L198,198" fill="none" id="outline-1" stroke="black" stroke-linecap="round" stroke-linejoin="round" stroke-width="0.5"/>
<path d="M197.75,197.75 L222.25,197.75 L222.25,222.25 L197.75,222.25 L197.75,197.75" fill="none" id="outline-1" stroke="black" stroke-linecap="round" stroke-linejoin="round" stroke-width="0.5"/>
<path d="M197.25,197.25 L222.75,197.25 L222.75,222.75 L197.25,222.75 L197.25,197.25" fill="none" id="outline-1" stroke="black" stroke-linecap="round" stroke-linejoin="round" stroke-width="0.5"/>
<path d="M196.75,196.75 L223.25,196.75 L223.25,223.25 L196.75,223.25 L196.75,196.75" fill="none" id="outline-1" stroke="black" stroke-linecap="round" stroke-linejoin="round" stroke-width="0.5"/>
<path d="M196.25,196.25 L223.75,196.25 L223.75,223.75 L196.25,223.75 L196.25,196.25" fill="none" id="outline-1" stroke="black" stroke-linecap="round" stroke-linejoin="round" stroke-width="0.5"/>
<path d="M114,142 L194,142 L194,194 L114,194 L114,142" fill="none" id="outline-1" stroke="black" stroke-linecap="round" stroke-linejoin="round" stroke-width="0.5"/>
<path d="M193.55719,142.4 L193.6,142.44281 M193.6,143.0085 L192.9915,142.4 M192.42581,142.4 L193.6,143.57419 M193.6,144.13988 L191.86012,142.4 M191.29445,142.4 L193.6,144.70555 M193.6,145.27124 L190.72876,142.4 M190.16307,142.4 L193.6,145.83693 M193.6,146.40262 L189.59738,142.4 M189.03171,142.4 L193.6,146.96829 M193.6,147.53398 L188.46602,142.4 M187.90033,142.4 L193.6,148.09967 M193.6,148.66536 L187.33464,142.4 M186.76897,142.4 L193.6,149.23103 M193.6,149.79672 L186.20328,142.4 M185.63759,142.4 L193.6,150.36241 M193.6,150.9281 L185.0719,142.4 M184.50623,142.4 L193.6,151.49377 M193.6,152.05946 L183.94054,142.4 M183.37485,142.4 L193.6,152.62515 M193.6,153.19084 L182.80916,142.4 M182.24348,142.4 L193.6,153.75652 M193.6,154.3222 L181.6778,142.4 M181.1121,142.4 L193.6,154.8879 M193.6,155.45358 L180.54642,142.4 M179.98074,142.4 L193.6,156.01926 M193.6,156.58495 L179.41505,142.4 M178.84937,142.4 L193.6,157.15063 M193.6,157.71632 L178.28368,142.4 M177.71799,142.4 L193.6,158.28201 M193.6,158.84769 L177.15231,142.4 M176.58662,142.4 L193.6,159.41338 M193.6,159.97906 L176.02094,142.4 M175.45525,142.4 L193.6,160.54475 M193.6,161.11043 L174.88957,142.4 M174.32388,142.4 L193.6,161.67612 M193.6,162.2418 L173.7582,142.4 M173.1925,142.4 L193.6,162.8075 M193.6,163.37317 L172.62683,142.4 M172.06114,142.4 L193.6,163.93886 M193.6,164.50455 L171.49545,142.4 M170.92976,142.4 L193.6,165.07024 M193.6,165.63591 L170.36409,142.4 M169.7984,142.4 L193.6,166.2016 M193.6,166.76729 L169.23271,142.4 M168.66702,142.4 L193.6,167.33298 M193.6,167.89865 L168.10135,142.4 M167.53566,142.4 L193.6,168.46434 M193.6,169.03003 L166.96997,142.4 M166.40428,142.4 L193.6,169.59572 M193.6,170.16139 L165.83861,142.4 M165.27292,142.4 L193.6,170.72708 M193.6,171.29277 L164.70723,142.4 M164.14154,142.4 L193.6,171.85846 M193.6,172.42415 L163.57585,142.4 M163.01018,142.4 L193.6,172.98982 M193.6,173.55551 L162.44449,142.4 M161.8788,142.4 L193.6,174.1212 M193.6,174.68689 L161.31311,142.4 M160.74744,142.4 L193.6,175.25256 M193.6,175.81825 L160.18175,142.4 M159.61606,142.4 L193.6,176.38394 M193.6,176.94963 L159.05037,142.4 M158.4847,142.4 L193.6,177.5153 M193.6,178.081 L157.919,142.4 M157.35332,142.4 L193.6,178.64668 M193.6,179.21237 L156.78763,142.4 M156.22195,142.4 L193.6,179.77805 M193.6,180.34373 L155.65627,142.4 M155.09058,142.4 L193.6,180.90942 M193.6,181.47511 L154.52489,142.4 M153.95921,142.4 L193.6,182.04079 M193.6,182.60648 L153.39352,142.4 M152.82784,142.4 L193.6,183.17216 M193.6,183.73785 L152.26215,142.4 M151.69647,142.4 L193.6,184.30353 M193.6,184.86922 L151.13078,142.4 M150.5651,142.4 L193.6,185.4349 M193.6,186.0006 L149.9994,142.4 M149.43372,142.4 L193.6,186.56628 M193.6,187.13196 L148.86804,142.4 M148.30235,142.4 L193.6,187.69765 M193.6,188.26334 L147.73666,142.4 M147.17097,142.4 L193.6,188.82903 M193.6,189.3947 L146.6053,142.4 M146.03961,142.4 L193.6,189.96039 M193.6,190.52608 L145.47392,142.4 M144.90823,142.4 L193.6,191.09177 M193.6,191.65744 L144.34256,142.4 M143.77687,142.4 L193.6,192.22313 M193.6,192.78882 L143.21118,142.4 M142.6455,142.4 L193.6,193.3545 M193.27982,193.6 L142.07982,142.4 M141.51413,142.4 L192.71413,193.6 M192.14844,193.6 L140.94844,142.4 M140.38275,142.4 L191.58276,193.6 M191.01707,193.6 L139.81708,142.4 M139.25139,142.4 L190.45139,193.6 M189.8857,193.6 L138.6857,142.4 M138.12001,142.4 L189.32,193.6 M188.75433,193.6 L137.55434,142.4 M136.98865,142.4 L188.18864,193.6 M187.62296,193.6 L136.42296,142.4 M135.85727,142.4 L187.05727,193.6 M186.4916,193.6 L135.29158,142.4 M134.7259,142.4 L185.9259,193.6 M185.36021,193.6 L134.16022,142.4 M133.59453,142.4 L184.79453,193.6 M184.22885,193.6 L133.02884,142.4 M132.46317,142.4 L183.66316,193.6 M183.09747,193.6 L131.89748,142.4 M131.33179,142.4 L182.53178,193.6 M181.96611,193.6 L130.7661,142.4 M130.20042,142.4 L181.40042,193.6 M180.83473,193.6 L129.63474,142.4 M129.06905,142.4 L180.26904,193.6 M179.70337,193.6 L128.50336,142.4 M127.937675,142.4 L179.13768,193.6 M178.57199,193.6 L127.371994,142.4 M126.806305,142.4 L178.0063,193.6 M177.44063,193.6 L126.24062,142.4 M125.674934,142.4 L176.87494,193.6 M176.30925,193.6 L125.10925,142.4 M124.543564,142.4 L175.74356,193.6 M175.17787,193.6 L123.97788,142.4 M123.41219,142.4 L174.6122,193.6 M174.04651,193.6 L122.846504,142.4 M122.28082,142.4 L173.48082,193.6 M172.91513,193.6 L121.71513,142.4 M121.14945,142.4 L172.34946,193.6 M171.78377,193.6 L120.58376,142.4 M120.01808,142.4 L171.21808,193.6 M170.65239,193.6 L119.45239,142.4 M118.88671,142.4 L170.08672,193.6 M169.52103,193.6 L118.32102,142.4 M117.75534,142.4 L168.95534,193.6 M168.38965,193.6 L117.18965,142.4 M116.62397,142.4 L167.82397,193.6 M167.25829,193.6 L116.05828,142.4 M115.4926,142.4 L166.6926,193.6 M166.1269,193.6 L114.92691,142.4 M114.4,142.43877 L165.56123,193.6 M164.99554,193.6 L114.4,143.00446 M114.4,143.57014 L164.42986,193.6 M163.86417,193.6 L114.4,144.13583 M114.4,144.7015 L163.2985,193.6 M162.7328,193.6 L114.4,145.2672 M114.4,145.83289 L162.16711,193.6 M161.60143,193.6 L114.4,146.39857 M114.4,146.96426 L161.03574,193.6 M160.47006,193.6 L114.4,147.52994 M114.4,148.09563 L159.90437,193.6 M159.33868,193.6 L114.4,148.66132 M114.4,149.227 L158.773,193.6 M158.20732,193.6 L114.4,149.79268 M114.4,150.35837 L157.64163,193.6 M157.07594,193.6 L114.4,150.92406 M114.4,151.48975 L156.51025,193.6 M155.94458,193.6 L114.4,152.05542 M114.4,152.62111 L155.37889,193.6 M154.8132,193.6 L114.4,153.1868 M114.4,153.75249 L154.24751,193.6 M153.68184,193.6 L114.4,154.31816 M114.4,154.88385 L153.11615,193.6 M152.55046,193.6 L114.4,155.44954 M114.4,156.01523 L151.98477,193.6 M151.4191,193.6 L114.4,156.5809 M114.4,157.14659 L150.85341,193.6 M150.28772,193.6 L114.4,157.71228 M114.4,158.27797 L149.72203,193.6 M149.15636,193.6 L114.4,158.84364 M114.4,159.40933 L148.59067,193.6 M148.02498,193.6 L114.4,159.97502 M114.4,160.54071 L147.45929,193.6 M146.8936,193.6 L114.4,161.1064 M114.4,161.67207 L146.32793,193.6 M145.76224,193.6 L114.4,162.23776 M114.4,162.80345 L145.19655,193.6 M144.63086,193.6 L114.4,163.36914 M114.4,163.93481 L144.06519,193.6 M143.4995,193.6 L114.4,164.5005 M114.4,165.0662 L142.9338,193.6 M142.36812,193.6 L114.4,165.63188 M114.4,166.19756 L141.80244,193.6 M141.23676,193.6 L114.4,166.76324 M114.4,167.32893 L140.67107,193.6 M140.10538,193.6 L114.4,167.89462 M114.4,168.4603 L139.5397,193.6 M138.97401,193.6 L114.4,169.02599 M114.4,169.59167 L138.40833,193.6 M137.84264,193.6 L114.4,170.15736 M114.4,170.72304 L137.27696,193.6 M136.71127,193.6 L114.4,171.28873 M114.4,171.85442 L136.14558,193.6 M135.5799,193.6 L114.4,172.4201 M114.4,172.98578 L135.01422,193.6 M134.44853,193.6 L114.4,173.55147 M114.4,174.11716 L133.88284,193.6 M133.31715,193.6 L114.4,174.68285 M114.4,175.24854 L132.75146,193.6 M132.18579,193.6 L114.4,175.81421 M114.4,176.3799 L131.6201,193.6 M131.05441,193.6 L114.4,176.94559 M114.4,177.51128 L130.48872,193.6 M129.92305,193.6 L114.4,178.07695 M114.4,178.64264 L129.35736,193.6 M128.79167,193.6 L114.4,179.20833 M114.4,179.77402 L128.22598,193.6 M127.6603,193.6 L114.4,180.33969 M114.4,180.90538 L127.09462,193.6 M126.52893,193.6 L114.4,181.47107 M114.4,182.03676 L125.96325,193.6 M125.39756,193.6 L114.4,182.60243 M114.4,183.16812 L124.83188,193.6 M124.26619,193.6 L114.4,183.73381 M114.4,184.2995 L123.70051,193.6 M123.13482,193.6 L114.4,184.86517 M114.4,185.43086 L122.56914,193.6 M122.00345,193.6 L114.4,185.99655 M114.4,186.56224 L121.43777,193.6 M120.87208,193.6 L114.4,187.12793 M114.4,187.6936 L120.30639,193.6 M119.74071,193.6 L114.4,188.2593 M114.4,188.82498 L119.17502,193.6 M118.60934,193.6 L114.4,189.39067 M114.4,189.95634 L118.04365,193.6 M117.47797,193.6 L114.4,190.52203 M114.4,191.08772 L116.91228,193.6 M116.346596,193.6 L114.4,191.65341 M114.4,192.21909 L115.78091,193.6 M115.215225,193.6 L114.4,192.78477 M114.4,193.35046 L114.649536,193.6" fill="none" id="fill-1" stroke="#F7D842" stroke-linecap="round" stroke-linejoin="round" stroke-width="0.5"/>
<path d="M113.75,141.75 L194.25,141.75 L194.25,194.25 L113.75,194.25 L113.75,141.75" fill="none" id="outline-2" stroke="black" stroke-linecap="round" stroke-linejoin="round" stroke-width="0.5"/>
<path d="M113.25,141.25 L194.75,141.25 L194.75,194.75 L113.25,194.75 L113.25,141.25" fill="none" id="outline-2" stroke="black" stroke-linecap="round" stroke-linejoin="round" stroke-width="0.5"/>
<path d="M112.75,140.75 L195.25,140.75 L195.25,195.25 L112.75,195.25 L112.75,140.75" fill="none" id="outline-2" stroke="black" stroke-linecap="round" stroke-linejoin="round" stroke-width="0.5"/>
<path d="M112.25,140.25 L195.75,140.25 L195.75,195.75 L112.25,195.75 L112.25,140.25" fill="none" id="outline-2" stroke="black" stroke-linecap="round" stroke-linejoin="round" stroke-width="0.5"/>
<path d="M114,198 L194,198 L194,222 L114,222 L114,198" fill="none" id="outline-2" stroke="black" stroke-linecap="round" stroke-linejoin="round" stroke-width="0.5"/>
<path d="M113.75,197.75 L194.25,197.75 L194.25,222.25 L113.75,222.25 L113.75,197.75" fill="none" id="outline-2" stroke="black" stroke-linecap="round" stroke-linejoin="round" stroke-width="0.5"/>
<path d="M113.25,197.25 L194.75,197.25 L194.75,222.75 L113.25,222.75 L113.25,197.25" fill="none" id="outline-2" stroke="black" stroke-linecap="round" stroke-linejoin="round" stroke-width="0.5"/>
<path d="M112.75,196.75 L195.25,196.75 L195.25,223.25 L112.75,223.25 L112.75,196.75" fill="none" id="outline-2" stroke="black" stroke-linecap="round" stroke-linejoin="round" stroke-width="0.5"/>
<path d="M112.25,196.25 L195.75,196.25 L195.75,223.75 L112.25,223.75 L112.25,196.25" fill="none" id="outline-2" stroke="black" stroke-linecap="round" stroke-linejoin="round" stroke-width="0.5"/>
<path d="M2,142 L54,142 L54,194 L2,194 L2,142" fill="none" id="outline-2" stroke="black" stroke-linecap="round" stroke-linejoin="round" stroke-width="0.5"/>
<path d="M1.75,141.75 L54.25,141.75 L54.25,194.25 L1.75,194.25 L1.75,141.75" fill="none" id="outline-2" stroke="black" stroke-linecap="round" stroke-linejoin="round" stroke-width="0.5"/>
<path d="M1.25,141.25 L54.75,141.25 L54.75,194.75 L1.25,194.75 L1.25,141.25" fill="none" id="outline-2" stroke="black" stroke-linecap="round" stroke-linejoin="round" stroke-width="0.5"/>
<path d="M0.75,140.75 L55.25,140.75 L55.25,195.25 L0.75,195.25 L0.75,140.75" fill="none" id="outline-2" stroke="black" stroke-linecap="round" stroke-linejoin="round" stroke-width="0.5"/>
<path d="M0.25,140.25 L55.75,140.25 L55.75,195.75 L0.25,195.75 L0.25,140.25" fill="none" id="outline-2" stroke="black" stroke-linecap="round" stroke-linejoin="round" stroke-width="0.5"/>
<path d="M2,198 L54,198 L54,222 L2,222 L2,198" fill="none" id="outline-2" stroke="black" stroke-linecap="round" stroke-linejoin="round" stroke-width="0.5"/>
<path d="M53.556767,198.4 L53.6,198.44324 M53.6,199.00891 L52.99108,198.4 M52.425396,198.4 L53.6,199.5746 M53.6,200.14029 L51.85971,198.4 M51.294025,198.4 L53.6,200.70598 M53.6,201.27165 L50.72834,198.4 M50.162655,198.4 L53.6,201.83734 M53.6,202.40303 L49.59697,198.4 M49.031284,198.4 L53.6,202.96872 M53.6,203.53441 L48.4656,198.4 M47.899914,198.4 L53.6,204.10008 M53.6,204.66577 L47.33423,198.4 M46.768543,198.4 L53.6,205.23146 M53.6,205.79715 L46.202858,198.4 M45.637173,198.4 L53.6,206.36282 M53.6,206.92851 L45.071487,198.4 M44.505802,198.4 L53.6,207.4942 M53.6,208.05989 L43.940117,198.4 M43.37443,198.4 L53.6,208.62556 M53.6,209.19125 L42.808746,198.4 M42.243057,198.4 L53.6,209.75694 M53.6,210.32263 L41.677372,198.4 M41.111687,198.4 L53.6,210.8883 M53.6,211.454 L40.546,198.4 M39.980316,198.4 L53.6,212.01968 M53.6,212.58537 L39.41463,198.4 M38.848946,198.4 L53.6,213.15105 M53.6,213.71674 L38.28326,198.4 M37.717575,198.4 L53.6,214.28242 M53.6,214.84811 L37.15189,198.4 M36.586205,198.4 L53.6,215.41379 M53.6,215.97948 L36.02052,198.4 M35.454834,198.4 L53.6,216.54517 M53.6,217.11086 L34.88915,198.4 M34.323463,198.4 L53.6,217.67654 M53.6,218.24222 L33.75778,198.4 M33.192093,198.4 L53.6,218.8079 M53.6,219.3736 L32.626408,198.4 M32.060722,198.4 L53.6,219.93929 M53.6,220.50496 L31.495035,198.4 M30.92935,198.4 L53.6,221.07065 M53.529648,221.56598 L30.363665,198.4 M29.79798,198.4 L52.99798,221.6 M52.432293,221.6 L29.232294,198.4 M28.666609,198.4 L51.866608,221.6 M51.300922,221.6 L28.100924,198.4 M27.535238,198.4 L50.735237,221.6 M50.16955,221.6 L26.969553,198.4 M26.403868,198.4 L49.603867,221.6 M49.03818,221.6 L25.838182,198.4 M25.272497,198.4 L48.472496,221.6 M47.90681,221.6 L24.70681,198.4 M24.141125,198.4 L47.341125,221.6 M46.77544,221.6 L23.57544,198.4 M23.009754,198.4 L46.209755,221.6 M45.64407,221.6 L22.444069,198.4 M21.878384,198.4 L45.078384,221.6 M44.5127,221.6 L21.312698,198.4 M20.747013,198.4 L43.947014,221.6 M43.38133,221.6 L20.181328,198.4 M19.615643,198.4 L42.815643,221.6 M42.249958,221.6 L19.049957,198.4 M18.484272,198.4 L41.684273,221.6 M41.118587,221.6 L17.918587,198.4 M17.3529,198.4 L40.552902,221.6 M39.987213,221.6 L16.787214,198.4 M16.221529,198.4 L39.421528,221.6 M38.855843,221.6 L15.655844,198.4 M15.090158,198.4 L38.290157,221.6 M37.724472,221.6 L14.524473,198.4 M13.958788,198.4 L37.158787,221.6 M36.5931,221.6 L13.393103,198.4 M12.827417,198.4 L36.027416,221.6 M35.46173,221.6 L12.261731,198.4 M11.696046,198.4 L34.896046,221.6 M34.33036,221.6 L11.130361,198.4 M10.564675,198.4 L33.764675,221.6 M33.19899,221.6 L9.99899,198.4 M9.433305,198.4 L32.633305,221.6 M32.06762,221.6 L8.867619,198.4 M8.301933,198.4 L31.501934,221.6 M30.936249,221.6 L7.736248,198.4 M7.1705627,198.4 L30.370564,221.6 M29.804878,221.6 L6.6048775,198.4 M6.0391917,198.4 L29.239191,221.6 M28.673506,221.6 L5.4735065,198.4 M4.907821,198.4 L28.10782,221.6 M27.542135,221.6 L4.3421354,198.4 M3.7764502,198.4 L26.97645,221.6 M26.410765,221.6 L3.210765,198.4 M2.6450794,198.4 L25.84508,221.6 M25.279394,221.6 L2.4,198.72061 M2.4,199.28629 L24.713709,221.6 M24.148024,221.6 L2.4,199.85197 M2.4,200.41766 L23.582338,221.6 M23.016653,221.6 L2.4,200.98335 M2.4,201.54903 L22.450966,221.6 M21.88528,221.6 L2.4,202.11472 M2.4,202.6804 L21.319595,221.6 M20.75391,221.6 L2.4,203.2461 M2.4,203.81177 L20.188225,221.6 M19.62254,221.6 L2.4,204.37746 M2.4,204.94315 L19.056854,221.6 M18.491169,221.6 L2.4,205.50883 M2.4,206.07452 L17.925484,221.6 M17.359798,221.6 L2.4,206.6402 M2.4,207.20589 L16.794113,221.6 M16.228428,221.6 L2.4,207.77158 M2.4,208.33727 L15.662742,221.6 M15.097056,221.6 L2.4,208.90294 M2.4,209.46863 L14.531371,221.6 M13.965686,221.6 L2.4,210.03432 M2.4,210.6 L13.4,221.6 M12.834314,221.6 L2.4,211.16568 M2.4,211.73137 L12.268629,221.6 M11.702944,221.6 L2.4,212.29706 M2.4,212.86275 L11.137259,221.6 M10.571573,221.6 L2.4,213.42842 M2.4,213.99411 L10.005887,221.6 M9.440202,221.6 L2.4,214.5598 M2.4,215.12549 L8.8745165,221.6 M8.308831,221.6 L2.4,215.69116 M2.4,216.25685 L7.743146,221.6 M7.17746,221.6 L2.4,216.82254 M2.4,217.38823 L6.611775,221.6 M6.0460896,221.6 L2.4,217.9539 M2.4,218.51959 L5.480404,221.6 M4.9147186,221.6 L2.4,219.08528 M2.4,219.65097 L4.3490334,221.6 M3.7833478,221.6 L2.4,220.21666 M2.4,220.78233 L3.2176623,221.6 M2.6519768,221.6 L2.4,221.34802" fill="none" id="fill-2" stroke="#1356A2" stroke-linecap="round" stroke-linejoin="round" stroke-width="0.5"/>
<path d="M1.75,197.75 L54.25,197.75 L54.25,222.25 L1.75,222.25 L1.75,197.75" fill="none" id="outline-3" stroke="black" stroke-linecap="round" stroke-linejoin="round" stroke-width="0.5"/>
<path d="M1.25,197.25 L54.75,197.25 L54.75,222.75 L1.25,222.75 L1.25,197.25" fill="none" id="outline-3" stroke="black" stroke-linecap="round" stroke-linejoin="round" stroke-width="0.5"/>
<path d="M0.75,196.75 L55.25,196.75 L55.25,223.25 L0.75,223.25 L0.75,196.75" fill="none" id="outline-3" stroke="black" stroke-linecap="round" stroke-linejoin="round" stroke-width="0.5"/>
<path d="M0.25,196.25 L55.75,196.25 L55.75,223.75 L0.25,223.75 L0.25,196.25" fill="none" id="outline-3" stroke="black" stroke-linecap="round" stroke-linejoin="round" stroke-width="0.5"/>
<path d="M86,86 L110,86 L110,194 L86,194 L86,86" fill="none" id="outline-3" stroke="black" stroke-linecap="round" stroke-linejoin="round" stroke-width="0.5"/>
<path d="M85.75,85.75 L110.25,85.75 L110.25,194.25 L85.75,194.25 L85.75,85.75" fill="none" id="outline-3" stroke="black" stroke-linecap="round" stroke-linejoin="round" stroke-width="0.5"/>
<path d="M85.25,85.25 L110.75,85.25 L110.75,194.75 L85.25,194.75 L85.25,85.25" fill="none" id="outline-3" stroke="black" stroke-linecap="round" stroke-linejoin="round" stroke-width="0.5"/>
<path d="M84.75,84.75 L111.25,84.75 L111.25,195.25 L84.75,195.25 L84.75,84.75" fill="none" id="outline-3" stroke="black" stroke-linecap="round" stroke-linejoin="round" stroke-width="0.5"/>
<path d="M84.25,84.25 L111.75,84.25 L111.75,195.75 L84.25,195.75 L84.25,84.25" fill="none" id="outline-3" stroke="black" stroke-linecap="round" stroke-linejoin="round" stroke-width="0.5"/>
<path d="M86,198 L110,198 L110,222 L86,222 L86,198" fill="none" id="outline-3" stroke="black" stroke-linecap="round" stroke-linejoin="round" stroke-width="0.5"/>
<path d="M85.75,197.75 L110.25,197.75 L110.25,222.25 L85.75,222.25 L85.75,197.75" fill="none" id="outline-3" stroke="black" stroke-linecap="round" stroke-linejoin="round" stroke-width="0.5"/>
<path d="M85.25,197.25 L110.75,197.25 L110.75,222.75 L85.25,222.75 L85.25,197.25" fill="none" id="outline-3" stroke="black" stroke-linecap="round" stroke-linejoin="round" stroke-width="0.5"/>
<path d="M84.75,196.75 L111.25,196.75 L111.25,223.25 L84.75,223.25 L84.75,196.75" fill="none" id="outline-3" stroke="black" stroke-linecap="round" stroke-linejoin="round" stroke-width="0.5"/>
<path d="M84.25,196.25 L111.75,196.25 L111.75,223.75 L84.25,223.75 L84.25,196.25" fill="none" id="outline-3" stroke="black" stroke-linecap="round" stroke-linejoin="round" stroke-width="0.5"/>
</svg>