<svg height="216mm" viewBox="0 0 216 216" width="216mm" xmlns="http://www.w3.org/2000/svg">
<path d="M68.08591,47.38971 L85.8255,47.38971 L85.8255,85.8255 L68.08591,85.8255 L68.08591,47.38971" fill="none" id="outline-0" stroke="black" stroke-linecap="round" stroke-linejoin="round" stroke-width="0.5"/>
<path d="M67.901115,47.20492 L86.01029,47.20492 L86.01029,86.01029 L67.901115,86.01029 L67.901115,47.20492" fill="none" id="outline-0" stroke="black" stroke-linecap="round" stroke-linejoin="round" stroke-width="0.5"/>
<path d="M67.53154,46.835346 L86.37987,46.835346 L86.37987,86.37987 L67.53154,86.37987 L67.53154,46.835346" fill="none" id="outline-0" stroke="black" stroke-linecap="round" stroke-linejoin="round" stroke-width="0.5"/>
<path d="M67.16197,46.46577 L86.74944,46.46577 L86.74944,86.74944 L67.16197,86.74944 L67.16197,46.46577" fill="none" id="outline-0" stroke="black" stroke-linecap="round" stroke-linejoin="round" stroke-width="0.5"/>
<path d="M66.7924,46.096195 L87.11902,46.096195 L87.11902,87.11902 L66.7924,87.11902 L66.7924,46.096195" fill="none" id="outline-0" stroke="black" stroke-linecap="round" stroke-linejoin="round" stroke-width="0.5"/>
<path d="M26.693512,26.693512 L106.5217,26.693512 L106.5217,44.43311 L26.693512,44.43311 L26.693512,26.693512" fill="none" id="outline-0" stroke="black" stroke-linecap="round" stroke-linejoin="round" stroke-width="0.5"/>
<path d="M26.508724,26.508724 L106.70649,26.508724 L106.70649,44.617897 L26.508724,44.617897 L26.508724,26.508724" fill="none" id="outline-0" stroke="black" stroke-linecap="round" stroke-linejoin="round" stroke-width="0.5"/>
<path d="M26.13915,26.13915 L107.076065,26.13915 L107.076065,44.987473 L26.13915,44.987473 L26.13915,26.13915" fill="none" id="outline-0" stroke="black" stroke-linecap="round" stroke-linejoin="round" stroke-width="0.5"/>
<path d="M25.769575,25.769575 L107.44564,25.769575 L107.44564,45.357048 L25.769575,45.357048 L25.769575,25.769575" fill="none" id="outline-0" stroke="black" stroke-linecap="round" stroke-linejoin="round" stroke-width="0.5"/>
<path d="M25.4,25.4 L107.815216,25.4 L107.815216,45.726624 L25.4,45.726624 L25.4,25.4" fill="none" id="outline-0" stroke="black" stroke-linecap="round" stroke-linejoin="round" stroke-width="0.5"/>
<path d="M26.693512,47.38971 L65.1293,47.38971 L65.1293,106.5217 L26.693512,106.5217 L26.693512,47.38971" fill="none" id="outline-0" stroke="black" stroke-linecap="round" stroke-linejoin="round" stroke-width="0.5"/>
<path d="M26.508724,47.20492 L65.314095,47.20492 L65.314095,106.70649 L26.508724,106.70649 L26.508724,47.20492" fill="none" id="outline-0" stroke="black" stroke-linecap="round" stroke-linejoin="round" stroke-width="0.5"/>
<path d="M26.13915,46.835346 L65.68367,46.835346 L65.68367,107.076065 L26.13915,107.076065 L26.13915,46.835346" fill="none" id="outline-0" stroke="black" stroke-linecap="round" stroke-linejoin="round" stroke-width="0.5"/>
<path d="M25.769575,46.46577 L66.053246,46.46577 L66.053246,107.44564 L25.769575,107.44564 L25.769575,46.46577" fill="none" id="outline-0" stroke="black" stroke-linecap="round" stroke-linejoin="round" stroke-width="0.5"/>
<path d="M25.4,46.096195 L66.42282,46.096195 L66.42282,107.815216 L25.4,107.815216 L25.4,46.096195" fill="none" id="outline-0" stroke="black" stroke-linecap="round" stroke-linejoin="round" stroke-width="0.5"/>
<path d="M26.693512,109.4783 L65.1293,109.4783 L65.1293,127.217896 L26.693512,127.217896 L26.693512,109.4783" fill="none" id="outline-0" stroke="black" stroke-linecap="round" stroke-linejoin="round" stroke-width="0.5"/>
<path d="M26.508724,109.29351 L65.314095,109.29351 L65.314095,127.40269 L26.508724,127.40269 L26.508724,109.29351" fill="none" id="outline-0" stroke="black" stroke-linecap="round" stroke-linejoin="round" stroke-width="0.5"/>
<path d="M26.13915,108.923935 L65.68367,108.923935 L65.68367,127.77226 L26.13915,127.77226 L26.13915,108.923935" fill="none" id="outline-0" stroke="black" stroke-linecap="round" stroke-linejoin="round" stroke-width="0.5"/>
<path d="M25.769575,108.55436 L66.053246,108.55436 L66.053246,128.14183 L25.769575,128.14183 L25.769575,108.55436" fill="none" id="outline-0" stroke="black" stroke-linecap="round" stroke-linejoin="round" stroke-width="0.5"/>
<path d="M25.4,108.184784 L66.42282,108.184784 L66.42282,128.51141 L25.4,128.51141 L25.4,108.184784" fill="none" id="outline-0" stroke="black" stroke-linecap="round" stroke-linejoin="round" stroke-width="0.5"/>
<path d="M68.08591,88.782104 L85.8255,88.782104 L85.8255,127.217896 L68.08591,127.217896 L68.08591,88.782104" fill="none" id="outline-0" stroke="black" stroke-linecap="round" stroke-linejoin="round" stroke-width="0.5"/>
<path d="M67.901115,88.59731 L86.01029,88.59731 L86.01029,127.40269 L67.901115,127.40269 L67.901115,88.59731" fill="none" id="outline-0" stroke="black" stroke-linecap="round" stroke-linejoin="round" stroke-width="0.5"/>
<path d="M67.53154,88.22774 L86.37987,88.22774 L86.37987,127.77226 L67.53154,127.77226 L67.53154,88.22774" fill="none" id="outline-0" stroke="black" stroke-linecap="round" stroke-linejoin="round" stroke-width="0.5"/>
<path d="M67.16197,87.85816 L86.74944,87.85816 L86.74944,128.14183 L67.16197,128.14183 L67.16197,87.85816" fill="none" id="outline-0" stroke="black" stroke-linecap="round" stroke-linejoin="round" stroke-width="0.5"/>
<path d="M66.7924,87.488594 L87.11902,87.488594 L87.11902,128.51141 L66.7924,128.51141 L66.7924,87.488594" fill="none" id="outline-0" stroke="black" stroke-linecap="round" stroke-linejoin="round" stroke-width="0.5"/>
<path d="M68.08591,130.1745 L85.8255,130.1745 L85.8255,189.30649 L68.08591,189.30649 L68.08591,130.1745" fill="none" id="outline-0" stroke="black" stroke-linecap="round" stroke-linejoin="round" stroke-width="0.5"/>
<path d="M67.901115,129.98972 L86.01029,129.98972 L86.01029,189.49127 L67.901115,189.49127 L67.901115,129.98972" fill="none" id="outline-0" stroke="black" stroke-linecap="round" stroke-linejoin="round" stroke-width="0.5"/>
<path d="M67.53154,129.62013 L86.37987,129.62013 L86.37987,189.86086 L67.53154,189.86086 L67.53154,129.62013" fill="none" id="outline-0" stroke="black" stroke-linecap="round" stroke-linejoin="round" stroke-width="0.5"/>
<path d="M67.16197,129.25056 L86.74944,129.25056 L86.74944,190.23042 L67.16197,190.23042 L67.16197,129.25056" fill="none" id="outline-0" stroke="black" stroke-linecap="round" stroke-linejoin="round" stroke-width="0.5"/>
<path d="M66.7924,128.88098 L87.11902,128.88098 L87.11902,190.6 L66.7924,190.6 L66.7924,128.88098" fill="none" id="outline-0" stroke="black" stroke-linecap="round" stroke-linejoin="round" stroke-width="0.5"/>
<path d="M109.4783,109.4783 L147.9141,109.4783 L147.9141,127.217896 L109.4783,127.217896 L109.4783,109.4783" fill="none" id="outline-0" stroke="black" stroke-linecap="round" stroke-linejoin="round" stroke-width="0.5"/>
<path d="M109.29351,109.29351 L148.09888,109.29351 L148.09888,127.40269 L109.29351,127.40269 L109.29351,109.29351" fill="none" id="outline-0" stroke="black" stroke-linecap="round" stroke-linejoin="round" stroke-width="0.5"/>
<path d="M108.923935,108.923935 L148.46846,108.923935 L148.46846,127.77226 L108.923935,127.77226 L108.923935,108.923935" fill="none" id="outline-0" stroke="black" stroke-linecap="round" stroke-linejoin="round" stroke-width="0.5"/>
<path d="M108.55436,108.55436 L148.83803,108.55436 L148.83803,128.14183 L108.55436,128.14183 L108.55436,108.55436" fill="none" id="outline-0" stroke="black" stroke-linecap="round" stroke-linejoin="round" stroke-width="0.5"/>
<path d="M108.184784,108.184784 L149.20761,108.184784 L149.20761,128.51141 L108.184784,128.51141 L108.184784,108.184784" fill="none" id="outline-0" stroke="black" stroke-linecap="round" stroke-linejoin="round" stroke-width="0.5"/>
<path d="M150.8707,109.4783 L189.30649,109.4783 L189.30649,127.217896 L150.8707,127.217896 L150.8707,109.4783" fill="none" id="outline-0" stroke="black" stroke-linecap="round" stroke-linejoin="round" stroke-width="0.5"/>
<path d="M150.68591,109.29351 L189.49127,109.29351 L189.49127,127.40269 L150.68591,127.40269 L150.68591,109.29351" fill="none" id="outline-0" stroke="black" stroke-linecap="round" stroke-linejoin="round" stroke-width="0.5"/>
<path d="M150.31633,108.923935 L189.86086,108.923935 L189.86086,127.77226 L150.31633,127.77226 L150.31633,108.923935" fill="none" id="outline-0" stroke="black" stroke-linecap="round" stroke-linejoin="round" stroke-width="0.5"/>
<path d="M149.94676,108.55436 L190.23042,108.55436 L190.23042,128.14183 L149.94676,128.14183 L149.94676,108.55436" fill="none" id="outline-0" stroke="black" stroke-linecap="round" stroke-linejoin="round" stroke-width="0.5"/>
<path d="M149.57718,108.184784 L190.6,108.184784 L190.6,128.51141 L149.57718,128.51141 L149.57718,108.184784" fill="none" id="outline-0" stroke="black" stroke-linecap="round" stroke-linejoin="round" stroke-width="0.5"/>
<path d="M109.4783,88.782104 L147.9141,88.782104 L147.9141,106.5217 L109.4783,106.5217 L109.4783,88.782104" fill="none" id="outline-0" stroke="black" stroke-linecap="round" stroke-linejoin="round" stroke-width="0.5"/>
<path d="M109.29351,88.59731 L148.09888,88.59731 L148.09888,106.70649 L109.29351,106.70649 L109.29351,88.59731" fill="none" id="outline-0" stroke="black" stroke-linecap="round" stroke-linejoin="round" stroke-width="0.5"/>
<path d="M108.923935,88.22774 L148.46846,88.22774 L148.46846,107.076065 L108.923935,107.076065 L108.923935,88.22774" fill="none" id="outline-0" stroke="black" stroke-linecap="round" stroke-linejoin="round" stroke-width="0.5"/>
<path d="M108.55436,87.85816 L148.83803,87.85816 L148.83803,107.44564 L108.55436,107.44564 L108.55436,87.85816" fill="none" id="outline-0" stroke="black" stroke-linecap="round" stroke-linejoin="round" stroke-width="0.5"/>
<path d="M108.184784,87.488594 L149.20761,87.488594 L149.20761,107.815216 L108.184784,107.815216 L108.184784,87.488594" fill="none" id="outline-0" stroke="black" stroke-linecap="round" stroke-linejoin="round" stroke-width="0.5"/>
<path d="M150.8707,88.782104 L189.30649,88.782104 L189.30649,106.5217 L150.8707,106.5217 L150.8707,88.782104" fill="none" id="outline-0" stroke="black" stroke-linecap="round" stroke-linejoin="round" stroke-width="0.5"/>
<path d="M150.68591,88.59731 L189.49127,88.59731 L189.49127,106.70649 L150.68591,106.70649 L150.68591,88.59731" fill="none" id="outline-0" stroke="black" stroke-linecap="round" stroke-linejoin="round" stroke-width="0.5"/>
<path d="M150.31633,88.22774 L189.86086,88.22774 L189.86086,107.076065 L150.31633,107.076065 L150.31633,88.22774" fill="none" id="outline-0" stroke="black" stroke-linecap="round" stroke-linejoin="round" stroke-width="0.5"/>
<path d="M149.94676,87.85816 L190.23042,87.85816 L190.23042,107.44564 L149.94676,107.44564 L149.94676,87.85816" fill="none" id="outline-0" stroke="black" stroke-linecap="round" stroke-linejoin="round" stroke-width="0.5"/>
<path d="M149.57718,87.488594 L190.6,87.488594 L190.6,107.815216 L149.57718,107.815216 L149.57718,87.488594" fill="none" id="outline-0" stroke="black" stroke-linecap="round" stroke-linejoin="round" stroke-width="0.5"/>
<path d="M109.4783,26.693512 L147.9141,26.693512 L147.9141,44.43311 L109.4783,44.43311 L109.4783,26.693512" fill="none" id="outline-0" stroke="black" stroke-linecap="round" stroke-linejoin="round" stroke-width="0.5"/>
<path d="M109.29351,26.508724 L148.09888,26.508724 L148.09888,44.617897 L109.29351,44.617897 L109.29351,26.508724" fill="none" id="outline-0" stroke="black" stroke-linecap="round" stroke-linejoin="round" stroke-width="0.5"/>
<path d="M108.923935,26.13915 L148.46846,26.13915 L148.46846,44.987473 L108.923935,44.987473 L108.923935,26.13915" fill="none" id="outline-0" stroke="black" stroke-linecap="round" stroke-linejoin="round" stroke-width="0.5"/>
<path d="M108.55436,25.769575 L148.83803,25.769575 L148.83803,45.357048 L108.55436,45.357048 L108.55436,25.769575" fill="none" id="outline-0" stroke="black" stroke-linecap="round" stroke-linejoin="round" stroke-width="0.5"/>
<path d="M108.184784,25.4 L149.20761,25.4 L149.20761,45.726624 L108.184784,45.726624 L108.184784,25.4" fill="none" id="outline-0" stroke="black" stroke-linecap="round" stroke-linejoin="round" stroke-width="0.5"/>
<path d="M88.782104,47.38971 L147.9141,47.38971 L147.9141,85.8255 L88.782104,85.8255 L88.782104,47.38971" fill="none" id="outline-0" stroke="black" stroke-linecap="round" stroke-linejoin="round" stroke-width="0.5"/>
<path d="M147.58679,47.685368 L147.61844,47.717014 M147.61844,48.135143 L147.16866,47.685368 M146.75053,47.685368 L147.61844,48.55327 M147.61844,48.971394 L146.33241,47.685368 M145.91428,47.685368 L147.61844,49.38952 M147.61844,49.807648 L145.49615,47.685368 M145.07803,47.685368 L147.61844,50.225773 M147.61844,50.643898 L144.6599,47.685368 M144.24178,47.685368 L147.61844,51.062027 M147.61844,51.480152 L143.82365,47.685368 M143.40552,47.685368 L147.61844,51.898277 M147.61844,52.316406 L142.9874,47.685368 M142.56927,47.685368 L147.61844,52.73453 M147.61844,53.152657 L142.15114,47.685368 M141.73302,47.685368 L147.61844,53.57078 M147.61844,53.98891 L141.3149,47.685368 M140.89677,47.685368 L147.61844,54.407036 M147.61844,54.82516 L140.47864,47.685368 M140.06052,47.685368 L147.61844,55.24329 M147.61844,55.661415 L139.6424,47.685368 M139.22426,47.685368 L147.61844,56.07954 M147.61844,56.49767 L138.80614,47.685368 M138.38802,47.685368 L147.61844,56.915794 M147.61844,57.33392 L137.96988,47.685368 M137.55176,47.685368 L147.61844,57.75205 M147.61844,58.170174 L137.13364,47.685368 M136.7155,47.685368 L147.61844,58.5883 M147.61844,59.006424 L136.29738,47.685368 M135.87926,47.685368 L147.61844,59.424553 M147.61844,59.842678 L135.46112,47.685368 M135.043,47.685368 L147.61844,60.260803 M147.61844,60.678932 L134.62488,47.685368 M134.20674,47.685368 L147.61844,61.097057 M147.61844,61.515182 L133.78862,47.685368 M133.3705,47.685368 L147.61844,61.93331 M147.61844,62.351437 L132.95236,47.685368 M132.53424,47.685368 L147.61844,62.76956 M147.61844,63.18769 L132.11612,47.685368 M131.69798,47.685368 L147.61844,63.605816 M147.61844,64.02394 L131.27986,47.685368 M130.86174,47.685368 L147.61844,64.44207 M147.61844,64.86019 L130.4436,47.685368 M130.02548,47.685368 L147.61844,65.27832 M147.61844,65.69645 L129.60736,47.685368 M129.18922,47.685368 L147.61844,66.11457 M147.61844,66.5327 L128.7711,47.685368 M128.35298,47.685368 L147.61844,66.95083 M147.61844,67.36895 L127.93485,47.685368 M127.51672,47.685368 L147.61844,67.78708 M147.61844,68.20521 L127.098595,47.685368 M126.68047,47.685368 L147.61844,68.62333 M147.61844,69.04146 L126.262344,47.685368 M125.84422,47.685368 L147.61844,69.45959 M147.61844,69.87771 L125.426094,47.685368 M125.007965,47.685368 L147.61844,70.29584 M147.61844,70.71397 L124.58984,47.685368 M124.171715,47.685368 L147.61844,71.13209 M147.61844,71.55022 L123.753586,47.685368 M123.335464,47.685368 L147.61844,71.96834 M147.61844,72.38647 L122.917336,47.685368 M122.49921,47.685368 L147.61844,72.804596 M147.61844,73.22272 L122.081085,47.685368 M121.66296,47.685368 L147.61844,73.64085 M147.61844,74.058975 L121.24483,47.685368 M120.826706,47.685368 L147.61844,74.4771 M147.61844,74.895226 L120.40858,47.685368 M119.99045,47.685368 L147.61844,75.313354 M147.61844,75.731476 L119.57233,47.685368 M119.1542,47.685368 L147.61844,76.149605 M147.61844,76.56773 L118.73607,47.685368 M118.31795,47.685368 L147.61844,76.985855 M147.61844,77.403984 L117.89982,47.685368 M117.48169,47.685368 L147.61844,77.82211 M147.61844,78.240234 L117.06357,47.685368 M116.64544,47.685368 L147.61844,78.65836 M147.61844,79.07649 L116.22732,47.685368 M115.80919,47.685368 L147.61844,79.49461 M147.61844,79.91274 L115.39106,47.685368 M114.97294,47.685368 L147.61844,80.33087 M147.61844,80.74899 L114.55481,47.685368 M114.13668,47.685368 L147.61844,81.16712 M147.61844,81.58524 L113.71856,47.685368 M113.30043,47.685368 L147.61844,82.00337 M147.61844,82.4215 L112.8823,47.685368 M112.46418,47.685368 L147.61844,82.83962 M147.61844,83.25775 L112.04605,47.685368 M111.62792,47.685368 L147.61844,83.67588 M147.61844,84.094 L111.2098,47.685368 M110.79167,47.685368 L147.61844,84.51213 M147.61844,84.93026 L110.37354,47.685368 M109.95542,47.685368 L147.61844,85.34838 M147.38177,85.52985 L109.53729,47.685368 M109.11916,47.685368 L146.96364,85.52985 M146.54552,85.52985 L108.70104,47.685368 M108.28291,47.685368 L146.1274,85.52985 M145.70926,85.52985 L107.864784,47.685368 M107.44666,47.685368 L145.29114,85.52985 M144.87302,85.52985 L107.028534,47.685368 M106.61041,47.685368 L144.45488,85.52985 M144.03676,85.52985 L106.19228,47.685368 M105.774155,47.685368 L143.61864,85.52985 M143.2005,85.52985 L105.35603,47.685368 M104.937904,47.685368 L142.78238,85.52985 M142.36426,85.52985 L104.519775,47.685368 M104.101654,47.685368 L141.94612,85.52985 M141.528,85.52985 L103.683525,47.685368 M103.265396,47.685368 L141.10988,85.52985 M140.69174,85.52985 L102.847275,47.685368 M102.429146,47.685368 L140.27362,85.52985 M139.8555,85.52985 L102.01102,47.685368 M101.592896,47.685368 L139.43736,85.52985 M139.01924,85.52985 L101.17477,47.685368 M100.75664,47.685368 L138.60112,85.52985 M138.18298,85.52985 L100.33852,47.685368 M99.92039,47.685368 L137.76486,85.52985 M137.34674,85.52985 L99.50226,47.685368 M99.08414,47.685368 L136.9286,85.52985 M136.51048,85.52985 L98.66601,47.685368 M98.24788,47.685368 L136.09236,85.52985 M135.67422,85.52985 L97.82976,47.685368 M97.41163,47.685368 L135.2561,85.52985 M134.83798,85.52985 L96.9935,47.685368 M96.57538,47.685368 L134.41985,85.52985 M134.00172,85.52985 L96.15725,47.685368 M95.73913,47.685368 L133.5836,85.52985 M133.16547,85.52985 L95.321,47.685368 M94.90287,47.685368 L132.74734,85.52985 M132.32922,85.52985 L94.48475,47.685368 M94.06662,47.685368 L131.91109,85.52985 M131.49297,85.52985 L93.64849,47.685368 M93.23037,47.685368 L131.07484,85.52985 M130.65671,85.52985 L92.81224,47.685368 M92.39411,47.685368 L130.23859,85.52985 M129.82047,85.52985 L91.97599,47.685368 M91.55786,47.685368 L129.40233,85.52985 M128.9842,85.52985 L91.13973,47.685368 M90.72161,47.685368 L128.56609,85.52985 M128.14795,85.52985 L90.30348,47.685368 M89.88535,47.685368 L127.72983,85.52985 M127.31171,85.52985 L89.46723,47.685368 M89.07777,47.714027 L126.89358,85.52985 M126.47545,85.52985 L89.07777,48.132156 M89.07777,48.55028 L126.05733,85.52985 M125.6392,85.52985 L89.07777,48.968407 M89.07777,49.386536 L125.22107,85.52985 M124.80295,85.52985 L89.07777,49.80466 M89.07777,50.222786 L124.38482,85.52985 M123.96669,85.52985 L89.07777,50.64091 M89.07777,51.05904 L123.54857,85.52985 M123.13044,85.52985 L89.07777,51.477165 M89.07777,51.89529 L122.71231,85.52985 M122.29419,85.52985 L89.07777,52.31342 M89.07777,52.731544 L121.87606,85.52985 M121.45794,85.52985 L89.07777,53.14967 M89.07777,53.5678 L121.03981,85.52985 M120.62168,85.52985 L89.07777,53.985924 M89.07777,54.40405 L120.20356,85.52985 M119.78543,85.52985 L89.07777,54.822174 M89.07777,55.240303 L119.3673,85.52985 M118.94918,85.52985 L89.07777,55.65843 M89.07777,56.076553 L118.53105,85.52985 M118.11292,85.52985 L89.07777,56.494682 M89.07777,56.912807 L117.6948,85.52985 M117.27667,85.52985 L89.07777,57.330933 M89.07777,57.74906 L116.85854,85.52985 M116.44042,85.52985 L89.07777,58.167187 M89.07777,58.58531 L116.02229,85.52985 M115.604164,85.52985 L89.07777,59.00344 M89.07777,59.421566 L115.18604,85.52985 M114.767914,85.52985 L89.07777,59.83969 M89.07777,60.257816 L114.349785,85.52985 M113.93166,85.52985 L89.07777,60.675945 M89.07777,61.09407 L113.513535,85.52985 M113.095406,85.52985 L89.07777,61.512196 M89.07777,61.930325 L112.677284,85.52985 M112.259155,85.52985 L89.07777,62.34845 M89.07777,62.766575 L111.841034,85.52985 M111.422905,85.52985 L89.07777,63.184704 M89.07777,63.60283 L111.004776,85.52985 M110.586655,85.52985 L89.07777,64.02096 M89.07777,64.43908 L110.168526,85.52985 M109.7504,85.52985 L89.07777,64.85721 M89.07777,65.27534 L109.332275,85.52985 M108.91415,85.52985 L89.07777,65.69346 M89.07777,66.11159 L108.49602,85.52985 M108.077896,85.52985 L89.07777,66.52972 M89.07777,66.94784 L107.65977,85.52985 M107.24164,85.52985 L89.07777,67.36597 M89.07777,67.78409 L106.82352,85.52985 M106.40539,85.52985 L89.07777,68.20222 M89.07777,68.620346 L105.98726,85.52985 M105.56914,85.52985 L89.07777,69.03847 M89.07777,69.4566 L105.15101,85.52985 M104.73288,85.52985 L89.07777,69.874725 M89.07777,70.29285 L104.31476,85.52985 M103.89663,85.52985 L89.07777,70.710976 M89.07777,71.129105 L103.4785,85.52985 M103.06038,85.52985 L89.07777,71.547226 M89.07777,71.965355 L102.64225,85.52985 M102.22413,85.52985 L89.07777,72.383484 M89.07777,72.801605 L101.806,85.52985 M101.38787,85.52985 L89.07777,73.219734 M89.07777,73.63786 L100.96975,85.52985 M100.55162,85.52985 L89.07777,74.055984 M89.07777,74.47411 L100.13349,85.52985 M99.71537,85.52985 L89.07777,74.89224 M89.07777,75.31036 L99.29724,85.52985 M98.87911,85.52985 L89.07777,75.72849 M89.07777,76.14662 L98.46099,85.52985 M98.04286,85.52985 L89.07777,76.56474 M89.07777,76.98287 L97.62473,85.52985 M97.20661,85.52985 L89.07777,77.401 M89.07777,77.81912 L96.78848,85.52985 M96.37035,85.52985 L89.07777,78.23725 M89.07777,78.65537 L95.95223,85.52985 M95.5341,85.52985 L89.07777,79.0735 M89.07777,79.49163 L95.115974,85.52985 M94.69785,85.52985 L89.07777,79.90975 M89.07777,80.32788 L94.279724,85.52985 M93.861595,85.52985 L89.07777,80.74601 M89.07777,81.16413 L93.443474,85.52985 M93.025345,85.52985 L89.07777,81.58226 M89.07777,82.00039 L92.607216,85.52985 M92.189095,85.52985 L89.07777,82.41851 M89.07777,82.83664 L91.770966,85.52985 M91.352844,85.52985 L89.07777,83.25477 M89.07777,83.67289 L90.934715,85.52985 M90.51659,85.52985 L89.07777,84.09102 M89.07777,84.50915 L90.098465,85.52985 M89.680336,85.52985 L89.07777,84.92727 M89.07777,85.3454 L89.26221,85.52985" fill="none" id="fill-0" stroke="#D40920" stroke-linecap="round" stroke-linejoin="round" stroke-width="0.5"/>
<path d="M88.59731,47.20492 L148.09888,47.20492 L148.09888,86.01029 L88.59731,86.01029 L88.59731,47.20492" fill="none" id="outline-1" stroke="black" stroke-linecap="round" stroke-linejoin="round" stroke-width="0.5"/>
<path d="M88.22774,46.835346 L148.46846,46.835346 L148.46846,86.37987 L88.22774,86.37987 L88.22774,46.835346" fill="none" id="outline-1" stroke="black" stroke-linecap="round" stroke-linejoin="round" stroke-width="0.5"/>
<path d="M87.85816,46.46577 L148.83803,46.46577 L148.83803,86.74944 L87.85816,86.74944 L87.85816,46.46577" fill="none" id="outline-1" stroke="black" stroke-linecap="round" stroke-linejoin="round" stroke-width="0.5"/>
<path d="M87.488594,46.096195 L149.20761,46.096195 L149.20761,87.11902 L87.488594,87.11902 L87.488594,46.096195" fill="none" id="outline-1" stroke="black" stroke-linecap="round" stroke-linejoin="round" stroke-width="0.5"/>
<path d="M150.8707,47.38971 L189.30649,47.38971 L189.30649,85.8255 L150.8707,85.8255 L150.8707,47.38971" fill="none" id="outline-1" stroke="black" stroke-linecap="round" stroke-linejoin="round" stroke-width="0.5"/>
<path d="M150.68591,47.20492 L189.49127,47.20492 L189.49127,86.01029 L150.68591,86.01029 L150.68591,47.20492" fill="none" id="outline-1" stroke="black" stroke-linecap="round" stroke-linejoin="round" stroke-width="0.5"/>
<path d="M150.31633,46.835346 L189.86086,46.835346 L189.86086,86.37987 L150.31633,86.37987 L150.31633,46.835346" fill="none" id="outline-1" stroke="black" stroke-linecap="round" stroke-linejoin="round" stroke-width="0.5"/>
<path d="M149.94676,46.46577 L190.23042,46.46577 L190.23042,86.74944 L149.94676,86.74944 L149.94676,46.46577" fill="none" id="outline-1" stroke="black" stroke-linecap="round" stroke-linejoin="round" stroke-width="0.5"/>
<path d="M149.57718,46.096195 L190.6,46.096195 L190.6,87.11902 L149.57718,87.11902 L149.57718,46.096195" fill="none" id="outline-1" stroke="black" stroke-linecap="round" stroke-linejoin="round" stroke-width="0.5"/>
<path d="M150.8707,26.693512 L168.61029,26.693512 L168.61029,44.43311 L150.8707,44.43311 L150.8707,26.693512" fill="none" id="outline-1" stroke="black" stroke-linecap="round" stroke-linejoin="round" stroke-width="0.5"/>
<path d="M150.68591,26.508724 L168.79507,26.508724 L168.79507,44.617897 L150.68591,44.617897 L150.68591,26.508724" fill="none" id="outline-1" stroke="black" stroke-linecap="round" stroke-linejoin="round" stroke-width="0.5"/>
<path d="M150.31633,26.13915 L169.16466,26.13915 L169.16466,44.987473 L150.31633,44.987473 L150.31633,26.13915" fill="none" id="outline-1" stroke="black" stroke-linecap="round" stroke-linejoin="round" stroke-width="0.5"/>
<path d="M149.94676,25.769575 L169.53423,25.769575 L169.53423,45.357048 L149.94676,45.357048 L149.94676,25.769575" fill="none" id="outline-1" stroke="black" stroke-linecap="round" stroke-linejoin="round" stroke-width="0.5"/>
<path d="M149.57718,25.4 L169.90381,25.4 L169.90381,45.726624 L149.57718,45.726624 L149.57718,25.4" fill="none" id="outline-1" stroke="black" stroke-linecap="round" stroke-linejoin="round" stroke-width="0.5"/>
<path d="M171.5669,26.693512 L189.30649,26.693512 L189.30649,44.43311 L171.5669,44.43311 L171.5669,26.693512" fill="none" id="outline-1" stroke="black" stroke-linecap="round" stroke-linejoin="round" stroke-width="0.5"/>
<path d="M171.3821,26.508724 L189.49127,26.508724 L189.49127,44.617897 L171.3821,44.617897 L171.3821,26.508724" fill="none" id="outline-1" stroke="black" stroke-linecap="round" stroke-linejoin="round" stroke-width="0.5"/>
<path d="M171.01253,26.13915 L189.86086,26.13915 L189.86086,44.987473 L171.01253,44.987473 L171.01253,26.13915" fill="none" id="outline-1" stroke="black" stroke-linecap="round" stroke-linejoin="round" stroke-width="0.5"/>
<path d="M170.64296,25.769575 L190.23042,25.769575 L190.23042,45.357048 L170.64296,45.357048 L170.64296,25.769575" fill="none" id="outline-1" stroke="black" stroke-linecap="round" stroke-linejoin="round" stroke-width="0.5"/>
<path d="M170.27338,25.4 L190.6,25.4 L190.6,45.726624 L170.27338,45.726624 L170.27338,25.4" fill="none" id="outline-1" stroke="black" stroke-linecap="round" stroke-linejoin="round" stroke-width="0.5"/>
<path d="M171.5669,130.1745 L189.30649,130.1745 L189.30649,168.61029 L171.5669,168.61029 L171.5669,130.1745" fill="none" id="outline-1" stroke="black" stroke-linecap="round" stroke-linejoin="round" stroke-width="0.5"/>
<path d="M171.3821,129.98972 L189.49127,129.98972 L189.49127,168.79507 L171.3821,168.79507 L171.3821,129.98972" fill="none" id="outline-1" stroke="black" stroke-linecap="round" stroke-linejoin="round" stroke-width="0.5"/>
<path d="M171.01253,129.62013 L189.86086,129.62013 L189.86086,169.16466 L171.01253,169.16466 L171.01253,129.62013" fill="none" id="outline-1" stroke="black" stroke-linecap="round" stroke-linejoin="round" stroke-width="0.5"/>
<path d="M170.64296,129.25056 L190.23042,129.25056 L190.23042,169.53423 L170.64296,169.53423 L170.64296,129.25056" fill="none" id="outline-1" stroke="black" stroke-linecap="round" stroke-linejoin="round" stroke-width="0.5"/>
<path d="M170.27338,128.88098 L190.6,128.88098 L190.6,169.90381 L170.27338,169.90381 L170.27338,128.88098" fill="none" id="outline-1" stroke="black" stroke-linecap="round" stroke-linejoin="round" stroke-width="0.5"/>
<path d="M171.5669,171.5669 L189.30649,171.5669 L189.30649,189.30649 L171.5669,189.30649 L171.5669,171.5669" fill="none" id="outline-1" stroke="black" stroke-linecap="round" stroke-linejoin="round" stroke-width="0.5"/>
<path d="M171.3821,171.3821 L189.49127,171.3821 L189.49127,189.49127 L171.3821,189.49127 L171.3821,171.3821" fill="none" id="outline-1" stroke="black" stroke-linecap="round" stroke-linejoin="round" stroke-width="0.5"/>
<path d="M171.01253,171.01253 L189.86086,171.01253 L189.86086,189.86086 L171.01253,189.86086 L171.01253,171.01253" fill="none" id="outline-1" stroke="black" stroke-linecap="round" stroke-linejoin="round" stroke-width="0.5"/>
<path d="M170.64296,170.64296 L190.23042,170.64296 L190.23042,190.23042 L170.64296,190.23042 L170.64296,170.64296" fill="none" id="outline-1" stroke="black" stroke-linecap="round" stroke-linejoin="round" stroke-width="0.5"/>
<path d="M170.27338,170.27338 L190.6,170.27338 L190.6,190.6 L170.27338,190.6 L170.27338,170.27338" fill="none" id="outline-1" stroke="black" stroke-linecap="round" stroke-linejoin="round" stroke-width="0.5"/>
<path d="M109.4783,130.1745 L168.61029,130.1745 L168.61029,168.61029 L109.4783,168.61029 L109.4783,130.1745" fill="none" id="outline-1" stroke="black" stroke-linecap="round" stroke-linejoin="round" stroke-width="0.5"/>
<path d="M168.28299,130.47015 L168.31464,130.5018 M168.31464,130.91992 L167.86485,130.47015 M167.44673,130.47015 L168.31464,131.33806 M168.31464,131.75618 L167.02861,130.47015 M166.61047,130.47015 L168.31464,132.1743 M168.31464,132.59244 L166.19235,130.47015 M165.77423,130.47015 L168.31464,133.01056 M168.31464,133.42868 L165.3561,130.47015 M164.93797,130.47015 L168.31464,133.84682 M168.31464,134.26494 L164.51985,130.47015 M164.10172,130.47015 L168.31464,134.68306 M168.31464,135.1012 L163.6836,130.47015 M163.26547,130.47015 L168.31464,135.51932 M168.31464,135.93744 L162.84734,130.47015 M162.42921,130.47015 L168.31464,136.35558 M168.31464,136.7737 L162.0111,130.47015 M161.59296,130.47015 L168.31464,137.19182 M168.31464,137.60995 L161.17484,130.47015 M160.75671,130.47015 L168.31464,138.02808 M168.31464,138.4462 L160.33858,130.47015 M159.92046,130.47015 L168.31464,138.86433 M168.31464,139.28246 L159.50233,130.47015 M159.08421,130.47015 L168.31464,139.70058 M168.31464,140.11871 L158.66608,130.47015 M158.24796,130.47015 L168.31464,140.53683 M168.31464,140.95496 L157.82983,130.47015 M157.4117,130.47015 L168.31464,141.3731 M168.31464,141.79121 L156.99358,130.47015 M156.57545,130.47015 L168.31464,142.20934 M168.31464,142.62747 L156.15732,130.47015 M155.7392,130.47015 L168.31464,143.0456 M168.31464,143.46371 L155.32108,130.47015 M154.90294,130.47015 L168.31464,143.88185 M168.31464,144.29997 L154.48482,130.47015 M154.0667,130.47015 L168.31464,144.7181 M168.31464,145.13623 L153.64856,130.47015 M153.23044,130.47015 L168.31464,145.55435 M168.31464,145.97247 L152.81232,130.47015 M152.39418,130.47015 L168.31464,146.39061 M168.31464,146.80873 L151.97606,130.47015 M151.55794,130.47015 L168.31464,147.22685 M168.31464,147.64499 L151.1398,130.47015 M150.72168,130.47015 L168.31464,148.06311 M168.31464,148.48123 L150.30356,130.47015 M149.88542,130.47015 L168.31464,148.89935 M168.31464,149.31749 L149.4673,130.47015 M149.04918,130.47015 L168.31464,149.73561 M168.31464,150.15373 L148.63104,130.47015 M148.21292,130.47015 L168.31464,150.57187 M168.31464,150.98999 L147.7948,130.47015 M147.37666,130.47015 L168.31464,151.40811 M168.31464,151.82625 L146.95854,130.47015 M146.54042,130.47015 L168.31464,152.24437 M168.31464,152.66249 L146.12228,130.47015 M145.70416,130.47015 L168.31464,153.08063 M168.31464,153.49875 L145.28604,130.47015 M144.8679,130.47015 L168.31464,153.91687 M168.31464,154.335 L144.44978,130.47015 M144.03166,130.47015 L168.31464,154.75313 M168.31464,155.17125 L143.61353,130.47015 M143.1954,130.47015 L168.31464,155.58939 M168.31464,156.0075 L142.77728,130.47015 M142.35915,130.47015 L168.31464,156.42563 M168.31464,156.84377 L141.94102,130.47015 M141.5229,130.47015 L168.31464,157.26189 M168.31464,157.68001 L141.10477,130.47015 M140.68665,130.47015 L168.31464,158.09814 M168.31464,158.51627 L140.26852,130.47015 M139.8504,130.47015 L168.31464,158.93439 M168.31464,159.35252 L139.43227,130.47015 M139.01414,130.47015 L168.31464,159.77065 M168.31464,160.18877 L138.59602,130.47015 M138.17789,130.47015 L168.31464,160.6069 M168.31464,161.02502 L137.75977,130.47015 M137.34164,130.47015 L168.31464,161.44315 M168.31464,161.86128 L136.92351,130.47015 M136.50539,130.47015 L168.31464,162.2794 M168.31464,162.69753 L136.08727,130.47015 M135.66913,130.47015 L168.31464,163.11566 M168.31464,163.53378 L135.251,130.47015 M134.83289,130.47015 L168.31464,163.9519 M168.31464,164.37004 L134.41475,130.47015 M133.99663,130.47015 L168.31464,164.78816 M168.31464,165.20628 L133.5785,130.47015 M133.16037,130.47015 L168.31464,165.62442 M168.31464,166.04254 L132.74225,130.47015 M132.32413,130.47015 L168.31464,166.46066 M168.31464,166.8788 L131.90599,130.47015 M131.48787,130.47015 L168.31464,167.29692 M168.31464,167.71504 L131.06975,130.47015 M130.65161,130.47015 L168.31464,168.13318 M168.07796,168.31464 L130.23349,130.47015 M129.81537,130.47015 L167.65984,168.31464 M167.24171,168.31464 L129.39723,130.47015 M128.97911,130.47015 L166.82358,168.31464 M166.40546,168.31464 L128.56099,130.47015 M128.14285,130.47015 L165.98734,168.31464 M165.56921,168.31464 L127.72473,130.47015 M127.3066,130.47015 L165.15108,168.31464 M164.73296,168.31464 L126.88848,130.47015 M126.47035,130.47015 L164.31483,168.31464 M163.8967,168.31464 L126.05222,130.47015 M125.6341,130.47015 L163.47858,168.31464 M163.06046,168.31464 L125.21597,130.47015 M124.79785,130.47015 L162.64232,168.31464 M162.2242,168.31464 L124.37972,130.47015 M123.96159,130.47015 L161.80608,168.31464 M161.38794,168.31464 L123.54347,130.47015 M123.12534,130.47015 L160.96982,168.31464 M160.5517,168.31464 L122.707214,130.47015 M122.28909,130.47015 L160.13356,168.31464 M159.71544,168.31464 L121.870964,130.47015 M121.452835,130.47015 L159.29732,168.31464 M158.87918,168.31464 L121.03471,130.47015 M120.616585,130.47015 L158.46106,168.31464 M158.04294,168.31464 L120.198456,130.47015 M119.780334,130.47015 L157.6248,168.31464 M157.20668,168.31464 L119.362206,130.47015 M118.94408,130.47015 L156.78856,168.31464 M156.37042,168.31464 L118.525955,130.47015 M118.10783,130.47015 L155.9523,168.31464 M155.53418,168.31464 L117.6897,130.47015 M117.271576,130.47015 L155.11604,168.31464 M154.69792,168.31464 L116.85345,130.47015 M116.43532,130.47015 L154.2798,168.31464 M153.86166,168.31464 L116.0172,130.47015 M115.59907,130.47015 L153.44354,168.31464 M153.02542,168.31464 L115.18094,130.47015 M114.76282,130.47015 L152.60728,168.31464 M152.18916,168.31464 L114.34469,130.47015 M113.92657,130.47015 L151.77104,168.31464 M151.3529,168.31464 L113.50844,130.47015 M113.09031,130.47015 L150.93478,168.31464 M150.51666,168.31464 L112.67219,130.47015 M112.25406,130.47015 L150.09853,168.31464 M149.6804,168.31464 L111.83593,130.47015 M111.41781,130.47015 L149.26228,168.31464 M148.84415,168.31464 L110.99968,130.47015 M110.58155,130.47015 L148.42603,168.31464 M148.0079,168.31464 L110.16343,130.47015 M109.77396,130.49881 L147.58977,168.31464 M147.17165,168.31464 L109.77396,130.91695 M109.77396,131.33507 L146.75352,168.31464 M146.33539,168.31464 L109.77396,131.75319 M109.77396,132.17133 L145.91727,168.31464 M145.49915,168.31464 L109.77396,132.58945 M109.77396,133.00757 L145.08102,168.31464 M144.66289,168.31464 L109.77396,133.4257 M109.77396,133.84383 L144.24477,168.31464 M143.82664,168.31464 L109.77396,134.26195 M109.77396,134.68008 L143.40851,168.31464 M142.99039,168.31464 L109.77396,135.0982 M109.77396,135.51633 L142.57227,168.31464 M142.15413,168.31464 L109.77396,135.93446 M109.77396,136.35258 L141.73601,168.31464 M141.31789,168.31464 L109.77396,136.7707 M109.77396,137.18884 L140.89975,168.31464 M140.48163,168.31464 L109.77396,137.60696 M109.77396,138.02509 L140.0635,168.31464 M139.64537,168.31464 L109.77396,138.44322 M109.77396,138.86134 L139.22725,168.31464 M138.80913,168.31464 L109.77396,139.27946 M109.77396,139.6976 L138.39099,168.31464 M137.97287,168.31464 L109.77396,140.11572 M109.77396,140.53384 L137.55475,168.31464 M137.13661,168.31464 L109.77396,140.95198 M109.77396,141.3701 L136.71849,168.31464 M136.30037,168.31464 L109.77396,141.78822 M109.77396,142.20636 L135.88223,168.31464 M135.46411,168.31464 L109.77396,142.62448 M109.77396,143.0426 L135.04599,168.31464 M134.62785,168.31464 L109.77396,143.46074 M109.77396,143.87886 L134.20973,168.31464 M133.79161,168.31464 L109.77396,144.29698 M109.77396,144.71512 L133.37347,168.31464 M132.95535,168.31464 L109.77396,145.13324 M109.77396,145.55136 L132.53723,168.31464 M132.1191,168.31464 L109.77396,145.96948 M109.77396,146.38762 L131.70097,168.31464 M131.28285,168.31464 L109.77396,146.80574 M109.77396,147.22386 L130.86472,168.31464 M130.4466,168.31464 L109.77396,147.642 M109.77396,148.06012 L130.02847,168.31464 M129.61034,168.31464 L109.77396,148.47824 M109.77396,148.89638 L129.19221,168.31464 M128.7741,168.31464 L109.77396,149.3145 M109.77396,149.73262 L128.35596,168.31464 M127.937836,168.31464 L109.77396,150.15076 M109.77396,150.56888 L127.519714,168.31464 M127.101585,168.31464 L109.77396,150.987 M109.77396,151.40514 L126.68346,168.31464 M126.265335,168.31464 L109.77396,151.82326 M109.77396,152.24138 L125.847206,168.31464 M125.42908,168.31464 L109.77396,152.65952 M109.77396,153.07764 L125.010956,168.31464 M124.59283,168.31464 L109.77396,153.49576 M109.77396,153.9139 L124.1747,168.31464 M123.75658,168.31464 L109.77396,154.33202 M109.77396,154.75014 L123.33845,168.31464 M122.92032,168.31464 L109.77396,155.16827 M109.77396,155.5864 L122.5022,168.31464 M122.08407,168.31464 L109.77396,156.00452 M109.77396,156.42265 L121.66594,168.31464 M121.24782,168.31464 L109.77396,156.84077 M109.77396,157.2589 L120.82969,168.31464 M120.41157,168.31464 L109.77396,157.67703 M109.77396,158.09515 L119.99344,168.31464 M119.57531,168.31464 L109.77396,158.51328 M109.77396,158.93141 L119.15719,168.31464 M118.73906,168.31464 L109.77396,159.34953 M109.77396,159.76765 L118.32093,168.31464 M117.90281,168.31464 L109.77396,160.18579 M109.77396,160.60391 L117.48468,168.31464 M117.06655,168.31464 L109.77396,161.02203 M109.77396,161.44017 L116.64843,168.31464 M116.2303,168.31464 L109.77396,161.85829 M109.77396,162.27641 L115.81217,168.31464 M115.39405,168.31464 L109.77396,162.69455 M109.77396,163.11267 L114.97592,168.31464 M114.55779,168.31464 L109.77396,163.53079 M109.77396,163.94893 L114.13967,168.31464 M113.72154,168.31464 L109.77396,164.36705 M109.77396,164.78517 L113.30341,168.31464 M112.88529,168.31464 L109.77396,165.2033 M109.77396,165.62143 L112.46716,168.31464 M112.049034,168.31464 L109.77396,166.03955 M109.77396,166.45767 L111.63091,168.31464 M111.21278,168.31464 L109.77396,166.87581 M109.77396,167.29393 L110.794655,168.31464 M110.37653,168.31464 L109.77396,167.71205 M109.77396,168.13019 L109.958405,168.31464" fill="none" id="fill-1" stroke="#F7D842" stroke-linecap="round" stroke-linejoin="round" stroke-width="0.5"/>
<path d="M109.29351,129.98972 L168.79507,129.98972 L168.79507,168.79507 L109.29351,168.79507 L109.29351,129.98972" fill="none" id="outline-2" stroke="black" stroke-linecap="round" stroke-linejoin="round" stroke-width="0.5"/>
<path d="M108.923935,129.62013 L169.16466,129.62013 L169.16466,169.16466 L108.923935,169.16466 L108.923935,129.62013" fill="none" id="outline-2" stroke="black" stroke-linecap="round" stroke-linejoin="round" stroke-width="0.5"/>
<path d="M108.55436,129.25056 L169.53423,129.25056 L169.53423,169.53423 L108.55436,169.53423 L108.55436,129.25056" fill="none" id="outline-2" stroke="black" stroke-linecap="round" stroke-linejoin="round" stroke-width="0.5"/>
<path d="M108.184784,128.88098 L169.90381,128.88098 L169.90381,169.90381 L108.184784,169.90381 L108.184784,128.88098" fill="none" id="outline-2" stroke="black" stroke-linecap="round" stroke-linejoin="round" stroke-width="0.5"/>
<path d="M109.4783,171.5669 L168.61029,171.5669 L168.61029,189.30649 L109.4783,189.30649 L109.4783,171.5669" fill="none" id="outline-2" stroke="black" stroke-linecap="round" stroke-linejoin="round" stroke-width="0.5"/>
<path d="M109.29351,171.3821 L168.79507,171.3821 L168.79507,189.49127 L109.29351,189.49127 L109.29351,171.3821" fill="none" id="outline-2" stroke="black" stroke-linecap="round" stroke-linejoin="round" stroke-width="0.5"/>
<path d="M108.923935,171.01253 L169.16466,171.01253 L169.16466,189.86086 L108.923935,189.86086 L108.923935,171.01253" fill="none" id="outline-2" stroke="black" stroke-linecap="round" stroke-linejoin="round" stroke-width="0.5"/>
<path d="M108.55436,170.64296 L169.53423,170.64296 L169.53423,190.23042 L108.55436,190.23042 L108.55436,170.64296" fill="none" id="outline-2" stroke="black" stroke-linecap="round" stroke-linejoin="round" stroke-width="0.5"/>
<path d="M108.184784,170.27338 L169.90381,170.27338 L169.90381,190.6 L108.184784,190.6 L108.184784,170.27338" fill="none" id="outline-2" stroke="black" stroke-linecap="round" stroke-linejoin="round" stroke-width="0.5"/>
<path d="M26.693512,130.1745 L65.1293,130.1745 L65.1293,168.61029 L26.693512,168.61029 L26.693512,130.1745" fill="none" id="outline-2" stroke="black" stroke-linecap="round" stroke-linejoin="round" stroke-width="0.5"/>
<path d="M26.508724,129.98972 L65.314095,129.98972 L65.314095,168.79507 L26.508724,168.79507 L26.508724,129.98972" fill="none" id="outline-2" stroke="black" stroke-linecap="round" stroke-linejoin="round" stroke-width="0.5"/>
<path d="M26.13915,129.62013 L65.68367,129.62013 L65.68367,169.16466 L26.13915,169.16466 L26.13915,129.62013" fill="none" id="outline-2" stroke="black" stroke-linecap="round" stroke-linejoin="round" stroke-width="0.5"/>
<path d="M25.769575,129.25056 L66.053246,129.25056 L66.053246,169.53423 L25.769575,169.53423 L25.769575,129.25056" fill="none" id="outline-2" stroke="black" stroke-linecap="round" stroke-linejoin="round" stroke-width="0.5"/>
<path d="M25.4,128.88098 L66.42282,128.88098 L66.42282,169.90381 L25.4,169.90381 L25.4,128.88098" fill="none" id="outline-2" stroke="black" stroke-linecap="round" stroke-linejoin="round" stroke-width="0.5"/>
<path d="M26.693512,171.5669 L65.1293,171.5669 L65.1293,189.30649 L26.693512,189.30649 L26.693512,171.5669" fill="none" id="outline-2" stroke="black" stroke-linecap="round" stroke-linejoin="round" stroke-width="0.5"/>
<path d="M64.80169,171.86255 L64.83365,171.8945 M64.83365,172.31264 L64.38357,171.86255 M63.96544,171.86255 L64.83365,172.73076 M64.83365,173.14888 L63.547314,171.86255 M63.129185,171.86255 L64.83365,173.56702 M64.83365,173.98514 L62.71106,171.86255 M62.292934,171.86255 L64.83365,174.40326 M64.83365,174.8214 L61.874805,171.86255 M61.45668,171.86255 L64.83365,175.23952 M64.83365,175.65764 L61.038555,171.86255 M60.62043,171.86255 L64.83365,176.07578 M64.83365,176.4939 L60.2023,171.86255 M59.784176,171.86255 L64.83365,176.91202 M64.83365,177.33015 L59.36605,171.86255 M58.94792,171.86255 L64.83365,177.74828 M64.83365,178.1664 L58.529797,171.86255 M58.11167,171.86255 L64.83365,178.58453 M64.83365,179.00266 L57.693542,171.86255 M57.275417,171.86255 L64.83365,179.42078 M64.83365,179.83891 L56.857292,171.86255 M56.439163,171.86255 L64.83365,180.25703 M64.83365,180.67516 L56.021038,171.86255 M55.602913,171.86255 L64.83365,181.09328 M64.83365,181.51141 L55.184788,171.86255 M54.76666,171.86255 L64.83365,181.92953 M64.83365,182.34766 L54.348534,171.86255 M53.93041,171.86255 L64.83365,182.7658 M64.83365,183.18391 L53.51228,171.86255 M53.094154,171.86255 L64.83365,183.60204 M64.83365,184.02017 L52.67603,171.86255 M52.2579,171.86255 L64.83365,184.4383 M64.83365,184.85641 L51.839775,171.86255 M51.42165,171.86255 L64.83365,185.27455 M64.83365,185.69267 L51.00352,171.86255 M50.585396,171.86255 L64.83365,186.1108 M64.83365,186.52893 L50.16727,171.86255 M49.749146,171.86255 L64.83365,186.94705 M64.83365,187.36517 L49.331017,171.86255 M48.91289,171.86255 L64.83365,187.78331 M64.83365,188.20143 L48.494766,171.86255 M48.076637,171.86255 L64.83365,188.61955 M64.78165,188.98569 L47.658512,171.86255 M47.240387,171.86255 L64.388664,189.01083 M63.970535,189.01083 L46.822258,171.86255 M46.404133,171.86255 L63.55241,189.01083 M63.134285,189.01083 L45.986008,171.86255 M45.567883,171.86255 L62.71616,189.01083 M62.29803,189.01083 L45.149754,171.86255 M44.73163,171.86255 L61.879906,189.01083 M61.46178,189.01083 L44.313503,171.86255 M43.895374,171.86255 L61.04365,189.01083 M60.625526,189.01083 L43.47725,171.86255 M43.059124,171.86255 L60.2074,189.01083 M59.789272,189.01083 L42.640995,171.86255 M42.22287,171.86255 L59.371147,189.01083 M58.953022,189.01083 L41.804745,171.86255 M41.386616,171.86255 L58.534893,189.01083 M58.116768,189.01083 L40.96849,171.86255 M40.550365,171.86255 L57.698643,189.01083 M57.280518,189.01083 L40.13224,171.86255 M39.71411,171.86255 L56.86239,189.01083 M56.444263,189.01083 L39.295986,171.86255 M38.87786,171.86255 L56.02614,189.01083 M55.60801,189.01083 L38.459732,171.86255 M38.041607,171.86255 L55.189884,189.01083 M54.77176,189.01083 L37.62348,171.86255 M37.205353,171.86255 L54.35363,189.01083 M53.935505,189.01083 L36.787228,171.86255 M36.369102,171.86255 L53.51738,189.01083 M53.099255,189.01083 L35.950974,171.86255 M35.53285,171.86255 L52.681126,189.01083 M52.263,189.01083 L35.114723,171.86255 M34.696598,171.86255 L51.844875,189.01083 M51.426746,189.01083 L34.27847,171.86255 M33.860344,171.86255 L51.00862,189.01083 M50.590496,189.01083 L33.44222,171.86255 M33.02409,171.86255 L50.172367,189.01083 M49.754242,189.01083 L32.605965,171.86255 M32.18784,171.86255 L49.336117,189.01083 M48.917988,189.01083 L31.769712,171.86255 M31.351585,171.86255 L48.499863,189.01083 M48.081738,189.01083 L30.93346,171.86255 M30.515333,171.86255 L47.663612,189.01083 M47.245483,189.01083 L30.097206,171.86255 M29.679081,171.86255 L46.82736,189.01083 M46.409233,189.01083 L29.260954,171.86255 M28.842829,171.86255 L45.991104,189.01083 M45.57298,189.01083 L28.424702,171.86255 M28.006575,171.86255 L45.154854,189.01083 M44.736725,189.01083 L27.58845,171.86255 M27.170322,171.86255 L44.3186,189.01083 M43.900475,189.01083 L26.989172,172.09953 M26.989172,172.51765 L43.482346,189.01083 M43.06422,189.01083 L26.989172,172.93578 M26.989172,173.35391 L42.646095,189.01083 M42.22797,189.01083 L26.989172,173.77203 M26.989172,174.19016 L41.80984,189.01083 M41.391716,189.01083 L26.989172,174.60829 M26.989172,175.02641 L40.97359,189.01083 M40.55546,189.01083 L26.989172,175.44453 M26.989172,175.86266 L40.137337,189.01083 M39.71921,189.01083 L26.989172,176.28079 M26.989172,176.69891 L39.301083,189.01083 M38.882957,189.01083 L26.989172,177.11703 M26.989172,177.53517 L38.464832,189.01083 M38.046707,189.01083 L26.989172,177.9533 M26.989172,178.37141 L37.62858,189.01083 M37.210453,189.01083 L26.989172,178.78955 M26.989172,179.20767 L36.792328,189.01083 M36.3742,189.01083 L26.989172,179.6258 M26.989172,180.04393 L35.956074,189.01083 M35.53795,189.01083 L26.989172,180.46205 M26.989172,180.88017 L35.11982,189.01083 M34.701694,189.01083 L26.989172,181.29831 M26.989172,181.71643 L34.28357,189.01083 M33.86544,189.01083 L26.989172,182.13455 M26.989172,182.55269 L33.447315,189.01083 M33.02919,189.01083 L26.989172,182.97081 M26.989172,183.38893 L32.611065,189.01083 M32.192936,189.01083 L26.989172,183.80707 M26.989172,184.22519 L31.77481,189.01083 M31.356684,189.01083 L26.989172,184.64331 M26.989172,185.06145 L30.938559,189.01083 M30.520432,189.01083 L26.989172,185.47957 M26.989172,185.89769 L30.102304,189.01083 M29.68418,189.01083 L26.989172,186.31583 M26.989172,186.73395 L29.266052,189.01083 M28.847927,189.01083 L26.989172,187.15207 M26.989172,187.5702 L28.4298,189.01083 M28.011673,189.01083 L26.989172,187.98833 M26.989172,188.40645 L27.593548,189.01083 M27.17542,189.01083 L26.989172,188.82458" fill="none" id="fill-2" stroke="#1356A2" stroke-linecap="round" stroke-linejoin="round" stroke-width="0.5"/>
<path d="M26.508724,171.3821 L65.314095,171.3821 L65.314095,189.49127 L26.508724,189.49127 L26.508724,171.3821" fill="none" id="outline-3" stroke="black" stroke-linecap="round" stroke-linejoin="round" stroke-width="0.5"/>
<path d="M26.13915,171.01253 L65.68367,171.01253 L65.68367,189.86086 L26.13915,189.86086 L26.13915,171.01253" fill="none" id="outline-3" stroke="black" stroke-linecap="round" stroke-linejoin="round" stroke-width="0.5"/>
<path d="M25.769575,170.64296 L66.053246,170.64296 L66.053246,190.23042 L25.769575,190.23042 L25.769575,170.64296" fill="none" id="outline-3" stroke="black" stroke-linecap="round" stroke-linejoin="round" stroke-width="0.5"/>
<path d="M25.4,170.27338 L66.42282,170.27338 L66.42282,190.6 L25.4,190.6 L25.4,170.27338" fill="none" id="outline-3" stroke="black" stroke-linecap="round" stroke-linejoin="round" stroke-width="0.5"/>
<path d="M88.782104,88.782104 L106.5217,88.782104 L106.5217,168.61029 L88.782104,168.61029 L88.782104,88.782104" fill="none" id="outline-3" stroke="black" stroke-linecap="round" stroke-linejoin="round" stroke-width="0.5"/>
<path d="M88.59731,88.59731 L106.70649,88.59731 L106.70649,168.79507 L88.59731,168.79507 L88.59731,88.59731" fill="none" id="outline-3" stroke="black" stroke-linecap="round" stroke-linejoin="round" stroke-width="0.5"/>
<path d="M88.22774,88.22774 L107.076065,88.22774 L107.076065,169.16466 L88.22774,169.16466 L88.22774,88.22774" fill="none" id="outline-3" stroke="black" stroke-linecap="round" stroke-linejoin="round" stroke-width="0.5"/>
<path d="M87.85816,87.85816 L107.44564,87.85816 L107.44564,169.53423 L87.85816,169.53423 L87.85816,87.85816" fill="none" id="outline-3" stroke="black" stroke-linecap="round" stroke-linejoin="round" stroke-width="0.5"/>
<path d="M87.488594,87.488594 L107.815216,87.488594 L107.815216,169.90381 L87.488594,169.90381 L87.488594,87.488594" fill="none" id="outline-3" stroke="black" stroke-linecap="round" stroke-linejoin="round" stroke-width="0.5"/>
<path d="M88.782104,171.5669 L106.5217,171.5669 L106.5217,189.30649 L88.782104,189.30649 L88.782104,171.5669" fill="none" id="outline-3" stroke="black" stroke-linecap="round" stroke-linejoin="round" stroke-width="0.5"/>
<path d="M88.59731,171.3821 L106.70649,171.3821 L106.70649,189.49127 L88.59731,189.49127 L88.59731,171.3821" fill="none" id="outline-3" stroke="black" stroke-linecap="round" stroke-linejoin="round" stroke-width="0.5"/>
<path d="M88.22774,171.01253 L107.076065,171.01253 L107.076065,189.86086 L88.22774,189.86086 L88.22774,171.01253" fill="none" id="outline-3" stroke="black" stroke-linecap="round" stroke-linejoin="round" stroke-width="0.5"/>
<path d="M87.85816,170.64296 L107.44564,170.64296 L107.44564,190.23042 L87.85816,190.23042 L87.85816,170.64296" fill="none" id="outline-3" stroke="black" stroke-linecap="round" stroke-linejoin="round" stroke-width="0.5"/>
<path d="M87.488594,170.27338 L107.815216,170.27338 L107.815216,190.6 L87.488594,190.6 L87.488594,170.27338" fill="none" id="outline-3" stroke="black" stroke-linecap="round" stroke-linejoin="round" stroke-width="0.5"/>
</svg>