<svg height="225mm" viewBox="0 0 225 225" width="225mm" xmlns="http://www.w3.org/2000/svg">
<path d="M15.488585,14.44461 L15.488585,35.833836 L36.87781,35.833836 L36.87781,14.44461 L15.488585,14.44461 M36.87781,14.44461 L36.87781,35.833836 L58.267036,35.833836 L58.267036,14.44461 L36.87781,14.44461 M58.267036,14.44461 L58.267036,35.833836 L79.65626,35.833836 L79.65626,14.44461 L58.267036,14.44461 M79.65626,14.44461 L79.65626,35.833836 L101.04549,35.833836 L101.04549,14.44461 L79.65626,14.44461 M101.04549,14.44461 L101.04549,35.833836 L122.43471,35.833836 L122.43471,14.44461 L101.04549,14.44461 M122.43471,14.44461 L122.43471,35.833836 L143.82393,35.833836 L143.82393,14.44461 L122.43471,14.44461 M143.82393,14.44461 L143.82393,35.833836 L165.21317,35.833836 L165.21317,14.44461 L143.82393,14.44461 M165.21317,14.44461 L165.21317,35.833836 L186.60239,35.833836 L186.60239,14.44461 L165.21317,14.44461 M186.60239,14.44461 L186.60239,35.833836 L207.99161,35.833836 L207.99161,14.44461 L186.60239,14.44461 M15.515495,35.237232 L14.286979,56.591145 L35.640892,57.819664 L36.86941,36.465748 L15.515495,35.237232 M36.203854,36.464424 L37.42987,57.818485 L58.78393,56.59247 L57.557915,35.23841 L36.203854,36.464424 M59.127247,35.91958 L59.29805,57.30812 L80.68659,57.137314 L80.515785,35.74877 L59.127247,35.91958 M80.25547,36.264645 L81.100395,57.637173 L102.47292,56.792248 L101.628,35.41972 L80.25547,36.264645 M101.84185,35.40822 L100.97296,56.779785 L122.34453,57.648678 L123.213425,36.277107 L101.84185,35.40822 M120.976135,36.337055 L121.95994,57.703644 L143.32652,56.719837 L142.34273,35.353252 L120.976135,36.337055 M143.37679,36.339508 L144.36526,57.70588 L165.73164,56.71739 L164.74315,35.351017 L143.37679,36.339508 M165.31029,36.34674 L166.3126,57.712467 L187.67833,56.71015 L186.67601,35.344425 L165.31029,36.34674 M187.13362,35.53376 L186.52481,56.91432 L207.90536,57.523132 L208.51418,36.142574 L187.13362,35.53376 M15.662582,56.099655 L13.282992,77.3561 L34.539436,79.73569 L36.91903,58.479244 L15.662582,56.099655 M37.474243,56.95609 L36.933464,78.33848 L58.315853,78.87926 L58.856632,57.49687 L37.474243,56.95609 M58.93101,57.455853 L59.391636,78.84012 L80.7759,78.37949 L80.31528,56.995228 L58.93101,57.455853 M77.84701,57.81143 L78.99303,79.16993 L100.35153,78.02391 L99.20551,56.665413 L77.84701,57.81143 M99.81458,58.30935 L101.886566,79.597984 L123.1752,77.52599 L121.10321,56.237362 L99.81458,58.30935 M123.08819,58.235756 L125.02565,79.53705 L146.32695,77.59959 L144.38948,56.298294 L123.08819,58.235756 M142.02551,57.117733 L141.81381,78.50591 L163.202,78.717606 L163.41368,57.32943 L142.02551,57.117733 M165.31602,56.107136 L162.95328,77.36546 L184.21161,79.7282 L186.57436,58.469883 L165.31602,56.107136 M185.09647,57.986656 L186.57266,79.32488 L207.91087,77.84869 L206.4347,56.510464 L185.09647,57.986656 M15.265961,79.52235 L17.014496,100.83998 L38.33213,99.091446 L36.583595,77.77381 L15.265961,79.52235 M35.872337,76.96504 L32.272793,98.04921 L53.35696,101.64875 L56.956505,80.56458 L35.872337,76.96504 M59.050762,78.968605 L59.751904,100.34634 L81.12963,99.64519 L80.42849,78.26746 L59.050762,78.968605 M83.53235,77.61079 L81.425316,98.89598 L102.71051,101.003006 L104.817535,79.71781 L83.53235,77.61079 M99.62015,79.564354 L101.4462,100.87549 L122.75733,99.04944 L120.93128,77.738304 L99.62015,79.564354 M121.9846,80.10582 L124.787254,101.31063 L145.99207,98.50797 L143.1894,77.30316 L121.9846,80.10582 M147.19826,78.51434 L147.00146,99.902664 L168.38979,100.09945 L168.58656,78.71113 L147.19826,78.51434 M166.18141,80.59216 L169.82803,101.66824 L190.90411,98.02163 L187.25749,76.94555 L166.18141,80.59216 M185.65349,80.30766 L188.81004,101.462685 L209.96507,98.30613 L206.80852,77.15111 L185.65349,80.30766 M10,101.27745 L12.415103,122.52989 L33.66754,120.11479 L31.252441,98.86235 L10,101.27745 M37.169018,102.60385 L41.854248,123.473625 L62.724022,118.7884 L58.03879,97.91862 L37.169018,102.60385 M56.745564,97.90225 L52.018066,118.7625 L72.87831,123.48999 L77.605804,102.62975 L56.745564,97.90225 M79.84481,101.948616 L83.43548,123.0343 L104.521164,119.44363 L100.93049,98.35794 L79.84481,101.948616 M98.64602,101.491554 L101.442505,122.697174 L122.64813,119.900696 L119.85165,98.69507 L98.64602,101.491554 M123.50694,100.41773 L124.323784,121.79135 L145.6974,120.97451 L144.88057,99.60089 L123.50694,100.41773 M148.6813,98.037254 L144.29906,118.97275 L165.23456,123.35499 L169.61679,102.419495 L148.6813,98.037254 M163.71777,97.959 L159.13634,118.8518 L180.02913,123.43324 L184.61058,102.54044 L163.71777,97.959 M182.91617,99.36192 L181.59624,120.71038 L202.9447,122.03032 L204.26463,100.68186 L182.91617,99.36192 M18.583515,122.1314 L20.016773,143.47255 L41.357925,142.03929 L39.924667,120.69814 L18.583515,122.1314 M32.92204,123.05114 L36.017654,144.21516 L57.181683,141.11955 L54.086067,119.95553 L32.92204,123.05114 M59.16632,122.46894 L61.22357,143.759 L82.51363,141.70175 L80.45638,120.41169 L59.16632,122.46894 M82.58682,121.21402 L82.23042,142.60028 L103.61668,142.95668 L103.973076,121.57042 L82.58682,121.21402 M105.80096,119.06544 L100.47724,139.78154 L121.193344,145.10526 L126.51706,124.38915 L105.80096,119.06544 M118.12591,123.28434 L121.62497,144.38542 L142.72604,140.88635 L139.22699,119.78528 L118.12591,123.28434 M143.12624,124.56559 L148.72908,145.20795 L169.37144,139.6051 L163.76859,118.962746 L143.12624,124.56559 M171.63177,120.37634 L169.49611,141.65868 L190.77846,143.79434 L192.91412,122.51201 L171.63177,120.37634 M181.07707,122.160416 L182.56465,143.49785 L203.90208,142.01028 L202.4145,120.672844 L181.07707,122.160416 M14.241433,142.76558 L14.212641,164.15479 L35.60185,164.18356 L35.63064,142.79437 L14.241433,142.76558 M38.51524,142.79329 L38.54188,164.1825 L59.93109,164.15585 L59.90445,142.76665 L38.51524,142.79329 M58.96657,141.85962 L57.038857,163.1618 L78.34104,165.08952 L80.26875,143.78734 L58.96657,141.85962 M90.126205,140.01886 L83.57654,160.38062 L103.938286,166.93028 L110.48795,146.56853 L90.126205,140.01886 M99.205185,142.82692 L99.29889,164.21593 L120.68791,164.12222 L120.59421,142.73322 L99.205185,142.82692 M119.269585,143.8685 L121.34566,165.15672 L142.6339,163.08064 L140.55782,141.79242 L119.269585,143.8685 M141.72144,145.39253 L146.42337,166.25854 L167.28938,161.55661 L162.58746,140.6906 L141.72144,145.39253 M169.88837,140.13525 L163.6773,160.60283 L184.14488,166.81389 L190.35594,146.34631 L169.88837,140.13525 M183.0529,143.16461 L183.80885,164.54048 L205.18471,163.78453 L204.42877,142.40866 L183.0529,143.16461 M19.164497,164.85118 L20.487532,186.19945 L41.8358,184.87642 L40.512764,163.52815 L19.164497,164.85118 M31.482487,168.65408 L39.06368,188.6547 L59.06429,181.0735 L51.4831,161.07289 L31.482487,168.65408 M63.30526,162.8338 L60.441986,184.03052 L81.6387,186.89378 L84.50197,165.69708 L63.30526,162.8338 M84.30103,162.73909 L81.217384,183.90486 L102.38316,186.98851 L105.466805,165.82272 L84.30103,162.73909 M103.46401,169.22784 L111.86321,188.89896 L131.53432,180.49976 L123.13512,160.82864 L103.46401,169.22784 M122.38803,167.68413 L128.52007,188.1755 L149.01146,182.04347 L142.87941,161.55208 L122.38803,167.68413 M145.79407,163.72508 L144.88661,185.09506 L166.25659,186.0025 L167.16403,164.63254 L145.79407,163.72508 M173.33887,161.96158 L168.32855,182.7557 L189.12268,187.76602 L194.133,166.9719 L173.33887,161.96158 M194.05475,162.22348 L189.71938,183.16873 L210.66463,187.5041 L215,166.55887 L194.05475,162.22348 M13.941704,189.3859 L20.550196,209.72864 L40.89293,203.12015 L34.28444,182.7774 L13.941704,189.3859 M40.599056,186.62224 L42.630085,207.91483 L63.92266,205.8838 L61.891636,184.59122 L40.599056,186.62224 M67.875755,182.53253 L60.51903,202.61679 L80.603294,209.97351 L87.960014,189.88925 L67.875755,182.53253 M77.88391,187.07681 L80.730446,208.27577 L101.92941,205.42923 L99.08287,184.23027 L77.88391,187.07681 M90.493385,191.33452 L99.87725,210.55539 L119.09813,201.17152 L109.714264,181.95065 L90.493385,191.33452 M129.84352,182.55807 L122.567116,202.67157 L142.68062,209.94797 L149.95702,189.83447 L129.84352,182.55807 M141.06958,189.81934 L148.32375,209.94087 L168.44528,202.6867 L161.19112,182.56517 L141.06958,189.81934 M168.8782,182.21837 L160.48073,201.8902 L180.15256,210.28769 L188.55005,190.61584 L168.8782,182.21837 M191.3169,182.80717 L184.79625,203.17824 L205.16731,209.69887 L211.68796,189.32782 L191.3169,182.80717" fill="none" stroke="black" stroke-linecap="square" stroke-linejoin="square" stroke-width="1"/>
</svg>