<svg height="216mm" viewBox="0 0 216 216" width="216mm" xmlns="http://www.w3.org/2000/svg">
<path d="M68.08591,47.38971 L85.8255,47.38971 L85.8255,85.8255 L68.08591,85.8255 L68.08591,47.38971" fill="none" id="outline-0" stroke="black" stroke-linecap="round" stroke-linejoin="round" stroke-width="0.5"/>
<path d="M67.901115,47.20492 L86.01029,47.20492 L86.01029,86.01029 L67.901115,86.01029 L67.901115,47.20492" fill="none" id="outline-0" stroke="black" stroke-linecap="round" stroke-linejoin="round" stroke-width="0.5"/>
<path d="M67.53154,46.835346 L86.37987,46.835346 L86.37987,86.37987 L67.53154,86.37987 L67.53154,46.835346" fill="none" id="outline-0" stroke="black" stroke-linecap="round" stroke-linejoin="round" stroke-width="0.5"/>
<path d="M67.16197,46.46577 L86.74944,46.46577 L86.74944,86.74944 L67.16197,86.74944 L67.16197,46.46577" fill="none" id="outline-0" stroke="black" stroke-linecap="round" stroke-linejoin="round" stroke-width="0.5"/>
<path d="M66.7924,46.096195 L87.11902,46.096195 L87.11902,87.11902 L66.7924,87.11902 L66.7924,46.096195" fill="none" id="outline-0" stroke="black" stroke-linecap="round" stroke-linejoin="round" stroke-width="0.5"/>
<path d="M26.693512,26.693512 L106.5217,26.693512 L106.5217,44.43311 L26.693512,44.43311 L26.693512,26.693512" fill="none" id="outline-0" stroke="black" stroke-linecap="round" stroke-linejoin="round" stroke-width="0.5"/>
<path d="M26.508724,26.508724 L106.70649,26.508724 L106.70649,44.617897 L26.508724,44.617897 L26.508724,26.508724" fill="none" id="outline-0" stroke="black" stroke-linecap="round" stroke-linejoin="round" stroke-width="0.5"/>
<path d="M26.13915,26.13915 L107.076065,26.13915 L107.076065,44.987473 L26.13915,44.987473 L26.13915,26.13915" fill="none" id="outline-0" stroke="black" stroke-linecap="round" stroke-linejoin="round" stroke-width="0.5"/>
<path d="M25.769575,25.769575 L107.44564,25.769575 L107.44564,45.357048 L25.769575,45.357048 L25.769575,25.769575" fill="none" id="outline-0" stroke="black" stroke-linecap="round" stroke-linejoin="round" stroke-width="0.5"/>
<path d="M25.4,25.4 L107.815216,25.4 L107.815216,45.726624 L25.4,45.726624 L25.4,25.4" fill="none" id="outline-0" stroke="black" stroke-linecap="round" stroke-linejoin="round" stroke-width="0.5"/>
<path d="M26.693512,47.38971 L65.1293,47.38971 L65.1293,106.5217 L26.693512,106.5217 L26.693512,47.38971" fill="none" id="outline-0" stroke="black" stroke-linecap="round" stroke-linejoin="round" stroke-width="0.5"/>
<path d="M26.508724,47.20492 L65.314095,47.20492 L65.314095,106.70649 L26.508724,106.70649 L26.508724,47.20492" fill="none" id="outline-0" stroke="black" stroke-linecap="round" stroke-linejoin="round" stroke-width="0.5"/>
<path d="M26.13915,46.835346 L65.68367,46.835346 L65.68367,107.076065 L26.13915,107.076065 L26.13915,46.835346" fill="none" id="outline-0" stroke="black" stroke-linecap="round" stroke-linejoin="round" stroke-width="0.5"/>
<path d="M25.769575,46.46577 L66.053246,46.46577 L66.053246,107.44564 L25.769575,107.44564 L25.769575,46.46577" fill="none" id="outline-0" stroke="black" stroke-linecap="round" stroke-linejoin="round" stroke-width="0.5"/>
<path d="M25.4,46.096195 L66.42282,46.096195 L66.42282,107.815216 L25.4,107.815216 L25.4,46.096195" fill="none" id="outline-0" stroke="black" stroke-linecap="round" stroke-linejoin="round" stroke-width="0.5"/>
<path d="M26.693512,109.4783 L65.1293,109.4783 L65.1293,127.217896 L26.693512,127.217896 L26.693512,109.4783" fill="none" id="outline-0" stroke="black" stroke-linecap="round" stroke-linejoin="round" stroke-width="0.5"/>
<path d="M26.508724,109.29351 L65.314095,109.29351 L65.314095,127.40269 L26.508724,127.40269 L26.508724,109.29351" fill="none" id="outline-0" stroke="black" stroke-linecap="round" stroke-linejoin="round" stroke-width="0.5"/>
<path d="M26.13915,108.923935 L65.68367,108.923935 L65.68367,127.77226 L26.13915,127.77226 L26.13915,108.923935" fill="none" id="outline-0" stroke="black" stroke-linecap="round" stroke-linejoin="round" stroke-width="0.5"/>
<path d="M25.769575,108.55436 L66.053246,108.55436 L66.053246,128.14183 L25.769575,128.14183 L25.769575,108.55436" fill="none" id="outline-0" stroke="black" stroke-linecap="round" stroke-linejoin="round" stroke-width="0.5"/>
<path d="M25.4,108.184784 L66.42282,108.184784 L66.42282,128.51141 L25.4,128.51141 L25.4,108.184784" fill="none" id="outline-0" stroke="black" stroke-linecap="round" stroke-linejoin="round" stroke-width="0.5"/>
<path d="M68.08591,88.782104 L85.8255,88.782104 L85.8255,127.217896 L68.08591,127.217896 L68.08591,88.782104" fill="none" id="outline-0" stroke="black" stroke-linecap="round" stroke-linejoin="round" stroke-width="0.5"/>
<path d="M67.901115,88.59731 L86.01029,88.59731 L86.01029,127.40269 L67.901115,127.40269 L67.901115,88.59731" fill="none" id="outline-0" stroke="black" stroke-linecap="round" stroke-linejoin="round" stroke-width="0.5"/>
<path d="M67.53154,88.22774 L86.37987,88.22774 L86.37987,127.77226 L67.53154,127.77226 L67.53154,88.22774" fill="none" id="outline-0" stroke="black" stroke-linecap="round" stroke-linejoin="round" stroke-width="0.5"/>
<path d="M67.16197,87.85816 L86.74944,87.85816 L86.74944,128.14183 L67.16197,128.14183 L67.16197,87.85816" fill="none" id="outline-0" stroke="black" stroke-linecap="round" stroke-linejoin="round" stroke-width="0.5"/>
<path d="M66.7924,87.488594 L87.11902,87.488594 L87.11902,128.51141 L66.7924,128.51141 L66.7924,87.488594" fill="none" id="outline-0" stroke="black" stroke-linecap="round" stroke-linejoin="round" stroke-width="0.5"/>
<path d="M68.08591,130.1745 L85.8255,130.1745 L85.8255,189.30649 L68.08591,189.30649 L68.08591,130.1745" fill="none" id="outline-0" stroke="black" stroke-linecap="round" stroke-linejoin="round" stroke-width="0.5"/>
<path d="M67.901115,129.98972 L86.01029,129.98972 L86.01029,189.49127 L67.901115,189.49127 L67.901115,129.98972" fill="none" id="outline-0" stroke="black" stroke-linecap="round" stroke-linejoin="round" stroke-width="0.5"/>
<path d="M67.53154,129.62013 L86.37987,129.62013 L86.37987,189.86086 L67.53154,189.86086 L67.53154,129.62013" fill="none" id="outline-0" stroke="black" stroke-linecap="round" stroke-linejoin="round" stroke-width="0.5"/>
<path d="M67.16197,129.25056 L86.74944,129.25056 L86.74944,190.23042 L67.16197,190.23042 L67.16197,129.25056" fill="none" id="outline-0" stroke="black" stroke-linecap="round" stroke-linejoin="round" stroke-width="0.5"/>
<path d="M66.7924,128.88098 L87.11902,128.88098 L87.11902,190.6 L66.7924,190.6 L66.7924,128.88098" fill="none" id="outline-0" stroke="black" stroke-linecap="round" stroke-linejoin="round" stroke-width="0.5"/>
<path d="M109.4783,109.4783 L147.9141,109.4783 L147.9141,127.217896 L109.4783,127.217896 L109.4783,109.4783" fill="none" id="outline-0" stroke="black" stroke-linecap="round" stroke-linejoin="round" stroke-width="0.5"/>
<path d="M109.29351,109.29351 L148.09888,109.29351 L148.09888,127.40269 L109.29351,127.40269 L109.29351,109.29351" fill="none" id="outline-0" stroke="black" stroke-linecap="round" stroke-linejoin="round" stroke-width="0.5"/>
<path d="M108.923935,108.923935 L148.46846,108.923935 L148.46846,127.77226 L108.923935,127.77226 L108.923935,108.923935" fill="none" id="outline-0" stroke="black" stroke-linecap="round" stroke-linejoin="round" stroke-width="0.5"/>
<path d="M108.55436,108.55436 L148.83803,108.55436 L148.83803,128.14183 L108.55436,128.14183 L108.55436,108.55436" fill="none" id="outline-0" stroke="black" stroke-linecap="round" stroke-linejoin="round" stroke-width="0.5"/>
<path d="M108.184784,108.184784 L149.20761,108.184784 L149.20761,128.51141 L108.184784,128.51141 L108.184784,108.184784" fill="none" id="outline-0" stroke="black" stroke-linecap="round" stroke-linejoin="round" stroke-width="0.5"/>
<path d="M150.8707,109.4783 L189.30649,109.4783 L189.30649,127.217896 L150.8707,127.217896 L150.8707,109.4783" fill="none" id="outline-0" stroke="black" stroke-linecap="round" stroke-linejoin="round" stroke-width="0.5"/>
<path d="M150.68591,109.29351 L189.49127,109.29351 L189.49127,127.40269 L150.68591,127.40269 L150.68591,109.29351" fill="none" id="outline-0" stroke="black" stroke-linecap="round" stroke-linejoin="round" stroke-width="0.5"/>
<path d="M150.31633,108.923935 L189.86086,108.923935 L189.86086,127.77226 L150.31633,127.77226 L150.31633,108.923935" fill="none" id="outline-0" stroke="black" stroke-linecap="round" stroke-linejoin="round" stroke-width="0.5"/>
<path d="M149.94676,108.55436 L190.23042,108.55436 L190.23042,128.14183 L149.94676,128.14183 L149.94676,108.55436" fill="none" id="outline-0" stroke="black" stroke-linecap="round" stroke-linejoin="round" stroke-width="0.5"/>
<path d="M149.57718,108.184784 L190.6,108.184784 L190.6,128.51141 L149.57718,128.51141 L149.57718,108.184784" fill="none" id="outline-0" stroke="black" stroke-linecap="round" stroke-linejoin="round" stroke-width="0.5"/>
<path d="M109.4783,88.782104 L147.9141,88.782104 L147.9141,106.5217 L109.4783,106.5217 L109.4783,88.782104" fill="none" id="outline-0" stroke="black" stroke-linecap="round" stroke-linejoin="round" stroke-width="0.5"/>
<path d="M109.29351,88.59731 L148.09888,88.59731 L148.09888,106.70649 L109.29351,106.70649 L109.29351,88.59731" fill="none" id="outline-0" stroke="black" stroke-linecap="round" stroke-linejoin="round" stroke-width="0.5"/>
<path d="M108.923935,88.22774 L148.46846,88.22774 L148.46846,107.076065 L108.923935,107.076065 L108.923935,88.22774" fill="none" id="outline-0" stroke="black" stroke-linecap="round" stroke-linejoin="round" stroke-width="0.5"/>
<path d="M108.55436,87.85816 L148.83803,87.85816 L148.83803,107.44564 L108.55436,107.44564 L108.55436,87.85816" fill="none" id="outline-0" stroke="black" stroke-linecap="round" stroke-linejoin="round" stroke-width="0.5"/>
<path d="M108.184784,87.488594 L149.20761,87.488594 L149.20761,107.815216 L108.184784,107.815216 L108.184784,87.488594" fill="none" id="outline-0" stroke="black" stroke-linecap="round" stroke-linejoin="round" stroke-width="0.5"/>
<path d="M150.8707,88.782104 L189.30649,88.782104 L189.30649,106.5217 L150.8707,106.5217 L150.8707,88.782104" fill="none" id="outline-0" stroke="black" stroke-linecap="round" stroke-linejoin="round" stroke-width="0.5"/>
<path d="M150.68591,88.59731 L189.49127,88.59731 L189.49127,106.70649 L150.68591,106.70649 L150.68591,88.59731" fill="none" id="outline-0" stroke="black" stroke-linecap="round" stroke-linejoin="round" stroke-width="0.5"/>
<path d="M150.31633,88.22774 L189.86086,88.22774 L189.86086,107.076065 L150.31633,107.076065 L150.31633,88.22774" fill="none" id="outline-0" stroke="black" stroke-linecap="round" stroke-linejoin="round" stroke-width="0.5"/>
<path d="M149.94676,87.85816 L190.23042,87.85816 L190.23042,107.44564 L149.94676,107.44564 L149.94676,87.85816" fill="none" id="outline-0" stroke="black" stroke-linecap="round" stroke-linejoin="round" stroke-width="0.5"/>
<path d="M149.57718,87.488594 L190.6,87.488594 L190.6,107.815216 L149.57718,107.815216 L149.57718,87.488594" fill="none" id="outline-0" stroke="black" stroke-linecap="round" stroke-linejoin="round" stroke-width="0.5"/>
<path d="M109.4783,26.693512 L147.9141,26.693512 L147.9141,44.43311 L109.4783,44.43311 L109.4783,26.693512" fill="none" id="outline-0" stroke="black" stroke-linecap="round" stroke-linejoin="round" stroke-width="0.5"/>
<path d="M109.29351,26.508724 L148.09888,26.508724 L148.09888,44.617897 L109.29351,44.617897 L109.29351,26.508724" fill="none" id="outline-0" stroke="black" stroke-linecap="round" stroke-linejoin="round" stroke-width="0.5"/>
<path d="M108.923935,26.13915 L148.46846,26.13915 L148.46846,44.987473 L108.923935,44.987473 L108.923935,26.13915" fill="none" id="outline-0" stroke="black" stroke-linecap="round" stroke-linejoin="round" stroke-width="0.5"/>
<path d="M108.55436,25.769575 L148.83803,25.769575 L148.83803,45.357048 L108.55436,45.357048 L108.55436,25.769575" fill="none" id="outline-0" stroke="black" stroke-linecap="round" stroke-linejoin="round" stroke-width="0.5"/>
<path d="M108.184784,25.4 L149.20761,25.4 L149.20761,45.726624 L108.184784,45.726624 L108.184784,25.4" fill="none" id="outline-0" stroke="black" stroke-linecap="round" stroke-linejoin="round" stroke-width="0.5"/>
<path d="M88.782104,47.38971 L147.9141,47.38971 L147.9141,85.8255 L88.782104,85.8255 L88.782104,47.38971" fill="none" id="outline-0" stroke="black" stroke-linecap="round" stroke-linejoin="round" stroke-width="0.5"/>
<path d="M147.1866,47.759285 L147.54453,48.117207 M147.54453,48.639866 L146.66394,47.759285 M146.14128,47.759285 L147.54453,49.16252 M147.54453,49.68518 L145.61862,47.759285 M145.09596,47.759285 L147.54453,50.20784 M147.54453,50.730495 L144.5733,47.759285 M144.05064,47.759285 L147.54453,51.253155 M147.54453,51.77581 L143.52798,47.759285 M143.00534,47.759285 L147.54453,52.29847 M147.54453,52.82113 L142.48268,47.759285 M141.96002,47.759285 L147.54453,53.343784 M147.54453,53.866444 L141.43736,47.759285 M140.9147,47.759285 L147.54453,54.389103 M147.54453,54.91176 L140.39204,47.759285 M139.86938,47.759285 L147.54453,55.434418 M147.54453,55.957073 L139.34673,47.759285 M138.82407,47.759285 L147.54453,56.479733 M147.54453,57.00239 L138.3014,47.759285 M137.77875,47.759285 L147.54453,57.525047 M147.54453,58.047707 L137.2561,47.759285 M136.73344,47.759285 L147.54453,58.570366 M147.54453,59.09302 L136.21078,47.759285 M135.68813,47.759285 L147.54453,59.61568 M147.54453,60.13834 L135.16547,47.759285 M134.6428,47.759285 L147.54453,60.660995 M147.54453,61.183655 L134.12015,47.759285 M133.59749,47.759285 L147.54453,61.70631 M147.54453,62.22897 L133.07483,47.759285 M132.55217,47.759285 L147.54453,62.75163 M147.54453,63.274284 L132.02951,47.759285 M131.50687,47.759285 L147.54453,63.796944 M147.54453,64.3196 L130.9842,47.759285 M130.46155,47.759285 L147.54453,64.84226 M147.54453,65.364914 L129.93889,47.759285 M129.41623,47.759285 L147.54453,65.88757 M147.54453,66.41023 L128.89357,47.759285 M128.37091,47.759285 L147.54453,66.93289 M147.54453,67.45555 L127.84825,47.759285 M127.3256,47.759285 L147.54453,67.97821 M147.54453,68.50086 L126.80294,47.759285 M126.28028,47.759285 L147.54453,69.02352 M147.54453,69.54618 L125.75762,47.759285 M125.23496,47.759285 L147.54453,70.06884 M147.54453,70.5915 L124.7123,47.759285 M124.18965,47.759285 L147.54453,71.11415 M147.54453,71.63681 L123.66699,47.759285 M123.14433,47.759285 L147.54453,72.15947 M147.54453,72.68213 L122.62167,47.759285 M122.099014,47.759285 L147.54453,73.20479 M147.54453,73.72744 L121.57636,47.759285 M121.0537,47.759285 L147.54453,74.2501 M147.54453,74.77276 L120.531044,47.759285 M120.008385,47.759285 L147.54453,75.29542 M147.54453,75.81808 L119.485725,47.759285 M118.96307,47.759285 L147.54453,76.34074 M147.54453,76.86339 L118.440414,47.759285 M117.917755,47.759285 L147.54453,77.38605 M147.54453,77.90871 L117.395096,47.759285 M116.87244,47.759285 L147.54453,78.431366 M147.54453,78.954025 L116.34978,47.759285 M115.827126,47.759285 L147.54453,79.47668 M147.54453,79.99934 L115.30447,47.759285 M114.78181,47.759285 L147.54453,80.521996 M147.54453,81.044655 L114.25915,47.759285 M113.73649,47.759285 L147.54453,81.567314 M147.54453,82.08997 L113.21384,47.759285 M112.69118,47.759285 L147.54453,82.612625 M147.54453,83.135284 L112.16852,47.759285 M111.64586,47.759285 L147.54453,83.65794 M147.54453,84.1806 L111.1232,47.759285 M110.60054,47.759285 L147.54453,84.70326 M147.54453,85.225914 L110.07789,47.759285 M109.55523,47.759285 L147.25188,85.455925 M146.72922,85.455925 L109.03257,47.759285 M108.50991,47.759285 L146.20656,85.455925 M145.6839,85.455925 L107.98725,47.759285 M107.4646,47.759285 L145.16124,85.455925 M144.63858,85.455925 L106.94194,47.759285 M106.41928,47.759285 L144.11592,85.455925 M143.59326,85.455925 L105.89662,47.759285 M105.37396,47.759285 L143.0706,85.455925 M142.54796,85.455925 L104.8513,47.759285 M104.32865,47.759285 L142.0253,85.455925 M141.50264,85.455925 L103.80599,47.759285 M103.28333,47.759285 L140.97998,85.455925 M140.45732,85.455925 L102.76067,47.759285 M102.238014,47.759285 L139.93466,85.455925 M139.412,85.455925 L101.71536,47.759285 M101.1927,47.759285 L138.88934,85.455925 M138.36668,85.455925 L100.670044,47.759285 M100.147385,47.759285 L137.84402,85.455925 M137.32137,85.455925 L99.624725,47.759285 M99.10207,47.759285 L136.79872,85.455925 M136.27606,85.455925 L98.579414,47.759285 M98.056755,47.759285 L135.7534,85.455925 M135.23074,85.455925 L97.534096,47.759285 M97.01144,47.759285 L134.70808,85.455925 M134.18542,85.455925 L96.48878,47.759285 M95.966125,47.759285 L133.66277,85.455925 M133.1401,85.455925 L95.44347,47.759285 M94.92081,47.759285 L132.61745,85.455925 M132.09479,85.455925 L94.39815,47.759285 M93.87549,47.759285 L131.57213,85.455925 M131.04948,85.455925 L93.35284,47.759285 M92.83018,47.759285 L130.52682,85.455925 M130.00417,85.455925 L92.30752,47.759285 M91.78486,47.759285 L129.4815,85.455925 M128.95885,85.455925 L91.2622,47.759285 M90.73954,47.759285 L128.43619,85.455925 M127.91353,85.455925 L90.21689,47.759285 M89.69423,47.759285 L127.39087,85.455925 M126.86822,85.455925 L89.17157,47.759285 M89.15168,48.26205 L126.34556,85.455925 M125.8229,85.455925 L89.15168,48.784706 M89.15168,49.307365 L125.30024,85.455925 M124.77758,85.455925 L89.15168,49.830025 M89.15168,50.35268 L124.25492,85.455925 M123.73227,85.455925 L89.15168,50.87534 M89.15168,51.398 L123.20961,85.455925 M122.68695,85.455925 L89.15168,51.920654 M89.15168,52.443314 L122.16429,85.455925 M121.64163,85.455925 L89.15168,52.965973 M89.15168,53.48863 L121.11898,85.455925 M120.59632,85.455925 L89.15168,54.011288 M89.15168,54.533943 L120.07366,85.455925 M119.551,85.455925 L89.15168,55.056602 M89.15168,55.57926 L119.02834,85.455925 M118.50569,85.455925 L89.15168,56.101917 M89.15168,56.624577 L117.98303,85.455925 M117.46037,85.455925 L89.15168,57.147236 M89.15168,57.66989 L116.93771,85.455925 M116.415054,85.455925 L89.15168,58.19255 M89.15168,58.715206 L115.892395,85.455925 M115.36974,85.455925 L89.15168,59.237865 M89.15168,59.760525 L114.847084,85.455925 M114.324425,85.455925 L89.15168,60.28318 M89.15168,60.80584 L113.801765,85.455925 M113.279106,85.455925 L89.15168,61.3285 M89.15168,61.851154 L112.756454,85.455925 M112.233795,85.455925 L89.15168,62.373814 M89.15168,62.896473 L111.711136,85.455925 M111.18848,85.455925 L89.15168,63.41913 M89.15168,63.941788 L110.66582,85.455925 M110.14316,85.455925 L89.15168,64.46445 M89.15168,64.98711 L109.62051,85.455925 M109.09785,85.455925 L89.15168,65.50976 M89.15168,66.03242 L108.57519,85.455925 M108.05253,85.455925 L89.15168,66.55508 M89.15168,67.077736 L107.52987,85.455925 M107.00722,85.455925 L89.15168,67.600395 M89.15168,68.12305 L106.48456,85.455925 M105.9619,85.455925 L89.15168,68.645706 M89.15168,69.168365 L105.43924,85.455925 M104.91658,85.455925 L89.15168,69.691025 M89.15168,70.213684 L104.39392,85.455925 M103.87127,85.455925 L89.15168,70.73634 M89.15168,71.258995 L103.34861,85.455925 M102.82595,85.455925 L89.15168,71.781654 M89.15168,72.30431 L102.30329,85.455925 M101.78063,85.455925 L89.15168,72.82697 M89.15168,73.34963 L101.25798,85.455925 M100.73532,85.455925 L89.15168,73.872284 M89.15168,74.39494 L100.21266,85.455925 M99.69,85.455925 L89.15168,74.9176 M89.15168,75.44026 L99.16734,85.455925 M98.644684,85.455925 L89.15168,75.96292 M89.15168,76.48557 L98.12203,85.455925 M97.59937,85.455925 L89.15168,77.00823 M89.15168,77.53089 L97.07671,85.455925 M96.554054,85.455925 L89.15168,78.05355 M89.15168,78.57621 L96.031395,85.455925 M95.50874,85.455925 L89.15168,79.09887 M89.15168,79.62152 L94.986084,85.455925 M94.463425,85.455925 L89.15168,80.14418 M89.15168,80.66684 L93.940765,85.455925 M93.418106,85.455925 L89.15168,81.1895 M89.15168,81.71216 L92.895454,85.455925 M92.372795,85.455925 L89.15168,82.23481 M89.15168,82.75747 L91.850136,85.455925 M91.32748,85.455925 L89.15168,83.28013 M89.15168,83.80279 L90.80482,85.455925 M90.28216,85.455925 L89.15168,84.32545 M89.15168,84.84811 L89.75951,85.455925 M89.23685,85.455925 L89.15168,85.37076" fill="none" id="fill-0" stroke="black" stroke-linecap="round" stroke-linejoin="round" stroke-width="0.5"/>
<path d="M88.59731,47.20492 L148.09888,47.20492 L148.09888,86.01029 L88.59731,86.01029 L88.59731,47.20492" fill="none" id="outline-1" stroke="black" stroke-linecap="round" stroke-linejoin="round" stroke-width="0.5"/>
<path d="M88.22774,46.835346 L148.46846,46.835346 L148.46846,86.37987 L88.22774,86.37987 L88.22774,46.835346" fill="none" id="outline-1" stroke="black" stroke-linecap="round" stroke-linejoin="round" stroke-width="0.5"/>
<path d="M87.85816,46.46577 L148.83803,46.46577 L148.83803,86.74944 L87.85816,86.74944 L87.85816,46.46577" fill="none" id="outline-1" stroke="black" stroke-linecap="round" stroke-linejoin="round" stroke-width="0.5"/>
<path d="M87.488594,46.096195 L149.20761,46.096195 L149.20761,87.11902 L87.488594,87.11902 L87.488594,46.096195" fill="none" id="outline-1" stroke="black" stroke-linecap="round" stroke-linejoin="round" stroke-width="0.5"/>
<path d="M150.8707,47.38971 L189.30649,47.38971 L189.30649,85.8255 L150.8707,85.8255 L150.8707,47.38971" fill="none" id="outline-1" stroke="black" stroke-linecap="round" stroke-linejoin="round" stroke-width="0.5"/>
<path d="M150.68591,47.20492 L189.49127,47.20492 L189.49127,86.01029 L150.68591,86.01029 L150.68591,47.20492" fill="none" id="outline-1" stroke="black" stroke-linecap="round" stroke-linejoin="round" stroke-width="0.5"/>
<path d="M150.31633,46.835346 L189.86086,46.835346 L189.86086,86.37987 L150.31633,86.37987 L150.31633,46.835346" fill="none" id="outline-1" stroke="black" stroke-linecap="round" stroke-linejoin="round" stroke-width="0.5"/>
<path d="M149.94676,46.46577 L190.23042,46.46577 L190.23042,86.74944 L149.94676,86.74944 L149.94676,46.46577" fill="none" id="outline-1" stroke="black" stroke-linecap="round" stroke-linejoin="round" stroke-width="0.5"/>
<path d="M149.57718,46.096195 L190.6,46.096195 L190.6,87.11902 L149.57718,87.11902 L149.57718,46.096195" fill="none" id="outline-1" stroke="black" stroke-linecap="round" stroke-linejoin="round" stroke-width="0.5"/>
<path d="M150.8707,26.693512 L168.61029,26.693512 L168.61029,44.43311 L150.8707,44.43311 L150.8707,26.693512" fill="none" id="outline-1" stroke="black" stroke-linecap="round" stroke-linejoin="round" stroke-width="0.5"/>
<path d="M150.68591,26.508724 L168.79507,26.508724 L168.79507,44.617897 L150.68591,44.617897 L150.68591,26.508724" fill="none" id="outline-1" stroke="black" stroke-linecap="round" stroke-linejoin="round" stroke-width="0.5"/>
<path d="M150.31633,26.13915 L169.16466,26.13915 L169.16466,44.987473 L150.31633,44.987473 L150.31633,26.13915" fill="none" id="outline-1" stroke="black" stroke-linecap="round" stroke-linejoin="round" stroke-width="0.5"/>
<path d="M149.94676,25.769575 L169.53423,25.769575 L169.53423,45.357048 L149.94676,45.357048 L149.94676,25.769575" fill="none" id="outline-1" stroke="black" stroke-linecap="round" stroke-linejoin="round" stroke-width="0.5"/>
<path d="M149.57718,25.4 L169.90381,25.4 L169.90381,45.726624 L149.57718,45.726624 L149.57718,25.4" fill="none" id="outline-1" stroke="black" stroke-linecap="round" stroke-linejoin="round" stroke-width="0.5"/>
<path d="M171.5669,26.693512 L189.30649,26.693512 L189.30649,44.43311 L171.5669,44.43311 L171.5669,26.693512" fill="none" id="outline-1" stroke="black" stroke-linecap="round" stroke-linejoin="round" stroke-width="0.5"/>
<path d="M171.3821,26.508724 L189.49127,26.508724 L189.49127,44.617897 L171.3821,44.617897 L171.3821,26.508724" fill="none" id="outline-1" stroke="black" stroke-linecap="round" stroke-linejoin="round" stroke-width="0.5"/>
<path d="M171.01253,26.13915 L189.86086,26.13915 L189.86086,44.987473 L171.01253,44.987473 L171.01253,26.13915" fill="none" id="outline-1" stroke="black" stroke-linecap="round" stroke-linejoin="round" stroke-width="0.5"/>
<path d="M170.64296,25.769575 L190.23042,25.769575 L190.23042,45.357048 L170.64296,45.357048 L170.64296,25.769575" fill="none" id="outline-1" stroke="black" stroke-linecap="round" stroke-linejoin="round" stroke-width="0.5"/>
<path d="M170.27338,25.4 L190.6,25.4 L190.6,45.726624 L170.27338,45.726624 L170.27338,25.4" fill="none" id="outline-1" stroke="black" stroke-linecap="round" stroke-linejoin="round" stroke-width="0.5"/>
<path d="M171.5669,130.1745 L189.30649,130.1745 L189.30649,168.61029 L171.5669,168.61029 L171.5669,130.1745" fill="none" id="outline-1" stroke="black" stroke-linecap="round" stroke-linejoin="round" stroke-width="0.5"/>
<path d="M171.3821,129.98972 L189.49127,129.98972 L189.49127,168.79507 L171.3821,168.79507 L171.3821,129.98972" fill="none" id="outline-1" stroke="black" stroke-linecap="round" stroke-linejoin="round" stroke-width="0.5"/>
<path d="M171.01253,129.62013 L189.86086,129.62013 L189.86086,169.16466 L171.01253,169.16466 L171.01253,129.62013" fill="none" id="outline-1" stroke="black" stroke-linecap="round" stroke-linejoin="round" stroke-width="0.5"/>
<path d="M170.64296,129.25056 L190.23042,129.25056 L190.23042,169.53423 L170.64296,169.53423 L170.64296,129.25056" fill="none" id="outline-1" stroke="black" stroke-linecap="round" stroke-linejoin="round" stroke-width="0.5"/>
<path d="M170.27338,128.88098 L190.6,128.88098 L190.6,169.90381 L170.27338,169.90381 L170.27338,128.88098" fill="none" id="outline-1" stroke="black" stroke-linecap="round" stroke-linejoin="round" stroke-width="0.5"/>
<path d="M171.5669,171.5669 L189.30649,171.5669 L189.30649,189.30649 L171.5669,189.30649 L171.5669,171.5669" fill="none" id="outline-1" stroke="black" stroke-linecap="round" stroke-linejoin="round" stroke-width="0.5"/>
<path d="M171.3821,171.3821 L189.49127,171.3821 L189.49127,189.49127 L171.3821,189.49127 L171.3821,171.3821" fill="none" id="outline-1" stroke="black" stroke-linecap="round" stroke-linejoin="round" stroke-width="0.5"/>
<path d="M171.01253,171.01253 L189.86086,171.01253 L189.86086,189.86086 L171.01253,189.86086 L171.01253,171.01253" fill="none" id="outline-1" stroke="black" stroke-linecap="round" stroke-linejoin="round" stroke-width="0.5"/>
<path d="M170.64296,170.64296 L190.23042,170.64296 L190.23042,190.23042 L170.64296,190.23042 L170.64296,170.64296" fill="none" id="outline-1" stroke="black" stroke-linecap="round" stroke-linejoin="round" stroke-width="0.5"/>
<path d="M170.27338,170.27338 L190.6,170.27338 L190.6,190.6 L170.27338,190.6 L170.27338,170.27338" fill="none" id="outline-1" stroke="black" stroke-linecap="round" stroke-linejoin="round" stroke-width="0.5"/>
<path d="M109.4783,130.1745 L168.61029,130.1745 L168.61029,168.61029 L109.4783,168.61029 L109.4783,130.1745" fill="none" id="outline-1" stroke="black" stroke-linecap="round" stroke-linejoin="round" stroke-width="0.5"/>
<path d="M167.8828,130.54407 L168.24072,130.902 M168.24072,131.42465 L167.36014,130.54407 M166.83748,130.54407 L168.24072,131.94731 M168.24072,132.46997 L166.31482,130.54407 M165.79216,130.54407 L168.24072,132.99263 M168.24072,133.51529 L165.2695,130.54407 M164.74684,130.54407 L168.24072,134.03795 M168.24072,134.5606 L164.22418,130.54407 M163.70152,130.54407 L168.24072,135.08325 M168.24072,135.60591 L163.17888,130.54407 M162.65622,130.54407 L168.24072,136.12857 M168.24072,136.65123 L162.13356,130.54407 M161.6109,130.54407 L168.24072,137.17389 M168.24072,137.69655 L161.08824,130.54407 M160.56558,130.54407 L168.24072,138.21921 M168.24072,138.74187 L160.04292,130.54407 M159.52026,130.54407 L168.24072,139.26453 M168.24072,139.78719 L158.9976,130.54407 M158.47495,130.54407 L168.24072,140.30983 M168.24072,140.83249 L157.95229,130.54407 M157.42964,130.54407 L168.24072,141.35515 M168.24072,141.8778 L156.90698,130.54407 M156.38432,130.54407 L168.24072,142.40047 M168.24072,142.92313 L155.86166,130.54407 M155.339,130.54407 L168.24072,143.44579 M168.24072,143.96844 L154.81635,130.54407 M154.29369,130.54407 L168.24072,144.4911 M168.24072,145.01376 L153.77103,130.54407 M153.24837,130.54407 L168.24072,145.53642 M168.24072,146.05907 L152.72571,130.54407 M152.20306,130.54407 L168.24072,146.58173 M168.24072,147.10439 L151.6804,130.54407 M151.15775,130.54407 L168.24072,147.62704 M168.24072,148.1497 L150.63509,130.54407 M150.11243,130.54407 L168.24072,148.67236 M168.24072,149.19502 L149.58977,130.54407 M149.06711,130.54407 L168.24072,149.71768 M168.24072,150.24034 L148.54445,130.54407 M148.02179,130.54407 L168.24072,150.763 M168.24072,151.28564 L147.49913,130.54407 M146.97647,130.54407 L168.24072,151.8083 M168.24072,152.33096 L146.45383,130.54407 M145.93117,130.54407 L168.24072,152.85362 M168.24072,153.37628 L145.40851,130.54407 M144.88585,130.54407 L168.24072,153.89894 M168.24072,154.4216 L144.36319,130.54407 M143.84053,130.54407 L168.24072,154.94426 M168.24072,155.46692 L143.31787,130.54407 M142.79521,130.54407 L168.24072,155.98958 M168.24072,156.51224 L142.27255,130.54407 M141.7499,130.54407 L168.24072,157.03488 M168.24072,157.55754 L141.22723,130.54407 M140.70459,130.54407 L168.24072,158.0802 M168.24072,158.60286 L140.18193,130.54407 M139.65927,130.54407 L168.24072,159.12552 M168.24072,159.64818 L139.13661,130.54407 M138.61395,130.54407 L168.24072,160.17084 M168.24072,160.6935 L138.0913,130.54407 M137.56863,130.54407 L168.24072,161.21616 M168.24072,161.73882 L137.04597,130.54407 M136.52332,130.54407 L168.24072,162.26147 M168.24072,162.78412 L136.00066,130.54407 M135.478,130.54407 L168.24072,163.30678 M168.24072,163.82944 L134.95535,130.54407 M134.4327,130.54407 L168.24072,164.3521 M168.24072,164.87476 L133.91003,130.54407 M133.38737,130.54407 L168.24072,165.39742 M168.24072,165.92007 L132.86472,130.54407 M132.34206,130.54407 L168.24072,166.44273 M168.24072,166.9654 L131.8194,130.54407 M131.29674,130.54407 L168.24072,167.48805 M168.24072,168.01071 L130.77408,130.54407 M130.25142,130.54407 L167.94807,168.24072 M167.42542,168.24072 L129.72876,130.54407 M129.20612,130.54407 L166.90276,168.24072 M166.3801,168.24072 L128.68346,130.54407 M128.1608,130.54407 L165.85744,168.24072 M165.33478,168.24072 L127.63814,130.54407 M127.11548,130.54407 L164.81212,168.24072 M164.28946,168.24072 L126.59282,130.54407 M126.07016,130.54407 L163.7668,168.24072 M163.24414,168.24072 L125.5475,130.54407 M125.02485,130.54407 L162.7215,168.24072 M162.19884,168.24072 L124.50219,130.54407 M123.97953,130.54407 L161.67618,168.24072 M161.15352,168.24072 L123.45687,130.54407 M122.93421,130.54407 L160.63086,168.24072 M160.1082,168.24072 L122.41155,130.54407 M121.8889,130.54407 L159.58554,168.24072 M159.06288,168.24072 L121.36624,130.54407 M120.84358,130.54407 L158.54022,168.24072 M158.01756,168.24072 L120.32092,130.54407 M119.79826,130.54407 L157.4949,168.24072 M156.97226,168.24072 L119.27561,130.54407 M118.75295,130.54407 L156.4496,168.24072 M155.92694,168.24072 L118.23029,130.54407 M117.707634,130.54407 L155.40428,168.24072 M154.88162,168.24072 L117.184975,130.54407 M116.66232,130.54407 L154.35896,168.24072 M153.8363,168.24072 L116.13966,130.54407 M115.617004,130.54407 L153.31364,168.24072 M152.79099,168.24072 L115.094345,130.54407 M114.571686,130.54407 L152.26833,168.24072 M151.74568,168.24072 L114.04903,130.54407 M113.526375,130.54407 L151.22302,168.24072 M150.70036,168.24072 L113.003716,130.54407 M112.48106,130.54407 L150.1777,168.24072 M149.65504,168.24072 L111.9584,130.54407 M111.43574,130.54407 L149.13239,168.24072 M148.60973,168.24072 L110.913086,130.54407 M110.39043,130.54407 L148.08707,168.24072 M147.5644,168.24072 L109.86777,130.54407 M109.84788,131.04684 L147.04175,168.24072 M146.51909,168.24072 L109.84788,131.56949 M109.84788,132.09215 L145.99644,168.24072 M145.47379,168.24072 L109.84788,132.6148 M109.84788,133.13747 L144.95113,168.24072 M144.42847,168.24072 L109.84788,133.66013 M109.84788,134.18279 L143.9058,168.24072 M143.38315,168.24072 L109.84788,134.70544 M109.84788,135.2281 L142.86049,168.24072 M142.33783,168.24072 L109.84788,135.75076 M109.84788,136.27342 L141.81517,168.24072 M141.29251,168.24072 L109.84788,136.79608 M109.84788,137.31873 L140.76985,168.24072 M140.24721,168.24072 L109.84788,137.84138 M109.84788,138.36404 L139.72455,168.24072 M139.20189,168.24072 L109.84788,138.8867 M109.84788,139.40936 L138.67923,168.24072 M138.15657,168.24072 L109.84788,139.93202 M109.84788,140.45468 L137.63391,168.24072 M137.11125,168.24072 L109.84788,140.97734 M109.84788,141.5 L136.5886,168.24072 M136.06593,168.24072 L109.84788,142.02266 M109.84788,142.54532 L135.54327,168.24072 M135.02061,168.24072 L109.84788,143.06796 M109.84788,143.59062 L134.49797,168.24072 M133.97531,168.24072 L109.84788,144.11328 M109.84788,144.63594 L133.45265,168.24072 M132.93,168.24072 L109.84788,145.1586 M109.84788,145.68126 L132.40733,168.24072 M131.88467,168.24072 L109.84788,146.20392 M109.84788,146.72658 L131.36201,168.24072 M130.83936,168.24072 L109.84788,147.24924 M109.84788,147.7719 L130.3167,168.24072 M129.79404,168.24072 L109.84788,148.29456 M109.84788,148.8172 L129.27138,168.24072 M128.74873,168.24072 L109.84788,149.33986 M109.84788,149.86252 L128.22607,168.24072 M127.70341,168.24072 L109.84788,150.38518 M109.84788,150.90784 L127.180756,168.24072 M126.6581,168.24072 L109.84788,151.4305 M109.84788,151.95316 L126.13544,168.24072 M125.61278,168.24072 L109.84788,152.47581 M109.84788,152.99847 L125.09012,168.24072 M124.56747,168.24072 L109.84788,153.52113 M109.84788,154.04378 L124.04481,168.24072 M123.52215,168.24072 L109.84788,154.56644 M109.84788,155.0891 L122.99949,168.24072 M122.47683,168.24072 L109.84788,155.61176 M109.84788,156.13441 L121.95417,168.24072 M121.43152,168.24072 L109.84788,156.65707 M109.84788,157.17973 L120.90886,168.24072 M120.3862,168.24072 L109.84788,157.7024 M109.84788,158.22505 L119.86354,168.24072 M119.34088,168.24072 L109.84788,158.74771 M109.84788,159.27037 L118.81823,168.24072 M118.29557,168.24072 L109.84788,159.79301 M109.84788,160.31567 L117.77291,168.24072 M117.25025,168.24072 L109.84788,160.83833 M109.84788,161.361 L116.72759,168.24072 M116.20494,168.24072 L109.84788,161.88365 M109.84788,162.40631 L115.68228,168.24072 M115.15962,168.24072 L109.84788,162.92897 M109.84788,163.45163 L114.63696,168.24072 M114.1143,168.24072 L109.84788,163.97429 M109.84788,164.49695 L113.591644,168.24072 M113.06899,168.24072 L109.84788,165.0196 M109.84788,165.54225 L112.54633,168.24072 M112.023674,168.24072 L109.84788,166.06491 M109.84788,166.58757 L111.501015,168.24072 M110.978355,168.24072 L109.84788,167.11023 M109.84788,167.63289 L110.4557,168.24072 M109.933044,168.24072 L109.84788,168.15555" fill="none" id="fill-1" stroke="black" stroke-linecap="round" stroke-linejoin="round" stroke-width="0.5"/>
<path d="M109.29351,129.98972 L168.79507,129.98972 L168.79507,168.79507 L109.29351,168.79507 L109.29351,129.98972" fill="none" id="outline-2" stroke="black" stroke-linecap="round" stroke-linejoin="round" stroke-width="0.5"/>
<path d="M108.923935,129.62013 L169.16466,129.62013 L169.16466,169.16466 L108.923935,169.16466 L108.923935,129.62013" fill="none" id="outline-2" stroke="black" stroke-linecap="round" stroke-linejoin="round" stroke-width="0.5"/>
<path d="M108.55436,129.25056 L169.53423,129.25056 L169.53423,169.53423 L108.55436,169.53423 L108.55436,129.25056" fill="none" id="outline-2" stroke="black" stroke-linecap="round" stroke-linejoin="round" stroke-width="0.5"/>
<path d="M108.184784,128.88098 L169.90381,128.88098 L169.90381,169.90381 L108.184784,169.90381 L108.184784,128.88098" fill="none" id="outline-2" stroke="black" stroke-linecap="round" stroke-linejoin="round" stroke-width="0.5"/>
<path d="M109.4783,171.5669 L168.61029,171.5669 L168.61029,189.30649 L109.4783,189.30649 L109.4783,171.5669" fill="none" id="outline-2" stroke="black" stroke-linecap="round" stroke-linejoin="round" stroke-width="0.5"/>
<path d="M109.29351,171.3821 L168.79507,171.3821 L168.79507,189.49127 L109.29351,189.49127 L109.29351,171.3821" fill="none" id="outline-2" stroke="black" stroke-linecap="round" stroke-linejoin="round" stroke-width="0.5"/>
<path d="M108.923935,171.01253 L169.16466,171.01253 L169.16466,189.86086 L108.923935,189.86086 L108.923935,171.01253" fill="none" id="outline-2" stroke="black" stroke-linecap="round" stroke-linejoin="round" stroke-width="0.5"/>
<path d="M108.55436,170.64296 L169.53423,170.64296 L169.53423,190.23042 L108.55436,190.23042 L108.55436,170.64296" fill="none" id="outline-2" stroke="black" stroke-linecap="round" stroke-linejoin="round" stroke-width="0.5"/>
<path d="M108.184784,170.27338 L169.90381,170.27338 L169.90381,190.6 L108.184784,190.6 L108.184784,170.27338" fill="none" id="outline-2" stroke="black" stroke-linecap="round" stroke-linejoin="round" stroke-width="0.5"/>
<path d="M26.693512,130.1745 L65.1293,130.1745 L65.1293,168.61029 L26.693512,168.61029 L26.693512,130.1745" fill="none" id="outline-2" stroke="black" stroke-linecap="round" stroke-linejoin="round" stroke-width="0.5"/>
<path d="M26.508724,129.98972 L65.314095,129.98972 L65.314095,168.79507 L26.508724,168.79507 L26.508724,129.98972" fill="none" id="outline-2" stroke="black" stroke-linecap="round" stroke-linejoin="round" stroke-width="0.5"/>
<path d="M26.13915,129.62013 L65.68367,129.62013 L65.68367,169.16466 L26.13915,169.16466 L26.13915,129.62013" fill="none" id="outline-2" stroke="black" stroke-linecap="round" stroke-linejoin="round" stroke-width="0.5"/>
<path d="M25.769575,129.25056 L66.053246,129.25056 L66.053246,169.53423 L25.769575,169.53423 L25.769575,129.25056" fill="none" id="outline-2" stroke="black" stroke-linecap="round" stroke-linejoin="round" stroke-width="0.5"/>
<path d="M25.4,128.88098 L66.42282,128.88098 L66.42282,169.90381 L25.4,169.90381 L25.4,128.88098" fill="none" id="outline-2" stroke="black" stroke-linecap="round" stroke-linejoin="round" stroke-width="0.5"/>
<path d="M26.693512,171.5669 L65.1293,171.5669 L65.1293,189.30649 L26.693512,189.30649 L26.693512,171.5669" fill="none" id="outline-2" stroke="black" stroke-linecap="round" stroke-linejoin="round" stroke-width="0.5"/>
<path d="M64.41681,171.93646 L64.759735,172.27939 M64.759735,172.80205 L63.89415,171.93646 M63.37149,171.93646 L64.759735,173.3247 M64.759735,173.84737 L62.848835,171.93646 M62.326176,171.93646 L64.759735,174.37003 M64.759735,174.89268 L61.80352,171.93646 M61.28086,171.93646 L64.759735,175.41533 M64.759735,175.93799 L60.7582,171.93646 M60.235546,171.93646 L64.759735,176.46065 M64.759735,176.9833 L59.712887,171.93646 M59.190228,171.93646 L64.759735,177.50597 M64.759735,178.02863 L58.667572,171.93646 M58.144913,171.93646 L64.759735,178.55128 M64.759735,179.07394 L57.622257,171.93646 M57.099598,171.93646 L64.759735,179.5966 M64.759735,180.11926 L56.57694,171.93646 M56.054283,171.93646 L64.759735,180.64192 M64.759735,181.16457 L55.531624,171.93646 M55.008965,171.93646 L64.759735,181.68723 M64.759735,182.20988 L54.48631,171.93646 M53.96365,171.93646 L64.759735,182.73254 M64.759735,183.2552 L53.44099,171.93646 M52.918335,171.93646 L64.759735,183.77786 M64.759735,184.30052 L52.395676,171.93646 M51.87302,171.93646 L64.759735,184.82318 M64.759735,185.34584 L51.35036,171.93646 M50.8277,171.93646 L64.759735,185.8685 M64.759735,186.39116 L50.305046,171.93646 M49.782387,171.93646 L64.759735,186.9138 M64.759735,187.43646 L49.259727,171.93646 M48.737072,171.93646 L64.759735,187.95912 M64.759735,188.48178 L48.214413,171.93646 M47.691757,171.93646 L64.6922,188.93692 M64.16955,188.93692 L47.169098,171.93646 M46.64644,171.93646 L63.64689,188.93692 M63.12423,188.93692 L46.123783,171.93646 M45.601124,171.93646 L62.60157,188.93692 M62.078915,188.93692 L45.078465,171.93646 M44.55581,171.93646 L61.556255,188.93692 M61.033596,188.93692 L44.03315,171.93646 M43.51049,171.93646 L60.51094,188.93692 M59.98828,188.93692 L42.987835,171.93646 M42.465176,171.93646 L59.465622,188.93692 M58.942966,188.93692 L41.94252,171.93646 M41.41986,171.93646 L58.420307,188.93692 M57.89765,188.93692 L40.8972,171.93646 M40.374546,171.93646 L57.374992,188.93692 M56.852333,188.93692 L39.851887,171.93646 M39.329227,171.93646 L56.329678,188.93692 M55.80702,188.93692 L38.806572,171.93646 M38.283913,171.93646 L55.28436,188.93692 M54.761703,188.93692 L37.761253,171.93646 M37.238598,171.93646 L54.239044,188.93692 M53.71639,188.93692 L36.71594,171.93646 M36.193283,171.93646 L53.19373,188.93692 M52.67107,188.93692 L35.670624,171.93646 M35.147964,171.93646 L52.148415,188.93692 M51.625755,188.93692 L34.62531,171.93646 M34.10265,171.93646 L51.103096,188.93692 M50.58044,188.93692 L33.57999,171.93646 M33.057335,171.93646 L50.05778,188.93692 M49.535122,188.93692 L32.534676,171.93646 M32.01202,171.93646 L49.012466,188.93692 M48.489807,188.93692 L31.48936,171.93646 M30.966703,171.93646 L47.96715,188.93692 M47.444492,188.93692 L30.444044,171.93646 M29.921387,171.93646 L46.921833,188.93692 M46.399178,188.93692 L29.39873,171.93646 M28.876072,171.93646 L45.87652,188.93692 M45.35386,188.93692 L28.353413,171.93646 M27.830755,171.93646 L44.831203,188.93692 M44.308544,188.93692 L27.308098,171.93646 M27.063087,172.21411 L43.78589,188.93692 M43.26323,188.93692 L27.063087,172.73677 M27.063087,173.25943 L42.74057,188.93692 M42.217915,188.93692 L27.063087,173.78209 M27.063087,174.30475 L41.695255,188.93692 M41.172596,188.93692 L27.063087,174.82741 M27.063087,175.35007 L40.64994,188.93692 M40.12728,188.93692 L27.063087,175.87271 M27.063087,176.39537 L39.60462,188.93692 M39.081966,188.93692 L27.063087,176.91803 M27.063087,177.44069 L38.559307,188.93692 M38.03665,188.93692 L27.063087,177.96335 M27.063087,178.48601 L37.513992,188.93692 M36.991333,188.93692 L27.063087,179.00867 M27.063087,179.53133 L36.468678,188.93692 M35.94602,188.93692 L27.063087,180.05399 M27.063087,180.57664 L35.42336,188.93692 M34.900703,188.93692 L27.063087,181.0993 M27.063087,181.62195 L34.378044,188.93692 M33.85539,188.93692 L27.063087,182.1446 M27.063087,182.66727 L33.33273,188.93692 M32.81007,188.93692 L27.063087,183.18993 M27.063087,183.71259 L32.287415,188.93692 M31.764755,188.93692 L27.063087,184.23524 M27.063087,184.7579 L31.242098,188.93692 M30.719439,188.93692 L27.063087,185.28056 M27.063087,185.80322 L30.196781,188.93692 M29.674124,188.93692 L27.063087,186.32588 M27.063087,186.84854 L29.151466,188.93692 M28.628807,188.93692 L27.063087,187.37119 M27.063087,187.89384 L28.10615,188.93692 M27.583492,188.93692 L27.063087,188.4165" fill="none" id="fill-2" stroke="black" stroke-linecap="round" stroke-linejoin="round" stroke-width="0.5"/>
<path d="M26.508724,171.3821 L65.314095,171.3821 L65.314095,189.49127 L26.508724,189.49127 L26.508724,171.3821" fill="none" id="outline-3" stroke="black" stroke-linecap="round" stroke-linejoin="round" stroke-width="0.5"/>
<path d="M26.13915,171.01253 L65.68367,171.01253 L65.68367,189.86086 L26.13915,189.86086 L26.13915,171.01253" fill="none" id="outline-3" stroke="black" stroke-linecap="round" stroke-linejoin="round" stroke-width="0.5"/>
<path d="M25.769575,170.64296 L66.053246,170.64296 L66.053246,190.23042 L25.769575,190.23042 L25.769575,170.64296" fill="none" id="outline-3" stroke="black" stroke-linecap="round" stroke-linejoin="round" stroke-width="0.5"/>
<path d="M25.4,170.27338 L66.42282,170.27338 L66.42282,190.6 L25.4,190.6 L25.4,170.27338" fill="none" id="outline-3" stroke="black" stroke-linecap="round" stroke-linejoin="round" stroke-width="0.5"/>
<path d="M88.782104,88.782104 L106.5217,88.782104 L106.5217,168.61029 L88.782104,168.61029 L88.782104,88.782104" fill="none" id="outline-3" stroke="black" stroke-linecap="round" stroke-linejoin="round" stroke-width="0.5"/>
<path d="M88.59731,88.59731 L106.70649,88.59731 L106.70649,168.79507 L88.59731,168.79507 L88.59731,88.59731" fill="none" id="outline-3" stroke="black" stroke-linecap="round" stroke-linejoin="round" stroke-width="0.5"/>
<path d="M88.22774,88.22774 L107.076065,88.22774 L107.076065,169.16466 L88.22774,169.16466 L88.22774,88.22774" fill="none" id="outline-3" stroke="black" stroke-linecap="round" stroke-linejoin="round" stroke-width="0.5"/>
<path d="M87.85816,87.85816 L107.44564,87.85816 L107.44564,169.53423 L87.85816,169.53423 L87.85816,87.85816" fill="none" id="outline-3" stroke="black" stroke-linecap="round" stroke-linejoin="round" stroke-width="0.5"/>
<path d="M87.488594,87.488594 L107.815216,87.488594 L107.815216,169.90381 L87.488594,169.90381 L87.488594,87.488594" fill="none" id="outline-3" stroke="black" stroke-linecap="round" stroke-linejoin="round" stroke-width="0.5"/>
<path d="M88.782104,171.5669 L106.5217,171.5669 L106.5217,189.30649 L88.782104,189.30649 L88.782104,171.5669" fill="none" id="outline-3" stroke="black" stroke-linecap="round" stroke-linejoin="round" stroke-width="0.5"/>
<path d="M88.59731,171.3821 L106.70649,171.3821 L106.70649,189.49127 L88.59731,189.49127 L88.59731,171.3821" fill="none" id="outline-3" stroke="black" stroke-linecap="round" stroke-linejoin="round" stroke-width="0.5"/>
<path d="M88.22774,171.01253 L107.076065,171.01253 L107.076065,189.86086 L88.22774,189.86086 L88.22774,171.01253" fill="none" id="outline-3" stroke="black" stroke-linecap="round" stroke-linejoin="round" stroke-width="0.5"/>
<path d="M87.85816,170.64296 L107.44564,170.64296 L107.44564,190.23042 L87.85816,190.23042 L87.85816,170.64296" fill="none" id="outline-3" stroke="black" stroke-linecap="round" stroke-linejoin="round" stroke-width="0.5"/>
<path d="M87.488594,170.27338 L107.815216,170.27338 L107.815216,190.6 L87.488594,190.6 L87.488594,170.27338" fill="none" id="outline-3" stroke="black" stroke-linecap="round" stroke-linejoin="round" stroke-width="0.5"/>
</svg>