<svg fill="none" height="320mm" stroke="black" stroke-linecap="round" stroke-linejoin="round" stroke-width="2" viewBox="0 0 320 320" width="320mm" xmlns="http://www.w3.org/2000/svg">
<path d="M0,20 L20,0 M20,20 L40,0 M40,20 L60,0 M60,0 L80,20 M80,0 L100,20 M100,0 L120,20 M120,20 L140,0 M140,20 L160,0 M160,0 L180,20 M180,0 L200,20 M200,20 L220,0 M220,20 L240,0 M240,20 L260,0 M260,20 L280,0 M280,0 L300,20 M300,0 L320,20 M0,20 L20,40 M20,40 L40,20 M40,20 L60,40 M60,40 L80,20 M80,20 L100,40 M100,20 L120,40 M120,40 L140,20 M140,40 L160,20 M160,20 L180,40 M180,20 L200,40 M200,20 L220,40 M220,20 L240,40 M240,20 L260,40 M260,40 L280,20 M280,40 L300,20 M300,20 L320,40 M0,40 L20,60 M20,60 L40,40 M40,40 L60,60 M60,60 L80,40 M80,40 L100,60 M100,40 L120,60 M120,60 L140,40 M140,40 L160,60 M160,40 L180,60 M180,60 L200,40 M200,40 L220,60 M220,40 L240,60 M240,40 L260,60 M260,60 L280,40 M280,60 L300,40 M300,60 L320,40 M0,60 L20,80 M20,80 L40,60 M40,80 L60,60 M60,80 L80,60 M80,60 L100,80 M100,80 L120,60 M120,60 L140,80 M140,80 L160,60 M160,60 L180,80 M180,60 L200,80 M200,80 L220,60 M220,60 L240,80 M240,80 L260,60 M260,80 L280,60 M280,60 L300,80 M300,60 L320,80 M0,100 L20,80 M20,80 L40,100 M40,100 L60,80 M60,80 L80,100 M80,80 L100,100 M100,100 L120,80 M120,80 L140,100 M140,80 L160,100 M160,100 L180,80 M180,100 L200,80 M200,80 L220,100 M220,80 L240,100 M240,100 L260,80 M260,100 L280,80 M280,100 L300,80 M300,80 L320,100 M0,100 L20,120 M20,120 L40,100 M40,100 L60,120 M60,100 L80,120 M80,100 L100,120 M100,100 L120,120 M120,120 L140,100 M140,120 L160,100 M160,120 L180,100 M180,100 L200,120 M200,100 L220,120 M220,100 L240,120 M240,100 L260,120 M260,120 L280,100 M280,120 L300,100 M300,120 L320,100 M0,120 L20,140 M20,140 L40,120 M40,120 L60,140 M60,120 L80,140 M80,140 L100,120 M100,140 L120,120 M120,140 L140,120 M140,120 L160,140 M160,120 L180,140 M180,140 L200,120 M200,140 L220,120 M220,120 L240,140 M240,140 L260,120 M260,120 L280,140 M280,120 L300,140 M300,140 L320,120 M0,160 L20,140 M20,140 L40,160 M40,140 L60,160 M60,160 L80,140 M80,140 L100,160 M100,140 L120,160 M120,140 L140,160 M140,140 L160,160 M160,140 L180,160 M180,160 L200,140 M200,140 L220,160 M220,140 L240,160 M240,160 L260,140 M260,160 L280,140 M280,140 L300,160 M300,140 L320,160 M0,160 L20,180 M20,180 L40,160 M40,180 L60,160 M60,180 L80,160 M80,180 L100,160 M100,180 L120,160 M120,160 L140,180 M140,160 L160,180 M160,180 L180,160 M180,180 L200,160 M200,160 L220,180 M220,160 L240,180 M240,180 L260,160 M260,160 L280,180 M280,160 L300,180 M300,180 L320,160 M0,200 L20,180 M20,180 L40,200 M40,180 L60,200 M60,200 L80,180 M80,200 L100,180 M100,180 L120,200 M120,200 L140,180 M140,180 L160,200 M160,180 L180,200 M180,180 L200,200 M200,200 L220,180 M220,180 L240,200 M240,180 L260,200 M260,200 L280,180 M280,180 L300,200 M300,200 L320,180 M0,200 L20,220 M20,200 L40,220 M40,220 L60,200 M60,220 L80,200 M80,220 L100,200 M100,200 L120,220 M120,220 L140,200 M140,220 L160,200 M160,220 L180,200 M180,220 L200,200 M200,200 L220,220 M220,220 L240,200 M240,200 L260,220 M260,220 L280,200 M280,200 L300,220 M300,220 L320,200 M0,220 L20,240 M20,220 L40,240 M40,240 L60,220 M60,220 L80,240 M80,240 L100,220 M100,240 L120,220 M120,240 L140,220 M140,240 L160,220 M160,240 L180,220 M180,220 L200,240 M200,220 L220,240 M220,220 L240,240 M240,240 L260,220 M260,240 L280,220 M280,220 L300,240 M300,220 L320,240 M0,260 L20,240 M20,260 L40,240 M40,240 L60,260 M60,260 L80,240 M80,240 L100,260 M100,260 L120,240 M120,260 L140,240 M140,240 L160,260 M160,240 L180,260 M180,260 L200,240 M200,240 L220,260 M220,240 L240,260 M240,260 L260,240 M260,240 L280,260 M280,240 L300,260 M300,240 L320,260 M0,260 L20,280 M20,260 L40,280 M40,280 L60,260 M60,280 L80,260 M80,260 L100,280 M100,280 L120,260 M120,260 L140,280 M140,280 L160,260 M160,280 L180,260 M180,260 L200,280 M200,280 L220,260 M220,260 L240,280 M240,280 L260,260 M260,260 L280,280 M280,280 L300,260 M300,280 L320,260 M0,300 L20,280 M20,300 L40,280 M40,280 L60,300 M60,280 L80,300 M80,300 L100,280 M100,300 L120,280 M120,280 L140,300 M140,300 L160,280 M160,280 L180,300 M180,280 L200,300 M200,300 L220,280 M220,280 L240,300 M240,300 L260,280 M260,280 L280,300 M280,300 L300,280 M300,300 L320,280 M0,320 L20,300 M20,320 L40,300 M40,300 L60,320 M60,300 L80,320 M80,320 L100,300 M100,300 L120,320 M120,320 L140,300 M140,320 L160,300 M160,320 L180,300 M180,300 L200,320 M200,320 L220,300 M220,300 L240,320 M240,320 L260,300 M260,320 L280,300 M280,300 L300,320 M300,320 L320,300"/>
</svg>