<svg height="225mm" viewBox="0 0 225 225" width="225mm" xmlns="http://www.w3.org/2000/svg">
<path d="M13.557669,14.121245 L13.557669,35.580612 L35.017036,35.580612 L35.017036,14.121245 L13.557669,14.121245 M35.017036,14.121245 L35.017036,35.580612 L56.476406,35.580612 L56.476406,14.121245 L35.017036,14.121245 M56.476406,14.121245 L56.476406,35.580612 L77.935776,35.580612 L77.935776,14.121245 L56.476406,14.121245 M77.935776,14.121245 L77.935776,35.580612 L99.39514,35.580612 L99.39514,14.121245 L77.935776,14.121245 M99.39514,14.121245 L99.39514,35.580612 L120.85451,35.580612 L120.85451,14.121245 L99.39514,14.121245 M120.85451,14.121245 L120.85451,35.580612 L142.31387,35.580612 L142.31387,14.121245 L120.85451,14.121245 M142.31387,14.121245 L142.31387,35.580612 L163.77324,35.580612 L163.77324,14.121245 L142.31387,14.121245 M163.77324,14.121245 L163.77324,35.580612 L185.2326,35.580612 L185.2326,14.121245 L163.77324,14.121245 M185.2326,14.121245 L185.2326,35.580612 L206.69199,35.580612 L206.69199,14.121245 L185.2326,14.121245 M13.717792,35.217236 L12.978287,56.663857 L34.424908,57.40336 L35.164413,35.956738 L13.717792,35.217236 M34.75729,36.19816 L35.95872,57.623867 L57.384434,56.422436 L56.183,34.996727 L34.75729,36.19816 M56.900284,35.786316 L57.30782,57.241814 L78.76332,56.83428 L78.35578,35.37878 L56.900284,35.786316 M77.96906,35.441566 L77.68915,56.89911 L99.14669,57.179028 L99.426605,35.721485 L77.96906,35.441566 M99.47202,35.524746 L99.36,56.98382 L120.81908,57.095848 L120.9311,35.636772 L99.47202,35.524746 M120.77173,35.547657 L120.70571,57.006924 L142.16498,57.072937 L142.23099,35.61367 L120.77173,35.547657 M142.04466,35.53703 L141.95732,56.99622 L163.41652,57.083565 L163.50386,35.624374 L142.04466,35.53703 M162.20448,36.129498 L163.27551,57.56212 L184.70813,56.491096 L183.63712,35.058475 L162.20448,36.129498 M185.93198,35.137886 L185.02745,56.578182 L206.46774,57.482708 L207.37227,36.04241 L185.93198,35.137886 M13.245021,57.597454 L14.332397,79.02925 L35.7642,77.94188 L34.676823,56.510075 L13.245021,57.597454 M35.719074,57.547173 L36.71054,78.98363 L58.146996,77.99216 L57.155525,56.555706 L35.719074,57.547173 M57.61786,56.55702 L56.629143,77.9936 L78.06572,78.982315 L79.05444,57.545734 L57.61786,56.55702 M78.627556,56.708538 L77.954094,78.15733 L99.40289,78.830795 L100.07635,57.381996 L78.627556,56.708538 M99.609314,57.11818 L99.76515,78.57698 L121.22395,78.42115 L121.068115,56.962345 L99.609314,57.11818 M122.247185,56.617065 L121.38399,78.05907 L142.82599,78.922264 L143.68918,57.480263 L122.247185,56.617065 M142.3146,56.924675 L142.08275,78.38279 L163.54086,78.614655 L163.77272,57.15654 L142.3146,56.924675 M163.76834,56.58441 L162.83698,78.02356 L184.27612,78.95492 L185.20749,57.515774 L163.76834,56.58441 M183.7773,57.208286 L184.11131,78.665054 L205.56807,78.33104 L205.23405,56.874275 L183.7773,57.208286 M13.338313,76.960815 L10,98.158936 L31.198116,101.497246 L34.53643,80.29913 L13.338313,76.960815 M35.054375,79.25352 L36.513073,100.663246 L57.922806,99.20455 L56.46411,77.794815 L35.054375,79.25352 M52.860573,79.66223 L55.072075,101.00734 L76.41718,98.79584 L74.20568,77.45073 L52.860573,79.66223 M78.92541,80.3769 L82.39771,101.553474 L103.574295,98.08117 L100.10199,76.90459 L78.92541,80.3769 M102.41703,77.773926 L100.91344,99.18055 L122.32006,100.68414 L123.823654,79.27751 L102.41703,77.773926 M116.81593,79.14639 L118.07316,100.5689 L139.49567,99.311676 L138.23845,77.88917 L116.81593,79.14639 M143.78958,78.023285 L142.81532,99.460526 L164.25256,100.434784 L165.22682,78.99754 L143.78958,78.023285 M165.59888,80.06354 L168.5266,101.32225 L189.78531,98.39453 L186.85759,77.13582 L165.59888,80.06354 M187.48495,78.32662 L187.13667,99.783165 L208.59322,100.13144 L208.9415,78.674904 L187.48495,78.32662 M12.632113,101.45126 L15.433562,122.72699 L36.709286,119.92554 L33.907837,98.64982 L12.632113,101.45126 M32.967854,101.1865 L35.29668,122.51913 L56.62931,120.1903 L54.30048,98.85767 L32.967854,101.1865 M57.857838,98.3779 L54.41886,119.55992 L75.600876,122.9989 L79.039856,101.81688 L57.857838,98.3779 M83.48579,98.678665 L80.75067,119.96302 L102.03503,122.698135 L104.77014,101.41378 L83.48579,98.678665 M93.81759,102.13836 L97.80345,123.22431 L118.889404,119.23844 L114.90354,98.15249 L93.81759,102.13836 M119.209206,98.23517 L115.42599,119.35841 L136.54924,123.14163 L140.33246,102.01839 L119.209206,98.23517 M146.02509,98.83375 L143.64246,120.16043 L164.96915,122.54305 L167.35178,101.21637 L146.02509,98.83375 M158.99721,102.02411 L162.79013,123.145615 L183.91165,119.35269 L180.11873,98.231186 L158.99721,102.02411 M186.48228,101.22371 L188.87811,122.54891 L210.20332,120.1531 L207.8075,98.82789 L186.48228,101.22371 M14.311476,123.744354 L18.542732,144.78244 L39.580814,140.55118 L35.34956,119.5131 L14.311476,123.744354 M28.038126,124.33815 L33.23859,145.15785 L54.05828,139.95738 L48.85782,119.13769 L28.038126,124.33815 M56.906986,121.670746 L57.406494,143.1243 L78.86005,142.62479 L78.36054,121.17124 L56.906986,121.670746 M74.263695,121.66797 L74.75777,143.12164 L96.21144,142.62758 L95.71737,121.17389 L74.263695,121.66797 M106.26834,119.55615 L102.144516,140.61555 L123.20392,144.73938 L127.32774,123.67998 L106.26834,119.55615 M123.27064,123.41173 L126.941605,144.55478 L148.08466,140.8838 L144.41368,119.74076 L123.27064,123.41173 M136.62361,123.950966 L141.19649,144.91745 L162.16296,140.34457 L157.59009,119.37809 L136.62361,123.950966 M168.93951,119.32724 L164.23601,140.2648 L185.17358,144.96829 L189.87708,124.03073 L168.93951,119.32724 M184.96664,120.946304 L184.00137,142.38396 L205.43901,143.34923 L206.4043,121.91158 L184.96664,120.946304 M18.249296,143.9931 L20.375055,165.34692 L41.728874,163.22116 L39.603115,141.86734 L18.249296,143.9931 M30.362923,142.17114 L28.900394,163.58061 L50.309868,165.04314 L51.772396,143.63367 L30.362923,142.17114 M59.33594,142.09933 L57.718674,163.49767 L79.11701,165.11494 L80.73428,143.7166 L59.33594,142.09933 M82.342476,140.67232 L77.34131,161.54079 L98.20978,166.54195 L103.21094,145.6735 L82.342476,140.67232 M96.57164,143.0813 L96.97554,164.53687 L118.43111,164.13297 L118.02721,142.6774 L96.57164,143.0813 M118.66961,145.9017 L124.036224,166.67918 L144.8137,161.31258 L139.4471,140.53508 L118.66961,145.9017 M144.80981,142.40984 L143.85324,163.84787 L165.29128,164.80444 L166.24785,143.36641 L144.80981,142.40984 M168.10558,140.99916 L163.94101,162.05054 L184.99239,166.21512 L189.15697,145.16373 L168.10558,140.99916 M183.6371,141.55164 L180.79663,162.82217 L202.06717,165.66264 L204.90764,144.39209 L183.6371,141.55164 M18.38648,163.12242 L15.801413,184.42552 L37.104507,187.01059 L39.689575,165.70749 L18.38648,163.12242 M37.512863,166.40497 L41.31047,187.52565 L62.431137,183.72803 L58.63353,162.60736 L37.512863,166.40497 M56.80771,163.57806 L55.232285,184.97952 L76.63374,186.55495 L78.20917,165.15349 L56.80771,163.57806 M88.50622,161.00926 L80.16264,180.78018 L99.93356,189.12375 L108.27714,169.35283 L88.50622,161.00926 M89.95347,168.41609 L96.94213,188.70558 L117.23161,181.71692 L110.24295,161.42743 L89.95347,168.41609 M126.38029,161.38774 L119.269905,181.63489 L139.51704,188.74527 L146.62743,168.49812 L126.38029,161.38774 M141.13168,165.93205 L144.1139,187.18318 L165.36505,184.20096 L162.38283,162.94983 L141.13168,165.93205 M174.76181,161.54381 L168.12308,181.95047 L188.52972,188.5892 L195.16847,168.18254 L174.76181,161.54381 M195.27602,160.97755 L186.8221,180.70154 L206.54608,189.15546 L215,169.43147 L195.27602,160.97755 M12.039068,185.98074 L12.405052,207.43698 L33.861298,207.071 L33.495316,185.61476 L12.039068,185.98074 M39.27074,190.78548 L47.57669,210.57222 L67.36345,202.26628 L59.057495,182.47952 L39.27074,190.78548 M46.869354,190.53264 L54.81648,210.46623 L74.75006,202.5191 L66.80294,182.58553 L46.869354,190.53264 M71.07931,190.1822 L78.52005,210.31029 L98.64813,202.86954 L91.20739,182.74146 L71.07931,190.1822 M100.63341,183.86931 L96.34723,204.89627 L117.37419,209.18245 L121.66037,188.15549 L100.63341,183.86931 M122.14996,191.60175 L131.57872,210.87875 L150.85573,201.45 L141.42697,182.17299 L122.14996,191.60175 M143.01648,187.81113 L146.72371,208.94785 L167.86043,205.24062 L164.1532,184.1039 L143.01648,187.81113 M165.51717,187.53781 L168.75476,208.75154 L189.96849,205.51395 L186.7309,184.3002 L165.51717,187.53781 M188.60536,188.14925 L192.88116,209.17831 L213.91025,204.9025 L209.63443,183.87343 L188.60536,188.14925" fill="none" stroke="black" stroke-linecap="square" stroke-linejoin="square" stroke-width="1"/>
</svg>