<svg height="225mm" viewBox="0 0 225 225" width="225mm" xmlns="http://www.w3.org/2000/svg">
<path d="M36.23676,13.788638 L36.23676,35.319668 L14.70573,35.319668 L14.70573,13.788638 L36.23676,13.788638 M57.767788,13.788638 L57.767788,35.319668 L36.23676,35.319668 L36.23676,13.788638 L57.767788,13.788638 M79.29882,13.788638 L79.29882,35.319668 L57.767788,35.319668 L57.767788,13.788638 L79.29882,13.788638 M100.82985,13.788638 L100.82985,35.319668 L79.29882,35.319668 L79.29882,13.788638 L100.82985,13.788638 M122.36088,13.788638 L122.36088,35.319668 L100.82985,35.319668 L100.82985,13.788638 L122.36088,13.788638 M143.8919,13.788638 L143.8919,35.319668 L122.36088,35.319668 L122.36088,13.788638 L143.8919,13.788638 M165.42293,13.788638 L165.42293,35.319668 L143.8919,35.319668 L143.8919,13.788638 L165.42293,13.788638 M186.95396,13.788638 L186.95396,35.319668 L165.42293,35.319668 L165.42293,13.788638 L186.95396,13.788638 M208.48499,13.788638 L208.48499,35.319668 L186.95396,35.319668 L186.95396,13.788638 L208.48499,13.788638 M35.778267,35.57394 L35.27559,57.099102 L13.75043,56.596424 L14.253106,35.071262 L35.778267,35.57394 M57.30697,35.467884 L57.012547,56.996902 L35.483532,56.70248 L35.777954,35.173462 L57.30697,35.467884 M78.92244,35.192745 L79.1778,56.72226 L57.648285,56.97762 L57.392925,35.448105 L78.92244,35.192745 M100.89103,34.89199 L101.76409,56.40531 L80.25077,57.278374 L79.37771,35.765053 L100.89103,34.89199 M121.48584,35.58519 L120.96119,57.109825 L99.436554,56.585175 L99.961205,35.06054 L121.48584,35.58519 M143.31064,34.72015 L144.54509,56.215763 L123.049484,57.450214 L121.81503,35.9546 L143.31064,34.72015 M164.21608,34.765785 L165.35393,56.266727 L143.85298,57.40458 L142.71513,35.903637 L164.21608,34.765785 M186.13774,35.345337 L186.08647,56.87631 L164.5555,56.825024 L164.60678,35.294056 L186.13774,35.345337 M208.88472,34.850517 L209.8444,56.36015 L188.33478,57.319847 L187.37508,35.810215 L208.88472,34.850517 M34.235546,56.81066 L34.31577,78.34154 L12.784888,78.42176 L12.704666,56.89088 L34.235546,56.81066 M56.672638,56.83215 L56.709763,78.36315 L35.178764,78.40027 L35.14164,56.869274 L56.672638,56.83215 M81.67621,57.391346 L80.6208,78.89649 L59.115654,77.84108 L60.171066,56.33593 L81.67621,57.391346 M104.16087,58.096226 L101.799675,79.49739 L80.398506,77.1362 L82.759705,55.73503 L104.16087,58.096226 M123.45447,57.03614 L123.08672,78.564026 L101.55884,78.19628 L101.92658,56.668396 L123.45447,57.03614 M141.78093,56.465847 L142.56491,77.9826 L121.04816,78.76658 L120.264175,57.249825 L141.78093,56.465847 M164.5471,56.496376 L165.2678,78.01534 L143.74884,78.736046 L143.02814,57.217083 L164.5471,56.496376 M186.07121,57.01694 L185.74124,78.54544 L164.21274,78.215485 L164.54271,56.68698 L186.07121,57.01694 M209.43115,56.861904 L209.40875,78.39292 L187.87773,78.370514 L187.90013,56.8395 L209.43115,56.861904 M36.140728,80.35412 L32.5051,101.57598 L11.283238,97.94036 L14.918864,76.7185 L36.140728,80.35412 M62.821922,80.3293 L59.22871,101.55839 L37.999626,97.96518 L41.592834,76.73609 L62.821922,80.3293 M78.20925,77.332275 L80.42217,98.74928 L59.005165,100.962204 L56.792248,79.5452 L78.20925,77.332275 M103.2702,77.97112 L104.107704,99.485855 L82.59297,100.323364 L81.75546,78.808624 L103.2702,77.97112 M121.35507,77.39879 L123.42022,98.83055 L101.98846,100.89569 L99.92331,79.46393 L121.35507,77.39879 M146.74635,79.90092 L143.8973,101.242615 L122.555595,98.39356 L125.40465,77.051865 L146.74635,79.90092 M161.6159,76.765495 L165.13847,98.00642 L143.89755,101.528984 L140.37498,80.28806 L161.6159,76.765495 M186.25482,78.31891 L186.38081,99.84957 L164.85016,99.97557 L164.72417,78.44491 L186.25482,78.31891 M207.41635,77.93569 L208.32773,99.447426 L186.816,100.35879 L185.90462,78.84706 L207.41635,77.93569 M33.185,97.83701 L37.84734,118.857185 L16.827164,123.51952 L12.1648245,102.49935 L33.185,97.83701 M62.657284,102.56117 L57.89395,123.55869 L36.89643,118.795364 L41.659763,97.797844 L62.657284,102.56117 M76.78947,100.44932 L75.741844,121.95484 L54.236317,120.90723 L55.28394,99.401695 L76.78947,100.44932 M99.28262,99.325775 L100.49049,120.82289 L78.99337,122.03077 L77.7855,100.533646 L99.28262,99.325775 M123.66708,99.90217 L123.68826,121.43319 L102.15725,121.45437 L102.13607,99.92335 L123.66708,99.90217 M145.06093,98.082085 L149.10558,119.229805 L127.957855,123.27445 L123.91321,102.12673 L145.06093,98.082085 M166.81548,99.0635 L168.58699,120.52153 L147.12897,122.29304 L145.35745,100.835014 L166.81548,99.0635 M190.63194,99.58665 L191.29436,121.10748 L169.77351,121.7699 L169.11111,100.249054 L190.63194,99.58665 M211.49165,100.00281 L211.31229,121.5331 L189.782,121.35373 L189.96136,99.82345 L211.49165,100.00281 M33.27143,122.39081 L31.454205,143.84502 L10,142.02779 L11.817227,120.573586 L33.27143,122.39081 M60.392334,120.34023 L62.726315,141.74438 L41.322163,144.07837 L38.988182,122.67421 L60.392334,120.34023 M84.41237,122.4274 L82.52777,143.8758 L61.07938,141.9912 L62.963974,120.54281 L84.41237,122.4274 M101.62909,118.98729 L107.30318,139.75722 L86.53325,145.4313 L80.85916,124.66138 L101.62909,118.98729 M125.037285,120.478584 L127.06321,141.9141 L105.6277,143.94 L103.60178,122.5045 L125.037285,120.478584 M143.63332,123.73032 L139.46715,144.85443 L118.34303,140.68828 L122.5092,119.564156 L143.63332,123.73032 M161.27275,120.74096 L162.72762,142.22278 L141.2458,143.67764 L139.79094,122.19582 L161.27275,120.74096 M191.26855,120.36462 L193.54788,141.77466 L172.13783,144.05399 L169.8585,122.64394 L191.26855,120.36462 M213.5853,122.63574 L211.3208,144.04735 L189.90918,141.78285 L192.17368,120.37125 L213.5853,122.63574 M32.212063,141.47546 L35.456627,162.76062 L14.171467,166.00519 L10.926902,144.72003 L32.212063,141.47546 M57.037495,141.44289 L60.35912,162.71616 L39.08585,166.03778 L35.764225,144.76451 L57.037495,141.44289 M83.88202,142.96486 L83.901955,164.49586 L62.370934,164.51581 L62.350998,142.98479 L83.88202,142.96486 M96.95131,140.43886 L102.84577,161.14732 L82.137314,167.0418 L76.24284,146.33333 L96.95131,140.43886 M128.7948,145.87445 L123.625305,166.7757 L102.724075,161.6062 L107.89356,140.70497 L128.7948,145.87445 M138.74326,140.06863 L145.7159,160.43938 L125.34515,167.41203 L118.372505,147.04128 L138.74326,140.06863 M172.15453,144.61317 L169.09613,165.92587 L147.78342,162.86748 L150.84181,141.55478 L172.15453,144.61317 M191.82481,144.03532 L189.79927,165.47087 L168.36372,163.44533 L170.38927,142.00978 L191.82481,144.03532 M214.8418,142.896 L215,164.42645 L193.46956,164.58466 L193.31134,143.0542 L214.8418,142.896 M37.273685,166.99171 L32.77678,188.04791 L11.720591,183.551 L16.217499,162.49481 L37.273685,166.99171 M58.240013,164.3993 L58.45414,185.92928 L36.924175,186.1434 L36.71005,164.61343 L58.240013,164.3993 M71.84146,162.49864 L76.32863,183.5569 L55.270363,188.04407 L50.783195,166.98581 L71.84146,162.49864 M106.08425,169.2145 L98.17305,189.23943 L78.14811,181.32822 L86.05932,161.30328 L106.08425,169.2145 M127.322556,165.46443 L125.484024,186.91681 L104.03164,185.0783 L105.87016,163.6259 L127.322556,165.46443 M146.48613,165.78394 L144.06636,187.17856 L122.67173,184.75877 L125.091515,163.36415 L146.48613,165.78394 M167.08734,169.29106 L159.06662,189.27238 L139.0853,181.25166 L147.10602,161.27034 L167.08734,169.29106 M175.77129,161.16635 L184.14555,181.00209 L164.3098,189.37636 L155.93553,169.54062 L175.77129,161.16635 M213.4338,163.96515 L214.54384,185.46754 L193.04144,186.57758 L191.93141,165.07518 L213.4338,163.96515 M35.30727,183.52707 L41.12883,204.25615 L20.399754,210.07771 L14.578193,189.34863 L35.30727,183.52707 M52.85633,187.9064 L49.39699,209.15771 L28.145681,205.69838 L31.605019,184.44707 L52.85633,187.9064 M79.886604,184.03102 L84.370316,205.09003 L63.311314,209.57375 L58.827602,188.51474 L79.886604,184.03102 M92.57451,186.10863 L92.43149,207.63918 L70.90093,207.49615 L71.04395,185.96559 L92.57451,186.10863 M110.89179,183.97499 L115.51855,205.00302 L94.49051,209.62979 L89.863754,188.60175 L110.89179,183.97499 M147.13588,188.74857 L142.26964,209.72247 L121.29572,204.85622 L126.16198,183.88231 L147.13588,188.74857 M167.13438,182.39342 L176.62665,201.7191 L157.30096,211.21136 L147.8087,191.88568 L167.13438,182.39342 M190.47302,185.55516 L191.45903,207.0636 L169.95059,208.0496 L168.96458,186.54117 L190.47302,185.55516 M205.3207,191.0052 L197.04005,210.88022 L177.16504,202.59958 L185.4457,182.72456 L205.3207,191.0052" fill="none" stroke="black" stroke-linecap="square" stroke-linejoin="square" stroke-width="1"/>
</svg>