<svg height="224mm" viewBox="0 0 224 224" width="224mm" xmlns="http://www.w3.org/2000/svg">
<path d="M24.832693,22.270235 L13.506948,13.505058 M34.475113,10.7949 L32.507214,24.980392 M53.922302,21.62202 L41.702705,14.153272 M64.616066,24.604326 L59.651627,11.170965 M81.92399,22.510132 L70.98638,13.26516 M96.89952,21.600355 L84.65354,14.174938 M109.86038,23.234955 L100.33536,12.5403385 M125.42633,13.990243 L113.412094,21.78505 M134.4925,10.766566 L132.9886,25.008726 M153.1989,22.87628 L142.9249,12.8990135 M169.22586,15.777248 L155.54062,19.998045 M178.01202,10.84735 L175.39713,24.927942 M195.8504,12.59619 L186.20143,23.179102 M212.31442,16.234222 L198.3801,19.541069 M22.834217,26.056963 L15.505425,38.36101 M35.316494,39.133102 L31.665829,25.284872 M53.4477,36.6271 L42.177307,27.790873 M68.58048,35.32605 L55.68721,29.091923 M80.15884,38.33746 L72.75153,26.080515 M91.77247,25.117914 L89.780594,39.30006 M106.71276,39.185184 L103.48298,25.23279 M126.55864,32.760185 L112.279785,31.657791 M134.21744,39.35376 L133.26367,25.064215 M152.17323,26.346218 L143.95055,38.07176 M168.96384,35.03227 L155.80264,29.385708 M183.85287,31.78825 L169.55627,32.629726 M193.44212,25.468279 L188.60971,38.949696 M210.57454,37.102943 L200.11998,27.315033 M24.75434,42.048325 L13.585304,51.012333 M39.24522,42.26817 L27.737104,50.792492 M53.705357,50.59844 L41.91965,42.46222 M69.014885,48.51186 L55.252804,44.548798 M78.46393,53.403477 L74.44644,39.65718 M97.45156,43.93819 L84.1015,49.122467 M111.89647,44.282154 L98.29927,48.778507 M125.05986,42.119175 L113.778564,50.941483 M140.89789,46.31185 L126.58321,46.748806 M155.19089,47.203197 L140.9329,45.85746 M169.03308,43.87425 L155.73338,49.186413 M183.85246,46.10262 L169.55669,46.95804 M192.13472,39.456024 L189.91711,53.604633 M210.11964,41.191837 L200.57487,51.86882 M20.935228,67.791306 L17.404413,53.912033 M35.568287,53.99888 L31.414038,67.70446 M51.86473,66.755455 L43.760277,54.947887 M66.60313,66.44638 L57.664566,55.256966 M79.26825,54.266693 L73.64213,67.436646 M97.88088,61.747955 L83.67217,59.955383 M105.23531,53.692318 L104.96043,68.011024 M121.1485,53.902946 L117.689926,67.80039 M138.18106,55.234097 L129.30005,66.469246 M154.28929,64.38647 L141.8345,57.316875 M162.60222,53.694347 L162.16425,68.008995 M180.04443,67.18575 L173.36473,54.517586 M193.91295,54.29879 L188.13889,67.40455 M205.91606,53.713627 L204.77846,67.989716 M24.93529,81.21401 L21.786951,67.24301 M16.552692,83.10301 L13.404352,69.13201 M37.876343,82.27966 L37.698124,67.95943 M29.284203,82.3866 L29.105984,68.06636 M53.470375,69.03113 L39.730663,73.071075 M55.894344,77.27495 L42.154633,81.314896 M62.393066,66.82633 L54.64714,78.87214 M69.62055,71.473885 L61.874622,83.51969 M84.50548,72.953316 L70.70825,69.11438 M82.20212,81.23164 L68.40489,77.39271 M89.64116,66.89985 L84.01097,80.06806 M97.54208,70.27796 L91.911896,83.446175 M103.5528,66.966484 L98.58391,80.3982 M111.61183,69.94782 L106.64294,83.37954 M126.47067,79.64639 L120.04797,66.84601 M118.79045,83.500015 L112.367744,70.69963 M129.79692,67.812164 L129.10152,82.11661 M138.3796,68.229416 L137.68417,82.53386 M153.51546,81.49701 L151.0755,67.38505 M145.04828,82.960976 L142.60832,68.849014 M168.70197,80.63267 L164.22707,67.028404 M160.53941,83.31762 L156.0645,69.713356 M182.60301,81.08425 L179.14464,67.18675 M174.26451,83.15927 L170.80614,69.26177 M197.69592,70.148544 L183.45374,71.65216 M198.5981,78.69386 L184.35591,80.19748 M211.29738,69.313805 L197.37732,72.680176 M213.3172,77.66585 L199.39714,81.03222 M26.034113,94.249954 L20.135687,81.19969 M18.203955,97.78902 L12.305529,84.73875 M29.694746,82.05651 L28.71491,96.34429 M38.267414,82.64441 L37.28758,96.9322 M55.68243,86.70177 L41.644966,83.864456 M53.980045,95.12425 L39.942577,92.286934 M69.87716,92.62091 L61.248657,81.1907 M63.01903,97.79801 L54.39053,86.3678 M78.60773,81.42584 L68.32295,91.392 M84.58742,87.59671 L74.30265,97.56287 M97.18414,84.13928 L83.03612,86.36061 M98.51694,92.6281 L84.36891,94.84942 M110.76433,83.36039 L97.01898,87.38111 M113.17676,91.6076 L99.43141,95.62832 M117.09754,81.47287 L113.43398,95.317696 M125.404434,83.671005 L121.74088,97.51583 M141.56079,86.56549 L127.47615,83.972435 M140.00494,95.01627 L125.92032,92.42321 M156.41031,89.29873 L143.96062,82.22016 M152.16316,96.76855 L139.71349,89.68997 M170.72731,89.161804 L158.16318,82.28842 M166.60329,96.70029 L154.03915,89.8269 M181.36641,96.42267 L180.624,82.12058 M172.78516,96.86812 L172.04274,82.56603 M197.67442,84.441475 L183.43878,86.005844 M198.61305,92.982864 L184.37741,94.54723 M213.13527,86.48085 L199.02335,84.040695 M211.67117,94.948006 L197.55925,92.50785 M27.443266,104.949 L16.27641,95.98228 M22.063232,111.64912 L10.896376,102.68239 M41.342518,100.97132 L27.286663,98.226555 M39.695663,109.40483 L25.639807,106.66007 M50.556534,95.9287 L39.562088,105.10602 M56.06292,102.525375 L45.068474,111.70268 M70.02227,106.55558 L60.83919,95.565956 M63.4285,112.06543 L54.24542,101.075806 M82.57418,98.13308 L68.561584,101.09075 M84.34879,106.540634 L70.33619,109.498314 M87.30826,96.21929 L85.70595,110.450714 M95.84711,97.18068 L94.2448,111.4121 M112.20388,108.201904 L105.624054,95.48158 M104.571686,112.1498 L97.99186,99.42948 M126.81103,107.700966 L119.36889,95.46514 M119.46953,112.166245 L112.0274,99.93042 M140.47806,108.74929 L134.92314,95.54915 M132.55797,112.08224 L127.00305,98.882095 M155.51563,107.58081 L147.87642,95.46705 M148.24738,112.16434 L140.60815,100.05058 M170.66135,104.914444 L159.45714,95.99442 M165.30933,111.63696 L154.10513,102.71694 M174.68774,95.7122 L170.50354,109.40867 M182.90562,98.22272 L178.72142,111.91919 M195.26881,96.62319 L182.68294,103.456665 M199.3689,104.17472 L186.78302,111.008194 M213.56961,105.27423 L202.76486,95.87431 M207.92966,111.75707 L197.12491,102.357155 M24.840326,112.00681 L11.092327,116.01846 M27.247316,120.25561 L13.499316,124.26726 M36.47628,110.338104 L25.20499,119.173195 M41.777336,117.100876 L30.506044,125.93597 M56.017815,116.58553 L42.582207,111.627174 M53.0428,124.6469 L39.607193,119.68854 M70.483574,118.26495 L58.31743,110.709435 M65.950264,125.56464 L53.78412,118.009125 M84.61171,119.92738 L74.19654,110.09758 M78.71383,126.17649 L68.29866,116.34669 M98.564026,115.12221 L84.45168,112.684456 M97.10137,123.589615 L82.98903,121.15186 M104.06545,109.850395 L98.27197,122.94759 M111.92377,113.326485 L106.13029,126.423676 M127.44604,115.83392 L113.60972,112.13836 M125.2287,124.13571 L111.39239,120.44015 M133.40398,109.79311 L126.53666,122.36057 M140.94444,113.913506 L134.07713,126.48096 M154.3487,112.64064 L140.25363,115.17639 M155.87015,121.09768 L141.77509,123.63343 M166.35088,110.7891 L154.03264,118.09403 M170.73383,118.180046 L158.4156,125.48497 M182.42876,124.21716 L179.37566,110.225044 M174.0335,126.04903 L170.9804,112.05691 M190.13834,109.83363 L184.11708,122.82768 M197.93475,113.44639 L191.91351,126.44044 M210.63284,124.60209 L208.56439,110.43091 M202.13013,125.84316 L200.06168,111.67198 M26.510141,136.44008 L19.228825,124.10788 M19.110819,140.80887 L11.829502,128.47667 M39.689964,126.86292 L25.636913,129.622 M41.345413,135.29475 L27.29236,138.05383 M56.143093,133.03767 L44.403378,124.83524 M51.22163,140.08151 L39.48192,131.87907 M63.368736,124.199486 L54.26546,135.25531 M70.00223,129.66145 L60.898952,140.71727 M77.059555,124.12957 L68.82183,135.84454 M84.08854,129.0722 L75.850815,140.78719 M97.57827,127.61373 L83.30102,128.73668 M98.25204,136.18008 L83.974785,137.30302 M106.81192,124.28548 L97.07987,134.79205 M113.11587,130.12471 L103.38382,140.63127 M119.550026,124.108696 L111.99029,136.27222 M126.84814,128.64455 L119.2884,140.80806 M140.35767,137.5523 L135.12126,124.2226 M132.35985,140.69415 L127.12344,127.36445 M150.10571,124.36165 L139.95592,134.46524 M156.16786,130.45152 L146.01807,140.55511 M167.52538,139.0381 L165.76904,124.82486 M158.99744,140.0919 L157.2411,125.87866 M178.07695,124.221214 L168.79066,135.12378 M184.61848,129.79298 L175.3322,140.69554 M199.24446,133.93822 L188.46411,124.51033 M193.58772,140.40642 L182.80739,130.97853 M202.84724,124.490685 L199.49342,138.41379 M211.2011,126.502975 L207.84727,140.42607 M21.10896,137.81696 L10,146.85532 M24.7243,142.26054 L13.615342,151.29889 M28.339642,146.70413 L17.230684,155.74248 M39.651157,139.98665 L25.511583,142.26112 M40.56095,145.64249 L26.421375,147.91696 M41.47074,151.29831 L27.331167,153.57278 M56.148224,142.9578 L42.254,139.48627 M54.759613,148.51547 L40.865395,145.04396 M53.371006,154.07317 L39.476788,150.60165 M67.6249,139.43536 L53.76326,143.03477 M69.06467,144.98001 L55.203026,148.57942 M70.50443,150.52467 L56.642788,154.12408 M85.47738,148.42024 L76.075226,137.61746 M81.156265,152.1811 L71.754105,141.37833 M76.83515,155.94197 L67.43299,145.13919 M98.023964,152.39809 L94.666954,138.47575 M92.45503,153.74089 L89.09802,139.81856 M86.8861,155.0837 L83.52909,141.16136 M106.30298,137.68912 L95.964455,147.5995 M110.26713,141.82452 L99.92861,151.73491 M114.231285,145.95993 L103.89276,155.87032 M120.76192,137.70842 L110.27442,147.46103 M124.66296,141.90341 L114.17546,151.65602 M128.564,146.09842 L118.07651,155.85101 M135.3414,137.7504 L124.580055,147.19995 M139.12123,142.05495 L128.35988,151.5045 M142.90105,146.35948 L132.1397,155.80904 M157.02324,148.72536 L147.99295,137.60985 M152.57704,152.33748 L143.54675,141.22195 M148.13083,155.94958 L139.10054,144.83408 M171.00745,149.89648 L163.53087,137.68169 M166.12152,152.88712 L158.64494,140.67232 M161.23561,155.87776 L153.75902,143.66295 M183.70546,140.85696 L169.3895,141.24971 M183.86255,146.58334 L169.5466,146.97609 M184.01965,152.30972 L169.70369,152.70247 M190.94443,137.60995 L182.09769,148.8721 M195.44928,141.14864 L186.60255,152.4108 M199.95415,144.68733 L191.1074,155.9495 M212.32436,140.82896 L198.01009,141.27907 M212.5044,146.55467 L198.19012,147.00478 M212.68443,152.28038 L198.37016,152.73047 M27.731956,157.8176 L14.086943,153.46852 M25.992329,163.27559 L12.347315,158.92653 M24.252699,168.7336 L10.607686,164.38454 M39.943672,154.58519 L25.71782,156.23624 M40.604088,160.27554 L26.378237,161.92659 M41.264507,165.96588 L27.038654,167.61693 M56.17566,164.86256 L49.646458,152.11618 M51.077106,167.47426 L44.5479,154.72787 M45.97855,170.08594 L39.44935,157.33955 M68.53664,154.53633 L54.323746,156.29547 M69.24029,160.2215 L55.0274,161.98062 M69.94395,165.90665 L55.731056,167.66579 M72.305214,152.9237 L69.38825,166.94484 M77.91367,154.0905 L74.996704,168.11163 M83.522125,155.25728 L80.605156,169.27841 M97.94934,166.81439 L94.775986,152.84904 M92.363205,168.08372 L89.18985,154.1184 M86.77707,169.35307 L83.603714,155.38773 M102.879295,152.20335 L96.90418,165.21867 M108.08543,154.5934 L102.11031,167.60872 M113.29156,156.98344 L107.316444,169.99876 M121.36065,152.1388 L110.249374,161.1743 M124.97485,156.58331 L113.86357,165.6188 M128.58905,161.02782 L117.477776,170.06332 M137.5031,152.73837 L124.755905,159.266 M140.11415,157.83725 L127.36696,164.36487 M142.7252,162.93613 L129.97801,169.46375 M156.51439,164.65729 L149.67595,152.0741 M151.48111,167.39265 L144.64268,154.80946 M146.44783,170.12802 L139.6094,157.54485 M170.51767,165.33453 L164.72784,152.23573 M165.27814,167.65047 L159.48833,154.55165 M160.03862,169.96638 L154.2488,156.86758 M182.7698,167.97888 L182.08325,153.674 M177.04785,168.2535 L176.3613,153.94862 M171.3259,168.52812 L170.63936,154.22324 M199.97821,163.08795 L190.9992,151.93097 M195.51541,166.67955 L186.53642,155.52257 M191.05263,170.27115 L182.07362,159.11417 M214,164.13774 L206.41049,151.99277 M209.14201,167.17354 L201.5525,155.02858 M204.28403,170.20935 L196.69452,158.06438 M24.443895,167.9207 L10.693367,171.92368 M26.045084,173.42091 L12.294558,177.42389 M27.646275,178.92113 L13.895748,182.9241 M36.733894,166.84476 L24.410908,174.14166 M39.652657,171.77396 L27.329668,179.07085 M42.57142,176.70314 L30.24843,184.00005 M56.852943,176.95923 L47.327354,166.2651 M52.5753,180.76945 L43.04971,170.07535 M48.297653,184.5797 L38.772064,173.88557 M60.47483,166.40358 L53.699177,179.02069 M65.521675,169.11385 L58.746017,181.73096 M70.56851,171.82411 L63.79286,184.44122 M80.57155,167.22807 L67.55714,173.2052 M82.962395,172.43384 L69.94798,178.41096 M85.35324,177.6396 L72.33883,183.61673 M94.27629,166.94638 L81.73899,173.86859 M97.04517,171.96129 L84.50788,178.88351 M99.814064,176.97621 L87.27677,183.89842 M104.43434,166.2763 L96.3205,178.07742 M109.15479,169.52184 L101.04095,181.32297 M113.87524,172.76738 L105.7614,184.5685 M125.17226,168.2814 L111.18952,171.37721 M126.410576,173.8745 L112.42784,176.9703 M127.648895,179.46759 L113.66616,182.5634 M130.1416,166.98802 L126.301895,180.78503 M135.6604,168.5239 L131.82071,182.3209 M141.1792,170.05977 L137.33951,183.85678 M154.35637,182.09105 L153.18617,167.8176 M148.64699,182.55913 L147.47679,168.28568 M142.9376,183.0272 L141.76741,168.75375 M165.17503,166.68758 L153.24863,174.61609 M168.34645,171.45815 L156.42003,179.38666 M171.51785,176.22871 L159.59143,184.15723 M182.49829,168.31436 L168.49812,171.33029 M183.70467,173.91444 L169.70448,176.93036 M184.91104,179.51451 L170.91086,182.53044 M197.5558,168.98409 L183.31125,170.46507 M198.1482,174.68192 L183.90364,176.16289 M198.74059,180.37973 L184.49603,181.86072 M213.64294,171.51434 L199.71352,168.18692 M212.31198,177.0861 L198.38254,173.7587 M210.981,182.65788 L197.05157,179.33046 M22.936184,181.38277 L10.186013,187.90457 M25.544907,186.48283 L12.794736,193.00464 M28.15363,191.5829 L15.403458,198.10472 M37.189003,181.35223 L24.492609,187.97813 M39.83936,186.4308 L27.142967,193.05669 M42.489716,191.50935 L29.793324,198.13524 M56.83839,191.36383 L47.41179,180.58237 M52.525806,195.13448 L43.0992,184.35301 M48.213223,198.90512 L38.786617,188.12366 M64.01918,180.76952 L52.96464,189.87434 M67.66111,185.19133 L56.60658,194.29616 M71.30305,189.61314 L60.248512,198.71797 M85.1567,192.63771 L77.368484,180.6192 M80.34929,195.75299 L72.56108,183.73448 M75.541885,198.86829 L67.75368,186.84978 M92.83846,180.80844 L81.60653,189.69351 M96.392494,185.30121 L85.16056,194.18628 M99.946526,189.79398 L88.71459,198.67905 M111.95495,183.65508 L97.6525,184.39046 M112.24909,189.37605 L97.94665,190.11143 M112.54324,195.09703 L98.24079,195.83241 M125.15318,196.90005 L125.14231,182.57872 M119.42465,196.90442 L119.41377,182.58307 M113.69611,196.90877 L113.68524,182.58742 M129.90155,181.41588 L126.4585,195.31717 M135.46208,182.79309 L132.01903,196.6944 M141.0226,184.1703 L137.57954,198.07161 M145.16336,181.04375 L140.21036,194.48134 M150.53839,183.02495 L145.5854,196.46254 M155.91342,185.00615 L150.96043,198.44373 M162.78539,180.58243 L153.3571,191.36243 M167.09738,184.35374 L157.66908,195.13374 M171.40938,188.12506 L161.98108,198.90506 M181.96202,182.23038 L168.2204,186.26381 M183.5754,187.72704 L169.83376,191.76045 M185.18877,193.22368 L171.44713,197.25711 M188.60919,180.8978 L182.92622,194.04332 M193.8674,183.17097 L188.18443,196.3165 M199.12561,185.44417 L193.44264,198.58969 M202.87654,180.91272 L197.27399,194.09271 M208.14854,183.15375 L202.54597,196.33374 M213.42053,185.39478 L207.81798,198.57477 M28.247835,205.36162 L18.441998,194.92387 M24.07274,209.28395 L14.266903,198.84622 M19.897644,213.20628 L10.091807,202.76855 M42.64183,204.66225 L32.065083,195.00652 M38.779537,208.89294 L28.202787,199.23721 M34.917244,213.12366 L24.340494,203.46791 M56.59954,206.68793 L48.442513,194.91663 M51.891018,209.95074 L43.73399,198.17943 M47.182495,213.21355 L39.025467,201.44225 M58.153328,195.80392 L54.947945,209.76195 M63.736538,197.08607 L60.531155,211.0441 M69.31975,198.36823 L66.114365,212.32625 M83.51523,198.21298 L69.19605,198.46185 M83.61478,203.94064 L69.2956,204.18951 M83.714325,209.66832 L69.39514,209.91719 M99.760956,205.90121 L90.59569,194.89673 M95.35916,209.56732 L86.19389,198.56284 M90.95737,213.23343 L81.7921,202.22894 M113.72166,200.94713 L100.16294,196.33606 M111.87723,206.37062 L98.31851,201.75955 M110.0328,211.79411 L96.47408,207.18303 M125.27823,211.1194 L125.015335,196.80046 M119.55066,211.22455 L119.287766,196.90562 M113.82308,211.32971 L113.560196,197.01077 M138.81468,196.42673 L125.17466,200.79143 M140.56056,201.88274 L126.92054,206.24744 M142.30644,207.33875 L128.66643,211.70345 M143.95427,195.86638 L140.96483,209.87224 M149.55663,197.06215 L146.56717,211.06801 M155.15897,198.25793 L152.16951,212.2638 M170.85512,200.55528 L157.09937,196.57028 M169.26111,206.05759 L155.50536,202.07259 M167.6671,211.55989 L153.91136,207.57487 M172.60493,195.86238 L169.60187,209.86533 M178.20612,197.06361 L175.20305,211.06656 M183.80728,198.26485 L180.80421,212.26778 M188.47087,195.25809 L182.9946,208.49106 M193.76405,197.44861 L188.28778,210.68156 M199.05724,199.63911 L193.58096,212.87207 M213.27805,199.4614 L199.11494,197.3383 M212.4288,205.12663 L198.26572,203.00354 M211.57957,210.79187 L197.41647,208.66878" fill="none" stroke="red" stroke-linecap="round" stroke-linejoin="round" stroke-width="2.6666666666666665"/>
</svg>