<svg height="224mm" viewBox="0 0 224 224" width="224mm" xmlns="http://www.w3.org/2000/svg">
<path d="M10,10 L10,33.89189 L33.89189,33.89189 L33.89189,10 L10,10 M18.27027,12.756757 L18.27027,25.621622 L31.135136,25.621622 L31.135136,12.756757 L18.27027,12.756757 M26.54054,15.513514 L26.54054,17.35135 L28.378378,17.35135 L28.378378,15.513514 L26.54054,15.513514 M35.72973,10 L35.72973,33.89189 L59.62162,33.89189 L59.62162,10 L35.72973,10 M41.243244,15.513514 L41.243244,28.378378 L54.10811,28.378378 L54.10811,15.513514 L41.243244,15.513514 M46.756756,21.027027 L46.756756,22.864864 L48.594593,22.864864 L48.594593,21.027027 L46.756756,21.027027 M61.45946,10 L61.45946,33.89189 L85.35135,33.89189 L85.35135,10 L61.45946,10 M62.837837,12.756757 L62.837837,31.135136 L81.21622,31.135136 L81.21622,12.756757 L62.837837,12.756757 M64.21622,15.513514 L64.21622,28.378378 L77.08108,28.378378 L77.08108,15.513514 L64.21622,15.513514 M65.5946,18.27027 L65.5946,25.621622 L72.945946,25.621622 L72.945946,18.27027 L65.5946,18.27027 M66.97298,21.027027 L66.97298,22.864864 L68.810814,22.864864 L68.810814,21.027027 L66.97298,21.027027 M87.189186,10 L87.189186,33.89189 L111.08108,33.89189 L111.08108,10 L87.189186,10 M89.02702,11.837838 L89.02702,28.378378 L105.567566,28.378378 L105.567566,11.837838 L89.02702,11.837838 M90.86487,13.675675 L90.86487,22.864864 L100.054054,22.864864 L100.054054,13.675675 L90.86487,13.675675 M92.702705,15.513514 L92.702705,17.35135 L94.54054,17.35135 L94.54054,15.513514 L92.702705,15.513514 M112.91892,10 L112.91892,33.89189 L136.8108,33.89189 L136.8108,10 L112.91892,10 M121.189186,12.756757 L121.189186,25.621622 L134.05405,25.621622 L134.05405,12.756757 L121.189186,12.756757 M129.45946,15.513514 L129.45946,17.35135 L131.2973,17.35135 L131.2973,15.513514 L129.45946,15.513514 M138.64865,10 L138.64865,33.89189 L162.54054,33.89189 L162.54054,10 L138.64865,10 M146.91891,15.513514 L146.91891,28.378378 L159.78378,28.378378 L159.78378,15.513514 L146.91891,15.513514 M155.1892,21.027027 L155.1892,22.864864 L157.02702,22.864864 L157.02702,21.027027 L155.1892,21.027027 M164.37837,10 L164.37837,33.89189 L188.27026,33.89189 L188.27026,10 L164.37837,10 M169.89189,11.837838 L169.89189,28.378378 L186.43243,28.378378 L186.43243,11.837838 L169.89189,11.837838 M175.40541,13.675675 L175.40541,22.864864 L184.59459,22.864864 L184.59459,13.675675 L175.40541,13.675675 M180.91891,15.513514 L180.91891,17.35135 L182.75676,17.35135 L182.75676,15.513514 L180.91891,15.513514 M190.10811,10 L190.10811,33.89189 L214,33.89189 L214,10 L190.10811,10 M194.24324,14.135135 L194.24324,32.51351 L212.62163,32.51351 L212.62163,14.135135 L194.24324,14.135135 M198.37837,18.27027 L198.37837,31.135136 L211.24324,31.135136 L211.24324,18.27027 L198.37837,18.27027 M202.51352,22.405405 L202.51352,29.756756 L209.86487,29.756756 L209.86487,22.405405 L202.51352,22.405405 M206.64865,26.54054 L206.64865,28.378378 L208.48648,28.378378 L208.48648,26.54054 L206.64865,26.54054 M10,35.72973 L10,59.62162 L33.89189,59.62162 L33.89189,35.72973 L10,35.72973 M15.513514,41.243244 L15.513514,57.783783 L32.054054,57.783783 L32.054054,41.243244 L15.513514,41.243244 M21.027027,46.756756 L21.027027,55.945946 L30.216217,55.945946 L30.216217,46.756756 L21.027027,46.756756 M26.54054,52.27027 L26.54054,54.10811 L28.378378,54.10811 L28.378378,52.27027 L26.54054,52.27027 M35.72973,35.72973 L35.72973,59.62162 L59.62162,59.62162 L59.62162,35.72973 L35.72973,35.72973 M41.243244,41.243244 L41.243244,57.783783 L57.783783,57.783783 L57.783783,41.243244 L41.243244,41.243244 M46.756756,46.756756 L46.756756,55.945946 L55.945946,55.945946 L55.945946,46.756756 L46.756756,46.756756 M52.27027,52.27027 L52.27027,54.10811 L54.10811,54.10811 L54.10811,52.27027 L52.27027,52.27027 M61.45946,35.72973 L61.45946,59.62162 L85.35135,59.62162 L85.35135,35.72973 L61.45946,35.72973 M64.21622,39.864864 L64.21622,58.243244 L82.5946,58.243244 L82.5946,39.864864 L64.21622,39.864864 M66.97298,44 L66.97298,56.864864 L79.83784,56.864864 L79.83784,44 L66.97298,44 M69.72973,48.135136 L69.72973,55.48649 L77.08108,55.48649 L77.08108,48.135136 L69.72973,48.135136 M72.48649,52.27027 L72.48649,54.10811 L74.324326,54.10811 L74.324326,52.27027 L72.48649,52.27027 M87.189186,35.72973 L87.189186,59.62162 L111.08108,59.62162 L111.08108,35.72973 L87.189186,35.72973 M89.02702,37.567566 L89.02702,54.10811 L105.567566,54.10811 L105.567566,37.567566 L89.02702,37.567566 M90.86487,39.405407 L90.86487,48.594593 L100.054054,48.594593 L100.054054,39.405407 L90.86487,39.405407 M92.702705,41.243244 L92.702705,43.08108 L94.54054,43.08108 L94.54054,41.243244 L92.702705,41.243244 M112.91892,35.72973 L112.91892,59.62162 L136.8108,59.62162 L136.8108,35.72973 L112.91892,35.72973 M114.75676,39.405407 L114.75676,55.945946 L131.2973,55.945946 L131.2973,39.405407 L114.75676,39.405407 M116.5946,43.08108 L116.5946,52.27027 L125.78378,52.27027 L125.78378,43.08108 L116.5946,43.08108 M118.432434,46.756756 L118.432434,48.594593 L120.27027,48.594593 L120.27027,46.756756 L118.432434,46.756756 M138.64865,35.72973 L138.64865,59.62162 L162.54054,59.62162 L162.54054,35.72973 L138.64865,35.72973 M144.16216,41.243244 L144.16216,54.10811 L157.02702,54.10811 L157.02702,41.243244 L144.16216,41.243244 M149.67567,46.756756 L149.67567,48.594593 L151.51352,48.594593 L151.51352,46.756756 L149.67567,46.756756 M164.37837,35.72973 L164.37837,59.62162 L188.27026,59.62162 L188.27026,35.72973 L164.37837,35.72973 M168.05405,37.567566 L168.05405,54.10811 L184.59459,54.10811 L184.59459,37.567566 L168.05405,37.567566 M171.72974,39.405407 L171.72974,48.594593 L180.91891,48.594593 L180.91891,39.405407 L171.72974,39.405407 M175.40541,41.243244 L175.40541,43.08108 L177.24324,43.08108 L177.24324,41.243244 L175.40541,41.243244 M190.10811,35.72973 L190.10811,59.62162 L214,59.62162 L214,35.72973 L190.10811,35.72973 M198.37837,41.243244 L198.37837,54.10811 L211.24324,54.10811 L211.24324,41.243244 L198.37837,41.243244 M206.64865,46.756756 L206.64865,48.594593 L208.48648,48.594593 L208.48648,46.756756 L206.64865,46.756756 M10,61.45946 L10,85.35135 L33.89189,85.35135 L33.89189,61.45946 L10,61.45946 M11.837838,66.97298 L11.837838,83.51351 L28.378378,83.51351 L28.378378,66.97298 L11.837838,66.97298 M13.675675,72.48649 L13.675675,81.675674 L22.864864,81.675674 L22.864864,72.48649 L13.675675,72.48649 M15.513514,78 L15.513514,79.83784 L17.35135,79.83784 L17.35135,78 L15.513514,78 M35.72973,61.45946 L35.72973,85.35135 L59.62162,85.35135 L59.62162,61.45946 L35.72973,61.45946 M37.567566,63.2973 L37.567566,79.83784 L54.10811,79.83784 L54.10811,63.2973 L37.567566,63.2973 M39.405407,65.13513 L39.405407,74.324326 L48.594593,74.324326 L48.594593,65.13513 L39.405407,65.13513 M41.243244,66.97298 L41.243244,68.810814 L43.08108,68.810814 L43.08108,66.97298 L41.243244,66.97298 M61.45946,61.45946 L61.45946,85.35135 L85.35135,85.35135 L85.35135,61.45946 L61.45946,61.45946 M69.72973,66.97298 L69.72973,79.83784 L82.5946,79.83784 L82.5946,66.97298 L69.72973,66.97298 M78,72.48649 L78,74.324326 L79.83784,74.324326 L79.83784,72.48649 L78,72.48649 M87.189186,61.45946 L87.189186,85.35135 L111.08108,85.35135 L111.08108,61.45946 L87.189186,61.45946 M90.86487,65.13513 L90.86487,81.675674 L107.4054,81.675674 L107.4054,65.13513 L90.86487,65.13513 M94.54054,68.810814 L94.54054,78 L103.72973,78 L103.72973,68.810814 L94.54054,68.810814 M98.21622,72.48649 L98.21622,74.324326 L100.054054,74.324326 L100.054054,72.48649 L98.21622,72.48649 M112.91892,61.45946 L112.91892,85.35135 L136.8108,85.35135 L136.8108,61.45946 L112.91892,61.45946 M118.432434,64.21622 L118.432434,77.08108 L131.2973,77.08108 L131.2973,64.21622 L118.432434,64.21622 M123.945946,66.97298 L123.945946,68.810814 L125.78378,68.810814 L125.78378,66.97298 L123.945946,66.97298 M138.64865,61.45946 L138.64865,85.35135 L162.54054,85.35135 L162.54054,61.45946 L138.64865,61.45946 M144.16216,66.97298 L144.16216,79.83784 L157.02702,79.83784 L157.02702,66.97298 L144.16216,66.97298 M149.67567,72.48649 L149.67567,74.324326 L151.51352,74.324326 L151.51352,72.48649 L149.67567,72.48649 M164.37837,61.45946 L164.37837,85.35135 L188.27026,85.35135 L188.27026,61.45946 L164.37837,61.45946 M169.89189,63.2973 L169.89189,79.83784 L186.43243,79.83784 L186.43243,63.2973 L169.89189,63.2973 M175.40541,65.13513 L175.40541,74.324326 L184.59459,74.324326 L184.59459,65.13513 L175.40541,65.13513 M180.91891,66.97298 L180.91891,68.810814 L182.75676,68.810814 L182.75676,66.97298 L180.91891,66.97298 M190.10811,61.45946 L190.10811,85.35135 L214,85.35135 L214,61.45946 L190.10811,61.45946 M192.86487,64.21622 L192.86487,82.5946 L211.24324,82.5946 L211.24324,64.21622 L192.86487,64.21622 M195.62163,66.97298 L195.62163,79.83784 L208.48648,79.83784 L208.48648,66.97298 L195.62163,66.97298 M198.37837,69.72973 L198.37837,77.08108 L205.72974,77.08108 L205.72974,69.72973 L198.37837,69.72973 M201.13513,72.48649 L201.13513,74.324326 L202.97298,74.324326 L202.97298,72.48649 L201.13513,72.48649 M10,87.189186 L10,111.08108 L33.89189,111.08108 L33.89189,87.189186 L10,87.189186 M14.135135,88.567566 L14.135135,106.945946 L32.51351,106.945946 L32.51351,88.567566 L14.135135,88.567566 M18.27027,89.945946 L18.27027,102.810814 L31.135136,102.810814 L31.135136,89.945946 L18.27027,89.945946 M22.405405,91.324326 L22.405405,98.675674 L29.756756,98.675674 L29.756756,91.324326 L22.405405,91.324326 M26.54054,92.702705 L26.54054,94.54054 L28.378378,94.54054 L28.378378,92.702705 L26.54054,92.702705 M35.72973,87.189186 L35.72973,111.08108 L59.62162,111.08108 L59.62162,87.189186 L35.72973,87.189186 M39.864864,88.567566 L39.864864,106.945946 L58.243244,106.945946 L58.243244,88.567566 L39.864864,88.567566 M44,89.945946 L44,102.810814 L56.864864,102.810814 L56.864864,89.945946 L44,89.945946 M48.135136,91.324326 L48.135136,98.675674 L55.48649,98.675674 L55.48649,91.324326 L48.135136,91.324326 M52.27027,92.702705 L52.27027,94.54054 L54.10811,94.54054 L54.10811,92.702705 L52.27027,92.702705 M61.45946,87.189186 L61.45946,111.08108 L85.35135,111.08108 L85.35135,87.189186 L61.45946,87.189186 M63.2973,89.02702 L63.2973,105.567566 L79.83784,105.567566 L79.83784,89.02702 L63.2973,89.02702 M65.13513,90.86487 L65.13513,100.054054 L74.324326,100.054054 L74.324326,90.86487 L65.13513,90.86487 M66.97298,92.702705 L66.97298,94.54054 L68.810814,94.54054 L68.810814,92.702705 L66.97298,92.702705 M87.189186,87.189186 L87.189186,111.08108 L111.08108,111.08108 L111.08108,87.189186 L87.189186,87.189186 M92.702705,89.02702 L92.702705,105.567566 L109.24324,105.567566 L109.24324,89.02702 L92.702705,89.02702 M98.21622,90.86487 L98.21622,100.054054 L107.4054,100.054054 L107.4054,90.86487 L98.21622,90.86487 M103.72973,92.702705 L103.72973,94.54054 L105.567566,94.54054 L105.567566,92.702705 L103.72973,92.702705 M112.91892,87.189186 L112.91892,111.08108 L136.8108,111.08108 L136.8108,87.189186 L112.91892,87.189186 M115.675674,89.945946 L115.675674,108.324326 L134.05405,108.324326 L134.05405,89.945946 L115.675674,89.945946 M118.432434,92.702705 L118.432434,105.567566 L131.2973,105.567566 L131.2973,92.702705 L118.432434,92.702705 M121.189186,95.45946 L121.189186,102.810814 L128.54054,102.810814 L128.54054,95.45946 L121.189186,95.45946 M123.945946,98.21622 L123.945946,100.054054 L125.78378,100.054054 L125.78378,98.21622 L123.945946,98.21622 M138.64865,87.189186 L138.64865,111.08108 L162.54054,111.08108 L162.54054,87.189186 L138.64865,87.189186 M140.48648,92.702705 L140.48648,109.24324 L157.02702,109.24324 L157.02702,92.702705 L140.48648,92.702705 M142.32433,98.21622 L142.32433,107.4054 L151.51352,107.4054 L151.51352,98.21622 L142.32433,98.21622 M144.16216,103.72973 L144.16216,105.567566 L146,105.567566 L146,103.72973 L144.16216,103.72973 M164.37837,87.189186 L164.37837,111.08108 L188.27026,111.08108 L188.27026,87.189186 L164.37837,87.189186 M166.21622,89.02702 L166.21622,105.567566 L182.75676,105.567566 L182.75676,89.02702 L166.21622,89.02702 M168.05405,90.86487 L168.05405,100.054054 L177.24324,100.054054 L177.24324,90.86487 L168.05405,90.86487 M169.89189,92.702705 L169.89189,94.54054 L171.72974,94.54054 L171.72974,92.702705 L169.89189,92.702705 M190.10811,87.189186 L190.10811,111.08108 L214,111.08108 L214,87.189186 L190.10811,87.189186 M195.62163,89.945946 L195.62163,102.810814 L208.48648,102.810814 L208.48648,89.945946 L195.62163,89.945946 M201.13513,92.702705 L201.13513,94.54054 L202.97298,94.54054 L202.97298,92.702705 L201.13513,92.702705 M10,112.91892 L10,136.8108 L33.89189,136.8108 L33.89189,112.91892 L10,112.91892 M11.378378,115.675674 L11.378378,134.05405 L29.756756,134.05405 L29.756756,115.675674 L11.378378,115.675674 M12.756757,118.432434 L12.756757,131.2973 L25.621622,131.2973 L25.621622,118.432434 L12.756757,118.432434 M14.135135,121.189186 L14.135135,128.54054 L21.486486,128.54054 L21.486486,121.189186 L14.135135,121.189186 M15.513514,123.945946 L15.513514,125.78378 L17.35135,125.78378 L17.35135,123.945946 L15.513514,123.945946 M35.72973,112.91892 L35.72973,136.8108 L59.62162,136.8108 L59.62162,112.91892 L35.72973,112.91892 M38.48649,115.675674 L38.48649,134.05405 L56.864864,134.05405 L56.864864,115.675674 L38.48649,115.675674 M41.243244,118.432434 L41.243244,131.2973 L54.10811,131.2973 L54.10811,118.432434 L41.243244,118.432434 M44,121.189186 L44,128.54054 L51.351353,128.54054 L51.351353,121.189186 L44,121.189186 M46.756756,123.945946 L46.756756,125.78378 L48.594593,125.78378 L48.594593,123.945946 L46.756756,123.945946 M61.45946,112.91892 L61.45946,136.8108 L85.35135,136.8108 L85.35135,112.91892 L61.45946,112.91892 M66.97298,118.432434 L66.97298,134.97298 L83.51351,134.97298 L83.51351,118.432434 L66.97298,118.432434 M72.48649,123.945946 L72.48649,133.13513 L81.675674,133.13513 L81.675674,123.945946 L72.48649,123.945946 M78,129.45946 L78,131.2973 L79.83784,131.2973 L79.83784,129.45946 L78,129.45946 M87.189186,112.91892 L87.189186,136.8108 L111.08108,136.8108 L111.08108,112.91892 L87.189186,112.91892 M89.945946,117.054054 L89.945946,135.43243 L108.324326,135.43243 L108.324326,117.054054 L89.945946,117.054054 M92.702705,121.189186 L92.702705,134.05405 L105.567566,134.05405 L105.567566,121.189186 L92.702705,121.189186 M95.45946,125.324326 L95.45946,132.67567 L102.810814,132.67567 L102.810814,125.324326 L95.45946,125.324326 M98.21622,129.45946 L98.21622,131.2973 L100.054054,131.2973 L100.054054,129.45946 L98.21622,129.45946 M112.91892,112.91892 L112.91892,136.8108 L136.8108,136.8108 L136.8108,112.91892 L112.91892,112.91892 M118.432434,115.675674 L118.432434,128.54054 L131.2973,128.54054 L131.2973,115.675674 L118.432434,115.675674 M123.945946,118.432434 L123.945946,120.27027 L125.78378,120.27027 L125.78378,118.432434 L123.945946,118.432434 M138.64865,112.91892 L138.64865,136.8108 L162.54054,136.8108 L162.54054,112.91892 L138.64865,112.91892 M141.40541,121.189186 L141.40541,134.05405 L154.27026,134.05405 L154.27026,121.189186 L141.40541,121.189186 M144.16216,129.45946 L144.16216,131.2973 L146,131.2973 L146,129.45946 L144.16216,129.45946 M164.37837,112.91892 L164.37837,136.8108 L188.27026,136.8108 L188.27026,112.91892 L164.37837,112.91892 M167.13513,117.054054 L167.13513,135.43243 L185.51352,135.43243 L185.51352,117.054054 L167.13513,117.054054 M169.89189,121.189186 L169.89189,134.05405 L182.75676,134.05405 L182.75676,121.189186 L169.89189,121.189186 M172.64865,125.324326 L172.64865,132.67567 L180,132.67567 L180,125.324326 L172.64865,125.324326 M175.40541,129.45946 L175.40541,131.2973 L177.24324,131.2973 L177.24324,129.45946 L175.40541,129.45946 M190.10811,112.91892 L190.10811,136.8108 L214,136.8108 L214,112.91892 L190.10811,112.91892 M192.86487,118.432434 L192.86487,131.2973 L205.72974,131.2973 L205.72974,118.432434 L192.86487,118.432434 M195.62163,123.945946 L195.62163,125.78378 L197.45946,125.78378 L197.45946,123.945946 L195.62163,123.945946 M10,138.64865 L10,162.54054 L33.89189,162.54054 L33.89189,138.64865 L10,138.64865 M12.756757,144.16216 L12.756757,157.02702 L25.621622,157.02702 L25.621622,144.16216 L12.756757,144.16216 M15.513514,149.67567 L15.513514,151.51352 L17.35135,151.51352 L17.35135,149.67567 L15.513514,149.67567 M35.72973,138.64865 L35.72973,162.54054 L59.62162,162.54054 L59.62162,138.64865 L35.72973,138.64865 M39.864864,142.78378 L39.864864,161.16216 L58.243244,161.16216 L58.243244,142.78378 L39.864864,142.78378 M44,146.91891 L44,159.78378 L56.864864,159.78378 L56.864864,146.91891 L44,146.91891 M48.135136,151.05405 L48.135136,158.40541 L55.48649,158.40541 L55.48649,151.05405 L48.135136,151.05405 M52.27027,155.1892 L52.27027,157.02702 L54.10811,157.02702 L54.10811,155.1892 L52.27027,155.1892 M61.45946,138.64865 L61.45946,162.54054 L85.35135,162.54054 L85.35135,138.64865 L61.45946,138.64865 M65.5946,142.78378 L65.5946,161.16216 L83.97298,161.16216 L83.97298,142.78378 L65.5946,142.78378 M69.72973,146.91891 L69.72973,159.78378 L82.5946,159.78378 L82.5946,146.91891 L69.72973,146.91891 M73.86487,151.05405 L73.86487,158.40541 L81.21622,158.40541 L81.21622,151.05405 L73.86487,151.05405 M78,155.1892 L78,157.02702 L79.83784,157.02702 L79.83784,155.1892 L78,155.1892 M87.189186,138.64865 L87.189186,162.54054 L111.08108,162.54054 L111.08108,138.64865 L87.189186,138.64865 M89.945946,141.40541 L89.945946,159.78378 L108.324326,159.78378 L108.324326,141.40541 L89.945946,141.40541 M92.702705,144.16216 L92.702705,157.02702 L105.567566,157.02702 L105.567566,144.16216 L92.702705,144.16216 M95.45946,146.91891 L95.45946,154.27026 L102.810814,154.27026 L102.810814,146.91891 L95.45946,146.91891 M98.21622,149.67567 L98.21622,151.51352 L100.054054,151.51352 L100.054054,149.67567 L98.21622,149.67567 M112.91892,138.64865 L112.91892,162.54054 L136.8108,162.54054 L136.8108,138.64865 L112.91892,138.64865 M121.189186,144.16216 L121.189186,157.02702 L134.05405,157.02702 L134.05405,144.16216 L121.189186,144.16216 M129.45946,149.67567 L129.45946,151.51352 L131.2973,151.51352 L131.2973,149.67567 L129.45946,149.67567 M138.64865,138.64865 L138.64865,162.54054 L162.54054,162.54054 L162.54054,138.64865 L138.64865,138.64865 M142.32433,144.16216 L142.32433,160.7027 L158.86487,160.7027 L158.86487,144.16216 L142.32433,144.16216 M146,149.67567 L146,158.86487 L155.1892,158.86487 L155.1892,149.67567 L146,149.67567 M149.67567,155.1892 L149.67567,157.02702 L151.51352,157.02702 L151.51352,155.1892 L149.67567,155.1892 M164.37837,138.64865 L164.37837,162.54054 L188.27026,162.54054 L188.27026,138.64865 L164.37837,138.64865 M165.75676,140.02702 L165.75676,158.40541 L184.13513,158.40541 L184.13513,140.02702 L165.75676,140.02702 M167.13513,141.40541 L167.13513,154.27026 L180,154.27026 L180,141.40541 L167.13513,141.40541 M168.51352,142.78378 L168.51352,150.13513 L175.86487,150.13513 L175.86487,142.78378 L168.51352,142.78378 M169.89189,144.16216 L169.89189,146 L171.72974,146 L171.72974,144.16216 L169.89189,144.16216 M190.10811,138.64865 L190.10811,162.54054 L214,162.54054 L214,138.64865 L190.10811,138.64865 M191.48648,141.40541 L191.48648,159.78378 L209.86487,159.78378 L209.86487,141.40541 L191.48648,141.40541 M192.86487,144.16216 L192.86487,157.02702 L205.72974,157.02702 L205.72974,144.16216 L192.86487,144.16216 M194.24324,146.91891 L194.24324,154.27026 L201.59459,154.27026 L201.59459,146.91891 L194.24324,146.91891 M195.62163,149.67567 L195.62163,151.51352 L197.45946,151.51352 L197.45946,149.67567 L195.62163,149.67567 M10,164.37837 L10,188.27026 L33.89189,188.27026 L33.89189,164.37837 L10,164.37837 M12.756757,165.75676 L12.756757,184.13513 L31.135136,184.13513 L31.135136,165.75676 L12.756757,165.75676 M15.513514,167.13513 L15.513514,180 L28.378378,180 L28.378378,167.13513 L15.513514,167.13513 M18.27027,168.51352 L18.27027,175.86487 L25.621622,175.86487 L25.621622,168.51352 L18.27027,168.51352 M21.027027,169.89189 L21.027027,171.72974 L22.864864,171.72974 L22.864864,169.89189 L21.027027,169.89189 M35.72973,164.37837 L35.72973,188.27026 L59.62162,188.27026 L59.62162,164.37837 L35.72973,164.37837 M41.243244,172.64865 L41.243244,185.51352 L54.10811,185.51352 L54.10811,172.64865 L41.243244,172.64865 M46.756756,180.91891 L46.756756,182.75676 L48.594593,182.75676 L48.594593,180.91891 L46.756756,180.91891 M61.45946,164.37837 L61.45946,188.27026 L85.35135,188.27026 L85.35135,164.37837 L61.45946,164.37837 M65.13513,168.05405 L65.13513,184.59459 L81.675674,184.59459 L81.675674,168.05405 L65.13513,168.05405 M68.810814,171.72974 L68.810814,180.91891 L78,180.91891 L78,171.72974 L68.810814,171.72974 M72.48649,175.40541 L72.48649,177.24324 L74.324326,177.24324 L74.324326,175.40541 L72.48649,175.40541 M87.189186,164.37837 L87.189186,188.27026 L111.08108,188.27026 L111.08108,164.37837 L87.189186,164.37837 M90.86487,166.21622 L90.86487,182.75676 L107.4054,182.75676 L107.4054,166.21622 L90.86487,166.21622 M94.54054,168.05405 L94.54054,177.24324 L103.72973,177.24324 L103.72973,168.05405 L94.54054,168.05405 M98.21622,169.89189 L98.21622,171.72974 L100.054054,171.72974 L100.054054,169.89189 L98.21622,169.89189 M112.91892,164.37837 L112.91892,188.27026 L136.8108,188.27026 L136.8108,164.37837 L112.91892,164.37837 M114.75676,168.05405 L114.75676,184.59459 L131.2973,184.59459 L131.2973,168.05405 L114.75676,168.05405 M116.5946,171.72974 L116.5946,180.91891 L125.78378,180.91891 L125.78378,171.72974 L116.5946,171.72974 M118.432434,175.40541 L118.432434,177.24324 L120.27027,177.24324 L120.27027,175.40541 L118.432434,175.40541 M138.64865,164.37837 L138.64865,188.27026 L162.54054,188.27026 L162.54054,164.37837 L138.64865,164.37837 M144.16216,166.21622 L144.16216,182.75676 L160.7027,182.75676 L160.7027,166.21622 L144.16216,166.21622 M149.67567,168.05405 L149.67567,177.24324 L158.86487,177.24324 L158.86487,168.05405 L149.67567,168.05405 M155.1892,169.89189 L155.1892,171.72974 L157.02702,171.72974 L157.02702,169.89189 L155.1892,169.89189 M164.37837,164.37837 L164.37837,188.27026 L188.27026,188.27026 L188.27026,164.37837 L164.37837,164.37837 M168.05405,166.21622 L168.05405,182.75676 L184.59459,182.75676 L184.59459,166.21622 L168.05405,166.21622 M171.72974,168.05405 L171.72974,177.24324 L180.91891,177.24324 L180.91891,168.05405 L171.72974,168.05405 M175.40541,169.89189 L175.40541,171.72974 L177.24324,171.72974 L177.24324,169.89189 L175.40541,169.89189 M190.10811,164.37837 L190.10811,188.27026 L214,188.27026 L214,164.37837 L190.10811,164.37837 M192.86487,172.64865 L192.86487,185.51352 L205.72974,185.51352 L205.72974,172.64865 L192.86487,172.64865 M195.62163,180.91891 L195.62163,182.75676 L197.45946,182.75676 L197.45946,180.91891 L195.62163,180.91891 M10,190.10811 L10,214 L33.89189,214 L33.89189,190.10811 L10,190.10811 M13.675675,195.62163 L13.675675,212.16216 L30.216217,212.16216 L30.216217,195.62163 L13.675675,195.62163 M17.35135,201.13513 L17.35135,210.32433 L26.54054,210.32433 L26.54054,201.13513 L17.35135,201.13513 M21.027027,206.64865 L21.027027,208.48648 L22.864864,208.48648 L22.864864,206.64865 L21.027027,206.64865 M35.72973,190.10811 L35.72973,214 L59.62162,214 L59.62162,190.10811 L35.72973,190.10811 M44,198.37837 L44,211.24324 L56.864864,211.24324 L56.864864,198.37837 L44,198.37837 M52.27027,206.64865 L52.27027,208.48648 L54.10811,208.48648 L54.10811,206.64865 L52.27027,206.64865 M61.45946,190.10811 L61.45946,214 L85.35135,214 L85.35135,190.10811 L61.45946,190.10811 M69.72973,192.86487 L69.72973,205.72974 L82.5946,205.72974 L82.5946,192.86487 L69.72973,192.86487 M78,195.62163 L78,197.45946 L79.83784,197.45946 L79.83784,195.62163 L78,195.62163 M87.189186,190.10811 L87.189186,214 L111.08108,214 L111.08108,190.10811 L87.189186,190.10811 M95.45946,198.37837 L95.45946,211.24324 L108.324326,211.24324 L108.324326,198.37837 L95.45946,198.37837 M103.72973,206.64865 L103.72973,208.48648 L105.567566,208.48648 L105.567566,206.64865 L103.72973,206.64865 M112.91892,190.10811 L112.91892,214 L136.8108,214 L136.8108,190.10811 L112.91892,190.10811 M117.054054,191.48648 L117.054054,209.86487 L135.43243,209.86487 L135.43243,191.48648 L117.054054,191.48648 M121.189186,192.86487 L121.189186,205.72974 L134.05405,205.72974 L134.05405,192.86487 L121.189186,192.86487 M125.324326,194.24324 L125.324326,201.59459 L132.67567,201.59459 L132.67567,194.24324 L125.324326,194.24324 M129.45946,195.62163 L129.45946,197.45946 L131.2973,197.45946 L131.2973,195.62163 L129.45946,195.62163 M138.64865,190.10811 L138.64865,214 L162.54054,214 L162.54054,190.10811 L138.64865,190.10811 M142.32433,195.62163 L142.32433,212.16216 L158.86487,212.16216 L158.86487,195.62163 L142.32433,195.62163 M146,201.13513 L146,210.32433 L155.1892,210.32433 L155.1892,201.13513 L146,201.13513 M149.67567,206.64865 L149.67567,208.48648 L151.51352,208.48648 L151.51352,206.64865 L149.67567,206.64865 M164.37837,190.10811 L164.37837,214 L188.27026,214 L188.27026,190.10811 L164.37837,190.10811 M168.51352,191.48648 L168.51352,209.86487 L186.89189,209.86487 L186.89189,191.48648 L168.51352,191.48648 M172.64865,192.86487 L172.64865,205.72974 L185.51352,205.72974 L185.51352,192.86487 L172.64865,192.86487 M176.78378,194.24324 L176.78378,201.59459 L184.13513,201.59459 L184.13513,194.24324 L176.78378,194.24324 M180.91891,195.62163 L180.91891,197.45946 L182.75676,197.45946 L182.75676,195.62163 L180.91891,195.62163 M190.10811,190.10811 L190.10811,214 L214,214 L214,190.10811 L190.10811,190.10811 M191.48648,194.24324 L191.48648,212.62163 L209.86487,212.62163 L209.86487,194.24324 L191.48648,194.24324 M192.86487,198.37837 L192.86487,211.24324 L205.72974,211.24324 L205.72974,198.37837 L192.86487,198.37837 M194.24324,202.51352 L194.24324,209.86487 L201.59459,209.86487 L201.59459,202.51352 L194.24324,202.51352 M195.62163,206.64865 L195.62163,208.48648 L197.45946,208.48648 L197.45946,206.64865 L195.62163,206.64865" fill="none" stroke="red" stroke-linecap="round" stroke-linejoin="round" stroke-width="0.5"/>
</svg>