<svg viewBox="-292.0000000000008 0 163.99999999999983 429.548600277084" xmlns="http://www.w3.org/2000/svg">
<path d="M64,-214.7743 L72,-214.7743 L76,-207.8461 L68,-207.8461 L64,-200.9179 L72,-200.9179 L80,-200.9179 L84,-207.8461 L92,-207.8461 L96,-200.9179 L100,-193.98969 L92,-193.98969 L88,-200.9179 L84,-193.98969 L88,-187.0615 L84,-180.13329 L76,-180.13329 L68,-180.13329 L72,-187.0615 L80,-187.0615 L76,-193.98969 L68,-193.98969 L64,-187.0615 L56,-187.0615 L60,-193.98969 L56,-200.9179 L52,-193.98969 L48,-187.0615 L52,-180.13329 L60,-180.13329 L64,-173.20508 L56,-173.20508 L52,-166.27687 L60,-166.27687 L68,-166.27687 L72,-173.20508 L80,-173.20508 L84,-166.27687 L76,-166.27687 L72,-159.34868 L80,-159.34868 L88,-159.34868 L92,-166.27687 L88,-173.20508 L92,-180.13329 L96,-187.0615 L100,-180.13329 L96,-173.20508 L104,-173.20508 L108,-180.13329 L116,-180.13329 L120,-173.20508 L112,-173.20508 L108,-166.27687 L116,-166.27687 L124,-166.27687 L128,-173.20508 L136,-173.20508 L140,-166.27687 L144,-159.34868 L136,-159.34868 L132,-166.27687 L128,-159.34868 L132,-152.42047 L140,-152.42047 L144,-145.49226 L148,-138.56407 L140,-138.56407 L136,-145.49226 L132,-138.56407 L136,-131.63586 L132,-124.70766 L124,-124.70766 L116,-124.70766 L120,-131.63586 L128,-131.63586 L124,-138.56407 L116,-138.56407 L112,-145.49226 L116,-152.42047 L120,-145.49226 L128,-145.49226 L124,-152.42047 L120,-159.34868 L112,-159.34868 L108,-152.42047 L100,-152.42047 L104,-159.34868 L100,-166.27687 L96,-159.34868 L92,-152.42047 L96,-145.49226 L104,-145.49226 L108,-138.56407 L112,-131.63586 L104,-131.63586 L100,-138.56407 L96,-131.63586 L100,-124.70766 L96,-117.77946 L88,-117.77946 L92,-124.70766 L88,-131.63586 L84,-124.70766 L80,-117.77946 L84,-110.85125 L80,-103.92305 L72,-103.92305 L64,-103.92305 L68,-110.85125 L76,-110.85125 L72,-117.77946 L64,-117.77946 L60,-110.85125 L52,-110.85125 L44,-110.85125 L48,-117.77946 L56,-117.77946 L52,-124.70766 L44,-124.70766 L40,-131.63586 L44,-138.56407 L48,-145.49226 L52,-138.56407 L48,-131.63586 L56,-131.63586 L60,-138.56407 L68,-138.56407 L72,-131.63586 L64,-131.63586 L60,-124.70766 L68,-124.70766 L76,-124.70766 L80,-131.63586 L76,-138.56407 L80,-145.49226 L84,-138.56407 L92,-138.56407 L88,-145.49226 L84,-152.42047 L76,-152.42047 L72,-145.49226 L64,-145.49226 L56,-145.49226 L60,-152.42047 L68,-152.42047 L64,-159.34868 L56,-159.34868 L52,-152.42047 L44,-152.42047 L48,-159.34868 L44,-166.27687 L40,-159.34868 L36,-152.42047 L40,-145.49226 L36,-138.56407 L28,-138.56407 L20,-138.56407 L24,-145.49226 L32,-145.49226 L28,-152.42047 L20,-152.42047 L16,-159.34868 L20,-166.27687 L24,-173.20508 L28,-166.27687 L24,-159.34868 L32,-159.34868 L36,-166.27687 L32,-173.20508 L36,-180.13329 L40,-173.20508 L48,-173.20508 L44,-180.13329 L40,-187.0615 L32,-187.0615 L28,-180.13329 L20,-180.13329 L24,-187.0615 L20,-193.98969 L16,-187.0615 L12,-180.13329 L16,-173.20508 L12,-166.27687 L4,-166.27687 L8,-173.20508 L4,-180.13329 L0.00000000000039790393,-173.20508 L-4,-166.27687 L0.00000000000038369308,-159.34868 L8,-159.34868 L12,-152.42047 L16,-145.49226 L8,-145.49226 L4,-152.42047 L0.00000000000036948222,-145.49226 L4,-138.56407 L12,-138.56407 L16,-131.63586 L8,-131.63586 L4,-124.70766 L12,-124.70766 L20,-124.70766 L24,-131.63586 L32,-131.63586 L36,-124.70766 L40,-117.77946 L32,-117.77946 L28,-124.70766 L24,-117.77946 L28,-110.85125 L24,-103.92305 L16,-103.92305 L8,-103.92305 L12,-110.85125 L20,-110.85125 L16,-117.77946 L8,-117.77946 L4,-110.85125 L-4,-110.85125 L0.0000000000003126388,-117.77946 L-4,-124.70766 L-8,-117.77946 L-12,-110.85125 L-8,-103.92305 L0.00000000000029842795,-103.92305 L4,-96.99484 L-4,-96.99484 L-8,-90.06664 L0.0000000000002842171,-90.06664 L8,-90.06664 L12,-96.99484 L20,-96.99484 L24,-90.06664 L16,-90.06664 L12,-83.138435 L20,-83.138435 L28,-83.138435 L32,-90.06664 L28,-96.99484 L32,-103.92305 L36,-110.85125 L40,-103.92305 L36,-96.99484 L44,-96.99484 L48,-103.92305 L56,-103.92305 L60,-96.99484 L52,-96.99484 L48,-90.06664 L56,-90.06664 L64,-90.06664 L68,-96.99484 L76,-96.99484 L80,-90.06664 L84,-83.138435 L76,-83.138435 L72,-90.06664 L68,-83.138435 L72,-76.210236 L68,-69.282036 L60,-69.282036 L52,-69.282036 L56,-76.210236 L64,-76.210236 L60,-83.138435 L52,-83.138435 L48,-76.210236 L40,-76.210236 L44,-83.138435 L40,-90.06664 L36,-83.138435 L32,-76.210236 L36,-69.282036 L44,-69.282036 L48,-62.35383 L40,-62.35383 L36,-55.425625 L44,-55.425625 L52,-55.425625 L56,-62.35383 L64,-62.35383 L68,-55.425625 L60,-55.425625 L56,-48.49742 L64,-48.49742 L72,-48.49742 L76,-55.425625 L72,-62.35383 L76,-69.282036 L80,-76.210236 L84,-69.282036 L80,-62.35383 L88,-62.35383 L92,-69.282036 L88,-76.210236 L92,-83.138435 L96,-76.210236 L104,-76.210236 L100,-83.138435 L96,-90.06664 L88,-90.06664 L84,-96.99484 L88,-103.92305 L92,-110.85125 L96,-103.92305 L92,-96.99484 L100,-96.99484 L104,-103.92305 L100,-110.85125 L104,-117.77946 L108,-124.70766 L112,-117.77946 L108,-110.85125 L116,-110.85125 L120,-117.77946 L128,-117.77946 L132,-110.85125 L136,-103.92305 L128,-103.92305 L124,-110.85125 L120,-103.92305 L124,-96.99484 L120,-90.06664 L112,-90.06664 L116,-96.99484 L112,-103.92305 L108,-96.99484 L104,-90.06664 L108,-83.138435 L116,-83.138435 L120,-76.210236 L112,-76.210236 L108,-69.282036 L116,-69.282036 L124,-69.282036 L128,-76.210236 L124,-83.138435 L128,-90.06664 L132,-96.99484 L136,-90.06664 L132,-83.138435 L140,-83.138435 L144,-90.06664 L152,-90.06664 L156,-83.138435 L148,-83.138435 L144,-76.210236 L152,-76.210236 L160,-76.210236 L164,-83.138435 L172,-83.138435 L176,-76.210236 L180,-69.282036 L172,-69.282036 L168,-76.210236 L164,-69.282036 L168,-62.35383 L164,-55.425625 L156,-55.425625 L148,-55.425625 L152,-62.35383 L160,-62.35383 L156,-69.282036 L148,-69.282036 L144,-62.35383 L136,-62.35383 L140,-69.282036 L136,-76.210236 L132,-69.282036 L128,-62.35383 L132,-55.425625 L140,-55.425625 L144,-48.49742 L136,-48.49742 L132,-41.569218 L140,-41.569218 L148,-41.569218 L152,-48.49742 L160,-48.49742 L164,-41.569218 L156,-41.569218 L152,-34.641018 L160,-34.641018 L168,-34.641018 L172,-41.569218 L168,-48.49742 L172,-55.425625 L176,-62.35383 L180,-55.425625 L176,-48.49742 L184,-48.49742 L188,-55.425625 L196,-55.425625 L200,-48.49742 L192,-48.49742 L188,-41.569218 L196,-41.569218 L204,-41.569218 L208,-48.49742 L216,-48.49742 L220,-41.569218 L224,-34.641018 L216,-34.641018 L212,-41.569218 L208,-34.641018 L212,-27.712812 L220,-27.712812 L224,-20.784609 L228,-13.856406 L220,-13.856406 L216,-20.784609 L212,-13.856406 L216,-6.928203 L212,-0.00000000000071054274 L204,-0.00000000000071054274 L196,-0.00000000000071054274 L200,-6.928203 L208,-6.928203 L204,-13.856406 L196,-13.856406 L192,-20.784609 L196,-27.712812 L200,-20.784609 L208,-20.784609 L204,-27.712812 L200,-34.641018 L192,-34.641018 L188,-27.712812 L180,-27.712812 L184,-34.641018 L180,-41.569218 L176,-34.641018 L172,-27.712812 L176,-20.784609 L184,-20.784609 L188,-13.856406 L192,-6.928203 L184,-6.928203 L180,-13.856406 L176,-6.928203 L180,-0.0000000000006252776 L188,-0.0000000000006252776 L192,6.928203 L184,6.928203 L180,13.856406 L188,13.856406 L196,13.856406 L200,6.928203 L208,6.928203 L212,13.856406 L216,20.784609 L208,20.784609 L204,13.856406 L200,20.784609 L204,27.712812 L212,27.712812 L216,34.641018 L220,41.569218 L212,41.569218 L208,34.641018 L204,41.569218 L208,48.49742 L204,55.425625 L196,55.425625 L188,55.425625 L192,48.49742 L200,48.49742 L196,41.569218 L188,41.569218 L184,34.641018 L188,27.712812 L192,34.641018 L200,34.641018 L196,27.712812 L192,20.784609 L184,20.784609 L180,27.712812 L172,27.712812 L176,20.784609 L172,13.856406 L168,20.784609 L164,27.712812 L168,34.641018 L176,34.641018 L180,41.569218 L184,48.49742 L176,48.49742 L172,41.569218 L168,48.49742 L172,55.425625 L168,62.35383 L160,62.35383 L164,55.425625 L160,48.49742 L156,55.425625 L152,62.35383 L156,69.282036 L152,76.210236 L144,76.210236 L136,76.210236 L140,69.282036 L148,69.282036 L144,62.35383 L136,62.35383 L132,69.282036 L124,69.282036 L116,69.282036 L120,62.35383 L128,62.35383 L124,55.425625 L116,55.425625 L112,48.49742 L116,41.569218 L120,34.641018 L124,41.569218 L120,48.49742 L128,48.49742 L132,41.569218 L140,41.569218 L144,48.49742 L136,48.49742 L132,55.425625 L140,55.425625 L148,55.425625 L152,48.49742 L148,41.569218 L152,34.641018 L156,41.569218 L164,41.569218 L160,34.641018 L156,27.712812 L148,27.712812 L144,34.641018 L136,34.641018 L128,34.641018 L132,27.712812 L140,27.712812 L136,20.784609 L128,20.784609 L124,13.856406 L128,6.928203 L132,13.856406 L140,13.856406 L136,6.928203 L132,-0.00000000000039790393 L124,-0.00000000000039790393 L120,-6.928203 L124,-13.856406 L128,-20.784609 L132,-13.856406 L128,-6.928203 L136,-6.928203 L140,-13.856406 L148,-13.856406 L152,-6.928203 L156,-0.00000000000039790393 L148,-0.00000000000039790393 L144,-6.928203 L140,-0.00000000000039790393 L144,6.928203 L152,6.928203 L156,13.856406 L148,13.856406 L144,20.784609 L152,20.784609 L160,20.784609 L164,13.856406 L160,6.928203 L164,-0.00000000000039790393 L168,6.928203 L176,6.928203 L172,-0.00000000000039790393 L168,-6.928203 L160,-6.928203 L156,-13.856406 L160,-20.784609 L164,-13.856406 L172,-13.856406 L168,-20.784609 L164,-27.712812 L156,-27.712812 L152,-20.784609 L144,-20.784609 L136,-20.784609 L140,-27.712812 L148,-27.712812 L144,-34.641018 L136,-34.641018 L132,-27.712812 L124,-27.712812 L128,-34.641018 L124,-41.569218 L120,-34.641018 L116,-27.712812 L120,-20.784609 L116,-13.856406 L108,-13.856406 L100,-13.856406 L104,-20.784609 L112,-20.784609 L108,-27.712812 L100,-27.712812 L96,-34.641018 L100,-41.569218 L104,-48.49742 L108,-41.569218 L104,-34.641018 L112,-34.641018 L116,-41.569218 L112,-48.49742 L116,-55.425625 L120,-48.49742 L128,-48.49742 L124,-55.425625 L120,-62.35383 L112,-62.35383 L108,-55.425625 L100,-55.425625 L104,-62.35383 L100,-69.282036 L96,-62.35383 L92,-55.425625 L96,-48.49742 L92,-41.569218 L84,-41.569218 L88,-48.49742 L84,-55.425625 L80,-48.49742 L76,-41.569218 L80,-34.641018 L88,-34.641018 L92,-27.712812 L96,-20.784609 L88,-20.784609 L84,-27.712812 L80,-20.784609 L84,-13.856406 L92,-13.856406 L96,-6.928203 L88,-6.928203 L84,-0.00000000000025579538 L92,-0.00000000000025579538 L100,-0.00000000000025579538 L104,-6.928203 L112,-6.928203 L116,-0.00000000000022737368 L120,6.928203 L112,6.928203 L108,-0.00000000000019895197 L104,6.928203 L108,13.856406 L116,13.856406 L120,20.784609 L124,27.712812 L116,27.712812 L112,20.784609 L108,27.712812 L112,34.641018 L108,41.569218 L100,41.569218 L92,41.569218 L96,34.641018 L104,34.641018 L100,27.712812 L92,27.712812 L88,20.784609 L92,13.856406 L96,20.784609 L104,20.784609 L100,13.856406 L96,6.928203 L88,6.928203 L84,13.856406 L76,13.856406 L80,6.928203 L76,-0.00000000000005684342 L72,6.928203 L68,13.856406 L72,20.784609 L80,20.784609 L84,27.712812 L88,34.641018 L80,34.641018 L76,27.712812 L72,34.641018 L76,41.569218 L72,48.49742 L64,48.49742 L68,41.569218 L64,34.641018 L60,41.569218 L56,48.49742 L60,55.425625 L56,62.35383 L48,62.35383 L40,62.35383 L44,55.425625 L52,55.425625 L48,48.49742 L40,48.49742 L36,41.569218 L40,34.641018 L44,27.712812 L48,34.641018 L44,41.569218 L52,41.569218 L56,34.641018 L52,27.712812 L56,20.784609 L60,27.712812 L68,27.712812 L64,20.784609 L60,13.856406 L52,13.856406 L48,20.784609 L40,20.784609 L44,13.856406 L40,6.928203 L36,13.856406 L32,20.784609 L36,27.712812 L32,34.641018 L24,34.641018 L28,27.712812 L24,20.784609 L20,27.712812 L16,34.641018 L20,41.569218 L28,41.569218 L32,48.49742 L36,55.425625 L28,55.425625 L24,48.49742 L20,55.425625 L24,62.35383 L20,69.282036 L12,69.282036 L16,62.35383 L12,55.425625 L8,62.35383 L4,69.282036 L8,76.210236 L4,83.138435 L-4,83.138435 L-12,83.138435 L-8,76.210236 L-0.00000000000019895197,76.210236 L-4,69.282036 L-12,69.282036 L-16,76.210236 L-24,76.210236 L-32,76.210236 L-28,69.282036 L-20,69.282036 L-24,62.35383 L-32,62.35383 L-36,55.425625 L-32,48.49742 L-28,41.569218 L-24,48.49742 L-28,55.425625 L-20,55.425625 L-16,48.49742 L-8,48.49742 L-4,55.425625 L-12,55.425625 L-16,62.35383 L-8,62.35383 L-0.00000000000019895197,62.35383 L4,55.425625 L-0.00000000000019895197,48.49742 L4,41.569218 L8,48.49742 L16,48.49742 L12,41.569218 L8,34.641018 L-0.00000000000019895197,34.641018 L-4,41.569218 L-12,41.569218 L-20,41.569218 L-16,34.641018 L-8,34.641018 L-12,27.712812 L-20,27.712812 L-24,34.641018 L-32,34.641018 L-28,27.712812 L-32,20.784609 L-36,27.712812 L-40,34.641018 L-36,41.569218 L-40,48.49742 L-48,48.49742 L-56,48.49742 L-52,41.569218 L-44,41.569218 L-48,34.641018 L-56,34.641018 L-60,41.569218 L-68,41.569218 L-76,41.569218 L-72,34.641018 L-64,34.641018 L-68,27.712812 L-76,27.712812 L-80,20.784609 L-76,13.856406 L-72,6.928203 L-68,13.856406 L-72,20.784609 L-64,20.784609 L-60,13.856406 L-52,13.856406 L-48,20.784609 L-56,20.784609 L-60,27.712812 L-52,27.712812 L-44,27.712812 L-40,20.784609 L-44,13.856406 L-40,6.928203 L-36,13.856406 L-28,13.856406 L-32,6.928203 L-36,0.00000000000005684342 L-44,0.00000000000005684342 L-48,6.928203 L-56,6.928203 L-64,6.928203 L-60,0.00000000000005684342 L-52,0.00000000000005684342 L-56,-6.928203 L-64,-6.928203 L-68,-13.856406 L-64,-20.784609 L-60,-13.856406 L-52,-13.856406 L-56,-20.784609 L-60,-27.712812 L-68,-27.712812 L-72,-34.641018 L-68,-41.569218 L-64,-48.49742 L-60,-41.569218 L-64,-34.641018 L-56,-34.641018 L-52,-41.569218 L-56,-48.49742 L-52,-55.425625 L-48,-62.35383 L-44,-55.425625 L-48,-48.49742 L-40,-48.49742 L-36,-55.425625 L-28,-55.425625 L-24,-48.49742 L-20,-41.569218 L-28,-41.569218 L-32,-48.49742 L-36,-41.569218 L-32,-34.641018 L-36,-27.712812 L-44,-27.712812 L-40,-34.641018 L-44,-41.569218 L-48,-34.641018 L-52,-27.712812 L-48,-20.784609 L-40,-20.784609 L-36,-13.856406 L-44,-13.856406 L-48,-6.928203 L-40,-6.928203 L-32,-6.928203 L-28,-13.856406 L-32,-20.784609 L-28,-27.712812 L-24,-34.641018 L-20,-27.712812 L-24,-20.784609 L-16,-20.784609 L-12,-27.712812 L-4,-27.712812 L-0.00000000000022737368,-20.784609 L-8,-20.784609 L-12,-13.856406 L-4,-13.856406 L4,-13.856406 L8,-20.784609 L16,-20.784609 L20,-13.856406 L24,-6.928203 L16,-6.928203 L12,-13.856406 L8,-6.928203 L12,0.00000000000005684342 L8,6.928203 L-0.00000000000019895197,6.928203 L-8,6.928203 L-4,0.00000000000005684342 L4,0.00000000000005684342 L-0.00000000000019895197,-6.928203 L-8,-6.928203 L-12,0.00000000000005684342 L-20,0.00000000000005684342 L-16,-6.928203 L-20,-13.856406 L-24,-6.928203 L-28,0.00000000000005684342 L-24,6.928203 L-16,6.928203 L-12,13.856406 L-20,13.856406 L-24,20.784609 L-16,20.784609 L-8,20.784609 L-4,13.856406 L4,13.856406 L8,20.784609 L-0.00000000000019895197,20.784609 L-4,27.712812 L4,27.712812 L12,27.712812 L16,20.784609 L12,13.856406 L16,6.928203 L20,0.00000000000005684342 L24,6.928203 L20,13.856406 L28,13.856406 L32,6.928203 L28,0.00000000000005684342 L32,-6.928203 L36,0.00000000000005684342 L44,0.00000000000005684342 L40,-6.928203 L36,-13.856406 L28,-13.856406 L24,-20.784609 L28,-27.712812 L32,-34.641018 L36,-27.712812 L32,-20.784609 L40,-20.784609 L44,-27.712812 L52,-27.712812 L56,-20.784609 L60,-13.856406 L52,-13.856406 L48,-20.784609 L44,-13.856406 L48,-6.928203 L56,-6.928203 L60,0.00000000000005684342 L52,0.00000000000005684342 L48,6.928203 L56,6.928203 L64,6.928203 L68,0.00000000000005684342 L64,-6.928203 L68,-13.856406 L72,-6.928203 L80,-6.928203 L76,-13.856406 L72,-20.784609 L64,-20.784609 L60,-27.712812 L64,-34.641018 L68,-27.712812 L76,-27.712812 L72,-34.641018 L68,-41.569218 L60,-41.569218 L56,-34.641018 L48,-34.641018 L40,-34.641018 L44,-41.569218 L52,-41.569218 L48,-48.49742 L40,-48.49742 L36,-41.569218 L28,-41.569218 L32,-48.49742 L28,-55.425625 L24,-48.49742 L20,-41.569218 L24,-34.641018 L20,-27.712812 L12,-27.712812 L4,-27.712812 L8,-34.641018 L16,-34.641018 L12,-41.569218 L4,-41.569218 L-0.00000000000014210855,-34.641018 L-8,-34.641018 L-16,-34.641018 L-12,-41.569218 L-4,-41.569218 L-8,-48.49742 L-16,-48.49742 L-20,-55.425625 L-16,-62.35383 L-12,-69.282036 L-8,-62.35383 L-12,-55.425625 L-4,-55.425625 L-0.00000000000014210855,-62.35383 L8,-62.35383 L12,-55.425625 L4,-55.425625 L-0.00000000000012789769,-48.49742 L8,-48.49742 L16,-48.49742 L20,-55.425625 L16,-62.35383 L20,-69.282036 L24,-62.35383 L32,-62.35383 L28,-69.282036 L24,-76.210236 L16,-76.210236 L12,-69.282036 L4,-69.282036 L-4,-69.282036 L-0.00000000000012789769,-76.210236 L8,-76.210236 L4,-83.138435 L-4,-83.138435 L-8,-76.210236 L-16,-76.210236 L-12,-83.138435 L-16,-90.06664 L-20,-83.138435 L-24,-76.210236 L-20,-69.282036 L-24,-62.35383 L-32,-62.35383 L-40,-62.35383 L-36,-69.282036 L-28,-69.282036 L-32,-76.210236 L-40,-76.210236 L-44,-83.138435 L-40,-90.06664 L-36,-96.99484 L-32,-90.06664 L-36,-83.138435 L-28,-83.138435 L-24,-90.06664 L-28,-96.99484 L-24,-103.92305 L-20,-96.99484 L-12,-96.99484 L-16,-103.92305 L-20,-110.85125 L-28,-110.85125 L-32,-103.92305 L-40,-103.92305 L-36,-110.85125 L-40,-117.77946 L-44,-110.85125 L-48,-103.92305 L-44,-96.99484 L-48,-90.06664 L-56,-90.06664 L-52,-96.99484 L-56,-103.92305 L-60,-96.99484 L-64,-90.06664 L-60,-83.138435 L-52,-83.138435 L-48,-76.210236 L-44,-69.282036 L-52,-69.282036 L-56,-76.210236 L-60,-69.282036 L-56,-62.35383 L-60,-55.425625 L-68,-55.425625 L-64,-62.35383 L-68,-69.282036 L-72,-62.35383 L-76,-55.425625 L-72,-48.49742 L-76,-41.569218 L-84,-41.569218 L-92,-41.569218 L-88,-48.49742 L-80,-48.49742 L-84,-55.425625 L-92,-55.425625 L-96,-48.49742 L-104,-48.49742 L-112,-48.49742 L-108,-55.425625 L-100,-55.425625 L-104,-62.35383 L-112,-62.35383 L-116,-69.282036 L-112,-76.210236 L-108,-83.138435 L-104,-76.210236 L-108,-69.282036 L-100,-69.282036 L-96,-76.210236 L-88,-76.210236 L-84,-69.282036 L-92,-69.282036 L-96,-62.35383 L-88,-62.35383 L-80,-62.35383 L-76,-69.282036 L-80,-76.210236 L-76,-83.138435 L-72,-76.210236 L-64,-76.210236 L-68,-83.138435 L-72,-90.06664 L-80,-90.06664 L-84,-83.138435 L-92,-83.138435 L-100,-83.138435 L-96,-90.06664 L-88,-90.06664 L-92,-96.99484 L-100,-96.99484 L-104,-103.92305 L-100,-110.85125 L-96,-103.92305 L-88,-103.92305 L-92,-110.85125 L-96,-117.77946 L-104,-117.77946 L-108,-124.70766 L-104,-131.63586 L-100,-138.56407 L-96,-131.63586 L-100,-124.70766 L-92,-124.70766 L-88,-131.63586 L-92,-138.56407 L-88,-145.49226 L-84,-152.42047 L-80,-145.49226 L-84,-138.56407 L-76,-138.56407 L-72,-145.49226 L-64,-145.49226 L-60,-138.56407 L-56,-131.63586 L-64,-131.63586 L-68,-138.56407 L-72,-131.63586 L-68,-124.70766 L-72,-117.77946 L-80,-117.77946 L-76,-124.70766 L-80,-131.63586 L-84,-124.70766 L-88,-117.77946 L-84,-110.85125 L-76,-110.85125 L-72,-103.92305 L-80,-103.92305 L-84,-96.99484 L-76,-96.99484 L-68,-96.99484 L-64,-103.92305 L-68,-110.85125 L-64,-117.77946 L-60,-124.70766 L-56,-117.77946 L-60,-110.85125 L-52,-110.85125 L-48,-117.77946 L-52,-124.70766 L-48,-131.63586 L-44,-124.70766 L-36,-124.70766 L-40,-131.63586 L-44,-138.56407 L-52,-138.56407 L-56,-145.49226 L-52,-152.42047 L-48,-159.34868 L-44,-152.42047 L-48,-145.49226 L-40,-145.49226 L-36,-152.42047 L-28,-152.42047 L-24,-145.49226 L-20,-138.56407 L-28,-138.56407 L-32,-145.49226 L-36,-138.56407 L-32,-131.63586 L-24,-131.63586 L-20,-124.70766 L-28,-124.70766 L-32,-117.77946 L-24,-117.77946 L-16,-117.77946 L-12,-124.70766 L-16,-131.63586 L-12,-138.56407 L-8,-131.63586 L-0.0000000000002842171,-131.63586 L-4,-138.56407 L-8,-145.49226 L-16,-145.49226 L-20,-152.42047 L-16,-159.34868 L-12,-152.42047 L-4,-152.42047 L-8,-159.34868 L-12,-166.27687 L-20,-166.27687 L-24,-159.34868 L-32,-159.34868 L-40,-159.34868 L-36,-166.27687 L-28,-166.27687 L-32,-173.20508 L-40,-173.20508 L-44,-166.27687 L-52,-166.27687 L-48,-173.20508 L-52,-180.13329 L-56,-173.20508 L-60,-166.27687 L-56,-159.34868 L-60,-152.42047 L-68,-152.42047 L-76,-152.42047 L-72,-159.34868 L-64,-159.34868 L-68,-166.27687 L-76,-166.27687 L-80,-173.20508 L-76,-180.13329 L-72,-187.0615 L-68,-180.13329 L-72,-173.20508 L-64,-173.20508 L-60,-180.13329 L-64,-187.0615 L-60,-193.98969 L-56,-187.0615 L-48,-187.0615 L-52,-193.98969 L-56,-200.9179 L-64,-200.9179 L-68,-193.98969 L-76,-193.98969 L-72,-200.9179 L-76,-207.8461 L-80,-200.9179 L-84,-193.98969 L-80,-187.0615 L-84,-180.13329 L-92,-180.13329 L-88,-187.0615 L-92,-193.98969 L-96,-187.0615 L-100,-180.13329 L-96,-173.20508 L-88,-173.20508 L-84,-166.27687 L-80,-159.34868 L-88,-159.34868 L-92,-166.27687 L-96,-159.34868 L-92,-152.42047 L-96,-145.49226 L-104,-145.49226 L-100,-152.42047 L-104,-159.34868 L-108,-152.42047 L-112,-145.49226 L-108,-138.56407 L-112,-131.63586 L-120,-131.63586 L-128,-131.63586 L-124,-138.56407 L-116,-138.56407 L-120,-145.49226 L-128,-145.49226 L-132,-152.42047 L-128,-159.34868 L-124,-166.27687 L-120,-159.34868 L-124,-152.42047 L-116,-152.42047 L-112,-159.34868 L-116,-166.27687 L-112,-173.20508 L-108,-166.27687 L-100,-166.27687 L-104,-173.20508 L-108,-180.13329 L-116,-180.13329 L-120,-173.20508 L-128,-173.20508 L-124,-180.13329 L-128,-187.0615 L-132,-180.13329 L-136,-173.20508 L-132,-166.27687 L-136,-159.34868 L-144,-159.34868 L-140,-166.27687 L-144,-173.20508 L-148,-166.27687 L-152,-159.34868 L-148,-152.42047 L-140,-152.42047 L-136,-145.49226 L-132,-138.56407 L-140,-138.56407 L-144,-145.49226 L-148,-138.56407 L-144,-131.63586 L-136,-131.63586 L-132,-124.70766 L-140,-124.70766 L-144,-117.77946 L-136,-117.77946 L-128,-117.77946 L-124,-124.70766 L-116,-124.70766 L-112,-117.77946 L-108,-110.85125 L-116,-110.85125 L-120,-117.77946 L-124,-110.85125 L-120,-103.92305 L-112,-103.92305 L-108,-96.99484 L-104,-90.06664 L-112,-90.06664 L-116,-96.99484 L-120,-90.06664 L-116,-83.138435 L-120,-76.210236 L-128,-76.210236 L-136,-76.210236 L-132,-83.138435 L-124,-83.138435 L-128,-90.06664 L-136,-90.06664 L-140,-96.99484 L-136,-103.92305 L-132,-96.99484 L-124,-96.99484 L-128,-103.92305 L-132,-110.85125 L-140,-110.85125 L-144,-103.92305 L-152,-103.92305 L-148,-110.85125 L-152,-117.77946 L-156,-110.85125 L-160,-103.92305 L-156,-96.99484 L-148,-96.99484 L-144,-90.06664 L-140,-83.138435 L-148,-83.138435 L-152,-90.06664 L-156,-83.138435 L-152,-76.210236 L-144,-76.210236 L-140,-69.282036 L-148,-69.282036 L-152,-62.35383 L-144,-62.35383 L-136,-62.35383 L-132,-69.282036 L-124,-69.282036 L-120,-62.35383 L-116,-55.425625 L-124,-55.425625 L-128,-62.35383 L-132,-55.425625 L-128,-48.49742 L-132,-41.569218 L-140,-41.569218 L-148,-41.569218 L-144,-48.49742 L-136,-48.49742 L-140,-55.425625 L-148,-55.425625 L-152,-48.49742 L-160,-48.49742 L-156,-55.425625 L-160,-62.35383 L-164,-55.425625 L-168,-48.49742 L-164,-41.569218 L-156,-41.569218 L-152,-34.641018 L-160,-34.641018 L-164,-27.712812 L-156,-27.712812 L-148,-27.712812 L-144,-34.641018 L-136,-34.641018 L-132,-27.712812 L-140,-27.712812 L-144,-20.784609 L-136,-20.784609 L-128,-20.784609 L-124,-27.712812 L-128,-34.641018 L-124,-41.569218 L-120,-48.49742 L-116,-41.569218 L-120,-34.641018 L-112,-34.641018 L-108,-41.569218 L-100,-41.569218 L-96,-34.641018 L-104,-34.641018 L-108,-27.712812 L-100,-27.712812 L-92,-27.712812 L-88,-34.641018 L-80,-34.641018 L-76,-27.712812 L-72,-20.784609 L-80,-20.784609 L-84,-27.712812 L-88,-20.784609 L-84,-13.856406 L-76,-13.856406 L-72,-6.928203 L-68,0.00000000000022737368 L-76,0.00000000000022737368 L-80,-6.928203 L-84,0.00000000000022737368 L-80,6.928203 L-84,13.856406 L-92,13.856406 L-100,13.856406 L-96,6.928203 L-88,6.928203 L-92,0.00000000000025579538 L-100,0.00000000000025579538 L-104,-6.928203 L-100,-13.856406 L-96,-6.928203 L-88,-6.928203 L-92,-13.856406 L-96,-20.784609 L-104,-20.784609 L-108,-13.856406 L-116,-13.856406 L-112,-20.784609 L-116,-27.712812 L-120,-20.784609 L-124,-13.856406 L-120,-6.928203 L-112,-6.928203 L-108,0.0000000000002842171 L-104,6.928203 L-112,6.928203 L-116,0.0000000000003126388 L-120,6.928203 L-116,13.856406 L-120,20.784609 L-128,20.784609 L-124,13.856406 L-128,6.928203 L-132,13.856406 L-136,20.784609 L-132,27.712812 L-136,34.641018 L-144,34.641018 L-152,34.641018 L-148,27.712812 L-140,27.712812 L-144,20.784609 L-152,20.784609 L-156,27.712812 L-164,27.712812 L-172,27.712812 L-168,20.784609 L-160,20.784609 L-164,13.856406 L-172,13.856406 L-176,6.928203 L-172,0.0000000000003410605 L-168,-6.928203 L-164,0.0000000000003410605 L-168,6.928203 L-160,6.928203 L-156,0.0000000000003410605 L-148,0.0000000000003410605 L-144,6.928203 L-152,6.928203 L-156,13.856406 L-148,13.856406 L-140,13.856406 L-136,6.928203 L-140,0.0000000000003410605 L-136,-6.928203 L-132,0.0000000000003410605 L-124,0.0000000000003410605 L-128,-6.928203 L-132,-13.856406 L-140,-13.856406 L-144,-6.928203 L-152,-6.928203 L-160,-6.928203 L-156,-13.856406 L-148,-13.856406 L-152,-20.784609 L-160,-20.784609 L-164,-13.856406 L-172,-13.856406 L-168,-20.784609 L-172,-27.712812 L-176,-20.784609 L-180,-13.856406 L-176,-6.928203 L-180,0.00000000000036948222 L-188,0.00000000000036948222 L-196,0.00000000000036948222 L-192,-6.928203 L-184,-6.928203 L-188,-13.856406 L-196,-13.856406 L-200,-20.784609 L-196,-27.712812 L-192,-34.641018 L-188,-27.712812 L-192,-20.784609 L-184,-20.784609 L-180,-27.712812 L-184,-34.641018 L-180,-41.569218 L-176,-34.641018 L-168,-34.641018 L-172,-41.569218 L-176,-48.49742 L-184,-48.49742 L-188,-41.569218 L-196,-41.569218 L-192,-48.49742 L-196,-55.425625 L-200,-48.49742 L-204,-41.569218 L-200,-34.641018 L-204,-27.712812 L-212,-27.712812 L-208,-34.641018 L-212,-41.569218 L-216,-34.641018 L-220,-27.712812 L-216,-20.784609 L-208,-20.784609 L-204,-13.856406 L-200,-6.928203 L-208,-6.928203 L-212,-13.856406 L-216,-6.928203 L-212,0.00000000000045474735 L-204,0.00000000000045474735 L-200,6.928203 L-208,6.928203 L-212,13.856406 L-204,13.856406 L-196,13.856406 L-192,6.928203 L-184,6.928203 L-180,13.856406 L-176,20.784609 L-184,20.784609 L-188,13.856406 L-192,20.784609 L-188,27.712812 L-192,34.641018 L-200,34.641018 L-208,34.641018 L-204,27.712812 L-196,27.712812 L-200,20.784609 L-208,20.784609 L-212,27.712812 L-220,27.712812 L-216,20.784609 L-220,13.856406 L-224,20.784609 L-228,27.712812 L-224,34.641018 L-216,34.641018 L-212,41.569218 L-220,41.569218 L-224,48.49742 L-216,48.49742 L-208,48.49742 L-204,41.569218 L-196,41.569218 L-192,48.49742 L-200,48.49742 L-204,55.425625 L-196,55.425625 L-188,55.425625 L-184,48.49742 L-188,41.569218 L-184,34.641018 L-180,27.712812 L-176,34.641018 L-180,41.569218 L-172,41.569218 L-168,34.641018 L-160,34.641018 L-156,41.569218 L-164,41.569218 L-168,48.49742 L-160,48.49742 L-152,48.49742 L-148,41.569218 L-140,41.569218 L-136,48.49742 L-132,55.425625 L-140,55.425625 L-144,48.49742 L-148,55.425625 L-144,62.35383 L-148,69.282036 L-156,69.282036 L-164,69.282036 L-160,62.35383 L-152,62.35383 L-156,55.425625 L-164,55.425625 L-168,62.35383 L-176,62.35383 L-172,55.425625 L-176,48.49742 L-180,55.425625 L-184,62.35383 L-180,69.282036 L-172,69.282036 L-168,76.210236 L-176,76.210236 L-180,83.138435 L-172,83.138435 L-164,83.138435 L-160,76.210236 L-152,76.210236 L-148,83.138435 L-156,83.138435 L-160,90.06664 L-152,90.06664 L-144,90.06664 L-140,83.138435 L-144,76.210236 L-140,69.282036 L-136,62.35383 L-132,69.282036 L-136,76.210236 L-128,76.210236 L-124,69.282036 L-128,62.35383 L-124,55.425625 L-120,62.35383 L-112,62.35383 L-116,55.425625 L-120,48.49742 L-128,48.49742 L-132,41.569218 L-128,34.641018 L-124,27.712812 L-120,34.641018 L-124,41.569218 L-116,41.569218 L-112,34.641018 L-116,27.712812 L-112,20.784609 L-108,13.856406 L-104,20.784609 L-108,27.712812 L-100,27.712812 L-96,20.784609 L-88,20.784609 L-84,27.712812 L-80,34.641018 L-88,34.641018 L-92,27.712812 L-96,34.641018 L-92,41.569218 L-96,48.49742 L-104,48.49742 L-100,41.569218 L-104,34.641018 L-108,41.569218 L-112,48.49742 L-108,55.425625 L-100,55.425625 L-96,62.35383 L-104,62.35383 L-108,69.282036 L-100,69.282036 L-92,69.282036 L-88,62.35383 L-92,55.425625 L-88,48.49742 L-84,41.569218 L-80,48.49742 L-84,55.425625 L-76,55.425625 L-72,48.49742 L-64,48.49742 L-60,55.425625 L-68,55.425625 L-72,62.35383 L-64,62.35383 L-56,62.35383 L-52,55.425625 L-44,55.425625 L-40,62.35383 L-36,69.282036 L-44,69.282036 L-48,62.35383 L-52,69.282036 L-48,76.210236 L-52,83.138435 L-60,83.138435 L-68,83.138435 L-64,76.210236 L-56,76.210236 L-60,69.282036 L-68,69.282036 L-72,76.210236 L-80,76.210236 L-76,69.282036 L-80,62.35383 L-84,69.282036 L-88,76.210236 L-84,83.138435 L-76,83.138435 L-72,90.06664 L-80,90.06664 L-84,96.99484 L-76,96.99484 L-68,96.99484 L-64,90.06664 L-56,90.06664 L-52,96.99484 L-60,96.99484 L-64,103.92305 L-56,103.92305 L-48,103.92305 L-44,96.99484 L-48,90.06664 L-44,83.138435 L-40,76.210236 L-36,83.138435 L-40,90.06664 L-32,90.06664 L-28,83.138435 L-20,83.138435 L-16,90.06664 L-24,90.06664 L-28,96.99484 L-20,96.99484 L-12,96.99484 L-8,90.06664 L-0.00000000000035527137,90.06664 L4,96.99484 L8,103.92305 L-0.00000000000036948222,103.92305 L-4,96.99484 L-8,103.92305 L-4,110.85125 L4,110.85125 L8,117.77946 L12,124.70766 L4,124.70766 L-0.00000000000039790393,117.77946 L-4,124.70766 L-0.0000000000004121148,131.63586 L-4,138.56407 L-12,138.56407 L-20,138.56407 L-16,131.63586 L-8,131.63586 L-12,124.70766 L-20,124.70766 L-24,117.77946 L-20,110.85125 L-16,117.77946 L-8,117.77946 L-12,110.85125 L-16,103.92305 L-24,103.92305 L-28,110.85125 L-36,110.85125 L-32,103.92305 L-36,96.99484 L-40,103.92305 L-44,110.85125 L-40,117.77946 L-32,117.77946 L-28,124.70766 L-24,131.63586 L-32,131.63586 L-36,124.70766 L-40,131.63586 L-36,138.56407 L-40,145.49226 L-48,145.49226 L-44,138.56407 L-48,131.63586 L-52,138.56407 L-56,145.49226 L-52,152.42047 L-56,159.34868 L-64,159.34868 L-72,159.34868 L-68,152.42047 L-60,152.42047 L-64,145.49226 L-72,145.49226 L-76,152.42047 L-84,152.42047 L-92,152.42047 L-88,145.49226 L-80,145.49226 L-84,138.56407 L-92,138.56407 L-96,131.63586 L-92,124.70766 L-88,117.77946 L-84,124.70766 L-88,131.63586 L-80,131.63586 L-76,124.70766 L-68,124.70766 L-64,131.63586 L-72,131.63586 L-76,138.56407 L-68,138.56407 L-60,138.56407 L-56,131.63586 L-60,124.70766 L-56,117.77946 L-52,124.70766 L-44,124.70766 L-48,117.77946 L-52,110.85125 L-60,110.85125 L-64,117.77946 L-72,117.77946 L-80,117.77946 L-76,110.85125 L-68,110.85125 L-72,103.92305 L-80,103.92305 L-84,110.85125 L-92,110.85125 L-88,103.92305 L-92,96.99484 L-96,103.92305 L-100,110.85125 L-96,117.77946 L-100,124.70766 L-108,124.70766 L-116,124.70766 L-112,117.77946 L-104,117.77946 L-108,110.85125 L-116,110.85125 L-120,103.92305 L-116,96.99484 L-112,90.06664 L-108,96.99484 L-112,103.92305 L-104,103.92305 L-100,96.99484 L-104,90.06664 L-100,83.138435 L-96,90.06664 L-88,90.06664 L-92,83.138435 L-96,76.210236 L-104,76.210236 L-108,83.138435 L-116,83.138435 L-112,76.210236 L-116,69.282036 L-120,76.210236 L-124,83.138435 L-120,90.06664 L-124,96.99484 L-132,96.99484 L-128,90.06664 L-132,83.138435 L-136,90.06664 L-140,96.99484 L-136,103.92305 L-128,103.92305 L-124,110.85125 L-120,117.77946 L-128,117.77946 L-132,110.85125 L-136,117.77946 L-132,124.70766 L-124,124.70766 L-120,131.63586 L-128,131.63586 L-132,138.56407 L-124,138.56407 L-116,138.56407 L-112,131.63586 L-104,131.63586 L-100,138.56407 L-96,145.49226 L-104,145.49226 L-108,138.56407 L-112,145.49226 L-108,152.42047 L-112,159.34868 L-120,159.34868 L-128,159.34868 L-124,152.42047 L-116,152.42047 L-120,145.49226 L-128,145.49226 L-132,152.42047 L-140,152.42047 L-136,145.49226 L-140,138.56407 L-144,145.49226 L-148,152.42047 L-144,159.34868 L-136,159.34868 L-132,166.27687 L-140,166.27687 L-144,173.20508 L-136,173.20508 L-128,173.20508 L-124,166.27687 L-116,166.27687 L-112,173.20508 L-120,173.20508 L-124,180.13329 L-116,180.13329 L-108,180.13329 L-104,173.20508 L-108,166.27687 L-104,159.34868 L-100,152.42047 L-96,159.34868 L-100,166.27687 L-92,166.27687 L-88,159.34868 L-80,159.34868 L-76,166.27687 L-84,166.27687 L-88,173.20508 L-80,173.20508 L-72,173.20508 L-68,166.27687 L-60,166.27687 L-56,173.20508 L-52,180.13329 L-60,180.13329 L-64,173.20508 L-68,180.13329 L-64,187.0615 L-68,193.98969 L-76,193.98969 L-84,193.98969 L-80,187.0615 L-72,187.0615 L-76,180.13329 L-84,180.13329 L-88,187.0615 L-96,187.0615 L-92,180.13329 L-96,173.20508 L-100,180.13329 L-104,187.0615 L-100,193.98969 L-92,193.98969 L-88,200.9179 L-96,200.9179 L-100,207.8461 L-92,207.8461 L-84,207.8461 L-80,200.9179 L-72,200.9179 L-68,207.8461 L-76,207.8461 L-80,214.7743 L-72,214.7743 L-64,214.7743 L-60,207.8461 L-64,200.9179 L-60,193.98969 L-56,187.0615 L-52,193.98969 L-56,200.9179 L-48,200.9179 L-44,193.98969 L-48,187.0615 L-44,180.13329 L-40,187.0615 L-32,187.0615 L-36,180.13329 L-40,173.20508 L-48,173.20508 L-52,166.27687 L-48,159.34868 L-44,152.42047 L-40,159.34868 L-44,166.27687 L-36,166.27687 L-32,159.34868 L-36,152.42047 L-32,145.49226 L-28,138.56407 L-24,145.49226 L-28,152.42047 L-20,152.42047 L-16,145.49226 L-8,145.49226 L-4,152.42047 L-0.0000000000004405365,159.34868 L-8,159.34868 L-12,152.42047 L-16,159.34868 L-12,166.27687 L-16,173.20508 L-24,173.20508 L-20,166.27687 L-24,159.34868 L-28,166.27687 L-32,173.20508 L-28,180.13329 L-20,180.13329 L-16,187.0615 L-24,187.0615 L-28,193.98969 L-20,193.98969 L-12,193.98969 L-8,187.0615 L-12,180.13329 L-8,173.20508 L-4,166.27687 L-0.0000000000004689582,173.20508 L-4,180.13329 L4,180.13329 L8,173.20508 L4,166.27687 L8,159.34868 L12,166.27687 L20,166.27687 L16,159.34868 L12,152.42047 L4,152.42047 L-0.0000000000004121148,145.49226 L4,138.56407 L8,131.63586 L12,138.56407 L8,145.49226 L16,145.49226 L20,138.56407 L28,138.56407 L32,145.49226 L36,152.42047 L28,152.42047 L24,145.49226 L20,152.42047 L24,159.34868 L32,159.34868 L36,166.27687 L28,166.27687 L24,173.20508 L32,173.20508 L40,173.20508 L44,166.27687 L40,159.34868 L44,152.42047 L48,159.34868 L56,159.34868 L52,152.42047 L48,145.49226 L40,145.49226 L36,138.56407 L40,131.63586 L44,138.56407 L52,138.56407 L48,131.63586 L44,124.70766 L36,124.70766 L32,131.63586 L24,131.63586 L16,131.63586 L20,124.70766 L28,124.70766 L24,117.77946 L16,117.77946 L12,110.85125 L16,103.92305 L20,110.85125 L28,110.85125 L24,103.92305 L20,96.99484 L12,96.99484 L8,90.06664 L12,83.138435 L16,76.210236 L20,83.138435 L16,90.06664 L24,90.06664 L28,83.138435 L24,76.210236 L28,69.282036 L32,62.35383 L36,69.282036 L32,76.210236 L40,76.210236 L44,69.282036 L52,69.282036 L56,76.210236 L60,83.138435 L52,83.138435 L48,76.210236 L44,83.138435 L48,90.06664 L44,96.99484 L36,96.99484 L40,90.06664 L36,83.138435 L32,90.06664 L28,96.99484 L32,103.92305 L40,103.92305 L44,110.85125 L36,110.85125 L32,117.77946 L40,117.77946 L48,117.77946 L52,110.85125 L48,103.92305 L52,96.99484 L56,90.06664 L60,96.99484 L56,103.92305 L64,103.92305 L68,96.99484 L64,90.06664 L68,83.138435 L72,90.06664 L80,90.06664 L76,83.138435 L72,76.210236 L64,76.210236 L60,69.282036 L64,62.35383 L68,55.425625 L72,62.35383 L68,69.282036 L76,69.282036 L80,62.35383 L76,55.425625 L80,48.49742 L84,41.569218 L88,48.49742 L84,55.425625 L92,55.425625 L96,48.49742 L104,48.49742 L108,55.425625 L112,62.35383 L104,62.35383 L100,55.425625 L96,62.35383 L100,69.282036 L96,76.210236 L88,76.210236 L92,69.282036 L88,62.35383 L84,69.282036 L80,76.210236 L84,83.138435 L92,83.138435 L96,90.06664 L88,90.06664 L84,96.99484 L92,96.99484 L100,96.99484 L104,90.06664 L100,83.138435 L104,76.210236 L108,69.282036 L112,76.210236 L108,83.138435 L116,83.138435 L120,76.210236 L128,76.210236 L132,83.138435 L124,83.138435 L120,90.06664 L128,90.06664 L136,90.06664 L140,83.138435 L148,83.138435 L152,90.06664 L156,96.99484 L148,96.99484 L144,90.06664 L140,96.99484 L144,103.92305 L152,103.92305 L156,110.85125 L160,117.77946 L152,117.77946 L148,110.85125 L144,117.77946 L148,124.70766 L144,131.63586 L136,131.63586 L128,131.63586 L132,124.70766 L140,124.70766 L136,117.77946 L128,117.77946 L124,110.85125 L128,103.92305 L132,110.85125 L140,110.85125 L136,103.92305 L132,96.99484 L124,96.99484 L120,103.92305 L112,103.92305 L116,96.99484 L112,90.06664 L108,96.99484 L104,103.92305 L108,110.85125 L116,110.85125 L120,117.77946 L124,124.70766 L116,124.70766 L112,117.77946 L108,124.70766 L112,131.63586 L108,138.56407 L100,138.56407 L104,131.63586 L100,124.70766 L96,131.63586 L92,138.56407 L96,145.49226 L92,152.42047 L84,152.42047 L76,152.42047 L80,145.49226 L88,145.49226 L84,138.56407 L76,138.56407 L72,131.63586 L76,124.70766 L80,117.77946 L84,124.70766 L80,131.63586 L88,131.63586 L92,124.70766 L88,117.77946 L92,110.85125 L96,117.77946 L104,117.77946 L100,110.85125 L96,103.92305 L88,103.92305 L84,110.85125 L76,110.85125 L80,103.92305 L76,96.99484 L72,103.92305 L68,110.85125 L72,117.77946 L68,124.70766 L60,124.70766 L64,117.77946 L60,110.85125 L56,117.77946 L52,124.70766 L56,131.63586 L64,131.63586 L68,138.56407 L72,145.49226 L64,145.49226 L60,138.56407 L56,145.49226 L60,152.42047 L68,152.42047 L72,159.34868 L64,159.34868 L60,166.27687 L68,166.27687 L76,166.27687 L80,159.34868 L88,159.34868 L92,166.27687 L96,173.20508 L88,173.20508 L84,166.27687 L80,173.20508 L84,180.13329 L80,187.0615 L72,187.0615 L64,187.0615 L68,180.13329 L76,180.13329 L72,173.20508 L64,173.20508 L60,180.13329 L52,180.13329 L56,173.20508 L52,166.27687 L48,173.20508 L44,180.13329 L48,187.0615 L56,187.0615 L60,193.98969 L52,193.98969 L48,200.9179 L56,200.9179 L64,200.9179 L68,193.98969 L76,193.98969 L80,200.9179 L72,200.9179 L68,207.8461 L76,207.8461 L84,207.8461 L88,200.9179 L84,193.98969 L88,187.0615 L92,180.13329 L96,187.0615 L92,193.98969 L100,193.98969 L104,187.0615 L100,180.13329 L104,173.20508 L108,180.13329 L116,180.13329 L112,173.20508 L108,166.27687 L100,166.27687 L96,159.34868 L100,152.42047 L104,145.49226 L108,152.42047 L104,159.34868 L112,159.34868 L116,152.42047 L112,145.49226 L116,138.56407 L120,131.63586 L124,138.56407 L120,145.49226 L128,145.49226 L132,138.56407 L140,138.56407 L144,145.49226 L148,152.42047 L140,152.42047 L136,145.49226 L132,152.42047 L136,159.34868 L132,166.27687 L124,166.27687 L128,159.34868 L124,152.42047 L120,159.34868 L116,166.27687 L120,173.20508 L128,173.20508 L132,180.13329 L124,180.13329 L120,187.0615 L128,187.0615 L136,187.0615 L140,180.13329 L136,173.20508 L140,166.27687 L144,159.34868 L148,166.27687 L144,173.20508 L152,173.20508 L156,166.27687" fill="none" stroke="black" stroke-width="3"/>
</svg>