<svg fill="none" height="400mm" stroke="black" stroke-linecap="round" stroke-linejoin="round" stroke-width="2" viewBox="0 0 300 400" width="300mm" xmlns="http://www.w3.org/2000/svg">
<path d="M142.5,355.88458 L157.5,355.88458 L165,342.8942 L150,342.8942 L142.5,329.9038 L157.5,329.9038 L172.5,329.9038 L180,342.8942 L195,342.8942 L202.5,329.9038 L210,316.91342 L195,316.91342 L187.5,329.9038 L180,316.91342 L187.5,303.92303 L180,290.93268 L165,290.93268 L150,290.93268 L157.5,303.92303 L172.5,303.92303 L165,316.91342 L150,316.91342 L142.5,303.92303 L127.5,303.92303 L135,316.91342 L127.5,329.9038 L120,316.91342 L112.5,303.92303 L120,290.93268 L135,290.93268 L142.5,277.9423 L127.5,277.9423 L120,264.9519 L135,264.9519 L150,264.9519 L157.5,277.9423 L172.5,277.9423 L180,264.9519 L165,264.9519 L157.5,251.96152 L172.5,251.96152 L187.5,251.96152 L195,264.9519 L187.5,277.9423 L195,290.93268 L202.5,303.92303 L210,290.93268 L202.5,277.9423 L217.5,277.9423 L225,290.93268 L240,290.93268 L247.5,277.9423 L232.5,277.9423 L225,264.9519 L240,264.9519 L255,264.9519 L262.5,277.9423 L277.5,277.9423 L285,264.9519 L292.5,251.96152 L277.5,251.96152 L270,264.9519 L262.5,251.96152 L270,238.97115 L285,238.97115 L292.5,225.98076 L300,212.99039 L285,212.99039 L277.5,225.98076 L270,212.99039 L277.5,200 L270,187.00961 L255,187.00961 L240,187.00961 L247.5,200 L262.5,200 L255,212.99039 L240,212.99039 L232.5,225.98076 L240,238.97115 L247.5,225.98076 L262.5,225.98076 L255,238.97115 L247.5,251.96152 L232.5,251.96152 L225,238.97115 L210,238.97115 L217.5,251.96152 L210,264.9519 L202.5,251.96152 L195,238.97115 L202.5,225.98076 L217.5,225.98076 L225,212.99039 L232.5,200 L217.5,200 L210,212.99039 L202.5,200 L210,187.00961 L202.5,174.01924 L187.5,174.01924 L195,187.00961 L187.5,200 L180,187.00961 L172.5,174.01924 L180,161.02885 L172.5,148.03848 L157.5,148.03848 L142.5,148.03848 L150,161.02885 L165,161.02885 L157.5,174.01924 L142.5,174.01924 L135,161.02885 L120,161.02885 L105,161.02885 L112.5,174.01924 L127.5,174.01924 L120,187.00961 L105,187.00961 L97.5,200 L105,212.99039 L112.5,225.98076 L120,212.99039 L112.5,200 L127.5,200 L135,212.99039 L150,212.99039 L157.5,200 L142.5,200 L135,187.00961 L150,187.00961 L165,187.00961 L172.5,200 L165,212.99039 L172.5,225.98076 L180,212.99039 L195,212.99039 L187.5,225.98076 L180,238.97115 L165,238.97115 L157.5,225.98076 L142.5,225.98076 L127.5,225.98076 L135,238.97115 L150,238.97115 L142.5,251.96152 L127.5,251.96152 L120,238.97115 L105,238.97115 L112.5,251.96152 L105,264.9519 L97.5,251.96152 L90,238.97115 L97.5,225.98076 L90,212.99039 L75,212.99039 L60,212.99039 L67.5,225.98076 L82.5,225.98076 L75,238.97115 L60,238.97115 L52.5,251.96152 L60,264.9519 L67.5,277.9423 L75,264.9519 L67.5,251.96152 L82.5,251.96152 L90,264.9519 L82.5,277.9423 L90,290.93268 L97.5,277.9423 L112.5,277.9423 L105,290.93268 L97.5,303.92303 L82.5,303.92303 L75,290.93268 L60,290.93268 L67.5,303.92303 L60,316.91342 L52.5,303.92303 L45,290.93268 L52.5,277.9423 L45,264.9519 L30,264.9519 L37.5,277.9423 L30,290.93268 L22.5,277.9423 L15,264.9519 L22.5,251.96152 L37.5,251.96152 L45,238.97115 L52.5,225.98076 L37.5,225.98076 L30,238.97115 L22.5,225.98076 L30,212.99039 L45,212.99039 L52.5,200 L37.5,200 L30,187.00961 L45,187.00961 L60,187.00961 L67.5,200 L82.5,200 L90,187.00961 L97.5,174.01924 L82.5,174.01924 L75,187.00961 L67.5,174.01924 L75,161.02885 L67.5,148.03848 L52.5,148.03848 L37.5,148.03848 L45,161.02885 L60,161.02885 L52.5,174.01924 L37.5,174.01924 L30,161.02885 L15,161.02885 L22.5,174.01924 L15,187.00961 L7.5,174.01924 L-0.00000000000002842171,161.02885 L7.5,148.03848 L22.5,148.03848 L30,135.0481 L15,135.0481 L7.5,122.05772 L22.5,122.05772 L37.5,122.05772 L45,135.0481 L60,135.0481 L67.5,122.05772 L52.5,122.05772 L45,109.06733 L60,109.06733 L75,109.06733 L82.5,122.05772 L75,135.0481 L82.5,148.03848 L90,161.02885 L97.5,148.03848 L90,135.0481 L105,135.0481 L112.5,148.03848 L127.5,148.03848 L135,135.0481 L120,135.0481 L112.5,122.05772 L127.5,122.05772 L142.5,122.05772 L150,135.0481 L165,135.0481 L172.5,122.05772 L180,109.06733 L165,109.06733 L157.5,122.05772 L150,109.06733 L157.5,96.07695 L150,83.08657 L135,83.08657 L120,83.08657 L127.5,96.07695 L142.5,96.07695 L135,109.06733 L120,109.06733 L112.5,96.07695 L97.5,96.07695 L105,109.06733 L97.5,122.05772 L90,109.06733 L82.5,96.07695 L90,83.08657 L105,83.08657 L112.5,70.09619 L97.5,70.09619 L90,57.10581 L105,57.10581 L120,57.10581 L127.5,70.09619 L142.5,70.09619 L150,57.10581 L135,57.10581 L127.5,44.11543 L142.5,44.11543 L157.5,44.11543 L165,57.10581 L157.5,70.09619 L165,83.08657 L172.5,96.07695 L180,83.08657 L172.5,70.09619 L187.5,70.09619 L195,83.08657 L187.5,96.07695 L195,109.06733 L202.5,96.07695 L217.5,96.07695 L210,109.06733 L202.5,122.05772 L187.5,122.05772 L180,135.0481 L187.5,148.03848 L195,161.02885 L202.5,148.03848 L195,135.0481 L210,135.0481 L217.5,148.03848 L210,161.02885 L217.5,174.01924 L225,187.00961 L232.5,174.01924 L225,161.02885 L240,161.02885 L247.5,174.01924 L262.5,174.01924 L270,161.02885 L277.5,148.03848 L262.5,148.03848 L255,161.02885 L247.5,148.03848 L255,135.0481 L247.5,122.05772 L232.5,122.05772 L240,135.0481 L232.5,148.03848 L225,135.0481 L217.5,122.05772 L225,109.06733 L240,109.06733 L247.5,96.07695 L232.5,96.07695 L225,83.08657 L240,83.08657 L255,83.08657 L262.5,96.07695 L255,109.06733 L262.5,122.05772 L270,135.0481 L277.5,122.05772 L270,109.06733 L285,109.06733 L292.5,122.05772"/>
</svg>