<svg height="500mm" viewBox="0 0 500 500" width="500mm" xmlns="http://www.w3.org/2000/svg">
<path d="M10,10 L110,10 L110,110 L10,110 L10,10" fill="none" id="outline-0" stroke="black" stroke-linecap="round" stroke-linejoin="round" stroke-width="0.5"/>
<path d="M10.4741335,115.06773 L10.4104805,112.70781 L11.446041,112.72718 L11.792625,113.06138 L11.794899,113.62186 L11.413328,113.949455 L10.541866,113.99754 L10.4741335,115.06773" fill="none" id="outline-0" stroke="black" stroke-linecap="round" stroke-linejoin="round" stroke-width="0.2"/>
<path d="M10.541866,113.86208 L10.541866,112.79867 L11.312787,112.82421 L11.643385,113.05546 L11.693595,113.50211 L11.493445,113.7733 L11.063414,113.86208" fill="none" id="outline-0" stroke="black" stroke-linecap="round" stroke-linejoin="round" stroke-width="0.2"/>
<path d="M13.003973,115.06773 L13.425322,114.93985 L13.641705,114.593636 L13.198938,114.90639 L12.737933,114.880226 L12.46524,114.59666 L12.3706665,114.0348 L13.67792,113.967064 L13.48991,113.28511 L12.9938135,113.052666 L12.441775,113.32235 L12.2352,114.068665 L12.441526,114.8092 L13.003973,115.06773" fill="none" id="outline-0" stroke="black" stroke-linecap="round" stroke-linejoin="round" stroke-width="0.2"/>
<path d="M12.37744,113.89933 L12.579479,113.360634 L12.9938135,113.18813 L13.383988,113.36448 L13.542454,113.89933" fill="none" id="outline-0" stroke="black" stroke-linecap="round" stroke-linejoin="round" stroke-width="0.2"/>
<path d="M14.372187,115.06773 L14.308535,113.097275 L14.43584,113.097275 L14.43992,113.41843 L15.065873,113.05675 L14.43992,113.61824 L14.372187,115.06773" fill="none" id="outline-0" stroke="black" stroke-linecap="round" stroke-linejoin="round" stroke-width="0.2"/>
<path d="M15.980853,115.06773 L15.726986,114.971725 L15.625988,114.720856 L15.677609,112.41028 L15.765403,114.75343 L16.152498,114.974464 L15.980853,115.06773" fill="none" id="outline-0" stroke="black" stroke-linecap="round" stroke-linejoin="round" stroke-width="0.2"/>
<path d="M16.74624,115.06773 L16.74624,113.052666 L16.74624,115.06773" fill="none" id="outline-0" stroke="black" stroke-linecap="round" stroke-linejoin="round" stroke-width="0.2"/>
<path d="M16.74624,112.771576 L16.74624,112.273735 L16.74624,112.771576" fill="none" id="outline-0" stroke="black" stroke-linecap="round" stroke-linejoin="round" stroke-width="0.2"/>
<path d="M17.694508,115.06773 L17.635897,113.08656 L17.75816,113.097275 L17.76224,113.41843 L18.197132,113.09543 L18.626738,113.09145 L18.880157,113.46127 L18.880877,115.03384 L18.754534,115 L18.739227,113.43407 L18.426027,113.18813 L17.76224,113.61824 L17.694508,115.06773" fill="none" id="outline-0" stroke="black" stroke-linecap="round" stroke-linejoin="round" stroke-width="0.2"/>
<path d="M19.7536,115.06773 L19.689947,112.70781 L20.725508,112.72718 L21.072092,113.06138 L21.074366,113.62186 L20.692795,113.949455 L19.821333,113.99754 L19.7536,115.06773" fill="none" id="outline-0" stroke="black" stroke-linecap="round" stroke-linejoin="round" stroke-width="0.2"/>
<path d="M19.821333,113.86208 L19.821333,112.79867 L20.592253,112.82421 L20.922852,113.05546 L20.973063,113.50211 L20.772913,113.7733 L20.34288,113.86208" fill="none" id="outline-0" stroke="black" stroke-linecap="round" stroke-linejoin="round" stroke-width="0.2"/>
<path d="M22.280054,115.06773 L21.720503,114.78362 L21.514668,114.068665 L21.730467,113.317894 L22.28344,113.052666 L22.829641,113.317894 L23.04544,114.068665 L22.839603,114.78362 L22.280054,115.06773 L22.280054,114.93227 L22.744808,114.69167 L22.909973,114.068665 L22.745478,113.4278 L22.276667,113.18813 L21.81463,113.4278 L21.650133,114.068665 L21.815298,114.69167 L22.280054,114.93227" fill="none" id="outline-0" stroke="black" stroke-linecap="round" stroke-linejoin="round" stroke-width="0.2"/>
<path d="M22.280054,114.93227 L21.815298,114.69167 L21.650133,114.068665 L21.81463,113.4278 L22.28344,113.18813 L22.745478,113.4278 L22.909973,114.068665 L22.744808,114.69167 L22.280054,114.93227" fill="none" id="outline-0" stroke="black" stroke-linecap="round" stroke-linejoin="round" stroke-width="0.2"/>
<path d="M23.75664,115.06773 L23.75664,113.052666 L23.75664,115.06773" fill="none" id="outline-0" stroke="black" stroke-linecap="round" stroke-linejoin="round" stroke-width="0.2"/>
<path d="M23.75664,112.771576 L23.75664,112.273735 L23.75664,112.771576" fill="none" id="outline-0" stroke="black" stroke-linecap="round" stroke-linejoin="round" stroke-width="0.2"/>
<path d="M24.704906,115.06773 L24.646296,113.08656 L24.768559,113.097275 L24.77264,113.41843 L25.207533,113.09543 L25.637136,113.09145 L25.890558,113.46127 L25.891277,115.03384 L25.764933,115 L25.749626,113.43407 L25.436426,113.18813 L24.77264,113.61824 L24.704906,115.06773" fill="none" id="outline-0" stroke="black" stroke-linecap="round" stroke-linejoin="round" stroke-width="0.2"/>
<path d="M27.126373,115.06773 L26.745548,114.76374 L26.730133,113.37101 L26.392542,113.31527 L26.730133,113.23555 L26.785875,112.69814 L26.8656,113.23555 L27.416552,113.29129 L26.8656,113.37101 L26.895395,114.80751 L27.463964,114.89657 L27.126373,115.06773" fill="none" id="outline-0" stroke="black" stroke-linecap="round" stroke-linejoin="round" stroke-width="0.2"/>
<path d="M28.07464,115.06773 L28.142374,113.89256 L29.239653,113.82483 L28.142374,113.757095 L28.142374,112.79867 L29.297226,112.730934 L28.006907,112.730934 L28.006907,112.730934 L28.006907,112.730934 L28.006907,112.730934 L28.07464,115.06773" fill="none" id="outline-0" stroke="black" stroke-linecap="round" stroke-linejoin="round" stroke-width="0.2"/>
<path d="M29.940693,115.06773 L29.940693,113.052666 L29.940693,115.06773" fill="none" id="outline-0" stroke="black" stroke-linecap="round" stroke-linejoin="round" stroke-width="0.2"/>
<path d="M29.940693,112.771576 L29.940693,112.273735 L29.940693,112.771576" fill="none" id="outline-0" stroke="black" stroke-linecap="round" stroke-linejoin="round" stroke-width="0.2"/>
<path d="M31.420666,115.06773 L31.842016,114.93985 L32.0584,114.593636 L31.615631,114.90639 L31.154627,114.880226 L30.881933,114.59666 L30.78736,114.0348 L32.094612,113.967064 L31.906603,113.28511 L31.410507,113.052666 L30.858469,113.32235 L30.651894,114.068665 L30.85822,114.8092 L31.420666,115.06773" fill="none" id="outline-0" stroke="black" stroke-linecap="round" stroke-linejoin="round" stroke-width="0.2"/>
<path d="M30.794134,113.89933 L30.996172,113.360634 L31.410507,113.18813 L31.800682,113.36448 L31.959146,113.89933" fill="none" id="outline-0" stroke="black" stroke-linecap="round" stroke-linejoin="round" stroke-width="0.2"/>
<path d="M33.0632,115.06773 L32.809334,114.971725 L32.708336,114.720856 L32.759956,112.41028 L32.847748,114.75343 L33.234844,114.974464 L33.0632,115.06773" fill="none" id="outline-0" stroke="black" stroke-linecap="round" stroke-linejoin="round" stroke-width="0.2"/>
<path d="M34.30272,115.06773 L33.9416,114.96114 L33.713264,114.679504 L33.641556,113.63059 L33.823685,113.26379 L34.13988,113.0705 L34.538864,113.09443 L34.888615,113.35408 L34.968338,112.41028 L35.023006,115.01199 L34.897736,115.03384 L34.888615,114.76971 L34.30272,115.06773 L34.30272,114.93227 L34.643265,114.82464 L34.888615,114.5191 L34.888615,113.59115 L34.633232,113.29075 L34.29933,113.18813 L33.870293,113.41883 L33.726986,114.05512 L33.87516,114.70028 L34.30272,114.93227" fill="none" id="outline-0" stroke="black" stroke-linecap="round" stroke-linejoin="round" stroke-width="0.2"/>
<path d="M34.30272,114.93227 L33.87516,114.70028 L33.726986,114.05512 L33.870293,113.41883 L34.29933,113.18813 L34.633232,113.29075 L34.888615,113.59115 L34.888615,114.5191 L34.643265,114.82464 L34.30272,114.93227" fill="none" id="outline-0" stroke="black" stroke-linecap="round" stroke-linejoin="round" stroke-width="0.2"/>
<path d="M21.611084,51.114838 L21.53171,50.844517 L21.039927,50.619926 L20.631336,50.973972 L20.631336,51.255703 L21.039927,51.60975 L21.53171,51.38516 L21.611084,51.114838" fill="none" id="outline-0" stroke="black" stroke-linecap="round" stroke-linejoin="round" stroke-width="0.2"/>
<path d="M103.98044,19.603662 L103.90106,19.333342 L103.40928,19.108751 L103.00069,19.462795 L103.15301,19.981537 L103.40928,20.098574 L103.90106,19.873983 L103.98044,19.603662" fill="none" id="outline-0" stroke="black" stroke-linecap="round" stroke-linejoin="round" stroke-width="0.2"/>
<path d="M75.76519,52.39345 L75.685814,52.12313 L75.19403,51.89854 L74.93776,52.015575 L74.785446,52.534317 L75.19403,52.88836 L75.685814,52.66377 L75.76519,52.39345" fill="none" id="outline-0" stroke="black" stroke-linecap="round" stroke-linejoin="round" stroke-width="0.2"/>
<path d="M62.591934,28.244652 L62.29964,27.789835 L62.020775,27.74974 L61.612186,28.103786 L61.764503,28.622526 L62.020775,28.739563 L62.29964,28.699469 L62.591934,28.244652" fill="none" id="outline-0" stroke="black" stroke-linecap="round" stroke-linejoin="round" stroke-width="0.2"/>
<path d="M99.99109,21.885729 L99.91172,21.61541 L99.41994,21.39082 L99.011345,21.744864 L99.16366,22.263605 L99.41994,22.38064 L99.91172,22.15605 L99.99109,21.885729" fill="none" id="outline-0" stroke="black" stroke-linecap="round" stroke-linejoin="round" stroke-width="0.2"/>
<path d="M14.149484,78.93299 L14.07011,78.662674 L13.578326,78.43808 L13.322054,78.555115 L13.169738,79.07386 L13.578326,79.4279 L14.07011,79.203316 L14.149484,78.93299" fill="none" id="outline-0" stroke="black" stroke-linecap="round" stroke-linejoin="round" stroke-width="0.2"/>
<path d="M81.755165,10.201512 L81.90748,10.720254 L82.44262,10.797195 L82.65554,10.6126995 L82.73491,10.342379 L82.57238,10 L81.88467,10 L81.755165,10.201512" fill="none" id="outline-0" stroke="black" stroke-linecap="round" stroke-linejoin="round" stroke-width="0.2"/>
<path d="M56.683052,56.58378 L56.39076,56.128963 L56.111893,56.08887 L55.703304,56.442913 L55.703304,56.724648 L56.111893,57.07869 L56.39076,57.038597 L56.683052,56.58378" fill="none" id="outline-0" stroke="black" stroke-linecap="round" stroke-linejoin="round" stroke-width="0.2"/>
<path d="M108.40516,70.257095 L108.32578,69.98678 L107.834,69.762184 L107.57773,69.87922 L107.42541,70.397964 L107.834,70.75201 L108.32578,70.52742 L108.40516,70.257095" fill="none" id="outline-0" stroke="black" stroke-linecap="round" stroke-linejoin="round" stroke-width="0.2"/>
<path d="M30.205984,77.047485 L30.126612,76.77717 L29.634827,76.552574 L29.378555,76.66961 L29.226238,77.188354 L29.634827,77.5424 L30.126612,77.3178 L30.205984,77.047485" fill="none" id="outline-0" stroke="black" stroke-linecap="round" stroke-linejoin="round" stroke-width="0.2"/>
<path d="M83.046906,41.7151 L82.96753,41.44478 L82.475746,41.22019 L82.219475,41.337223 L82.067154,41.855965 L82.475746,42.21001 L82.96753,41.98542 L83.046906,41.7151" fill="none" id="outline-0" stroke="black" stroke-linecap="round" stroke-linejoin="round" stroke-width="0.2"/>
<path d="M38.61411,80.19904 L38.32182,79.74423 L38.042953,79.70413 L37.786682,79.82117 L37.634365,80.33991 L38.042953,80.693954 L38.32182,80.65386 L38.61411,80.19904" fill="none" id="outline-0" stroke="black" stroke-linecap="round" stroke-linejoin="round" stroke-width="0.2"/>
<path d="M67.64229,15.82428 L67.56291,15.553959 L67.07113,15.329369 L66.81486,15.446404 L66.66254,15.965146 L67.07113,16.319191 L67.56291,16.0946 L67.64229,15.82428" fill="none" id="outline-0" stroke="black" stroke-linecap="round" stroke-linejoin="round" stroke-width="0.2"/>
<path d="M87.47219,21.124962 L87.392815,20.854641 L86.90103,20.63005 L86.49245,20.984095 L86.64476,21.502836 L86.90103,21.619871 L87.392815,21.39528 L87.47219,21.124962" fill="none" id="outline-0" stroke="black" stroke-linecap="round" stroke-linejoin="round" stroke-width="0.2"/>
<path d="M37.790836,70.75265 L37.498543,70.29783 L37.219677,70.25774 L36.963406,70.37477 L36.81109,70.89351 L37.219677,71.24756 L37.498543,71.207466 L37.790836,70.75265" fill="none" id="outline-0" stroke="black" stroke-linecap="round" stroke-linejoin="round" stroke-width="0.2"/>
<path d="M33.974228,36.998955 L33.681934,36.544136 L33.40307,36.504044 L32.99448,36.858086 L32.99448,37.13982 L33.40307,37.493862 L33.681934,37.45377 L33.974228,36.998955" fill="none" id="outline-0" stroke="black" stroke-linecap="round" stroke-linejoin="round" stroke-width="0.2"/>
<path d="M65.468796,28.772379 L65.38943,28.502058 L64.897644,28.277468 L64.48905,28.631512 L64.641365,29.150253 L64.897644,29.267288 L65.38943,29.042698 L65.468796,28.772379" fill="none" id="outline-0" stroke="black" stroke-linecap="round" stroke-linejoin="round" stroke-width="0.2"/>
<path d="M106.6536,26.795952 L106.574234,26.52563 L106.08244,26.30104 L105.67386,26.655085 L105.82617,27.173826 L106.08244,27.290863 L106.574234,27.066273 L106.6536,26.795952" fill="none" id="outline-0" stroke="black" stroke-linecap="round" stroke-linejoin="round" stroke-width="0.2"/>
<path d="M50.848938,87.197334 L50.556644,86.742516 L50.27778,86.70242 L50.021507,86.81946 L49.86919,87.338196 L50.27778,87.692245 L50.556644,87.652145 L50.848938,87.197334" fill="none" id="outline-0" stroke="black" stroke-linecap="round" stroke-linejoin="round" stroke-width="0.2"/>
<path d="M40.483326,16.301285 L40.191032,15.846468 L39.655895,15.923409 L39.503582,16.160418 L39.655895,16.67916 L39.91217,16.796194 L40.191032,16.7561 L40.483326,16.301285" fill="none" id="outline-0" stroke="black" stroke-linecap="round" stroke-linejoin="round" stroke-width="0.2"/>
<path d="M104.156685,76.24002 L104.07732,75.969696 L103.58553,75.74511 L103.329254,75.862144 L103.17694,76.38088 L103.58553,76.73493 L104.07732,76.51034 L104.156685,76.24002" fill="none" id="outline-0" stroke="black" stroke-linecap="round" stroke-linejoin="round" stroke-width="0.2"/>
<path d="M11.757623,33.016197 L11.678249,32.745876 L11.186465,32.521286 L10.777876,32.87533 L10.777876,33.157063 L11.186465,33.51111 L11.678249,33.28652 L11.757623,33.016197" fill="none" id="outline-0" stroke="black" stroke-linecap="round" stroke-linejoin="round" stroke-width="0.2"/>
<path d="M13.646095,107.35843 L13.566722,107.08811 L13.074938,106.86352 L12.818665,106.98056 L12.666348,107.4993 L13.074938,107.85334 L13.566722,107.62875 L13.646095,107.35843" fill="none" id="outline-0" stroke="black" stroke-linecap="round" stroke-linejoin="round" stroke-width="0.2"/>
<path d="M104.13718,36.484684 L104.0578,36.214363 L103.56602,35.989773 L103.309746,36.106808 L103.157425,36.62555 L103.56602,36.979595 L104.0578,36.755005 L104.13718,36.484684" fill="none" id="outline-0" stroke="black" stroke-linecap="round" stroke-linejoin="round" stroke-width="0.2"/>
<path d="M107.6262,32.17399 L107.54682,31.90367 L107.05504,31.67908 L106.79877,31.796114 L106.646454,32.314857 L107.05504,32.6689 L107.54682,32.44431 L107.6262,32.17399" fill="none" id="outline-0" stroke="black" stroke-linecap="round" stroke-linejoin="round" stroke-width="0.2"/>
<path d="M104.307625,93.9749 L104.22825,93.704575 L103.736465,93.47999 L103.480194,93.59702 L103.32787,94.11577 L103.736465,94.46981 L104.22825,94.24522 L104.307625,93.9749" fill="none" id="outline-0" stroke="black" stroke-linecap="round" stroke-linejoin="round" stroke-width="0.2"/>
<path d="M10.223778,31.02092 L10.715562,30.79633 L10.794935,30.526009 L10.715562,30.255688 L10.223778,30.031097 L10,30.133293 L10,30.918724 L10.223778,31.02092" fill="none" id="outline-0" stroke="black" stroke-linecap="round" stroke-linejoin="round" stroke-width="0.2"/>
<path d="M14.791013,12.1066475 L14.49872,11.651832 L14.219855,11.611736 L13.811266,11.965781 L13.811266,12.247514 L14.219855,12.601558 L14.49872,12.561463 L14.791013,12.1066475" fill="none" id="outline-0" stroke="black" stroke-linecap="round" stroke-linejoin="round" stroke-width="0.2"/>
<path d="M16.666607,94.08755 L16.587234,93.81723 L16.09545,93.592636 L15.839177,93.70967 L15.686861,94.22842 L16.09545,94.58246 L16.587234,94.35787 L16.666607,94.08755" fill="none" id="outline-0" stroke="black" stroke-linecap="round" stroke-linejoin="round" stroke-width="0.2"/>
<path d="M105.96114,12.764588 L105.88177,12.494267 L105.389984,12.269677 L105.13371,12.386713 L104.9814,12.905455 L105.13371,13.142463 L105.668846,13.219404 L105.96114,12.764588" fill="none" id="outline-0" stroke="black" stroke-linecap="round" stroke-linejoin="round" stroke-width="0.2"/>
<path d="M52.575905,32.7774 L52.28361,32.322586 L52.004745,32.28249 L51.596157,32.636536 L51.596157,32.918266 L52.004745,33.272312 L52.28361,33.232216 L52.575905,32.7774" fill="none" id="outline-0" stroke="black" stroke-linecap="round" stroke-linejoin="round" stroke-width="0.2"/>
<path d="M98.60026,93.3343 L98.52088,93.06398 L98.0291,92.839386 L97.77283,92.95642 L97.62051,93.47517 L98.0291,93.82921 L98.52088,93.60462 L98.60026,93.3343" fill="none" id="outline-0" stroke="black" stroke-linecap="round" stroke-linejoin="round" stroke-width="0.2"/>
<path d="M30.8651,104.210846 L30.785727,103.94053 L30.293943,103.715935 L30.03767,103.83298 L29.885353,104.351715 L30.293943,104.70576 L30.785727,104.48117 L30.8651,104.210846" fill="none" id="outline-0" stroke="black" stroke-linecap="round" stroke-linejoin="round" stroke-width="0.2"/>
<path d="M64.58296,80.7136 L64.50359,80.44328 L64.0118,80.21869 L63.75553,80.335724 L63.603218,80.85447 L64.0118,81.20851 L64.50359,80.983925 L64.58296,80.7136" fill="none" id="outline-0" stroke="black" stroke-linecap="round" stroke-linejoin="round" stroke-width="0.2"/>
<path d="M86.04675,14.194155 L85.96738,13.923835 L85.47559,13.6992445 L85.21932,13.81628 L85.067,14.335021 L85.47559,14.689066 L85.96738,14.464476 L86.04675,14.194155" fill="none" id="outline-0" stroke="black" stroke-linecap="round" stroke-linejoin="round" stroke-width="0.2"/>
<path d="M71.10991,86.75312 L71.03053,86.4828 L70.53875,86.25821 L70.28248,86.375244 L70.130165,86.89399 L70.53875,87.24803 L71.03053,87.023445 L71.10991,86.75312" fill="none" id="outline-0" stroke="black" stroke-linecap="round" stroke-linejoin="round" stroke-width="0.2"/>
<path d="M84.47635,64.030495 L84.39697,63.760174 L83.90519,63.535583 L83.64892,63.65262 L83.4966,64.17136 L83.90519,64.525406 L84.39697,64.30081 L84.47635,64.030495" fill="none" id="outline-0" stroke="black" stroke-linecap="round" stroke-linejoin="round" stroke-width="0.2"/>
<path d="M25.976048,95.3611 L25.896675,95.090775 L25.40489,94.86619 L25.148617,94.98322 L24.996302,95.50196 L25.40489,95.85601 L25.896675,95.63142 L25.976048,95.3611" fill="none" id="outline-0" stroke="black" stroke-linecap="round" stroke-linejoin="round" stroke-width="0.2"/>
<path d="M32.264095,76.670525 L31.971802,76.21571 L31.692938,76.17561 L31.436665,76.29265 L31.28435,76.81139 L31.692938,77.165436 L31.971802,77.12534 L32.264095,76.670525" fill="none" id="outline-0" stroke="black" stroke-linecap="round" stroke-linejoin="round" stroke-width="0.2"/>
<path d="M96.78221,75.48665 L96.702835,75.21633 L96.21105,74.99174 L95.95478,75.10877 L95.80247,75.62752 L96.21105,75.98156 L96.702835,75.756966 L96.78221,75.48665" fill="none" id="outline-0" stroke="black" stroke-linecap="round" stroke-linejoin="round" stroke-width="0.2"/>
<path d="M54.751827,48.874092 L54.459538,48.419273 L54.18067,48.37918 L53.772083,48.733223 L53.772083,49.014957 L54.18067,49.369003 L54.459538,49.328907 L54.751827,48.874092" fill="none" id="outline-0" stroke="black" stroke-linecap="round" stroke-linejoin="round" stroke-width="0.2"/>
<path d="M29.981846,71.388405 L29.902473,71.11809 L29.410688,70.89349 L29.154415,71.01053 L29.0021,71.529274 L29.410688,71.883316 L29.902473,71.65872 L29.981846,71.388405" fill="none" id="outline-0" stroke="black" stroke-linecap="round" stroke-linejoin="round" stroke-width="0.2"/>
<path d="M95.41429,15.27694 L95.33492,15.006619 L94.84314,14.782029 L94.58686,14.899066 L94.43455,15.417807 L94.84314,15.771851 L95.33492,15.54726 L95.41429,15.27694" fill="none" id="outline-0" stroke="black" stroke-linecap="round" stroke-linejoin="round" stroke-width="0.2"/>
<path d="M55.82327,64.10607 L55.53098,63.651253 L55.252113,63.611156 L54.843525,63.965202 L54.843525,64.24693 L55.252113,64.60098 L55.53098,64.56088 L55.82327,64.10607" fill="none" id="outline-0" stroke="black" stroke-linecap="round" stroke-linejoin="round" stroke-width="0.2"/>
<path d="M11.381348,18.764158 L11.301974,18.49384 L10.81019,18.269249 L10.401602,18.623293 L10.553918,19.142035 L10.81019,19.25907 L11.301974,19.03448 L11.381348,18.764158" fill="none" id="outline-0" stroke="black" stroke-linecap="round" stroke-linejoin="round" stroke-width="0.2"/>
<path d="M31.57975,104.45331 L31.500378,104.18299 L31.008593,103.9584 L30.75232,104.07543 L30.600004,104.59418 L31.008593,104.94822 L31.500378,104.72363 L31.57975,104.45331" fill="none" id="outline-0" stroke="black" stroke-linecap="round" stroke-linejoin="round" stroke-width="0.2"/>
<path d="M61.084953,27.507902 L60.79266,27.053085 L60.513798,27.01299 L60.105206,27.367035 L60.257523,27.885777 L60.513798,28.002813 L60.79266,27.962719 L61.084953,27.507902" fill="none" id="outline-0" stroke="black" stroke-linecap="round" stroke-linejoin="round" stroke-width="0.2"/>
<path d="M17.464857,102.03753 L17.385483,101.767204 L16.8937,101.54262 L16.637426,101.65965 L16.48511,102.17839 L16.8937,102.53244 L17.385483,102.307846 L17.464857,102.03753" fill="none" id="outline-0" stroke="black" stroke-linecap="round" stroke-linejoin="round" stroke-width="0.2"/>
<path d="M23.659212,96.022415 L23.57984,95.75209 L23.088055,95.527504 L22.831781,95.64454 L22.679466,96.16328 L23.088055,96.51732 L23.57984,96.29273 L23.659212,96.022415" fill="none" id="outline-0" stroke="black" stroke-linecap="round" stroke-linejoin="round" stroke-width="0.2"/>
<path d="M100.22591,103.18645 L100.14653,102.91612 L99.65475,102.691536 L99.398476,102.80857 L99.246155,103.32731 L99.65475,103.68135 L100.14653,103.456764 L100.22591,103.18645" fill="none" id="outline-0" stroke="black" stroke-linecap="round" stroke-linejoin="round" stroke-width="0.2"/>
<path d="M73.78502,12.864445 L73.70564,12.594125 L73.21386,12.3695345 L72.95759,12.48657 L72.805275,13.005311 L72.95759,13.24232 L73.49273,13.319261 L73.78502,12.864445" fill="none" id="outline-0" stroke="black" stroke-linecap="round" stroke-linejoin="round" stroke-width="0.2"/>
<path d="M19.819286,29.40591 L19.739914,29.13559 L19.248129,28.911 L18.83954,29.265043 L18.991858,29.783785 L19.248129,29.900822 L19.739914,29.676231 L19.819286,29.40591" fill="none" id="outline-0" stroke="black" stroke-linecap="round" stroke-linejoin="round" stroke-width="0.2"/>
<path d="M17.285643,92.06372 L17.20627,91.7934 L16.714485,91.56881 L16.458214,91.68585 L16.305897,92.20459 L16.714485,92.55863 L17.20627,92.334045 L17.285643,92.06372" fill="none" id="outline-0" stroke="black" stroke-linecap="round" stroke-linejoin="round" stroke-width="0.2"/>
<path d="M65.42709,10.635622 L65.347725,10.365301 L64.85594,10.140711 L64.59967,10.257747 L64.44735,10.776488 L64.85594,11.130532 L65.347725,10.905942 L65.42709,10.635622" fill="none" id="outline-0" stroke="black" stroke-linecap="round" stroke-linejoin="round" stroke-width="0.2"/>
<path d="M82.19636,104.12436 L82.11698,103.854034 L81.6252,103.62945 L81.36893,103.74648 L81.21661,104.26522 L81.6252,104.61926 L82.11698,104.39468 L82.19636,104.12436" fill="none" id="outline-0" stroke="black" stroke-linecap="round" stroke-linejoin="round" stroke-width="0.2"/>
<path d="M17.053719,54.979725 L16.974346,54.709404 L16.482561,54.484814 L16.073973,54.83886 L16.073973,55.12059 L16.482561,55.474636 L16.974346,55.250046 L17.053719,54.979725" fill="none" id="outline-0" stroke="black" stroke-linecap="round" stroke-linejoin="round" stroke-width="0.2"/>
<path d="M39.64272,70.982216 L39.35043,70.5274 L39.071564,70.487305 L38.815292,70.60434 L38.662975,71.12308 L39.071564,71.47713 L39.35043,71.43703 L39.64272,70.982216" fill="none" id="outline-0" stroke="black" stroke-linecap="round" stroke-linejoin="round" stroke-width="0.2"/>
<path d="M55.13315,45.807537 L54.840855,45.352722 L54.561993,45.312626 L54.1534,45.66667 L54.1534,45.948402 L54.561993,46.30245 L54.840855,46.262352 L55.13315,45.807537" fill="none" id="outline-0" stroke="black" stroke-linecap="round" stroke-linejoin="round" stroke-width="0.2"/>
<path d="M88.103874,15.64947 L88.024506,15.379149 L87.53272,15.154559 L87.27644,15.271595 L87.12413,15.790337 L87.53272,16.14438 L88.024506,15.91979 L88.103874,15.64947" fill="none" id="outline-0" stroke="black" stroke-linecap="round" stroke-linejoin="round" stroke-width="0.2"/>
<path d="M88.026985,35.798748 L87.94761,35.528427 L87.455826,35.303837 L87.199554,35.420876 L87.04724,35.939617 L87.455826,36.29366 L87.94761,36.06907 L88.026985,35.798748" fill="none" id="outline-0" stroke="black" stroke-linecap="round" stroke-linejoin="round" stroke-width="0.2"/>
<path d="M58.171623,65.624756 L57.87933,65.16994 L57.600464,65.129845 L57.344193,65.24688 L57.191875,65.76562 L57.600464,66.11966 L57.87933,66.07957 L58.171623,65.624756" fill="none" id="outline-0" stroke="black" stroke-linecap="round" stroke-linejoin="round" stroke-width="0.2"/>
<path d="M102.29878,66.82294 L102.21941,66.55261 L101.72763,66.328026 L101.47135,66.44506 L101.31904,66.9638 L101.72763,67.31785 L102.21941,67.093254 L102.29878,66.82294" fill="none" id="outline-0" stroke="black" stroke-linecap="round" stroke-linejoin="round" stroke-width="0.2"/>
<path d="M101.826775,17.06434 L101.7474,16.79402 L101.255615,16.56943 L100.84702,16.923473 L100.999344,17.442215 L101.255615,17.55925 L101.7474,17.33466 L101.826775,17.06434" fill="none" id="outline-0" stroke="black" stroke-linecap="round" stroke-linejoin="round" stroke-width="0.2"/>
<path d="M58.30529,92.39253 L58.013,91.93772 L57.734135,91.89762 L57.47786,92.01466 L57.325546,92.5334 L57.734135,92.88744 L58.013,92.84735 L58.30529,92.39253" fill="none" id="outline-0" stroke="black" stroke-linecap="round" stroke-linejoin="round" stroke-width="0.2"/>
<path d="M58.330524,13.513827 L58.03823,13.059011 L57.759365,13.018916 L57.350777,13.372961 L57.350777,13.654694 L57.503094,13.891702 L58.03823,13.968643 L58.330524,13.513827" fill="none" id="outline-0" stroke="black" stroke-linecap="round" stroke-linejoin="round" stroke-width="0.2"/>
<path d="M84.082306,98.728775 L84.00293,98.45845 L83.51115,98.233864 L83.254875,98.3509 L83.10256,98.869644 L83.51115,99.22369 L84.00293,98.99909 L84.082306,98.728775" fill="none" id="outline-0" stroke="black" stroke-linecap="round" stroke-linejoin="round" stroke-width="0.2"/>
<path d="M50.645004,51.68593 L50.35271,51.23111 L50.07385,51.191017 L49.66526,51.54506 L49.66526,51.826794 L50.07385,52.180836 L50.35271,52.140743 L50.645004,51.68593" fill="none" id="outline-0" stroke="black" stroke-linecap="round" stroke-linejoin="round" stroke-width="0.2"/>
<path d="M109.90587,91.64858 L109.82649,91.378265 L109.33471,91.15367 L109.07844,91.27071 L108.92612,91.78945 L109.33471,92.14349 L109.82649,91.91891 L109.90587,91.64858" fill="none" id="outline-0" stroke="black" stroke-linecap="round" stroke-linejoin="round" stroke-width="0.2"/>
<path d="M69.51794,43.105362 L69.43856,42.83504 L68.94678,42.61045 L68.690506,42.727486 L68.53819,43.246227 L68.94678,43.600273 L69.43856,43.375683 L69.51794,43.105362" fill="none" id="outline-0" stroke="black" stroke-linecap="round" stroke-linejoin="round" stroke-width="0.2"/>
<path d="M61.073036,10.665737 L60.780746,10.210921 L60.50188,10.170826 L60.093292,10.524871 L60.093292,10.806603 L60.50188,11.160647 L60.780746,11.120553 L61.073036,10.665737" fill="none" id="outline-0" stroke="black" stroke-linecap="round" stroke-linejoin="round" stroke-width="0.2"/>
<path d="M18.234472,90.56931 L18.155098,90.298996 L17.663315,90.0744 L17.407042,90.191444 L17.254725,90.71018 L17.663315,91.064224 L18.155098,90.83964 L18.234472,90.56931" fill="none" id="outline-0" stroke="black" stroke-linecap="round" stroke-linejoin="round" stroke-width="0.2"/>
<path d="M76.306725,84.66394 L76.22735,84.393616 L75.735565,84.16903 L75.479294,84.286064 L75.32697,84.8048 L75.735565,85.15885 L76.22735,84.93426 L76.306725,84.66394" fill="none" id="outline-0" stroke="black" stroke-linecap="round" stroke-linejoin="round" stroke-width="0.2"/>
<path d="M37.725056,73.82318 L37.432762,73.36837 L37.1539,73.32827 L36.897625,73.445305 L36.74531,73.96405 L37.1539,74.31809 L37.432762,74.278 L37.725056,73.82318" fill="none" id="outline-0" stroke="black" stroke-linecap="round" stroke-linejoin="round" stroke-width="0.2"/>
<path d="M75.32624,72.67641 L75.246864,72.40608 L74.75508,72.181496 L74.49881,72.29853 L74.34649,72.81727 L74.75508,73.17132 L75.246864,72.946724 L75.32624,72.67641" fill="none" id="outline-0" stroke="black" stroke-linecap="round" stroke-linejoin="round" stroke-width="0.2"/>
<path d="M27.206291,99.384315 L27.126919,99.114 L26.635134,98.88941 L26.37886,99.00645 L26.226545,99.525185 L26.635134,99.87923 L27.126919,99.65464 L27.206291,99.384315" fill="none" id="outline-0" stroke="black" stroke-linecap="round" stroke-linejoin="round" stroke-width="0.2"/>
<path d="M108.07498,92.57256 L107.99561,92.302246 L107.50383,92.07765 L107.24755,92.19469 L107.09524,92.71343 L107.50383,93.067474 L107.99561,92.84289 L108.07498,92.57256" fill="none" id="outline-0" stroke="black" stroke-linecap="round" stroke-linejoin="round" stroke-width="0.2"/>
<path d="M109.24484,20.408113 L109.16547,20.137793 L108.67368,19.913202 L108.2651,20.267246 L108.41741,20.785988 L108.67368,20.903023 L109.16547,20.678432 L109.24484,20.408113" fill="none" id="outline-0" stroke="black" stroke-linecap="round" stroke-linejoin="round" stroke-width="0.2"/>
<path d="M20.863766,48.941113 L20.784393,48.67079 L20.292608,48.4462 L19.88402,48.800247 L19.88402,49.081978 L20.292608,49.436024 L20.784393,49.211433 L20.863766,48.941113" fill="none" id="outline-0" stroke="black" stroke-linecap="round" stroke-linejoin="round" stroke-width="0.2"/>
<path d="M24.884056,39.81723 L24.804684,39.54691 L24.3129,39.32232 L23.90431,39.676365 L23.90431,39.958096 L24.3129,40.31214 L24.804684,40.08755 L24.884056,39.81723" fill="none" id="outline-0" stroke="black" stroke-linecap="round" stroke-linejoin="round" stroke-width="0.2"/>
<path d="M44.138374,82.785835 L43.84608,82.33102 L43.56722,82.290924 L43.310944,82.40796 L43.158627,82.9267 L43.56722,83.28075 L43.84608,83.24065 L44.138374,82.785835" fill="none" id="outline-0" stroke="black" stroke-linecap="round" stroke-linejoin="round" stroke-width="0.2"/>
<path d="M77.68087,47.912437 L77.601494,47.642117 L77.10971,47.417526 L76.85344,47.53456 L76.701126,48.053303 L77.10971,48.40735 L77.601494,48.18276 L77.68087,47.912437" fill="none" id="outline-0" stroke="black" stroke-linecap="round" stroke-linejoin="round" stroke-width="0.2"/>
<path d="M74.82496,24.940895 L74.74558,24.670574 L74.2538,24.445984 L73.84521,24.800028 L73.99753,25.31877 L74.2538,25.435806 L74.74558,25.211216 L74.82496,24.940895" fill="none" id="outline-0" stroke="black" stroke-linecap="round" stroke-linejoin="round" stroke-width="0.2"/>
<path d="M64.89287,94.96138 L64.81349,94.691055 L64.32171,94.46647 L64.06544,94.5835 L63.91312,95.10225 L64.32171,95.45629 L64.81349,95.2317 L64.89287,94.96138" fill="none" id="outline-0" stroke="black" stroke-linecap="round" stroke-linejoin="round" stroke-width="0.2"/>
<path d="M59.529278,90.136566 L59.236988,89.68175 L58.958122,89.641655 L58.701847,89.75869 L58.549534,90.27743 L58.958122,90.63148 L59.236988,90.59138 L59.529278,90.136566" fill="none" id="outline-0" stroke="black" stroke-linecap="round" stroke-linejoin="round" stroke-width="0.2"/>
<path d="M92.838486,82.67639 L92.75911,82.406075 L92.26733,82.18148 L92.011055,82.298515 L91.85874,82.81726 L92.26733,83.1713 L92.75911,82.94672 L92.838486,82.67639" fill="none" id="outline-0" stroke="black" stroke-linecap="round" stroke-linejoin="round" stroke-width="0.2"/>
<path d="M22.507643,14.047271 L22.428268,13.77695 L21.936485,13.55236 L21.680212,13.669396 L21.527895,14.188137 L21.680212,14.425145 L22.21535,14.502087 L22.507643,14.047271" fill="none" id="outline-0" stroke="black" stroke-linecap="round" stroke-linejoin="round" stroke-width="0.2"/>
<path d="M77.58584,95.2802 L77.50646,95.00988 L77.01468,94.785286 L76.75841,94.90232 L76.606094,95.42107 L77.01468,95.77511 L77.50646,95.550514 L77.58584,95.2802" fill="none" id="outline-0" stroke="black" stroke-linecap="round" stroke-linejoin="round" stroke-width="0.2"/>
<path d="M39.73033,69.90685 L39.438038,69.45204 L39.159172,69.41194 L38.9029,69.528984 L38.750584,70.04772 L39.159172,70.401764 L39.438038,70.36167 L39.73033,69.90685" fill="none" id="outline-0" stroke="black" stroke-linecap="round" stroke-linejoin="round" stroke-width="0.2"/>
<path d="M12.400878,75.895164 L12.321505,75.62485 L11.8297205,75.40025 L11.573447,75.51729 L11.421131,76.03603 L11.8297205,76.390076 L12.321505,76.16548 L12.400878,75.895164" fill="none" id="outline-0" stroke="black" stroke-linecap="round" stroke-linejoin="round" stroke-width="0.2"/>
<path d="M18.376066,71.798744 L18.296694,71.52843 L17.804909,71.30383 L17.548635,71.420876 L17.39632,71.93961 L17.804909,72.293655 L18.296694,72.06907 L18.376066,71.798744" fill="none" id="outline-0" stroke="black" stroke-linecap="round" stroke-linejoin="round" stroke-width="0.2"/>
<path d="M72.26645,70.50486 L72.18708,70.234535 L71.6953,70.00995 L71.43902,70.12698 L71.286705,70.64572 L71.6953,70.99977 L72.18708,70.77518 L72.26645,70.50486" fill="none" id="outline-0" stroke="black" stroke-linecap="round" stroke-linejoin="round" stroke-width="0.2"/>
<path d="M66.13613,73.51489 L66.056755,73.244576 L65.56497,73.01998 L65.3087,73.13702 L65.15639,73.65576 L65.56497,74.0098 L66.056755,73.78522 L66.13613,73.51489" fill="none" id="outline-0" stroke="black" stroke-linecap="round" stroke-linejoin="round" stroke-width="0.2"/>
<path d="M20.494032,74.29955 L20.414658,74.029236 L19.922874,73.80465 L19.666601,73.921684 L19.514284,74.44042 L19.922874,74.794464 L20.414658,74.56988 L20.494032,74.29955" fill="none" id="outline-0" stroke="black" stroke-linecap="round" stroke-linejoin="round" stroke-width="0.2"/>
<path d="M106.03724,103.43063 L105.95786,103.16032 L105.46608,102.93573 L105.20981,103.052765 L105.057495,103.5715 L105.46608,103.925545 L105.95786,103.70096 L106.03724,103.43063" fill="none" id="outline-0" stroke="black" stroke-linecap="round" stroke-linejoin="round" stroke-width="0.2"/>
<path d="M72.762215,55.86347 L72.682846,55.593147 L72.19106,55.368557 L71.934784,55.48559 L71.78247,56.004333 L72.19106,56.358376 L72.682846,56.133785 L72.762215,55.86347" fill="none" id="outline-0" stroke="black" stroke-linecap="round" stroke-linejoin="round" stroke-width="0.2"/>
<path d="M61.27308,80.503914 L60.980785,80.049095 L60.70192,80.009 L60.44565,80.12604 L60.29333,80.64478 L60.70192,80.998825 L60.980785,80.95873 L61.27308,80.503914" fill="none" id="outline-0" stroke="black" stroke-linecap="round" stroke-linejoin="round" stroke-width="0.2"/>
<path d="M101.13407,28.378742 L101.054695,28.108421 L100.56291,27.883831 L100.15432,28.237875 L100.30664,28.756617 L100.56291,28.873652 L101.054695,28.649061 L101.13407,28.378742" fill="none" id="outline-0" stroke="black" stroke-linecap="round" stroke-linejoin="round" stroke-width="0.2"/>
<path d="M105.187256,48.632187 L105.10789,48.36187 L104.616104,48.13728 L104.359825,48.254314 L104.20751,48.773056 L104.616104,49.127098 L105.10789,48.902508 L105.187256,48.632187" fill="none" id="outline-0" stroke="black" stroke-linecap="round" stroke-linejoin="round" stroke-width="0.2"/>
<path d="M10.120053,70.38018 L10.611837,70.155594 L10.691211,69.88528 L10.611837,69.61495 L10.120053,69.390366 L10,69.44519 L10,70.325356 L10.120053,70.38018" fill="none" id="outline-0" stroke="black" stroke-linecap="round" stroke-linejoin="round" stroke-width="0.2"/>
<path d="M67.04774,73.75831 L66.96836,73.48798 L66.47658,73.2634 L66.22031,73.38043 L66.067986,73.89917 L66.47658,74.25322 L66.96836,74.028625 L67.04774,73.75831" fill="none" id="outline-0" stroke="black" stroke-linecap="round" stroke-linejoin="round" stroke-width="0.2"/>
<path d="M95.374565,94.37395 L95.29519,94.10362 L94.803406,93.879036 L94.547134,93.99607 L94.39481,94.51481 L94.803406,94.86886 L95.29519,94.644264 L95.374565,94.37395" fill="none" id="outline-0" stroke="black" stroke-linecap="round" stroke-linejoin="round" stroke-width="0.2"/>
<path d="M71.92654,57.207935 L71.84717,56.937614 L71.355385,56.713024 L71.099106,56.830063 L70.94679,57.3488 L71.355385,57.702847 L71.84717,57.478256 L71.92654,57.207935" fill="none" id="outline-0" stroke="black" stroke-linecap="round" stroke-linejoin="round" stroke-width="0.2"/>
<path d="M75.00514,79.64233 L74.92577,79.37201 L74.43398,79.147415 L74.17771,79.26445 L74.0254,79.783195 L74.43398,80.13724 L74.92577,79.91265 L75.00514,79.64233" fill="none" id="outline-0" stroke="black" stroke-linecap="round" stroke-linejoin="round" stroke-width="0.2"/>
<path d="M11.014784,89.521164 L10.9354105,89.25085 L10.443626,89.02625 L10.187354,89.14329 L10.035038,89.66203 L10.443626,90.016075 L10.9354105,89.79149 L11.014784,89.521164" fill="none" id="outline-0" stroke="black" stroke-linecap="round" stroke-linejoin="round" stroke-width="0.2"/>
<path d="M88.02712,103.30121 L87.94775,103.03088 L87.45596,102.8063 L87.19969,102.92333 L87.04737,103.44207 L87.45596,103.79612 L87.94775,103.571526 L88.02712,103.30121" fill="none" id="outline-0" stroke="black" stroke-linecap="round" stroke-linejoin="round" stroke-width="0.2"/>
<path d="M39.373657,76.68009 L39.081364,76.22527 L38.802498,76.18518 L38.546227,76.302216 L38.39391,76.82096 L38.802498,77.175 L39.081364,77.13491 L39.373657,76.68009" fill="none" id="outline-0" stroke="black" stroke-linecap="round" stroke-linejoin="round" stroke-width="0.2"/>
<path d="M51.167263,15.536048 L50.87497,15.081232 L50.596107,15.041138 L50.187515,15.395182 L50.187515,15.676914 L50.596107,16.030958 L50.87497,15.990865 L51.167263,15.536048" fill="none" id="outline-0" stroke="black" stroke-linecap="round" stroke-linejoin="round" stroke-width="0.2"/>
<path d="M39.76989,109.88321 L39.4776,109.42839 L39.198734,109.3883 L38.790146,109.74234 L38.790146,110 L39.7356,110 L39.76989,109.88321" fill="none" id="outline-0" stroke="black" stroke-linecap="round" stroke-linejoin="round" stroke-width="0.2"/>
<path d="M84.287094,44.155323 L84.207726,43.885002 L83.71594,43.66041 L83.45966,43.77745 L83.30735,44.296192 L83.71594,44.650234 L84.207726,44.425644 L84.287094,44.155323" fill="none" id="outline-0" stroke="black" stroke-linecap="round" stroke-linejoin="round" stroke-width="0.2"/>
<path d="M43.61972,73.37564 L43.327427,72.92082 L43.04856,72.88073 L42.79229,72.997765 L42.639973,73.51651 L43.04856,73.87055 L43.327427,73.83046 L43.61972,73.37564" fill="none" id="outline-0" stroke="black" stroke-linecap="round" stroke-linejoin="round" stroke-width="0.2"/>
<path d="M55.705162,50.391335 L55.41287,49.93652 L55.134007,49.896423 L54.725414,50.25047 L54.725414,50.5322 L55.134007,50.886246 L55.41287,50.84615 L55.705162,50.391335" fill="none" id="outline-0" stroke="black" stroke-linecap="round" stroke-linejoin="round" stroke-width="0.2"/>
<path d="M109.78236,92.794945 L109.52608,92.91198 L109.373764,93.430725 L109.78236,93.78477 L110,93.75347 L110,92.82624 L109.78236,92.794945" fill="none" id="outline-0" stroke="black" stroke-linecap="round" stroke-linejoin="round" stroke-width="0.2"/>
<path d="M10.050224,73.711815 L10.542008,73.48722 L10.621382,73.2169 L10.542008,72.94658 L10.050224,72.72199 L10.050224,73.711815" fill="none" id="outline-0" stroke="black" stroke-linecap="round" stroke-linejoin="round" stroke-width="0.2"/>
<path d="M85.698616,98.18609 L85.61924,97.91577 L85.12746,97.69118 L84.871185,97.80822 L84.718864,98.32696 L85.12746,98.681 L85.61924,98.45641 L85.698616,98.18609" fill="none" id="outline-0" stroke="black" stroke-linecap="round" stroke-linejoin="round" stroke-width="0.2"/>
<path d="M104.75904,51.324177 L104.679665,51.053856 L104.18788,50.829266 L103.93161,50.9463 L103.7793,51.465042 L104.18788,51.819088 L104.679665,51.594498 L104.75904,51.324177" fill="none" id="outline-0" stroke="black" stroke-linecap="round" stroke-linejoin="round" stroke-width="0.2"/>
<path d="M97.02694,32.260006 L96.94756,31.989683 L96.45578,31.765093 L96.19951,31.88213 L96.04719,32.40087 L96.45578,32.754913 L96.94756,32.530323 L97.02694,32.260006" fill="none" id="outline-0" stroke="black" stroke-linecap="round" stroke-linejoin="round" stroke-width="0.2"/>
<path d="M23.876326,27.47913 L23.796953,27.20881 L23.305168,26.98422 L22.89658,27.338264 L23.048895,27.857006 L23.305168,27.974041 L23.796953,27.74945 L23.876326,27.47913" fill="none" id="outline-0" stroke="black" stroke-linecap="round" stroke-linejoin="round" stroke-width="0.2"/>
<path d="M58.110107,103.334206 L57.817818,102.87939 L57.53895,102.839294 L57.282677,102.95633 L57.130363,103.47507 L57.53895,103.82912 L57.817818,103.78902 L58.110107,103.334206" fill="none" id="outline-0" stroke="black" stroke-linecap="round" stroke-linejoin="round" stroke-width="0.2"/>
<path d="M101.30438,54.335648 L101.22501,54.065327 L100.73323,53.840736 L100.47695,53.957775 L100.32464,54.476517 L100.73323,54.83056 L101.22501,54.60597 L101.30438,54.335648" fill="none" id="outline-0" stroke="black" stroke-linecap="round" stroke-linejoin="round" stroke-width="0.2"/>
</svg>