<svg height="100mm" viewBox="0 0 100 100" width="100mm" xmlns="http://www.w3.org/2000/svg">
<path d="M50.790222,50.056446 L50.76537,50.054733 L50.744576,50.050095 L50.72717,50.042885 L50.71261,50.033253 L50.700523,50.02117 L50.69089,50.006607 L50.68368,49.989204 L50.679047,49.968407 L50.677334,49.943554 L50.677334,46.161777 L50.679123,46.141792 L50.684135,46.123234 L50.69254,46.10539 L50.703804,46.08934 L50.717785,46.07536 L50.733833,46.064095 L50.75168,46.05569 L50.770237,46.050682 L50.790222,46.04889 L50.810207,46.050682 L50.828766,46.05569 L50.84661,46.064095 L50.86266,46.07536 L50.87664,46.08934 L50.887905,46.10539 L50.89631,46.123234 L50.90132,46.141792 L50.90311,46.161777 L50.90311,49.830666 L52.585155,49.830666 L52.60514,49.83246 L52.6237,49.837467 L52.641544,49.84587 L52.657593,49.85714 L52.671574,49.871117 L52.68284,49.887165 L52.691242,49.90501 L52.696255,49.923573 L52.698044,49.943554 L52.696255,49.96354 L52.691242,49.9821 L52.68284,49.999947 L52.671574,50.015995 L52.657593,50.029972 L52.641544,50.04124 L52.6237,50.049644 L52.60514,50.054653 L52.585155,50.056446 L50.790222,50.056446" fill="none" id="outline-0" stroke="black" stroke-linecap="round" stroke-linejoin="round" stroke-width="0.5"/>
<path d="M53.499557,48.165554 L53.51052,48.069187 L53.524323,47.978462 L53.540794,47.893093 L53.5598,47.812805 L53.581295,47.737038 L53.605785,47.663742 L53.63243,47.595215 L53.661148,47.531197 L53.69186,47.471436 L53.724518,47.415707 L53.759956,47.362507 L53.797222,47.313232 L53.83629,47.267727 L53.877174,47.225815 L53.919918,47.18734 L53.96481,47.152008 L54.01167,47.11994 L54.060432,47.091187 L54.11121,47.06568 L54.164116,47.04339 L54.21908,47.024376 L54.275723,47.008785 L54.334652,46.996494 L54.396034,46.987568 L54.460037,46.9821 L54.526844,46.98022 L54.59344,46.98221 L54.655624,46.987755 L54.713703,46.99664 L54.77028,47.009205 L54.82501,47.025257 L54.87618,47.044262 L54.924545,47.06639 L54.97273,47.09283 L55.01777,47.122055 L55.05983,47.15408 L55.10157,47.191074 L55.140766,47.231163 L55.177135,47.274128 L55.21271,47.32265 L55.245888,47.374687 L55.27618,47.429714 L55.305637,47.49192 L55.33208,47.557133 L55.3561,47.62747 L55.378006,47.704113 L55.396503,47.78349 L55.41296,47.87258 L55.42564,47.96338 L55.435402,48.06392 L55.441246,48.165554 L55.441246,48.165554 L53.499557,48.165554" fill="none" id="outline-0" stroke="black" stroke-linecap="round" stroke-linejoin="round" stroke-width="0.5"/>
<path d="M54.543777,50.11289 L54.621536,50.11089 L54.694813,50.1053 L54.763878,50.096317 L54.832935,50.08341 L54.899136,50.067196 L54.96144,50.04803 L55.022903,50.02496 L55.082447,49.998493 L55.13833,49.969406 L55.19306,49.936337 L55.246025,49.89975 L55.29544,49.860817 L55.343864,49.817394 L55.389904,49.770798 L55.432365,49.722145 L55.474255,49.667824 L55.512535,49.611652 L55.548115,49.552097 L55.581364,49.488632 L55.610577,49.424267 L55.610577,49.424267 L55.616364,49.410217 L55.620445,49.394566 L55.62187,49.379112 L55.620075,49.359127 L55.615067,49.340565 L55.606663,49.32272 L55.595394,49.306675 L55.581417,49.292694 L55.56537,49.281425 L55.547523,49.27302 L55.52896,49.268013 L55.50898,49.266224 L55.488884,49.268066 L55.469387,49.273487 L55.451374,49.282185 L55.435726,49.293617 L55.422897,49.30744 L55.41358,49.32254 L55.40738,49.3396 L55.378365,49.401604 L55.346256,49.460934 L55.312843,49.514786 L55.278,49.563423 L55.240093,49.60951 L55.201748,49.650158 L55.16105,49.687458 L55.11709,49.722317 L55.072697,49.75266 L55.02569,49.779953 L54.974995,49.804787 L54.922985,49.826035 L54.86872,49.84397 L54.81016,49.85921 L54.7485,49.87133 L54.685444,49.87985 L54.61733,49.88519 L54.543777,49.88711 L54.470394,49.885136 L54.40111,49.87954 L54.335667,49.870502 L54.27382,49.858185 L54.213448,49.8422 L54.155342,49.82282 L54.100376,49.800373 L54.048363,49.774906 L53.99865,49.74614 L53.95021,49.713486 L53.904392,49.677776 L53.86109,49.63893 L53.820217,49.59685 L53.78074,49.550365 L53.743584,49.50043 L53.708794,49.446957 L53.676376,49.38975 L53.64589,49.327766 L53.617764,49.26167 L53.592167,49.19145 L53.569187,49.116863 L53.548576,49.036587 L53.530777,48.951725 L53.51593,48.862106 L53.50411,48.76692 L53.49539,48.665714 L53.490055,48.559414 L53.488266,48.447777 L53.488266,48.391335 L55.554134,48.391335 L55.578987,48.38962 L55.59978,48.384983 L55.617188,48.377773 L55.63175,48.36814 L55.64383,48.35606 L55.65346,48.341496 L55.66067,48.324093 L55.66531,48.303295 L55.667023,48.278446 L55.667023,48.278446 L55.665245,48.178402 L55.659607,48.074913 L55.65055,47.976906 L55.637455,47.877827 L55.621532,47.785892 L55.601883,47.69562 L55.579582,47.610806 L55.55455,47.531036 L55.526073,47.453323 L55.49663,47.383907 L55.463963,47.316883 L55.428806,47.25347 L55.392735,47.196358 L55.353672,47.141857 L55.31226,47.090683 L55.270466,47.045177 L55.225773,47.002346 L55.17808,46.962116 L55.130733,46.92713 L55.080727,46.895092 L55.02759,46.86574 L54.97291,46.839905 L54.917534,46.818035 L54.858772,46.799026 L54.7964,46.78296 L54.733944,46.770718 L54.66901,46.761906 L54.600067,46.75642 L54.526844,46.754444 L54.454254,46.756397 L54.384254,46.762 L54.316685,46.77116 L54.251396,46.783787 L54.187595,46.79999 L54.124958,46.81983 L54.064556,46.84297 L54.006252,46.869408 L53.94994,46.899162 L53.89505,46.93255 L53.842052,46.969296 L53.79107,47.00935 L53.742023,47.05281 L53.69488,47.099773 L53.6498,47.150116 L53.60678,47.20392 L53.565807,47.26133 L53.52688,47.322517 L53.4904,47.38696 L53.45634,47.454823 L53.424595,47.526543 L53.395214,47.602314 L53.368465,47.68171 L53.344715,47.763912 L53.323673,47.850197 L53.305435,47.940758 L53.290165,48.035492 L53.27832,48.132034 L53.26967,48.2328 L53.264343,48.337982 L53.26249,48.447777 L53.264286,48.556934 L53.26966,48.66274 L53.27851,48.765335 L53.29057,48.86322 L53.30581,48.957066 L53.324184,49.047466 L53.34545,49.133892 L53.369305,49.21548 L53.395973,49.29356 L53.425404,49.368286 L53.456936,49.438374 L53.490795,49.504505 L53.52718,49.567337 L53.566086,49.627014 L53.606365,49.681995 L53.648895,49.733593 L53.693848,49.78213 L53.741283,49.82771 L53.789627,49.868954 L53.840126,49.90697 L53.89316,49.942074 L53.948853,49.9743 L54.00555,50.002758 L54.063965,50.027786 L54.12522,50.049862 L54.189484,50.06894 L54.255707,50.08467 L54.32261,50.09671 L54.392788,50.105515 L54.466442,50.11096 L54.543777,50.11289" fill="none" id="outline-0" stroke="black" stroke-linecap="round" stroke-linejoin="round" stroke-width="0.5"/>
<path d="M54.543777,50.11289 L54.466442,50.11096 L54.392788,50.105515 L54.32261,50.09671 L54.255707,50.08467 L54.189484,50.06894 L54.12522,50.049862 L54.063965,50.027786 L54.00555,50.002758 L53.948853,49.9743 L53.89316,49.942074 L53.840126,49.90697 L53.789627,49.868954 L53.741283,49.82771 L53.693848,49.78213 L53.648895,49.733593 L53.606365,49.681995 L53.566086,49.627014 L53.52718,49.567337 L53.490795,49.504505 L53.456936,49.438374 L53.425404,49.368286 L53.395973,49.29356 L53.369305,49.21548 L53.34545,49.133892 L53.324184,49.047466 L53.30581,48.957066 L53.29057,48.86322 L53.27851,48.765335 L53.26966,48.66274 L53.264286,48.556934 L53.26249,48.447777 L53.264343,48.337982 L53.26967,48.2328 L53.27832,48.132034 L53.290165,48.035492 L53.305435,47.940758 L53.323673,47.850197 L53.344715,47.763912 L53.368465,47.68171 L53.395214,47.602314 L53.424595,47.526543 L53.45634,47.454823 L53.4904,47.38696 L53.52688,47.322517 L53.565807,47.26133 L53.60678,47.20392 L53.6498,47.150116 L53.69488,47.099773 L53.742023,47.05281 L53.79107,47.00935 L53.842052,46.969296 L53.89505,46.93255 L53.94994,46.899162 L54.006252,46.869408 L54.064556,46.84297 L54.124958,46.81983 L54.187595,46.79999 L54.251396,46.783787 L54.316685,46.77116 L54.384254,46.762 L54.454254,46.756397 L54.526844,46.754444 L54.600067,46.75642 L54.66901,46.761906 L54.733944,46.770718 L54.7964,46.78296 L54.858772,46.799026 L54.917534,46.818035 L54.97291,46.839905 L55.02759,46.86574 L55.080727,46.895092 L55.130733,46.92713 L55.17808,46.962116 L55.225773,47.002346 L55.270466,47.045177 L55.31226,47.090683 L55.353672,47.141857 L55.392735,47.196358 L55.428806,47.25347 L55.463963,47.316883 L55.49663,47.383907 L55.526073,47.453323 L55.55455,47.531036 L55.579582,47.610806 L55.601883,47.69562 L55.621532,47.785892 L55.637455,47.877827 L55.65055,47.976906 L55.659607,48.074913 L55.665245,48.178402 L55.667023,48.278446 L55.667023,48.278446 L55.66531,48.303295 L55.66067,48.324093 L55.65346,48.341496 L55.64383,48.35606 L55.63175,48.36814 L55.617188,48.377773 L55.59978,48.384983 L55.578987,48.38962 L55.554134,48.391335 L53.488266,48.391335 L53.488266,48.447777 L53.490055,48.559414 L53.49539,48.665714 L53.50411,48.76692 L53.51593,48.862106 L53.530777,48.951725 L53.548576,49.036587 L53.569187,49.116863 L53.592167,49.19145 L53.617764,49.26167 L53.64589,49.327766 L53.676376,49.38975 L53.708794,49.446957 L53.743584,49.50043 L53.78074,49.550365 L53.820217,49.59685 L53.86109,49.63893 L53.904392,49.677776 L53.95021,49.713486 L53.99865,49.74614 L54.048363,49.774906 L54.100376,49.800373 L54.155342,49.82282 L54.213448,49.8422 L54.27382,49.858185 L54.335667,49.870502 L54.40111,49.87954 L54.470394,49.885136 L54.543777,49.88711 L54.61733,49.88519 L54.685444,49.87985 L54.7485,49.87133 L54.81016,49.85921 L54.86872,49.84397 L54.922985,49.826035 L54.974995,49.804787 L55.02569,49.779953 L55.072697,49.75266 L55.11709,49.722317 L55.16105,49.687458 L55.201748,49.650158 L55.240093,49.60951 L55.278,49.563423 L55.312843,49.514786 L55.346256,49.460934 L55.378365,49.401604 L55.40738,49.3396 L55.41358,49.32254 L55.422897,49.30744 L55.435726,49.293617 L55.451374,49.282185 L55.469387,49.273487 L55.488884,49.268066 L55.50898,49.266224 L55.52896,49.268013 L55.547523,49.27302 L55.56537,49.281425 L55.581417,49.292694 L55.595394,49.306675 L55.606663,49.32272 L55.615067,49.340565 L55.620075,49.359127 L55.62187,49.379112 L55.620445,49.394566 L55.616364,49.410217 L55.610577,49.424267 L55.610577,49.424267 L55.581364,49.488632 L55.548115,49.552097 L55.512535,49.611652 L55.474255,49.667824 L55.432365,49.722145 L55.389904,49.770798 L55.343864,49.817394 L55.29544,49.860817 L55.246025,49.89975 L55.19306,49.936337 L55.13833,49.969406 L55.082447,49.998493 L55.022903,50.02496 L54.96144,50.04803 L54.899136,50.067196 L54.832935,50.08341 L54.763878,50.096317 L54.694813,50.1053 L54.621536,50.11089 L54.543777,50.11289" fill="none" id="outline-0" stroke="black" stroke-linecap="round" stroke-linejoin="round" stroke-width="0.5"/>
<path d="M56.880577,50.11289 L56.86059,50.1111 L56.842033,50.106087 L56.82419,50.097683 L56.80814,50.08642 L56.79416,50.072437 L56.782894,50.05639 L56.77449,50.038544 L56.76948,50.019985 L56.76769,50 L56.76769,47.29067 L56.31613,47.29067 L56.29615,47.288876 L56.277588,47.283867 L56.259743,47.275463 L56.243694,47.264194 L56.229717,47.250217 L56.21845,47.23417 L56.210045,47.216324 L56.205036,47.19776 L56.203243,47.177776 L56.205036,47.157795 L56.210045,47.139233 L56.21845,47.121387 L56.229717,47.10534 L56.243694,47.091362 L56.259743,47.080093 L56.277588,47.07169 L56.29615,47.06668 L56.31613,47.064888 L56.76769,47.064888 L56.76769,46.50609 L56.769615,46.43321 L56.775238,46.363956 L56.784393,46.298103 L56.796967,46.235435 L56.812756,46.1763 L56.83164,46.12058 L56.853508,46.068127 L56.878082,46.019344 L56.90542,45.97386 L56.935528,45.93149 L56.968025,45.892563 L57.0028,45.857174 L57.040276,45.824802 L57.08058,45.79535 L57.12256,45.76959 L57.166897,45.74713 L57.21424,45.7277 L57.264816,45.711338 L57.316257,45.69881 L57.37059,45.68969 L57.42847,45.68402 L57.490177,45.682 L57.54958,45.68387 L57.60784,45.689514 L57.66477,45.69884 L57.718464,45.711456 L57.770462,45.72759 L57.820507,45.74709 L57.86666,45.76912 L57.910793,45.794437 L57.953022,45.823112 L57.969517,45.838394 L57.982315,45.855247 L57.99106,45.872597 L57.996265,45.891544 L57.998177,45.91342 L57.996387,45.933407 L57.991375,45.951965 L57.982975,45.969814 L57.971706,45.98586 L57.957726,45.99984 L57.94168,46.01111 L57.923832,46.01951 L57.905273,46.02452 L57.88529,46.02631 L57.88529,46.02631 L57.868813,46.02449 L57.849037,46.018353 L57.817554,46.003735 L57.783855,45.98062 L57.749077,45.961033 L57.713062,45.944813 L57.67498,45.931587 L57.63435,45.92127 L57.590664,45.913883 L57.542747,45.90931 L57.490177,45.907776 L57.43562,45.909595 L57.385826,45.914803 L57.34038,45.923122 L57.298904,45.93434 L57.2608,45.94839 L57.22487,45.96564 L57.19198,45.98566 L57.161892,46.00847 L57.13443,46.03415 L57.109444,46.062866 L57.086655,46.094963 L57.06613,46.13055 L57.04791,46.16993 L57.032078,46.21344 L57.01878,46.26141 L57.00808,46.314137 L57.000114,46.37218 L56.995144,46.436005 L56.993465,46.50609 L56.993465,47.064888 L57.71031,47.064888 L57.730293,47.06668 L57.748856,47.07169 L57.7667,47.080093 L57.78275,47.091362 L57.79673,47.10534 L57.807995,47.121387 L57.8164,47.139233 L57.821407,47.157795 L57.8232,47.177776 L57.821407,47.19776 L57.8164,47.216324 L57.807995,47.23417 L57.79673,47.250217 L57.78275,47.264194 L57.7667,47.275463 L57.748856,47.283867 L57.730293,47.288876 L57.71031,47.29067 L56.993465,47.29067 L56.993465,50 L56.991676,50.019985 L56.986664,50.038544 L56.978264,50.05639 L56.966995,50.072437 L56.953014,50.08642 L56.93697,50.097683 L56.91912,50.106087 L56.900562,50.1111 L56.880577,50.11289" fill="none" id="outline-0" stroke="black" stroke-linecap="round" stroke-linejoin="round" stroke-width="0.5"/>
<path d="M59.30769,50.11289 L59.248554,50.111126 L59.192932,50.10591 L59.140564,50.097427 L59.091213,50.08581 L59.044834,50.07119 L59.00132,50.053593 L58.96045,50.033054 L58.922035,50.009563 L58.886192,49.983276 L58.85318,49.954403 L58.82238,49.92243 L58.793724,49.887184 L58.76718,49.848476 L58.743584,49.807507 L58.722416,49.763264 L58.703484,49.715046 L58.686897,49.66254 L58.67298,49.606236 L58.662163,49.54737 L58.654125,49.483562 L58.649082,49.414436 L58.64729,49.3396 L58.64729,47.285023 L58.195732,47.285023 L58.17575,47.28323 L58.15719,47.27822 L58.139343,47.269817 L58.123295,47.258553 L58.109314,47.24457 L58.09805,47.228523 L58.089645,47.21068 L58.084637,47.192116 L58.082844,47.172134 L58.084637,47.15215 L58.089645,47.13359 L58.09805,47.11574 L58.109314,47.099697 L58.123295,47.085716 L58.139343,47.074448 L58.15719,47.066048 L58.17575,47.061035 L58.195732,47.059246 L58.64729,47.059246 L58.64729,46.274666 L58.64908,46.254684 L58.65409,46.236122 L58.662495,46.218277 L58.67376,46.20223 L58.68774,46.188248 L58.70379,46.176983 L58.721634,46.16858 L58.740192,46.16357 L58.760178,46.161777 L58.780163,46.16357 L58.79872,46.16858 L58.816566,46.176983 L58.832615,46.188248 L58.846596,46.20223 L58.85786,46.218277 L58.866264,46.236122 L58.871277,46.254684 L58.873066,46.274666 L58.873066,47.059246 L59.68022,47.059246 L59.700207,47.061035 L59.718765,47.066048 L59.736614,47.074448 L59.75266,47.085716 L59.76664,47.099697 L59.77791,47.11574 L59.78631,47.13359 L59.79132,47.15215 L59.79311,47.172134 L59.79132,47.192116 L59.78631,47.21068 L59.77791,47.228523 L59.76664,47.24457 L59.75266,47.258553 L59.736614,47.269817 L59.718765,47.27822 L59.700207,47.28323 L59.68022,47.285023 L58.873066,47.285023 L58.873066,49.3396 L58.874725,49.417587 L58.879482,49.485474 L58.886898,49.54426 L58.896725,49.59543 L58.9087,49.640034 L58.922726,49.679184 L58.939034,49.71421 L58.957233,49.744804 L58.97731,49.771454 L59.00023,49.79555 L59.025463,49.816505 L59.053185,49.834473 L59.084354,49.849957 L59.11912,49.86291 L59.15769,49.87313 L59.201805,49.880726 L59.251766,49.88552 L59.30769,49.88711 L59.36337,49.88537 L59.41381,49.880497 L59.45947,49.872784 L59.504116,49.86168 L59.54503,49.847927 L59.582417,49.831676 L59.619484,49.811497 L59.65399,49.788555 L59.685867,49.76293 L59.699974,49.751717 L59.7179,49.742638 L59.738247,49.736736 L59.759243,49.73471 L59.77923,49.736504 L59.79779,49.741512 L59.815636,49.749916 L59.831684,49.76118 L59.84566,49.77516 L59.85693,49.79121 L59.865334,49.809055 L59.870342,49.827618 L59.872135,49.8476 L59.87058,49.865223 L59.86614,49.881775 L59.85836,49.8989 L59.847183,49.91575 L59.832623,49.932266 L59.79899,49.960384 L59.761715,49.986984 L59.72092,50.01183 L59.677647,50.03413 L59.63093,50.05428 L59.581947,50.071697 L59.531048,50.086105 L59.477062,50.097763 L59.42272,50.106052 L59.366535,50.1111 L59.30769,50.11289" fill="none" id="outline-0" stroke="black" stroke-linecap="round" stroke-linejoin="round" stroke-width="0.5"/>
<path d="M37.6556,90.11289 L37.635616,90.1111 L37.617054,90.10609 L37.59921,90.09769 L37.58316,90.08642 L37.569183,90.07244 L37.557915,90.05639 L37.54951,90.03854 L37.544502,90.01998 L37.54271,90 L37.54271,86.21822 L37.544502,86.198235 L37.54951,86.17968 L37.557915,86.161835 L37.569183,86.14578 L37.58316,86.131805 L37.59921,86.12054 L37.617054,86.11214 L37.635616,86.107124 L37.6556,86.10533 L38.632088,86.10533 L38.71915,86.10723 L38.801205,86.11253 L38.878525,86.12106 L38.95344,86.13298 L39.02649,86.14824 L39.09509,86.16624 L39.159496,86.18686 L39.223274,86.21122 L39.28339,86.23811 L39.339558,86.26728 L39.393017,86.29931 L39.444656,86.33464 L39.492535,86.37196 L39.53683,86.4113 L39.579468,86.454384 L39.618744,86.499504 L39.654507,86.546455 L39.687508,86.59627 L39.717625,86.64873 L39.74421,86.702835 L39.76747,86.75909 L39.787685,86.81819 L39.80427,86.878716 L39.817245,86.94086 L39.826736,87.00553 L39.83245,87.0713 L39.834354,87.13827 L39.83244,87.20519 L39.827015,87.269226 L39.81821,87.33054 L39.805817,87.3908 L39.78987,87.45014 L39.770836,87.50683 L39.748756,87.56101 L39.722584,87.61517 L39.69352,87.66676 L39.66158,87.715836 L39.625977,87.76351 L39.58711,87.8093 L39.545513,87.85247 L39.500736,87.89343 L39.45245,87.93248 L39.401615,87.96872 L39.348007,88.00227 L39.291035,88.03345 L39.23176,88.06157 L39.170048,88.08666 L39.10562,88.10876 L39.03923,88.12754 L38.970757,88.142975 L39.896446,89.94356 L39.903416,89.96654 L39.906593,89.98264 L39.907734,90 L39.90594,90.01998 L39.900932,90.03854 L39.89253,90.05639 L39.881264,90.07244 L39.867283,90.08642 L39.851234,90.09769 L39.83339,90.10609 L39.814827,90.1111 L39.794846,90.11289 L39.77505,90.1114 L39.756695,90.10711 L39.739822,90.10019 L39.724876,90.0909 L39.711975,90.079445 L39.70155,90.06623 L39.693245,90.0508 L38.73369,88.1712 L38.69982,88.1712 L37.76849,88.1712 L37.76849,90 L37.766697,90.01998 L37.76169,90.03854 L37.753284,90.05639 L37.742016,90.07244 L37.72804,90.08642 L37.71199,90.09769 L37.694145,90.10609 L37.675583,90.1111 L37.6556,90.11289 M37.76849,87.94542 L38.69982,87.94542 L38.77059,87.943596 L38.83881,87.93824 L38.904633,87.92946 L38.96801,87.91736 L39.0286,87.9021 L39.086548,87.88376 L39.141525,87.86256 L39.193455,87.8386 L39.24263,87.81186 L39.288837,87.78257 L39.3316,87.75108 L39.371582,87.71702 L39.408894,87.68031 L39.44246,87.64214 L39.473106,87.6016 L39.501015,87.55844 L39.52584,87.513214 L39.547085,87.466774 L39.56545,87.41762 L39.580887,87.36556 L39.59282,87.31256 L39.601387,87.25762 L39.606693,87.1996 L39.608578,87.13827 L39.606724,87.07485 L39.601093,87.01359 L39.59178,86.95431 L39.57929,86.89919 L39.563313,86.846344 L39.54385,86.79547 L39.521633,86.74809 L39.496307,86.7034 L39.467518,86.66063 L39.435665,86.620285 L39.40155,86.583405 L39.363785,86.5484 L39.322166,86.515236 L39.278576,86.48539 L39.2317,86.45803 L39.180523,86.432686 L39.125195,86.409615 L39.06852,86.39005 L39.00696,86.37285 L38.940163,86.35816 L38.87026,86.34657 L38.79696,86.33823 L38.717705,86.33299 L38.632088,86.33111 L37.76849,86.33111 L37.76849,87.94542" fill="none" id="outline-0" stroke="black" stroke-linecap="round" stroke-linejoin="round" stroke-width="0.5"/>
<path d="M37.76849,87.94542 L37.76849,86.33111 L38.632088,86.33111 L38.717705,86.33299 L38.79696,86.33823 L38.87026,86.34657 L38.940163,86.35816 L39.00696,86.37285 L39.06852,86.39005 L39.125195,86.409615 L39.180523,86.432686 L39.2317,86.45803 L39.278576,86.48539 L39.322166,86.515236 L39.363785,86.5484 L39.40155,86.583405 L39.435665,86.620285 L39.467518,86.66063 L39.496307,86.7034 L39.521633,86.74809 L39.54385,86.79547 L39.563313,86.846344 L39.57929,86.89919 L39.59178,86.95431 L39.601093,87.01359 L39.606724,87.07485 L39.608578,87.13827 L39.606693,87.1996 L39.601387,87.25762 L39.59282,87.31256 L39.580887,87.36556 L39.56545,87.41762 L39.547085,87.466774 L39.52584,87.513214 L39.501015,87.55844 L39.473106,87.6016 L39.44246,87.64214 L39.408894,87.68031 L39.371582,87.71702 L39.3316,87.75108 L39.288837,87.78257 L39.24263,87.81186 L39.193455,87.8386 L39.141525,87.86256 L39.086548,87.88376 L39.0286,87.9021 L38.96801,87.91736 L38.904633,87.92946 L38.83881,87.93824 L38.77059,87.943596 L38.69982,87.94542 L37.76849,87.94542" fill="none" id="outline-0" stroke="black" stroke-linecap="round" stroke-linejoin="round" stroke-width="0.5"/>
<path d="M41.064846,90.11289 L41.04486,90.1111 L41.0263,90.10609 L41.008453,90.09769 L40.992405,90.08642 L40.978428,90.07244 L40.96716,90.05639 L40.958755,90.03854 L40.953747,90.01998 L40.951954,90 L40.951954,86.86733 L40.953747,86.84735 L40.958755,86.82879 L40.96716,86.81094 L40.978428,86.7949 L40.992405,86.780914 L41.008453,86.769646 L41.0263,86.761246 L41.04486,86.75623 L41.064846,86.75445 L41.084827,86.75623 L41.10339,86.761246 L41.121235,86.769646 L41.137283,86.780914 L41.15126,86.7949 L41.16253,86.81094 L41.170933,86.82879 L41.17594,86.84735 L41.177734,86.86733 L41.177734,90 L41.17594,90.01998 L41.170933,90.03854 L41.16253,90.05639 L41.15126,90.07244 L41.137283,90.08642 L41.121235,90.09769 L41.10339,90.10609 L41.084827,90.1111 L41.064846,90.11289" fill="none" id="outline-0" stroke="black" stroke-linecap="round" stroke-linejoin="round" stroke-width="0.5"/>
<path d="M41.064846,86.28596 L41.04486,86.284164 L41.0263,86.27915 L41.008453,86.27075 L40.992405,86.25948 L40.978428,86.24551 L40.96716,86.229454 L40.958755,86.21161 L40.953747,86.193054 L40.951954,86.173065 L40.951954,85.569115 L40.953747,85.549126 L40.958755,85.53056 L40.96716,85.51272 L40.978428,85.49667 L40.992405,85.4827 L41.008453,85.47143 L41.0263,85.46302 L41.04486,85.458015 L41.064846,85.45622 L41.084827,85.458015 L41.10339,85.46302 L41.121235,85.47143 L41.137283,85.4827 L41.15126,85.49667 L41.16253,85.51272 L41.170933,85.53056 L41.17594,85.549126 L41.177734,85.569115 L41.177734,86.173065 L41.17594,86.193054 L41.170933,86.21161 L41.16253,86.229454 L41.15126,86.24551 L41.137283,86.25948 L41.121235,86.27075 L41.10339,86.27915 L41.084827,86.284164 L41.064846,86.28596" fill="none" id="outline-0" stroke="black" stroke-linecap="round" stroke-linejoin="round" stroke-width="0.5"/>
<path d="M43.503246,91.18533 L43.4219,91.18354 L43.343666,91.17811 L43.268375,91.169174 L43.19586,91.15684 L43.127167,91.14139 L43.061474,91.12273 L42.998383,91.100845 L42.937748,91.07578 L42.880035,91.04783 L42.825687,91.01723 L42.77361,90.98346 L42.7237,90.94646 L42.675877,90.90615 L42.63144,90.863716 L42.58955,90.81835 L42.54968,90.769455 L42.511814,90.716866 L42.475956,90.6604 L42.46629,90.642624 L42.46085,90.6246 L42.459023,90.60396 L42.460815,90.58397 L42.465824,90.565414 L42.474228,90.54756 L42.485493,90.53152 L42.499474,90.51754 L42.515522,90.50627 L42.533367,90.49787 L42.551926,90.49286 L42.57191,90.491066 L42.591736,90.49293 L42.61093,90.49831 L42.629143,90.50706 L42.64525,90.518684 L42.65805,90.53211 L42.667866,90.54751 L42.701668,90.59948 L42.737167,90.64709 L42.77436,90.69057 L42.813263,90.73014 L42.854496,90.7665 L42.89796,90.79956 L42.94372,90.82936 L42.99191,90.85597 L43.042824,90.87954 L43.096863,90.9002 L43.154224,90.9179 L43.21514,90.93255 L43.28007,90.94411 L43.349533,90.9526 L43.423817,90.95782 L43.503246,90.95956 L43.581627,90.95788 L43.654877,90.952805 L43.72331,90.944565 L43.787224,90.93334 L43.846924,90.9193 L43.90269,90.90258 L43.955055,90.88309 L44.003963,90.86091 L44.049637,90.83609 L44.09227,90.80865 L44.132034,90.77857 L44.16908,90.7458 L44.203167,90.71062 L44.234562,90.672745 L44.263596,90.63175 L44.290283,90.587456 L44.314613,90.53963 L44.336533,90.48805 L44.355923,90.43256 L44.37219,90.37485 L44.38593,90.31258 L44.396984,90.24544 L44.40516,90.17308 L44.410244,90.09515 L44.412,90.01129 L44.412,89.537155 L44.361065,89.59347 L44.30834,89.64624 L44.253784,89.69559 L44.19784,89.74123 L44.141663,89.78228 L44.08376,89.81995 L44.024063,89.854294 L43.963245,89.88502 L43.902447,89.911545 L43.839836,89.93475 L43.775303,89.95464 L43.709385,89.97106 L43.64408,89.983505 L43.57676,89.99252 L43.507282,89.998055 L43.435513,90 L43.364143,89.99804 L43.29632,89.99255 L43.23183,89.98369 L43.17046,89.97158 L43.108086,89.95538 L43.048737,89.9361 L42.992245,89.91379 L42.9382,89.888374 L42.883797,89.858475 L42.832047,89.82567 L42.782833,89.78991 L42.735306,89.75051 L42.688446,89.70662 L42.64409,89.65977 L42.602177,89.60985 L42.561237,89.55488 L42.52228,89.49613 L42.485916,89.43429 L42.451553,89.36806 L42.418884,89.2967 L42.38907,89.22232 L42.36184,89.143906 L42.336685,89.059654 L42.31472,88.972664 L42.295727,88.88147 L42.279575,88.784996 L42.266956,88.68635 L42.257706,88.583015 L42.25204,88.476524 L42.25018,88.36876 L42.252018,88.26147 L42.257427,88.15791 L42.266285,88.05795 L42.278503,87.96134 L42.29391,87.86857 L42.312393,87.77957 L42.333836,87.69428 L42.358063,87.613 L42.38499,87.53556 L42.41456,87.46179 L42.446465,87.392105 L42.480705,87.326324 L42.517292,87.26416 L42.55616,87.20551 L42.59671,87.15115 L42.639404,87.1003 L42.684273,87.0528 L42.731106,87.00878 L42.77918,86.96886 L42.829372,86.9322 L42.881783,86.898735 L42.936077,86.86864 L42.991158,86.842514 L43.04854,86.819595 L43.108356,86.79989 L43.170403,86.78352 L43.232582,86.771065 L43.297375,86.761986 L43.364956,86.75641 L43.435513,86.75445 L43.50418,86.75633 L43.572018,86.76216 L43.63914,86.77191 L43.70535,86.78552 L43.768753,86.80257 L43.831646,86.82359 L43.894123,86.848694 L43.955956,86.87781 L44.01501,86.90992 L44.07381,86.94637 L44.132423,86.98736 L44.19076,87.03295 L44.24623,87.08115 L44.30158,87.13434 L44.356827,87.192795 L44.412,87.2568 L44.412,86.86733 L44.41379,86.84735 L44.4188,86.82879 L44.427204,86.81094 L44.438473,86.7949 L44.45245,86.780914 L44.4685,86.769646 L44.486343,86.761246 L44.504906,86.75623 L44.524887,86.75445 L44.544872,86.75623 L44.563435,86.761246 L44.58128,86.769646 L44.59733,86.780914 L44.611305,86.7949 L44.622574,86.81094 L44.630978,86.82879 L44.635986,86.84735 L44.63778,86.86733 L44.63778,90.01129 L44.63583,90.09875 L44.630264,90.18149 L44.621273,90.259766 L44.609016,90.33384 L44.5933,90.405426 L44.57434,90.47397 L44.55247,90.53859 L44.52778,90.599525 L44.500282,90.65706 L44.469364,90.71256 L44.4358,90.764656 L44.39959,90.81349 L44.36069,90.85924 L44.318886,90.902176 L44.274166,90.94233 L44.226704,90.9795 L44.176388,91.01375 L44.123074,91.04512 L44.06701,91.07342 L44.007984,91.0987 L43.94576,91.12098 L43.880135,91.14019 L43.81136,91.15614 L43.739967,91.16865 L43.664967,91.17778 L43.586132,91.183395 L43.503246,91.18533 M43.435513,89.77422 L43.504993,89.77221 L43.571507,89.766426 L43.63525,89.75701 L43.696407,89.74406 L43.755817,89.72744 L43.814728,89.706825 L43.871597,89.682686 L43.92656,89.65499 L43.979725,89.6237 L44.03214,89.588104 L44.083645,89.54829 L44.133728,89.50449 L44.18243,89.45657 L44.229954,89.40412 L44.277245,89.346 L44.32336,89.28311 L44.36829,89.21522 L44.412,89.142044 L44.412,87.65191 L44.36444,87.57319 L44.31756,87.501816 L44.271355,87.43734 L44.22414,87.37715 L44.177193,87.32264 L44.13072,87.27372 L44.083176,87.22863 L44.03501,87.187645 L43.987034,87.15131 L43.938267,87.11879 L43.887665,87.08932 L43.836853,87.06384 L43.785496,87.04213 L43.731045,87.023125 L43.675884,87.00775 L43.619904,86.99596 L43.559902,86.98719 L43.49843,86.98192 L43.435513,86.980225 L43.369564,86.982254 L43.306892,86.988014 L43.247276,86.99735 L43.1905,87.010155 L43.13603,87.02644 L43.08242,87.04662 L43.031357,87.0701 L42.98268,87.09688 L42.936253,87.127014 L42.891697,87.16077 L42.848724,87.19837 L42.807884,87.23947 L42.769115,87.28422 L42.732395,87.332794 L42.697678,87.38542 L42.665073,87.442055 L42.634663,87.50282 L42.606506,87.56798 L42.5807,87.637726 L42.557472,87.711754 L42.536835,87.79048 L42.518913,87.874176 L42.50385,87.96312 L42.491924,88.0565 L42.48319,88.15503 L42.477802,88.259026 L42.475956,88.36876 L42.47779,88.47963 L42.48334,88.58684 L42.492336,88.68891 L42.50451,88.78432 L42.519974,88.87576 L42.53821,88.96145 L42.5591,89.04138 L42.58287,89.11733 L42.608936,89.18812 L42.637093,89.253456 L42.667812,89.315 L42.700832,89.37256 L42.73515,89.42461 L42.77185,89.47312 L42.810963,89.518265 L42.851387,89.559 L42.893497,89.59574 L42.93808,89.62931 L42.985256,89.65978 L43.03293,89.68591 L43.08292,89.708725 L43.1358,89.728424 L43.191776,89.744965 L43.247658,89.75744 L43.306644,89.766556 L43.369175,89.77221 L43.435513,89.77422" fill="none" id="outline-0" stroke="black" stroke-linecap="round" stroke-linejoin="round" stroke-width="0.5"/>
<path d="M43.435513,89.77422 L43.369175,89.77221 L43.306644,89.766556 L43.247658,89.75744 L43.191776,89.744965 L43.1358,89.728424 L43.08292,89.708725 L43.03293,89.68591 L42.985256,89.65978 L42.93808,89.62931 L42.893497,89.59574 L42.851387,89.559 L42.810963,89.518265 L42.77185,89.47312 L42.73515,89.42461 L42.700832,89.37256 L42.667812,89.315 L42.637093,89.253456 L42.608936,89.18812 L42.58287,89.11733 L42.5591,89.04138 L42.53821,88.96145 L42.519974,88.87576 L42.50451,88.78432 L42.492336,88.68891 L42.48334,88.58684 L42.47779,88.47963 L42.475956,88.36876 L42.477802,88.259026 L42.48319,88.15503 L42.491924,88.0565 L42.50385,87.96312 L42.518913,87.874176 L42.536835,87.79048 L42.557472,87.711754 L42.5807,87.637726 L42.606506,87.56798 L42.634663,87.50282 L42.665073,87.442055 L42.697678,87.38542 L42.732395,87.332794 L42.769115,87.28422 L42.807884,87.23947 L42.848724,87.19837 L42.891697,87.16077 L42.936253,87.127014 L42.98268,87.09688 L43.031357,87.0701 L43.08242,87.04662 L43.13603,87.02644 L43.1905,87.010155 L43.247276,86.99735 L43.306892,86.988014 L43.369564,86.982254 L43.435513,86.980225 L43.49843,86.98192 L43.559902,86.98719 L43.619904,86.99596 L43.675884,87.00775 L43.731045,87.023125 L43.785496,87.04213 L43.836853,87.06384 L43.887665,87.08932 L43.938267,87.11879 L43.987034,87.15131 L44.03501,87.187645 L44.083176,87.22863 L44.13072,87.27372 L44.177193,87.32264 L44.22414,87.37715 L44.271355,87.43734 L44.31756,87.501816 L44.36444,87.57319 L44.412,87.65191 L44.412,89.142044 L44.36829,89.21522 L44.32336,89.28311 L44.277245,89.346 L44.229954,89.40412 L44.18243,89.45657 L44.133728,89.50449 L44.083645,89.54829 L44.03214,89.588104 L43.979725,89.6237 L43.92656,89.65499 L43.871597,89.682686 L43.814728,89.706825 L43.755817,89.72744 L43.696407,89.74406 L43.63525,89.75701 L43.571507,89.766426 L43.504993,89.77221 L43.435513,89.77422" fill="none" id="outline-0" stroke="black" stroke-linecap="round" stroke-linejoin="round" stroke-width="0.5"/>
<path d="M46.07711,90.11289 L46.05713,90.1111 L46.038567,90.10609 L46.02072,90.09769 L46.004673,90.08642 L45.990692,90.07244 L45.979427,90.05639 L45.971024,90.03854 L45.966015,90.01998 L45.964222,90 L45.964222,85.79489 L45.966015,85.7749 L45.971024,85.75635 L45.979427,85.738495 L45.990692,85.72245 L46.004673,85.70847 L46.02072,85.697205 L46.038567,85.688805 L46.05713,85.68379 L46.07711,85.682 L46.097095,85.68379 L46.115654,85.688805 L46.133503,85.697205 L46.149548,85.70847 L46.16353,85.72245 L46.174797,85.738495 L46.183197,85.75635 L46.18821,85.7749 L46.19,85.79489 L46.19,87.364044 L46.27902,87.272644 L46.36268,87.1919 L46.44076,87.121994 L46.5134,87.06182 L46.584682,87.00789 L46.652775,86.96098 L46.719547,86.91978 L46.786003,86.883224 L46.84968,86.85264 L46.91482,86.82572 L46.977745,86.8038 L47.040802,86.78605 L47.105503,86.77195 L47.167427,86.762344 L47.230896,86.7565 L47.29631,86.75445 L47.359997,86.75644 L47.41986,86.76207 L47.47618,86.77114 L47.52921,86.7835 L47.581608,86.79974 L47.63083,86.819084 L47.67705,86.841446 L47.720474,86.86682 L47.76255,86.89609 L47.80192,86.92833 L47.838634,86.96359 L47.872795,87.002 L47.904926,87.04423 L47.93441,87.0896 L47.96124,87.1383 L47.98541,87.19054 L48.00684,87.24637 L48.025356,87.305695 L48.040863,87.36874 L48.053196,87.435455 L48.06218,87.5056 L48.067707,87.57956 L48.0696,87.657555 L48.0696,90 L48.06781,90.01998 L48.062798,90.03854 L48.054398,90.05639 L48.04313,90.07244 L48.02915,90.08642 L48.0131,90.09769 L47.995255,90.10609 L47.976696,90.1111 L47.95671,90.11289 L47.936726,90.1111 L47.918167,90.10609 L47.900322,90.09769 L47.884274,90.08642 L47.870293,90.07244 L47.859028,90.05639 L47.850624,90.03854 L47.845615,90.01998 L47.843822,90 L47.843822,87.657555 L47.842133,87.581184 L47.837124,87.51148 L47.829098,87.44795 L47.81831,87.390114 L47.804924,87.33733 L47.78896,87.28917 L47.770603,87.24545 L47.749973,87.20583 L47.727127,87.16998 L47.702065,87.13761 L47.67462,87.10845 L47.644695,87.082344 L47.612152,87.05916 L47.576805,87.038826 L47.538513,87.021385 L47.498005,87.007164 L47.45388,86.99575 L47.405804,86.987305 L47.353413,86.98204 L47.29631,86.980225 L47.23961,86.98215 L47.18445,86.9876 L47.130695,86.99653 L47.07536,87.00954 L47.019833,87.02631 L46.965332,87.0466 L46.909058,87.071625 L46.85163,87.10115 L46.794926,87.13441 L46.73448,87.17433 L46.673122,87.21917 L46.6103,87.26973 L46.54155,87.32978 L46.472176,87.395195 L46.390465,87.47748 L46.300392,87.57378 L46.19,87.69707 L46.19,90 L46.18821,90.01998 L46.183197,90.03854 L46.174797,90.05639 L46.16353,90.07244 L46.149548,90.08642 L46.133503,90.09769 L46.115654,90.10609 L46.097095,90.1111 L46.07711,90.11289" fill="none" id="outline-0" stroke="black" stroke-linecap="round" stroke-linejoin="round" stroke-width="0.5"/>
<path d="M50.11289,90.11289 L50.053757,90.11112 L49.99813,90.10591 L49.945763,90.09743 L49.89641,90.085815 L49.850033,90.07119 L49.80652,90.0536 L49.765648,90.03305 L49.727238,90.00957 L49.691395,89.98328 L49.65838,89.9544 L49.62758,89.922424 L49.598923,89.887184 L49.572384,89.84848 L49.548786,89.8075 L49.527615,89.76327 L49.508686,89.71505 L49.492096,89.662544 L49.47818,89.60623 L49.46736,89.54737 L49.459324,89.48357 L49.454285,89.41444 L49.452488,89.3396 L49.452488,87.28502 L49.000935,87.28502 L48.98095,87.28323 L48.962387,87.27822 L48.944542,87.26982 L48.928493,87.25855 L48.914516,87.24457 L48.903248,87.22852 L48.894844,87.21068 L48.889835,87.192116 L48.888046,87.172134 L48.889835,87.15215 L48.894844,87.13359 L48.903248,87.115746 L48.914516,87.09969 L48.928493,87.08572 L48.944542,87.07445 L48.962387,87.06605 L48.98095,87.061035 L49.000935,87.05924 L49.452488,87.05924 L49.452488,86.274666 L49.45428,86.254684 L49.45929,86.23612 L49.467693,86.21828 L49.478962,86.20223 L49.49294,86.18825 L49.508987,86.17698 L49.526833,86.16858 L49.545395,86.16357 L49.565376,86.16178 L49.58536,86.16357 L49.603924,86.16858 L49.62177,86.17698 L49.637817,86.18825 L49.651794,86.20223 L49.663063,86.21828 L49.671467,86.23612 L49.676476,86.254684 L49.67827,86.274666 L49.67827,87.05924 L50.485424,87.05924 L50.505405,87.061035 L50.523968,87.06605 L50.541813,87.07445 L50.55786,87.08572 L50.57184,87.09969 L50.583107,87.115746 L50.59151,87.13359 L50.59652,87.15215 L50.598312,87.172134 L50.59652,87.192116 L50.59151,87.21068 L50.583107,87.22852 L50.57184,87.24457 L50.55786,87.25855 L50.541813,87.26982 L50.523968,87.27822 L50.505405,87.28323 L50.485424,87.28502 L49.67827,87.28502 L49.67827,89.3396 L49.679928,89.41759 L49.68468,89.48547 L49.692097,89.54426 L49.701927,89.59543 L49.7139,89.64004 L49.72793,89.679184 L49.744232,89.71421 L49.762436,89.744804 L49.78251,89.771454 L49.805428,89.79555 L49.830666,89.816505 L49.858383,89.83447 L49.889557,89.84995 L49.92432,89.86291 L49.96289,89.87313 L50.007008,89.88072 L50.056965,89.88552 L50.11289,89.88711 L50.168568,89.88537 L50.21901,89.8805 L50.264668,89.87278 L50.309315,89.86168 L50.35023,89.84792 L50.38762,89.83168 L50.424683,89.8115 L50.45919,89.78855 L50.491066,89.76293 L50.505173,89.75172 L50.5231,89.74264 L50.543446,89.73673 L50.564445,89.73471 L50.584427,89.7365 L50.60299,89.741516 L50.620834,89.749916 L50.636883,89.761185 L50.650864,89.77516 L50.66213,89.79121 L50.670532,89.80906 L50.67554,89.827614 L50.677334,89.8476 L50.675777,89.86522 L50.671337,89.881775 L50.663563,89.898895 L50.65238,89.91575 L50.63782,89.93227 L50.604187,89.96038 L50.566914,89.986984 L50.52612,90.011826 L50.48285,90.034134 L50.43613,90.05428 L50.38715,90.0717 L50.33625,90.086105 L50.282265,90.09776 L50.22792,90.10606 L50.171734,90.1111 L50.11289,90.11289" fill="none" id="outline-0" stroke="black" stroke-linecap="round" stroke-linejoin="round" stroke-width="0.5"/>
<path d="M43.3706,70.11289 L43.28849,70.11092 L43.20832,70.10511 L43.129974,70.095535 L43.05333,70.082245 L42.978226,70.06524 L42.905018,70.04464 L42.83365,70.020454 L42.764008,69.99269 L42.696407,69.9615 L42.630924,69.926926 L42.56729,69.88884 L42.50543,69.84718 L42.445686,69.802185 L42.388607,69.75425 L42.33344,69.70274 L42.280136,69.647545 L42.22875,69.58862 L42.180767,69.52767 L42.134846,69.463 L42.09099,69.39443 L42.049206,69.32181 L42.010735,69.24724 L41.97496,69.16943 L41.94155,69.08749 L41.910564,69.001205 L41.882675,68.91231 L41.858112,68.82126 L41.836315,68.72581 L41.817387,68.62574 L41.801598,68.52194 L41.789486,68.41747 L41.78063,68.308334 L41.775154,68.19433 L41.773224,68.07524 L41.775097,67.956535 L41.780598,67.84173 L41.789616,67.73066 L41.80206,67.623055 L41.81787,67.518684 L41.836857,67.41822 L41.85893,67.32149 L41.884018,67.22832 L41.912006,67.13883 L41.94277,67.05313 L41.97625,66.971054 L42.012363,66.892525 L42.050896,66.81788 L42.091896,66.74682 L42.135353,66.67921 L42.181267,66.6149 L42.229004,66.554665 L42.279034,66.497826 L42.331406,66.44425 L42.386166,66.39384 L42.442596,66.34717 L42.50084,66.30411 L42.561462,66.2642 L42.624557,66.22739 L42.69,66.19378 L42.756065,66.16422 L42.824677,66.13783 L42.89597,66.11463 L42.97008,66.094666 L43.045357,66.07836 L43.122066,66.06573 L43.201733,66.056526 L43.284523,66.05087 L43.3706,66.04889 L43.45287,66.05075 L43.531776,66.05612 L43.60749,66.06488 L43.680183,66.076904 L43.750015,66.09212 L43.817593,66.110565 L43.883793,66.13248 L43.94738,66.15745 L44.008488,66.18546 L44.06724,66.216515 L44.123753,66.250626 L44.17831,66.287964 L44.231033,66.32863 L44.281666,66.372444 L44.330265,66.4195 L44.37688,66.469925 L44.42154,66.523834 L44.464077,66.58109 L44.50453,66.64179 L44.543007,66.70623 L44.57948,66.77458 L44.613907,66.84703 L44.646244,66.923775 L44.65321,66.936615 L44.65664,66.94925 L44.65753,66.96893 L44.655743,66.988914 L44.65073,67.00748 L44.64233,67.02532 L44.63106,67.041374 L44.61708,67.05535 L44.601036,67.06662 L44.583187,67.07502 L44.56463,67.08003 L44.544643,67.081825 L44.523457,67.0801 L44.504368,67.07527 L44.486732,67.067314 L44.471058,67.056564 L44.457443,67.04305 L44.446213,67.027084 L44.4374,67.008446 L44.40586,66.93376 L44.37274,66.86441 L44.33812,66.80009 L44.302055,66.74053 L44.264523,66.68552 L44.225307,66.634605 L44.184414,66.587585 L44.14183,66.54427 L44.0976,66.50464 L44.051357,66.46832 L44.002968,66.435196 L43.95233,66.40518 L43.899654,66.37841 L43.844707,66.35476 L43.786854,66.334015 L43.725914,66.31622 L43.66186,66.3015 L43.595226,66.29001 L43.52464,66.28159 L43.44985,66.27642 L43.3706,66.274666 L43.28938,66.27661 L43.211666,66.282166 L43.13727,66.29119 L43.066006,66.30358 L42.99723,66.31934 L42.929363,66.33881 L42.86439,66.36143 L42.802155,66.38715 L42.742508,66.41597 L42.684875,66.44814 L42.628784,66.48391 L42.575123,66.522766 L42.523796,66.564766 L42.47473,66.609985 L42.427616,66.658775 L42.38252,66.7111 L42.33967,66.76679 L42.29905,66.826004 L42.26066,66.888885 L42.224537,66.95553 L42.19077,67.025894 L42.159397,67.10015 L42.130478,67.178505 L42.10414,67.26095 L42.080544,67.34725 L42.05968,67.43785 L42.041664,67.532936 L42.02661,67.63267 L42.01476,67.73615 L42.00611,67.84427 L42.00081,67.95723 L41.999,68.07524 L42.000896,68.19384 L42.00623,68.3064 L42.014824,68.41318 L42.02651,68.51446 L42.04155,68.61315 L42.05975,68.708755 L42.080612,68.79912 L42.104015,68.88449 L42.12985,68.965126 L42.159336,69.044914 L42.19106,69.1201 L42.2249,69.190796 L42.260803,69.257225 L42.299267,69.32045 L42.340805,69.38141 L42.38419,69.438324 L42.42943,69.49137 L42.476532,69.5407 L42.52654,69.5874 L42.578896,69.63098 L42.63304,69.670975 L42.68905,69.70748 L42.747005,69.74056 L42.80799,69.77081 L42.870842,69.79759 L42.935646,69.82092 L43.00252,69.840805 L43.071743,69.85724 L43.143227,69.87019 L43.21677,69.87953 L43.292515,69.88521 L43.3706,69.88711 L43.447884,69.88519 L43.521446,69.8798 L43.5915,69.87106 L43.660713,69.85869 L43.728252,69.84292 L43.792446,69.82417 L43.8543,69.80222 L43.91578,69.77642 L43.97403,69.74793 L44.029213,69.71678 L44.084213,69.6813 L44.13618,69.64327 L44.18511,69.602776 L44.232876,69.55817 L44.27795,69.51087 L44.319912,69.4613 L44.360065,69.4078 L44.39736,69.351746 L44.43139,69.29367 L44.463078,69.23184 L44.491486,69.16802 L44.516422,69.10253 L44.525677,69.08279 L44.537685,69.06528 L44.551815,69.050606 L44.56787,69.03893 L44.58531,69.0304 L44.603577,69.02535 L44.623665,69.02351 L44.64365,69.0253 L44.662212,69.03031 L44.680058,69.03871 L44.696106,69.04998 L44.710083,69.063965 L44.72135,69.08001 L44.729755,69.097855 L44.734764,69.11642 L44.736557,69.1364 L44.736034,69.15616 L44.734344,69.16674 L44.73091,69.17591 L44.705135,69.24345 L44.675602,69.31013 L44.642227,69.37603 L44.606018,69.43923 L44.56641,69.50068 L44.523186,69.56068 L44.477688,69.61745 L44.429497,69.67146 L44.37798,69.72347 L44.324192,69.77246 L44.268967,69.81762 L44.21068,69.86035 L44.149227,69.900665 L44.088314,69.9362 L44.024563,69.968994 L43.957836,69.99902 L43.890057,70.02548 L43.821835,70.04806 L43.750782,70.06758 L43.676746,70.08399 L43.603703,70.09646 L43.528957,70.10541 L43.451313,70.11092 L43.3706,70.11289" fill="none" id="outline-0" stroke="black" stroke-linecap="round" stroke-linejoin="round" stroke-width="0.5"/>
<path d="M45.735622,68.16556 L45.74659,68.06918 L45.760387,67.97846 L45.776863,67.8931 L45.795868,67.812805 L45.817364,67.73704 L45.84185,67.66374 L45.868496,67.595215 L45.897213,67.5312 L45.927925,67.471436 L45.960583,67.41571 L45.99602,67.36251 L46.033287,67.31323 L46.072353,67.26773 L46.11324,67.225815 L46.155983,67.18734 L46.200874,67.15201 L46.247734,67.11994 L46.2965,67.09119 L46.347275,67.06568 L46.400185,67.04339 L46.45515,67.024376 L46.51179,67.00879 L46.57072,66.9965 L46.6321,66.987564 L46.696102,66.9821 L46.762913,66.980225 L46.829506,66.98221 L46.89169,66.987755 L46.94977,66.99664 L47.006344,67.00921 L47.061073,67.02525 L47.112244,67.04426 L47.16061,67.06639 L47.208797,67.092834 L47.253834,67.122055 L47.295895,67.15408 L47.337635,67.19108 L47.37683,67.23116 L47.4132,67.274124 L47.448776,67.32265 L47.481956,67.37469 L47.512245,67.42971 L47.541706,67.49192 L47.568146,67.55714 L47.592167,67.62747 L47.614075,67.70412 L47.63257,67.783485 L47.649025,67.87258 L47.661705,67.96338 L47.67147,68.06392 L47.67731,68.16556 L47.67731,68.16556 L45.735622,68.16556" fill="none" id="outline-0" stroke="black" stroke-linecap="round" stroke-linejoin="round" stroke-width="0.5"/>
<path d="M46.779846,70.11289 L46.857605,70.110886 L46.930878,70.1053 L46.999943,70.09632 L47.069004,70.083405 L47.135204,70.0672 L47.197506,70.048035 L47.25897,70.02496 L47.318516,69.9985 L47.374397,69.969406 L47.429127,69.93633 L47.482094,69.89975 L47.531506,69.86082 L47.57993,69.8174 L47.62597,69.7708 L47.668434,69.722145 L47.710323,69.66782 L47.748604,69.61166 L47.78418,69.55209 L47.81743,69.48863 L47.846645,69.42426 L47.846645,69.42426 L47.852432,69.41022 L47.856514,69.39457 L47.857933,69.37911 L47.85614,69.35913 L47.85113,69.34057 L47.842728,69.32272 L47.831463,69.30667 L47.817482,69.292694 L47.801434,69.281425 L47.78359,69.273026 L47.76503,69.26801 L47.745045,69.26622 L47.72495,69.26807 L47.705452,69.27348 L47.68744,69.28218 L47.67179,69.29362 L47.658962,69.30744 L47.649647,69.32254 L47.643444,69.3396 L47.614433,69.4016 L47.58232,69.46094 L47.548912,69.514786 L47.51407,69.56342 L47.47616,69.60951 L47.437813,69.65016 L47.397118,69.687454 L47.353157,69.72232 L47.30876,69.752655 L47.261753,69.77995 L47.211063,69.80479 L47.15905,69.826035 L47.104786,69.84397 L47.04623,69.859215 L46.984566,69.87133 L46.921513,69.879845 L46.853397,69.88519 L46.779846,69.88711 L46.706463,69.88514 L46.637177,69.87954 L46.57173,69.87051 L46.509884,69.858185 L46.449516,69.8422 L46.391407,69.822815 L46.336445,69.80037 L46.284428,69.77491 L46.234715,69.74614 L46.186275,69.713486 L46.14046,69.67777 L46.097157,69.63893 L46.056282,69.596855 L46.016804,69.55036 L45.97965,69.500435 L45.94486,69.44695 L45.91244,69.38975 L45.881954,69.32777 L45.85383,69.26167 L45.828236,69.191444 L45.805252,69.11686 L45.784645,69.03658 L45.76684,68.95173 L45.751995,68.86211 L45.740173,68.76692 L45.731457,68.66571 L45.72612,68.55941 L45.724335,68.44778 L45.724335,68.391335 L47.7902,68.391335 L47.815052,68.38962 L47.835846,68.38499 L47.853252,68.37778 L47.867817,68.36814 L47.879898,68.35606 L47.88953,68.3415 L47.89674,68.32409 L47.901375,68.3033 L47.903088,68.27844 L47.903088,68.27844 L47.901314,68.1784 L47.89567,68.07491 L47.886616,67.976906 L47.87352,67.87783 L47.857597,67.78589 L47.837948,67.695625 L47.81565,67.61081 L47.790615,67.53104 L47.762142,67.45332 L47.7327,67.38391 L47.700027,67.31688 L47.66487,67.25347 L47.6288,67.19636 L47.58974,67.14185 L47.54833,67.09068 L47.50653,67.04518 L47.46184,67.00235 L47.41415,66.96212 L47.3668,66.92713 L47.31679,66.895096 L47.26366,66.865746 L47.208977,66.839905 L47.153603,66.81803 L47.094837,66.79903 L47.032463,66.78296 L46.97001,66.77071 L46.905075,66.76191 L46.836132,66.75642 L46.762913,66.75445 L46.69032,66.75639 L46.62032,66.762 L46.55275,66.77116 L46.48746,66.78378 L46.42366,66.799995 L46.361027,66.81983 L46.30062,66.84297 L46.24232,66.86941 L46.18601,66.89916 L46.13112,66.93255 L46.07812,66.96929 L46.027134,67.00935 L45.978092,67.05281 L45.930946,67.09977 L45.885868,67.150116 L45.842846,67.20392 L45.801872,67.26133 L45.762943,67.32252 L45.726463,67.386955 L45.69241,67.45482 L45.66066,67.52654 L45.63128,67.60231 L45.60453,67.68171 L45.58078,67.76391 L45.55974,67.8502 L45.541504,67.94076 L45.52623,68.03549 L45.514385,68.132034 L45.505733,68.232796 L45.500412,68.33798 L45.498554,68.44778 L45.50035,68.55693 L45.505726,68.66274 L45.51458,68.765335 L45.526638,68.86322 L45.541874,68.95707 L45.560253,69.04746 L45.58152,69.13389 L45.60537,69.21548 L45.632042,69.29356 L45.66147,69.368286 L45.693,69.43838 L45.72686,69.5045 L45.76325,69.56734 L45.802155,69.627014 L45.842434,69.682 L45.88496,69.7336 L45.929916,69.78213 L45.97735,69.827705 L46.025696,69.86895 L46.07619,69.90697 L46.129227,69.94207 L46.18492,69.9743 L46.241615,70.00276 L46.30003,70.02779 L46.361286,70.049866 L46.425552,70.06894 L46.49177,70.08467 L46.558678,70.09671 L46.628857,70.105515 L46.702507,70.11096 L46.779846,70.11289" fill="none" id="outline-0" stroke="black" stroke-linecap="round" stroke-linejoin="round" stroke-width="0.5"/>
<path d="M46.779846,70.11289 L46.702507,70.11096 L46.628857,70.105515 L46.558678,70.09671 L46.49177,70.08467 L46.425552,70.06894 L46.361286,70.049866 L46.30003,70.02779 L46.241615,70.00276 L46.18492,69.9743 L46.129227,69.94207 L46.07619,69.90697 L46.025696,69.86895 L45.97735,69.827705 L45.929916,69.78213 L45.88496,69.7336 L45.842434,69.682 L45.802155,69.627014 L45.76325,69.56734 L45.72686,69.5045 L45.693,69.43838 L45.66147,69.368286 L45.632042,69.29356 L45.60537,69.21548 L45.58152,69.13389 L45.560253,69.04746 L45.541874,68.95707 L45.526638,68.86322 L45.51458,68.765335 L45.505726,68.66274 L45.50035,68.55693 L45.498554,68.44778 L45.500412,68.33798 L45.505733,68.232796 L45.514385,68.132034 L45.52623,68.03549 L45.541504,67.94076 L45.55974,67.8502 L45.58078,67.76391 L45.60453,67.68171 L45.63128,67.60231 L45.66066,67.52654 L45.69241,67.45482 L45.726463,67.386955 L45.762943,67.32252 L45.801872,67.26133 L45.842846,67.20392 L45.885868,67.150116 L45.930946,67.09977 L45.978092,67.05281 L46.027134,67.00935 L46.07812,66.96929 L46.13112,66.93255 L46.18601,66.89916 L46.24232,66.86941 L46.30062,66.84297 L46.361027,66.81983 L46.42366,66.799995 L46.48746,66.78378 L46.55275,66.77116 L46.62032,66.762 L46.69032,66.75639 L46.762913,66.75445 L46.836132,66.75642 L46.905075,66.76191 L46.97001,66.77071 L47.032463,66.78296 L47.094837,66.79903 L47.153603,66.81803 L47.208977,66.839905 L47.26366,66.865746 L47.31679,66.895096 L47.3668,66.92713 L47.41415,66.96212 L47.46184,67.00235 L47.50653,67.04518 L47.54833,67.09068 L47.58974,67.14185 L47.6288,67.19636 L47.66487,67.25347 L47.700027,67.31688 L47.7327,67.38391 L47.762142,67.45332 L47.790615,67.53104 L47.81565,67.61081 L47.837948,67.695625 L47.857597,67.78589 L47.87352,67.87783 L47.886616,67.976906 L47.89567,68.07491 L47.901314,68.1784 L47.903088,68.27844 L47.903088,68.27844 L47.901375,68.3033 L47.89674,68.32409 L47.88953,68.3415 L47.879898,68.35606 L47.867817,68.36814 L47.853252,68.37778 L47.835846,68.38499 L47.815052,68.38962 L47.7902,68.391335 L45.724335,68.391335 L45.724335,68.44778 L45.72612,68.55941 L45.731457,68.66571 L45.740173,68.76692 L45.751995,68.86211 L45.76684,68.95173 L45.784645,69.03658 L45.805252,69.11686 L45.828236,69.191444 L45.85383,69.26167 L45.881954,69.32777 L45.91244,69.38975 L45.94486,69.44695 L45.97965,69.500435 L46.016804,69.55036 L46.056282,69.596855 L46.097157,69.63893 L46.14046,69.67777 L46.186275,69.713486 L46.234715,69.74614 L46.284428,69.77491 L46.336445,69.80037 L46.391407,69.822815 L46.449516,69.8422 L46.509884,69.858185 L46.57173,69.87051 L46.637177,69.87954 L46.706463,69.88514 L46.779846,69.88711 L46.853397,69.88519 L46.921513,69.879845 L46.984566,69.87133 L47.04623,69.859215 L47.104786,69.84397 L47.15905,69.826035 L47.211063,69.80479 L47.261753,69.77995 L47.30876,69.752655 L47.353157,69.72232 L47.397118,69.687454 L47.437813,69.65016 L47.47616,69.60951 L47.51407,69.56342 L47.548912,69.514786 L47.58232,69.46094 L47.614433,69.4016 L47.643444,69.3396 L47.649647,69.32254 L47.658962,69.30744 L47.67179,69.29362 L47.68744,69.28218 L47.705452,69.27348 L47.72495,69.26807 L47.745045,69.26622 L47.76503,69.26801 L47.78359,69.273026 L47.801434,69.281425 L47.817482,69.292694 L47.831463,69.30667 L47.842728,69.32272 L47.85113,69.34057 L47.85614,69.35913 L47.857933,69.37911 L47.856514,69.39457 L47.852432,69.41022 L47.846645,69.42426 L47.846645,69.42426 L47.81743,69.48863 L47.78418,69.55209 L47.748604,69.61166 L47.710323,69.66782 L47.668434,69.722145 L47.62597,69.7708 L47.57993,69.8174 L47.531506,69.86082 L47.482094,69.89975 L47.429127,69.93633 L47.374397,69.969406 L47.318516,69.9985 L47.25897,70.02496 L47.197506,70.048035 L47.135204,70.0672 L47.069004,70.083405 L46.999943,70.09632 L46.930878,70.1053 L46.857605,70.110886 L46.779846,70.11289" fill="none" id="outline-0" stroke="black" stroke-linecap="round" stroke-linejoin="round" stroke-width="0.5"/>
<path d="M49.0602,70.11289 L49.040215,70.1111 L49.021656,70.10609 L49.00381,70.09769 L48.987762,70.08642 L48.97378,70.07244 L48.962517,70.05639 L48.954113,70.03854 L48.949104,70.01998 L48.94731,70 L48.94731,66.86733 L48.949104,66.84735 L48.954113,66.82879 L48.962517,66.81094 L48.97378,66.7949 L48.987762,66.780914 L49.00381,66.769646 L49.021656,66.761246 L49.040215,66.75623 L49.0602,66.75445 L49.080185,66.75623 L49.098743,66.761246 L49.11659,66.769646 L49.132637,66.780914 L49.146618,66.7949 L49.157887,66.81094 L49.166286,66.82879 L49.1713,66.84735 L49.173088,66.86733 L49.173088,67.364044 L49.262108,67.272644 L49.345768,67.1919 L49.423847,67.121994 L49.49649,67.06182 L49.567772,67.00789 L49.635864,66.96098 L49.702633,66.91978 L49.769093,66.883224 L49.83277,66.85264 L49.897907,66.82572 L49.960835,66.8038 L50.023888,66.78605 L50.088593,66.77195 L50.150517,66.762344 L50.213985,66.7565 L50.2794,66.75445 L50.343086,66.75644 L50.40295,66.76207 L50.45927,66.77114 L50.5123,66.7835 L50.564697,66.79974 L50.61392,66.819084 L50.66014,66.841446 L50.703564,66.86682 L50.74564,66.89609 L50.78501,66.92833 L50.821724,66.96359 L50.855885,67.002 L50.888016,67.04423 L50.9175,67.0896 L50.94433,67.1383 L50.9685,67.19054 L50.98993,67.24637 L51.008446,67.305695 L51.023952,67.36874 L51.036285,67.435455 L51.04527,67.5056 L51.050793,67.57956 L51.05269,67.657555 L51.05269,70 L51.050896,70.01998 L51.045887,70.03854 L51.037483,70.05639 L51.02622,70.07244 L51.012238,70.08642 L50.99619,70.09769 L50.978344,70.10609 L50.959785,70.1111 L50.9398,70.11289 L50.919815,70.1111 L50.901257,70.10609 L50.88341,70.09769 L50.867363,70.08642 L50.853382,70.07244 L50.842113,70.05639 L50.833714,70.03854 L50.8287,70.01998 L50.826912,70 L50.826912,67.657555 L50.825222,67.581184 L50.820213,67.51148 L50.812187,67.44795 L50.8014,67.390114 L50.788013,67.33733 L50.77205,67.28917 L50.753693,67.24545 L50.73306,67.20583 L50.710217,67.16998 L50.685154,67.13761 L50.65771,67.10845 L50.627785,67.082344 L50.59524,67.05916 L50.55989,67.038826 L50.521603,67.021385 L50.48109,67.007164 L50.43697,66.99575 L50.388893,66.987305 L50.336502,66.98204 L50.2794,66.980225 L50.2227,66.98215 L50.167538,66.9876 L50.11378,66.99653 L50.05845,67.00954 L50.002922,67.02631 L49.94842,67.0466 L49.892147,67.071625 L49.83472,67.10115 L49.778015,67.13441 L49.717567,67.17433 L49.656208,67.21917 L49.593388,67.26973 L49.52464,67.32978 L49.455265,67.395195 L49.373554,67.47748 L49.28348,67.57378 L49.173088,67.69707 L49.173088,70 L49.1713,70.01998 L49.166286,70.03854 L49.157887,70.05639 L49.146618,70.07244 L49.132637,70.08642 L49.11659,70.09769 L49.098743,70.10609 L49.080185,70.1111 L49.0602,70.11289" fill="none" id="outline-0" stroke="black" stroke-linecap="round" stroke-linejoin="round" stroke-width="0.5"/>
<path d="M53.095978,70.11289 L53.036846,70.11112 L52.98122,70.10591 L52.928852,70.09743 L52.8795,70.085815 L52.833122,70.07119 L52.789608,70.0536 L52.748737,70.03305 L52.710323,70.00957 L52.67448,69.98328 L52.641468,69.9544 L52.61067,69.922424 L52.582012,69.887184 L52.555473,69.84848 L52.53187,69.8075 L52.510704,69.76327 L52.49177,69.71505 L52.475185,69.662544 L52.46127,69.60623 L52.45045,69.54737 L52.442413,69.48357 L52.437374,69.41444 L52.435577,69.3396 L52.435577,67.28502 L51.984024,67.28502 L51.96404,67.28323 L51.945477,67.27822 L51.92763,67.26982 L51.911583,67.25855 L51.897606,67.24457 L51.886337,67.22852 L51.877934,67.21068 L51.872925,67.192116 L51.87113,67.172134 L51.872925,67.15215 L51.877934,67.13359 L51.886337,67.115746 L51.897606,67.09969 L51.911583,67.08572 L51.92763,67.07445 L51.945477,67.06605 L51.96404,67.061035 L51.984024,67.05924 L52.435577,67.05924 L52.435577,66.274666 L52.43737,66.254684 L52.44238,66.23612 L52.450783,66.21828 L52.462048,66.20223 L52.47603,66.18825 L52.492077,66.17698 L52.509922,66.16858 L52.528484,66.16357 L52.548466,66.16178 L52.56845,66.16357 L52.58701,66.16858 L52.60486,66.17698 L52.620903,66.18825 L52.634884,66.20223 L52.646152,66.21828 L52.654552,66.23612 L52.659565,66.254684 L52.661354,66.274666 L52.661354,67.05924 L53.46851,67.05924 L53.488495,67.061035 L53.507057,67.06605 L53.524902,67.07445 L53.54095,67.08572 L53.554928,67.09969 L53.566196,67.115746 L53.5746,67.13359 L53.57961,67.15215 L53.5814,67.172134 L53.57961,67.192116 L53.5746,67.21068 L53.566196,67.22852 L53.554928,67.24457 L53.54095,67.25855 L53.524902,67.26982 L53.507057,67.27822 L53.488495,67.28323 L53.46851,67.28502 L52.661354,67.28502 L52.661354,69.3396 L52.663013,69.41759 L52.66777,69.48547 L52.675186,69.54426 L52.685013,69.59543 L52.69699,69.64004 L52.711014,69.679184 L52.72732,69.71421 L52.74552,69.744804 L52.7656,69.771454 L52.788517,69.79555 L52.813755,69.816505 L52.841473,69.83447 L52.872643,69.84995 L52.90741,69.86291 L52.94598,69.87313 L52.990097,69.88072 L53.040054,69.88552 L53.095978,69.88711 L53.151657,69.88537 L53.2021,69.8805 L53.247757,69.87278 L53.292404,69.86168 L53.33332,69.84792 L53.370705,69.83168 L53.407772,69.8115 L53.44228,69.78855 L53.474155,69.76293 L53.488262,69.75172 L53.50619,69.74264 L53.526535,69.73673 L53.547535,69.73471 L53.567516,69.7365 L53.58608,69.741516 L53.603924,69.749916 L53.619972,69.761185 L53.63395,69.77516 L53.645218,69.79121 L53.65362,69.80906 L53.65863,69.827614 L53.660423,69.8476 L53.658867,69.86522 L53.654427,69.881775 L53.646652,69.898895 L53.63547,69.91575 L53.62091,69.93227 L53.587276,69.96038 L53.550003,69.986984 L53.50921,70.011826 L53.465935,70.034134 L53.41922,70.05428 L53.370235,70.0717 L53.31934,70.086105 L53.265354,70.09776 L53.21101,70.10606 L53.154823,70.1111 L53.095978,70.11289" fill="none" id="outline-0" stroke="black" stroke-linecap="round" stroke-linejoin="round" stroke-width="0.5"/>
<path d="M54.51838,68.16556 L54.529346,68.06918 L54.543144,67.97846 L54.559616,67.8931 L54.57862,67.812805 L54.600117,67.73704 L54.624607,67.66374 L54.651253,67.595215 L54.67997,67.5312 L54.710682,67.471436 L54.74334,67.41571 L54.778778,67.36251 L54.816044,67.31323 L54.85511,67.26773 L54.895996,67.225815 L54.93874,67.18734 L54.98363,67.15201 L55.03049,67.11994 L55.079254,67.09119 L55.13003,67.06568 L55.182938,67.04339 L55.237904,67.024376 L55.294544,67.00879 L55.353474,66.9965 L55.414856,66.987564 L55.47886,66.9821 L55.545666,66.980225 L55.612263,66.98221 L55.674446,66.987755 L55.73253,66.99664 L55.7891,67.00921 L55.84383,67.02525 L55.895,67.04426 L55.943367,67.06639 L55.99155,67.092834 L56.03659,67.122055 L56.07865,67.15408 L56.12039,67.19108 L56.159588,67.23116 L56.195957,67.274124 L56.231533,67.32265 L56.26471,67.37469 L56.295002,67.42971 L56.32446,67.49192 L56.350903,67.55714 L56.374924,67.62747 L56.396828,67.70412 L56.415325,67.783485 L56.43178,67.87258 L56.44446,67.96338 L56.454224,68.06392 L56.460068,68.16556 L56.460068,68.16556 L54.51838,68.16556" fill="none" id="outline-0" stroke="black" stroke-linecap="round" stroke-linejoin="round" stroke-width="0.5"/>
<path d="M55.5626,70.11289 L55.640358,70.110886 L55.713634,70.1053 L55.7827,70.09632 L55.851757,70.083405 L55.917957,70.0672 L55.980263,70.048035 L56.041725,70.02496 L56.10127,69.9985 L56.15715,69.969406 L56.211884,69.93633 L56.264847,69.89975 L56.314262,69.86082 L56.362686,69.8174 L56.408726,69.7708 L56.451187,69.722145 L56.493076,69.66782 L56.531357,69.61166 L56.566936,69.55209 L56.600185,69.48863 L56.6294,69.42426 L56.6294,69.42426 L56.635185,69.41022 L56.639267,69.39457 L56.64069,69.37911 L56.638897,69.35913 L56.63389,69.34057 L56.625484,69.32272 L56.614216,69.30667 L56.60024,69.292694 L56.58419,69.281425 L56.566345,69.273026 L56.547783,69.26801 L56.5278,69.26622 L56.507706,69.26807 L56.48821,69.27348 L56.470196,69.28218 L56.454548,69.29362 L56.44172,69.30744 L56.432404,69.32254 L56.4262,69.3396 L56.397186,69.4016 L56.365078,69.46094 L56.331665,69.514786 L56.296825,69.56342 L56.258915,69.60951 L56.22057,69.65016 L56.17987,69.687454 L56.13591,69.72232 L56.09152,69.752655 L56.04451,69.77995 L55.99382,69.80479 L55.941807,69.826035 L55.887543,69.84397 L55.828983,69.859215 L55.767323,69.87133 L55.704266,69.879845 L55.63615,69.88519 L55.5626,69.88711 L55.489216,69.88514 L55.419933,69.87954 L55.35449,69.87051 L55.29264,69.858185 L55.23227,69.8422 L55.174164,69.822815 L55.119198,69.80037 L55.067184,69.77491 L55.01747,69.74614 L54.969032,69.713486 L54.923214,69.67777 L54.879913,69.63893 L54.83904,69.596855 L54.79956,69.55036 L54.762405,69.500435 L54.727615,69.44695 L54.695198,69.38975 L54.66471,69.32777 L54.636585,69.26167 L54.61099,69.191444 L54.58801,69.11686 L54.567398,69.03658 L54.5496,68.95173 L54.53475,68.86211 L54.52293,68.76692 L54.514214,68.66571 L54.508877,68.55941 L54.507088,68.44778 L54.507088,68.391335 L56.572956,68.391335 L56.59781,68.38962 L56.618603,68.38499 L56.63601,68.37778 L56.65057,68.36814 L56.66265,68.35606 L56.672283,68.3415 L56.679493,68.32409 L56.68413,68.3033 L56.685844,68.27844 L56.685844,68.27844 L56.684067,68.1784 L56.67843,68.07491 L56.669373,67.976906 L56.656277,67.87783 L56.640354,67.78589 L56.620705,67.695625 L56.598404,67.61081 L56.57337,67.53104 L56.544895,67.45332 L56.515453,67.38391 L56.482784,67.31688 L56.447628,67.25347 L56.411556,67.19636 L56.372494,67.14185 L56.33108,67.09068 L56.289288,67.04518 L56.244595,67.00235 L56.196903,66.96212 L56.149555,66.92713 L56.09955,66.895096 L56.046413,66.865746 L55.991734,66.839905 L55.93636,66.81803 L55.877594,66.79903 L55.81522,66.78296 L55.752766,66.77071 L55.68783,66.76191 L55.61889,66.75642 L55.545666,66.75445 L55.473076,66.75639 L55.403076,66.762 L55.335506,66.77116 L55.270218,66.78378 L55.206417,66.799995 L55.14378,66.81983 L55.083378,66.84297 L55.025074,66.86941 L54.96876,66.89916 L54.91387,66.93255 L54.860874,66.96929 L54.80989,67.00935 L54.760845,67.05281 L54.713703,67.09977 L54.66862,67.150116 L54.625603,67.20392 L54.58463,67.26133 L54.5457,67.32252 L54.50922,67.386955 L54.475163,67.45482 L54.443417,67.52654 L54.414036,67.60231 L54.387287,67.68171 L54.363537,67.76391 L54.342495,67.8502 L54.324257,67.94076 L54.308987,68.03549 L54.297142,68.132034 L54.28849,68.232796 L54.283165,68.33798 L54.28131,68.44778 L54.283108,68.55693 L54.288483,68.66274 L54.297333,68.765335 L54.30939,68.86322 L54.32463,68.95707 L54.343006,69.04746 L54.364273,69.13389 L54.388126,69.21548 L54.414795,69.29356 L54.444225,69.368286 L54.475758,69.43838 L54.509617,69.5045 L54.546,69.56734 L54.584908,69.627014 L54.625187,69.682 L54.667717,69.7336 L54.71267,69.78213 L54.760105,69.827705 L54.80845,69.86895 L54.858948,69.90697 L54.911983,69.94207 L54.967674,69.9743 L55.024372,70.00276 L55.082787,70.02779 L55.144043,70.049866 L55.208305,70.06894 L55.27453,70.08467 L55.34143,70.09671 L55.41161,70.105515 L55.485264,70.11096 L55.5626,70.11289" fill="none" id="outline-0" stroke="black" stroke-linecap="round" stroke-linejoin="round" stroke-width="0.5"/>
<path d="M55.5626,70.11289 L55.485264,70.11096 L55.41161,70.105515 L55.34143,70.09671 L55.27453,70.08467 L55.208305,70.06894 L55.144043,70.049866 L55.082787,70.02779 L55.024372,70.00276 L54.967674,69.9743 L54.911983,69.94207 L54.858948,69.90697 L54.80845,69.86895 L54.760105,69.827705 L54.71267,69.78213 L54.667717,69.7336 L54.625187,69.682 L54.584908,69.627014 L54.546,69.56734 L54.509617,69.5045 L54.475758,69.43838 L54.444225,69.368286 L54.414795,69.29356 L54.388126,69.21548 L54.364273,69.13389 L54.343006,69.04746 L54.32463,68.95707 L54.30939,68.86322 L54.297333,68.765335 L54.288483,68.66274 L54.283108,68.55693 L54.28131,68.44778 L54.283165,68.33798 L54.28849,68.232796 L54.297142,68.132034 L54.308987,68.03549 L54.324257,67.94076 L54.342495,67.8502 L54.363537,67.76391 L54.387287,67.68171 L54.414036,67.60231 L54.443417,67.52654 L54.475163,67.45482 L54.50922,67.386955 L54.5457,67.32252 L54.58463,67.26133 L54.625603,67.20392 L54.66862,67.150116 L54.713703,67.09977 L54.760845,67.05281 L54.80989,67.00935 L54.860874,66.96929 L54.91387,66.93255 L54.96876,66.89916 L55.025074,66.86941 L55.083378,66.84297 L55.14378,66.81983 L55.206417,66.799995 L55.270218,66.78378 L55.335506,66.77116 L55.403076,66.762 L55.473076,66.75639 L55.545666,66.75445 L55.61889,66.75642 L55.68783,66.76191 L55.752766,66.77071 L55.81522,66.78296 L55.877594,66.79903 L55.93636,66.81803 L55.991734,66.839905 L56.046413,66.865746 L56.09955,66.895096 L56.149555,66.92713 L56.196903,66.96212 L56.244595,67.00235 L56.289288,67.04518 L56.33108,67.09068 L56.372494,67.14185 L56.411556,67.19636 L56.447628,67.25347 L56.482784,67.31688 L56.515453,67.38391 L56.544895,67.45332 L56.57337,67.53104 L56.598404,67.61081 L56.620705,67.695625 L56.640354,67.78589 L56.656277,67.87783 L56.669373,67.976906 L56.67843,68.07491 L56.684067,68.1784 L56.685844,68.27844 L56.685844,68.27844 L56.68413,68.3033 L56.679493,68.32409 L56.672283,68.3415 L56.66265,68.35606 L56.65057,68.36814 L56.63601,68.37778 L56.618603,68.38499 L56.59781,68.38962 L56.572956,68.391335 L54.507088,68.391335 L54.507088,68.44778 L54.508877,68.55941 L54.514214,68.66571 L54.52293,68.76692 L54.53475,68.86211 L54.5496,68.95173 L54.567398,69.03658 L54.58801,69.11686 L54.61099,69.191444 L54.636585,69.26167 L54.66471,69.32777 L54.695198,69.38975 L54.727615,69.44695 L54.762405,69.500435 L54.79956,69.55036 L54.83904,69.596855 L54.879913,69.63893 L54.923214,69.67777 L54.969032,69.713486 L55.01747,69.74614 L55.067184,69.77491 L55.119198,69.80037 L55.174164,69.822815 L55.23227,69.8422 L55.29264,69.858185 L55.35449,69.87051 L55.419933,69.87954 L55.489216,69.88514 L55.5626,69.88711 L55.63615,69.88519 L55.704266,69.879845 L55.767323,69.87133 L55.828983,69.859215 L55.887543,69.84397 L55.941807,69.826035 L55.99382,69.80479 L56.04451,69.77995 L56.09152,69.752655 L56.13591,69.72232 L56.17987,69.687454 L56.22057,69.65016 L56.258915,69.60951 L56.296825,69.56342 L56.331665,69.514786 L56.365078,69.46094 L56.397186,69.4016 L56.4262,69.3396 L56.432404,69.32254 L56.44172,69.30744 L56.454548,69.29362 L56.470196,69.28218 L56.48821,69.27348 L56.507706,69.26807 L56.5278,69.26622 L56.547783,69.26801 L56.566345,69.273026 L56.58419,69.281425 L56.60024,69.292694 L56.614216,69.30667 L56.625484,69.32272 L56.63389,69.34057 L56.638897,69.35913 L56.64069,69.37911 L56.639267,69.39457 L56.635185,69.41022 L56.6294,69.42426 L56.6294,69.42426 L56.600185,69.48863 L56.566936,69.55209 L56.531357,69.61166 L56.493076,69.66782 L56.451187,69.722145 L56.408726,69.7708 L56.362686,69.8174 L56.314262,69.86082 L56.264847,69.89975 L56.211884,69.93633 L56.15715,69.969406 L56.10127,69.9985 L56.041725,70.02496 L55.980263,70.048035 L55.917957,70.0672 L55.851757,70.083405 L55.7827,70.09632 L55.713634,70.1053 L55.640358,70.110886 L55.5626,70.11289" fill="none" id="outline-0" stroke="black" stroke-linecap="round" stroke-linejoin="round" stroke-width="0.5"/>
<path d="M57.842957,70.11289 L57.82297,70.1111 L57.804413,70.10609 L57.786564,70.09769 L57.77052,70.08642 L57.75654,70.07244 L57.74527,70.05639 L57.73687,70.03854 L57.731857,70.01998 L57.73007,70 L57.73007,66.86733 L57.731857,66.84735 L57.73687,66.82879 L57.74527,66.81094 L57.75654,66.7949 L57.77052,66.780914 L57.786564,66.769646 L57.804413,66.761246 L57.82297,66.75623 L57.842957,66.75445 L57.862938,66.75623 L57.8815,66.761246 L57.899345,66.769646 L57.915394,66.780914 L57.929375,66.7949 L57.94064,66.81094 L57.949043,66.82879 L57.954052,66.84735 L57.955845,66.86733 L57.955845,67.364044 L58.037838,67.27883 L58.118504,67.19978 L58.19472,67.12955 L58.26637,67.06806 L58.33673,67.012085 L58.402954,66.96354 L58.466347,66.92129 L58.528587,66.88391 L58.588326,66.85191 L58.645218,66.82539 L58.701176,66.80317 L58.75631,66.785065 L58.808422,66.7716 L58.859592,66.762115 L58.91026,66.756424 L58.960556,66.75445 L58.98054,66.75623 L58.9991,66.761246 L59.016945,66.769646 L59.032993,66.780914 L59.046974,66.7949 L59.05824,66.81094 L59.066643,66.82879 L59.07165,66.84735 L59.073444,66.86733 L59.07165,66.887314 L59.066643,66.905876 L59.05824,66.92372 L59.046974,66.93977 L59.032993,66.95375 L59.016945,66.96502 L58.9991,66.97342 L58.98054,66.97843 L58.960556,66.980225 L58.918213,66.98219 L58.87497,66.98793 L58.83065,66.99758 L58.78509,67.01135 L58.736595,67.029945 L58.6862,67.05314 L58.63392,67.08119 L58.579002,67.11485 L58.519333,67.15566 L58.45705,67.20254 L58.392014,67.25593 L58.318047,67.32143 L58.240368,67.394905 L58.156082,67.47971 L58.05859,67.58299 L57.955845,67.69707 L57.955845,70 L57.954052,70.01998 L57.949043,70.03854 L57.94064,70.05639 L57.929375,70.07244 L57.915394,70.08642 L57.899345,70.09769 L57.8815,70.10609 L57.862938,70.1111 L57.842957,70.11289" fill="none" id="outline-0" stroke="black" stroke-linecap="round" stroke-linejoin="round" stroke-width="0.5"/>
</svg>