<svg height="100mm" viewBox="0 0 100 100" width="100mm" xmlns="http://www.w3.org/2000/svg">
<path d="M50.790222,50.056446 L50.677334,49.943554 L50.677334,46.161777 L50.790222,46.04889 L50.90311,46.161777 L50.90311,49.830666 L52.585155,49.830666 L52.698044,49.943554 L52.585155,50.056446 L50.790222,50.056446" fill="none" id="outline-0" stroke="black" stroke-linecap="round" stroke-linejoin="round" stroke-width="0.5"/>
<path d="M53.499554,48.165554 L53.83629,47.267727 L54.526844,46.98022 L55.177135,47.274128 L55.441246,48.165554 L53.499554,48.165554" fill="none" id="outline-0" stroke="black" stroke-linecap="round" stroke-linejoin="round" stroke-width="0.5"/>
<path d="M54.543777,50.11289 L55.246025,49.89975 L55.606663,49.32272 L55.451374,49.282185 L54.868717,49.84397 L54.100376,49.800373 L53.64589,49.327766 L53.488266,48.391335 L55.554134,48.391335 L55.667023,48.278446 L55.353672,47.141857 L54.97291,46.839905 L54.526844,46.754444 L54.006252,46.869408 L53.60678,47.20392 L53.344715,47.763912 L53.26249,48.447777 L53.34545,49.133892 L53.606365,49.681995 L54.00555,50.002758 L54.543777,50.11289" fill="none" id="outline-0" stroke="black" stroke-linecap="round" stroke-linejoin="round" stroke-width="0.5"/>
<path d="M56.880577,50.11289 L56.76769,50 L56.76769,47.29067 L56.29615,47.288876 L56.205036,47.157795 L56.76769,47.064888 L56.784393,46.298103 L57.0028,45.857174 L57.66477,45.69884 L57.969517,45.838394 L57.971706,45.98586 L57.298904,45.93434 L57.00808,46.314137 L56.993465,47.064888 L57.8232,47.177776 L56.993465,47.29067 L56.993465,50 L56.880577,50.11289" fill="none" id="outline-0" stroke="black" stroke-linecap="round" stroke-linejoin="round" stroke-width="0.5"/>
<path d="M59.30769,50.11289 L58.886192,49.983276 L58.67298,49.606236 L58.64729,47.285023 L58.084637,47.192116 L58.17575,47.061035 L58.64729,47.059246 L58.740192,46.16357 L58.871277,46.254684 L58.873066,47.059246 L59.79132,47.15215 L59.700207,47.28323 L58.873066,47.285023 L58.922726,49.679184 L59.201805,49.880726 L59.759243,49.73471 L59.870342,49.827618 L59.30769,50.11289" fill="none" id="outline-0" stroke="black" stroke-linecap="round" stroke-linejoin="round" stroke-width="0.5"/>
<path d="M37.6556,90.11289 L37.54271,90 L37.54951,86.17968 L39.223274,86.21122 L39.717625,86.64873 L39.827015,87.269226 L39.545513,87.85247 L38.970757,88.142975 L39.900932,90.03854 L39.70155,90.06623 L38.73369,88.1712 L37.76849,88.1712 L37.76849,90 L37.6556,90.11289 M37.76849,87.94542 L38.83881,87.93824 L39.3316,87.75108 L39.601387,87.25762 L39.467518,86.66063 L38.940163,86.35816 L37.76849,86.33111 L37.76849,87.94542" fill="none" id="outline-0" stroke="black" stroke-linecap="round" stroke-linejoin="round" stroke-width="0.5"/>
<path d="M37.76849,87.94542 L37.76849,86.33111 L38.940163,86.35816 L39.467518,86.66063 L39.601387,87.25762 L39.3316,87.75108 L38.83881,87.93824 L37.76849,87.94542" fill="none" id="outline-0" stroke="black" stroke-linecap="round" stroke-linejoin="round" stroke-width="0.5"/>
<path d="M41.064846,90.11289 L40.951954,90 L40.951954,86.86733 L41.064846,86.75445 L41.177734,86.86733 L41.177734,90 L41.064846,90.11289" fill="none" id="outline-0" stroke="black" stroke-linecap="round" stroke-linejoin="round" stroke-width="0.5"/>
<path d="M41.064846,86.28596 L40.951954,85.569115 L41.064846,85.45622 L41.177734,86.173065 L41.064846,86.28596" fill="none" id="outline-0" stroke="black" stroke-linecap="round" stroke-linejoin="round" stroke-width="0.5"/>
<path d="M43.503246,91.18533 L42.825687,91.01723 L42.474228,90.54756 L42.629143,90.50706 L43.21514,90.93255 L44.003963,90.86091 L44.355923,90.43256 L44.412,89.537155 L43.57676,89.99252 L42.735306,89.75051 L42.31472,88.972664 L42.312393,87.77957 L42.55616,87.20551 L42.991158,86.842514 L43.768753,86.80257 L44.412,87.2568 L44.41379,86.84735 L44.544872,86.75623 L44.5933,90.405426 L44.226704,90.9795 L43.503246,91.18533 M43.435513,89.77422 L43.979725,89.6237 L44.412,89.142044 L44.412,87.65191 L43.987034,87.15131 L43.435513,86.980225 L43.031357,87.0701 L42.732395,87.332794 L42.475956,88.36876 L42.73515,89.42461 L43.03293,89.68591 L43.435513,89.77422" fill="none" id="outline-0" stroke="black" stroke-linecap="round" stroke-linejoin="round" stroke-width="0.5"/>
<path d="M43.435513,89.77422 L43.03293,89.68591 L42.73515,89.42461 L42.475956,88.36876 L42.732395,87.332794 L43.031357,87.0701 L43.435513,86.980225 L43.987034,87.15131 L44.412,87.65191 L44.412,89.142044 L43.979725,89.6237 L43.435513,89.77422" fill="none" id="outline-0" stroke="black" stroke-linecap="round" stroke-linejoin="round" stroke-width="0.5"/>
<path d="M46.07711,90.11289 L45.964222,90 L45.964222,85.79489 L46.07711,85.682 L46.19,85.79489 L46.19,87.364044 L46.719547,86.91978 L47.167427,86.762344 L47.67705,86.841446 L47.98541,87.19054 L48.0696,90 L47.95671,90.11289 L47.845615,90.01998 L47.804924,87.33733 L47.612152,87.05916 L47.23961,86.98215 L46.73448,87.17433 L46.19,87.69707 L46.19,90 L46.07711,90.11289" fill="none" id="outline-0" stroke="black" stroke-linecap="round" stroke-linejoin="round" stroke-width="0.5"/>
<path d="M50.11289,90.11289 L49.691395,89.98328 L49.47818,89.60623 L49.452488,87.28502 L48.889835,87.192116 L48.98095,87.061035 L49.452488,87.05924 L49.545395,86.16357 L49.676476,86.254684 L49.67827,87.05924 L50.59652,87.15215 L50.505405,87.28323 L49.67827,87.28502 L49.72793,89.679184 L50.007008,89.88072 L50.564445,89.73471 L50.67554,89.827614 L50.11289,90.11289" fill="none" id="outline-0" stroke="black" stroke-linecap="round" stroke-linejoin="round" stroke-width="0.5"/>
<path d="M43.3706,70.11289 L42.696407,69.9615 L42.180767,69.52767 L41.882675,68.91231 L41.773224,68.07524 L41.884018,67.22832 L42.181267,66.6149 L42.69,66.19378 L43.3706,66.04889 L44.17831,66.287964 L44.64233,67.02532 L44.471058,67.056564 L43.844707,66.35476 L42.86439,66.36143 L42.224537,66.95553 L41.999,68.07524 L42.2249,69.190796 L42.870842,69.79759 L43.8543,69.80222 L44.27795,69.51087 L44.551815,69.050606 L44.72135,69.08001 L44.268967,69.81762 L43.3706,70.11289" fill="none" id="outline-0" stroke="black" stroke-linecap="round" stroke-linejoin="round" stroke-width="0.5"/>
<path d="M45.735622,68.16556 L46.072353,67.26773 L46.762913,66.980225 L47.4132,67.274124 L47.67731,68.16556 L45.735622,68.16556" fill="none" id="outline-0" stroke="black" stroke-linecap="round" stroke-linejoin="round" stroke-width="0.5"/>
<path d="M46.779846,70.11289 L47.482094,69.89975 L47.842728,69.32272 L47.68744,69.28218 L47.104786,69.84397 L46.336445,69.80037 L45.881954,69.32777 L45.724335,68.391335 L47.7902,68.391335 L47.903088,68.27844 L47.58974,67.14185 L47.208977,66.839905 L46.762913,66.75445 L46.24232,66.86941 L45.842846,67.20392 L45.58078,67.76391 L45.498554,68.44778 L45.58152,69.13389 L45.842434,69.682 L46.241615,70.00276 L46.779846,70.11289" fill="none" id="outline-0" stroke="black" stroke-linecap="round" stroke-linejoin="round" stroke-width="0.5"/>
<path d="M49.0602,70.11289 L48.94731,70 L48.962517,66.81094 L49.166286,66.82879 L49.173088,67.364044 L49.897907,66.82572 L50.61392,66.819084 L51.036285,67.435455 L51.037483,70.05639 L50.826912,70 L50.8014,67.390114 L50.627785,67.082344 L50.2794,66.980225 L49.778015,67.13441 L49.173088,67.69707 L49.173088,70 L49.0602,70.11289" fill="none" id="outline-0" stroke="black" stroke-linecap="round" stroke-linejoin="round" stroke-width="0.5"/>
<path d="M53.095978,70.11289 L52.67448,69.98328 L52.46127,69.60623 L52.435577,67.28502 L51.872925,67.192116 L51.96404,67.061035 L52.435577,67.05924 L52.528484,66.16357 L52.659565,66.254684 L52.661354,67.05924 L53.57961,67.15215 L53.488495,67.28323 L52.661354,67.28502 L52.711014,69.679184 L52.990097,69.88072 L53.547535,69.73471 L53.65863,69.827614 L53.095978,70.11289" fill="none" id="outline-0" stroke="black" stroke-linecap="round" stroke-linejoin="round" stroke-width="0.5"/>
<path d="M54.51838,68.16556 L54.85511,67.26773 L55.545666,66.980225 L56.195957,67.274124 L56.460068,68.16556 L54.51838,68.16556" fill="none" id="outline-0" stroke="black" stroke-linecap="round" stroke-linejoin="round" stroke-width="0.5"/>
<path d="M55.5626,70.11289 L56.264847,69.89975 L56.625484,69.32272 L56.470196,69.28218 L55.887543,69.84397 L55.119198,69.80037 L54.66471,69.32777 L54.507088,68.391335 L56.572956,68.391335 L56.685844,68.27844 L56.372494,67.14185 L55.991734,66.839905 L55.545666,66.75445 L55.025074,66.86941 L54.625603,67.20392 L54.363537,67.76391 L54.28131,68.44778 L54.364273,69.13389 L54.625187,69.682 L55.024372,70.00276 L55.5626,70.11289" fill="none" id="outline-0" stroke="black" stroke-linecap="round" stroke-linejoin="round" stroke-width="0.5"/>
<path d="M57.842957,70.11289 L57.73007,70 L57.73687,66.82879 L57.949043,66.82879 L57.955845,67.364044 L58.528587,66.88391 L58.9991,66.761246 L59.032993,66.95375 L58.519333,67.15566 L57.955845,67.69707 L57.955845,70 L57.842957,70.11289" fill="none" id="outline-0" stroke="black" stroke-linecap="round" stroke-linejoin="round" stroke-width="0.5"/>
</svg>